<svg width="120" height="124" viewBox="0 0 120 124" fill="none" xmlns="http://www.w3.org/2000/svg">
<g clip-path="url(#clip0_484_872)">
<path d="M113.704 37.2621H5.96191V102.861H113.704V37.2621Z" stroke="#111111" stroke-width="1.8" stroke-miterlimit="10" stroke-linecap="round" stroke-linejoin="round"/>
<path d="M7.26057 102.852H1.77658C-0.308543 102.852 -1.99805 104.541 -1.99805 106.626V115.225C-1.99805 117.311 -0.308543 119 1.77658 119H117.889C119.974 119 121.663 117.311 121.663 115.225V110.926" stroke="#111111" stroke-width="1.8" stroke-miterlimit="10" stroke-linecap="round" stroke-linejoin="round"/>
<path d="M112.403 37.2656H117.887C119.972 37.2656 121.661 35.5761 121.661 33.491V24.8917C121.661 22.8066 119.972 21.1171 117.887 21.1171H1.77462C-0.310496 21.1171 -2 22.8066 -2 24.8917V29.1914" stroke="#111111" stroke-width="1.8" stroke-miterlimit="10" stroke-linecap="round" stroke-linejoin="round"/>
<path d="M53.2889 46.439H22.2411C20.1809 46.439 18.5088 48.1111 18.5088 50.1713V89.388C18.5088 91.4482 20.1809 93.1203 22.2411 93.1203H40.8205" stroke="#111111" stroke-width="1.8" stroke-miterlimit="10" stroke-linecap="round" stroke-linejoin="round"/>
<path d="M66.3721 93.1205H97.4199C99.4801 93.1205 101.152 91.4485 101.152 89.3882V50.1716C101.152 48.1113 99.4801 46.4393 97.4199 46.4393H78.8405" stroke="#111111" stroke-width="1.8" stroke-miterlimit="10" stroke-linecap="round" stroke-linejoin="round"/>
<path d="M18.4727 14.8506V11.29H32.3096V14.8506" stroke="#FFBA00" stroke-width="1.8" stroke-miterlimit="10" stroke-linecap="round" stroke-linejoin="round"/>
<path d="M22.9893 5H27.786" stroke="#111111" stroke-width="1.8" stroke-miterlimit="10" stroke-linecap="round" stroke-linejoin="round"/>
<path d="M87.3467 14.8506V11.29H101.184V14.8506" stroke="#FFBA00" stroke-width="1.8" stroke-miterlimit="10" stroke-linecap="round" stroke-linejoin="round"/>
<path d="M91.8682 5H96.6649" stroke="#111111" stroke-width="1.8" stroke-miterlimit="10" stroke-linecap="round" stroke-linejoin="round"/>
<path d="M67.7314 42.888L43.0732 74.538H56.3503L48.7638 97.3001L76.5844 65.0529H62.0409L67.7314 42.888Z" stroke="#FFBA00" stroke-width="1.8" stroke-miterlimit="10" stroke-linecap="round" stroke-linejoin="round"/>
<path d="M26.6025 58.8774H34.7838" stroke="#111111" stroke-width="1.8" stroke-miterlimit="10" stroke-linecap="round" stroke-linejoin="round"/>
<path d="M84.8809 58.8774H93.0621" stroke="#111111" stroke-width="1.8" stroke-miterlimit="10" stroke-linecap="round" stroke-linejoin="round"/>
<path d="M30.6924 54.7899V62.9712" stroke="#111111" stroke-width="1.8" stroke-miterlimit="10" stroke-linecap="round" stroke-linejoin="round"/>
</g>
<defs>
<clipPath id="clip0_484_872">
<rect width="120" height="124" fill="white"/>
</clipPath>
</defs>
</svg>
