<svg width="300" height="100" viewBox="0 0 300 100" fill="none" xmlns="http://www.w3.org/2000/svg">
<mask id="mask0_199_13081" style="mask-type:alpha" maskUnits="userSpaceOnUse" x="0" y="0" width="300" height="100">
<rect width="300" height="100" fill="#D9D9D9"/>
</mask>
<g mask="url(#mask0_199_13081)">
<path fill-rule="evenodd" clip-rule="evenodd" d="M76.9578 39.2298L263.542 81.8009L286.185 82.7068C287.242 82.6364 287.946 81.4423 287.092 80.8949L75.7414 31.3112C74.9624 35.7651 75.4426 38.3025 76.9578 39.2298Z" stroke="#111111" stroke-width="1.6" stroke-miterlimit="79.8403" stroke-linecap="round" stroke-linejoin="round"/>
<path d="M95.9727 44.6627L96.8796 49.1913L242.714 81.7993L250.866 79.0815" stroke="#111111" stroke-width="1.6" stroke-miterlimit="79.8403" stroke-linecap="round" stroke-linejoin="round"/>
<path d="M47.0703 65.4949H169.237" stroke="#111111" stroke-width="1.6" stroke-miterlimit="79.8403" stroke-linecap="round" stroke-linejoin="round"/>
<path d="M102.311 51.0032L95.0654 65.4949" stroke="#111111" stroke-width="1.6" stroke-miterlimit="79.8403" stroke-linecap="round" stroke-linejoin="round"/>
<path d="M106.398 51.9092L99.6006 65.4949" stroke="#111111" stroke-width="1.6" stroke-miterlimit="79.8403" stroke-linecap="round" stroke-linejoin="round"/>
<path fill-rule="evenodd" clip-rule="evenodd" d="M149.111 68.0733C157.509 68.0733 164.338 74.8961 164.338 83.3023C164.338 91.7085 157.509 98.5312 149.111 98.5312C140.703 98.5312 133.874 91.7085 133.874 83.3023C133.874 74.8961 140.703 68.0733 149.111 68.0733Z" stroke="#111111" stroke-width="1.6" stroke-miterlimit="79.8403" stroke-linecap="round" stroke-linejoin="round"/>
<path fill-rule="evenodd" clip-rule="evenodd" d="M149.112 75.3821C153.476 75.3821 157.029 78.9289 157.029 83.3006C157.029 87.6724 153.476 91.2192 149.112 91.2192C144.737 91.2192 141.184 87.6724 141.184 83.3006C141.184 78.9289 144.737 75.3821 149.112 75.3821Z" stroke="#111111" stroke-width="1.6" stroke-miterlimit="79.8403" stroke-linecap="round" stroke-linejoin="round"/>
<path d="M162.632 75.1365H175.436V67.1336" stroke="#111111" stroke-width="1.6" stroke-miterlimit="79.8403" stroke-linecap="round" stroke-linejoin="round"/>
<path d="M172.235 75.9354V85.5388H169.834C169.12 81.3634 167.935 77.7227 165.833 75.1351" stroke="#111111" stroke-width="1.6" stroke-miterlimit="79.8403" stroke-linecap="round" stroke-linejoin="round"/>
<path d="M136.222 75.1365H109.012" stroke="#111111" stroke-width="1.6" stroke-miterlimit="79.8403" stroke-linecap="round" stroke-linejoin="round"/>
<path d="M109.012 66.3314V83.9377H46.5898" stroke="#111111" stroke-width="1.6" stroke-miterlimit="79.8403" stroke-linecap="round" stroke-linejoin="round"/>
<path d="M56.1933 65.5315L55.393 11.9122C55.1262 9.30218 54.3366 7.09552 50.5912 7.11046H38.5869" stroke="#111111" stroke-width="1.6" stroke-miterlimit="79.8403" stroke-linecap="round" stroke-linejoin="round"/>
<path fill-rule="evenodd" clip-rule="evenodd" d="M78.6016 70.4307V79.0407C78.6016 79.9765 79.3591 80.7373 80.2981 80.7373H104.115C105.054 80.7373 105.811 79.9765 105.811 79.0407V70.4307C105.811 69.4949 105.054 68.7341 104.115 68.7341H80.2981C79.3591 68.7341 78.6016 69.4949 78.6016 70.4307Z" stroke="#111111" stroke-width="1.6" stroke-miterlimit="79.8403" stroke-linecap="round" stroke-linejoin="round"/>
<path fill-rule="evenodd" clip-rule="evenodd" d="M47.3896 70.4307V79.0407C47.3896 79.9765 48.1473 80.7373 49.0863 80.7373H72.9029C73.8419 80.7373 74.5994 79.9765 74.5994 79.0407V70.4307C74.5994 69.4949 73.8419 68.7341 72.9029 68.7341H49.0863C48.1473 68.7341 47.3896 69.4949 47.3896 70.4307Z" stroke="#111111" stroke-width="1.6" stroke-miterlimit="79.8403" stroke-linecap="round" stroke-linejoin="round"/>
<path d="M92.2061 80.7373V77.5362" stroke="#111111" stroke-width="1.6" stroke-miterlimit="79.8403" stroke-linecap="round" stroke-linejoin="round"/>
<path d="M60.9951 80.7373V77.5362" stroke="#111111" stroke-width="1.6" stroke-miterlimit="79.8403" stroke-linecap="round" stroke-linejoin="round"/>
<path fill-rule="evenodd" clip-rule="evenodd" d="M153.977 22.2322C160.721 22.2322 166.206 27.7094 166.206 34.4585C166.206 41.2086 160.721 46.6858 153.977 46.6858C147.223 46.6858 141.749 41.2086 141.749 34.4585C141.749 27.7094 147.223 22.2322 153.977 22.2322Z" stroke="#FFBA00" stroke-width="1.6" stroke-miterlimit="79.8403" stroke-linecap="round" stroke-linejoin="round"/>
<path fill-rule="evenodd" clip-rule="evenodd" d="M153.978 28.1004C157.488 28.1004 160.337 30.9483 160.337 34.4579C160.337 37.9684 157.488 40.8164 153.978 40.8164C150.467 40.8164 147.618 37.9684 147.618 34.4579C147.618 30.9483 150.467 28.1004 153.978 28.1004Z" stroke="#FFBA00" stroke-width="1.6" stroke-miterlimit="79.8403" stroke-linecap="round" stroke-linejoin="round"/>
<path fill-rule="evenodd" clip-rule="evenodd" d="M242.746 43.0624C249.49 43.0624 254.974 48.5407 254.974 55.2898C254.974 62.0389 249.49 67.5171 242.746 67.5171C235.992 67.5171 230.518 62.0389 230.518 55.2898C230.518 48.5407 235.992 43.0624 242.746 43.0624Z" stroke="#FFBA00" stroke-width="1.6" stroke-miterlimit="79.8403" stroke-linecap="round" stroke-linejoin="round"/>
<path fill-rule="evenodd" clip-rule="evenodd" d="M242.745 48.9325C246.256 48.9325 249.105 51.7816 249.105 55.2911C249.105 58.8006 246.256 61.6497 242.745 61.6497C239.235 61.6497 236.386 58.8006 236.386 55.2911C236.386 51.7816 239.235 48.9325 242.745 48.9325Z" stroke="#FFBA00" stroke-width="1.6" stroke-miterlimit="79.8403" stroke-linecap="round" stroke-linejoin="round"/>
<path fill-rule="evenodd" clip-rule="evenodd" d="M168.917 42.1573L225.961 55.4933C227.455 44.8473 235.362 37.49 246.844 39.5078C256.82 41.9278 260.118 51.4022 259.029 59.5096L265.837 61.1785C268.761 61.4623 270.82 59.8308 272.175 56.6489L273.989 48.4977L272.175 45.7799L273.989 36.7228L269.465 22.2312C268.558 19.5134 266.413 17.3473 264.023 16.7956L200.619 2.30398C196.073 1.30628 192.648 2.17699 189.756 3.20883L171.638 10.4552L139.936 9.54926C130.471 9.63356 127.889 15.434 125.445 20.4193C122.521 28.4243 126.128 32.4012 130.876 34.9109L137.215 36.7228L139.029 28.5705C140.843 23.1371 147.373 16.6899 157.147 18.6074C166.078 20.479 171.275 29.2331 169.824 37.6287L168.917 42.1573Z" stroke="#FFBA00" stroke-width="1.6" stroke-miterlimit="79.8403" stroke-linecap="round" stroke-linejoin="round"/>
<path d="M272.09 45.8701L261.654 43.3711" stroke="#FFBA00" stroke-width="1.6" stroke-miterlimit="79.8403" stroke-linecap="round" stroke-linejoin="round"/>
<path d="M174.06 31.2866L225.737 42.8833" stroke="#FFBA00" stroke-width="1.6" stroke-miterlimit="79.8403" stroke-linecap="round" stroke-linejoin="round"/>
<path d="M223.091 49.5671C226.815 40.9731 233.174 34.3968 245.851 35.3028C256.628 36.6793 261.963 43.1061 263.18 52.8525" stroke="#FFBA00" stroke-width="1.6" stroke-miterlimit="79.8403" stroke-linecap="round" stroke-linejoin="round"/>
<path d="M163.261 16.0208C171.2 19.7971 174.379 27.4468 174.219 36.9446" stroke="#FFBA00" stroke-width="1.6" stroke-miterlimit="79.8403" stroke-linecap="round" stroke-linejoin="round"/>
<path d="M171.562 10.4522L177.922 11.3037L193.448 4.87262" stroke="#FFBA00" stroke-width="1.6" stroke-miterlimit="79.8403" stroke-linecap="round" stroke-linejoin="round"/>
<path d="M128.166 15.8892L147.181 19.5129" stroke="#FFBA00" stroke-width="1.6" stroke-miterlimit="79.8403" stroke-linecap="round" stroke-linejoin="round"/>
<path d="M142.944 18.5325C143.766 14.7807 143.563 12.7928 141.835 12.0395L134.504 10.5243" stroke="#FFBA00" stroke-width="1.6" stroke-miterlimit="79.8403" stroke-linecap="round" stroke-linejoin="round"/>
<path d="M140.917 24.583L131.058 22.626" stroke="#FFBA00" stroke-width="1.6" stroke-miterlimit="79.8403" stroke-linecap="round" stroke-linejoin="round"/>
<path fill-rule="evenodd" clip-rule="evenodd" d="M211.535 23.1772L183.823 16.9265C185.968 16.6394 188.988 16.2468 190.887 14.9343C192.872 12.941 191.581 10.4238 188.166 10.6778L196.585 7.05411C198.687 6.24955 200.459 5.94652 203.03 6.52166L215.248 9.40909L211.535 23.1772Z" stroke="#FFBA00" stroke-width="1.6" stroke-miterlimit="79.8403" stroke-linecap="round" stroke-linejoin="round"/>
<path fill-rule="evenodd" clip-rule="evenodd" d="M220.391 10.7943L216.923 24.2925L240.409 29.8625C243.023 30.4099 244.335 29.3844 243.845 27.4435C243.012 24.2658 242.073 21.1617 240.899 17.7312C240.366 16.1829 239.32 15.4626 237.389 14.7829L220.391 10.7943Z" stroke="#FFBA00" stroke-width="1.6" stroke-miterlimit="79.8403" stroke-linecap="round" stroke-linejoin="round"/>
<path d="M246.95 17.019L250.674 26.7761C251.218 28.5143 252.926 30.2451 255.284 30.6954L268.238 33.7749" stroke="#FFBA00" stroke-width="1.6" stroke-miterlimit="79.8403" stroke-linecap="round" stroke-linejoin="round"/>
<path d="M210.564 27.3906L204.481 25.9789" stroke="#FFBA00" stroke-width="1.6" stroke-miterlimit="79.8403" stroke-linecap="round" stroke-linejoin="round"/>
<path d="M234.679 33.4697L228.597 32.058" stroke="#FFBA00" stroke-width="1.6" stroke-miterlimit="79.8403" stroke-linecap="round" stroke-linejoin="round"/>
<path d="M165.032 41.2014L169.514 42.3218" stroke="#FFBA00" stroke-width="1.6" stroke-miterlimit="79.8403" stroke-linecap="round" stroke-linejoin="round"/>
<path d="M137.822 34.002L141.023 34.8022" stroke="#FFBA00" stroke-width="1.6" stroke-miterlimit="79.8403" stroke-linecap="round" stroke-linejoin="round"/>
<path d="M225.822 55.4084L230.304 56.5288" stroke="#FFBA00" stroke-width="1.6" stroke-miterlimit="79.8403" stroke-linecap="round" stroke-linejoin="round"/>
<path d="M254.633 58.4174L259.115 59.5378" stroke="#FFBA00" stroke-width="1.6" stroke-miterlimit="79.8403" stroke-linecap="round" stroke-linejoin="round"/>
</g>
</svg>
