<svg width="300" height="100" viewBox="0 0 300 100" fill="none" xmlns="http://www.w3.org/2000/svg">
<mask id="mask0_230_15204" style="mask-type:alpha" maskUnits="userSpaceOnUse" x="0" y="0" width="300" height="100">
<rect width="300" height="100" fill="#D9D9D9"/>
</mask>
<g mask="url(#mask0_230_15204)">
<path d="M171.342 47.8649C166.26 59.4207 154.709 67.4966 141.281 67.4966C129.341 67.4966 118.882 61.1097 113.141 51.5679" stroke="#1971D4" stroke-width="1.6" stroke-miterlimit="79.8403" stroke-linecap="round" stroke-linejoin="round"/>
<path d="M114.524 15.6747C120.474 7.31341 130.244 1.85693 141.281 1.85693C153.222 1.85693 163.68 8.24383 169.423 17.7856" stroke="#1971D4" stroke-width="1.6" stroke-miterlimit="79.8403" stroke-linecap="round" stroke-linejoin="round"/>
<path d="M163.161 15.9213L169.413 18.2656L170.194 12.0142" stroke="#1971D4" stroke-width="1.6" stroke-miterlimit="79.8403" stroke-linecap="round" stroke-linejoin="round"/>
<path d="M120.183 54.2123L113.15 51.0866L112.368 58.9009" stroke="#1971D4" stroke-width="1.6" stroke-miterlimit="79.8403" stroke-linecap="round" stroke-linejoin="round"/>
<path d="M142.844 24.5178V22.1735L146.751 19.8292V17.4849H134.248V19.8292L138.156 22.1735V24.5178" stroke="#1971D4" stroke-width="1.6" stroke-miterlimit="79.8403" stroke-linecap="round" stroke-linejoin="round"/>
<path fill-rule="evenodd" clip-rule="evenodd" d="M156.91 25.2992L161.599 27.6435C163.126 28.5405 163.943 28.4249 166.287 27.6435L192.856 18.2663L198.326 21.392L196.763 23.7363L192.075 21.392L158.473 49.5236C157.336 50.5113 156.022 50.9989 154.566 51.0864H125.653C121.746 51.0864 120.968 49.4548 119.401 47.1793L104.724 29.2292C103.797 28.254 102.916 26.4942 104.554 24.5177L108.582 20.0959C109.754 18.9727 111.512 18.533 113.15 19.8291L121.746 25.2992H156.91Z" stroke="#1971D4" stroke-width="1.6" stroke-miterlimit="79.8403"/>
<path d="M120.183 28.4249V42.4907" stroke="#1971D4" stroke-width="1.6" stroke-miterlimit="79.8403" stroke-linecap="round" stroke-linejoin="round"/>
<path d="M199.889 51.8673L231.927 30.7686C233.353 29.8403 236.47 30.033 238.179 31.5501C238.96 32.3315 238.96 33.8944 236.616 33.8944H234.272L205.359 53.4302" stroke="#1D252C" stroke-width="1.6" stroke-miterlimit="79.8403" stroke-linecap="round" stroke-linejoin="round"/>
<path d="M174.578 40.3675L199.107 51.867L205.359 53.4299L236.616 60.4628C241.305 61.2442 243.649 64.37 243.649 70.6214L245.993 73.7471V86.2501C246.084 88.288 244.968 89.5425 242.868 90.1572H232.709C230.365 90.1572 229.583 89.3758 229.583 87.0315V83.9058" stroke="#1D252C" stroke-width="1.6" stroke-miterlimit="79.8403" stroke-linecap="round" stroke-linejoin="round"/>
<path fill-rule="evenodd" clip-rule="evenodd" d="M210.829 69.0606C219.023 69.0606 225.676 75.7121 225.676 83.9068C225.676 92.1014 219.023 98.7529 210.829 98.7529C202.634 98.7529 195.981 92.1014 195.981 83.9068C195.981 75.7121 202.634 69.0606 210.829 69.0606Z" stroke="#1D252C" stroke-width="1.6" stroke-miterlimit="79.8403"/>
<path fill-rule="evenodd" clip-rule="evenodd" d="M210.829 76.0481C215.167 76.0481 218.689 79.5687 218.689 83.9072C218.689 88.2457 215.167 91.7664 210.829 91.7664C206.49 91.7664 202.969 88.2457 202.969 83.9072C202.969 79.5687 206.49 76.0481 210.829 76.0481Z" stroke="#1D252C" stroke-width="1.6" stroke-miterlimit="79.8403"/>
<path fill-rule="evenodd" clip-rule="evenodd" d="M93.6139 69.0606C101.809 69.0606 108.461 75.7121 108.461 83.9068C108.461 92.1014 101.809 98.7529 93.6139 98.7529C85.4193 98.7529 78.7667 92.1014 78.7667 83.9068C78.7667 75.7121 85.4193 69.0606 93.6139 69.0606Z" stroke="#1D252C" stroke-width="1.6" stroke-miterlimit="79.8403"/>
<path fill-rule="evenodd" clip-rule="evenodd" d="M93.614 76.0481C97.9525 76.0481 101.474 79.5687 101.474 83.9072C101.474 88.2457 97.9525 91.7664 93.614 91.7664C89.2754 91.7664 85.7538 88.2457 85.7538 83.9072C85.7538 79.5687 89.2754 76.0481 93.614 76.0481Z" stroke="#1D252C" stroke-width="1.6" stroke-miterlimit="79.8403"/>
<path d="M243.649 70.6216L237.398 69.8401C236.58 69.4348 235.744 69.1535 235.168 67.0635L233.605 62.453" stroke="#1D252C" stroke-width="1.6" stroke-miterlimit="79.8403" stroke-linecap="round" stroke-linejoin="round"/>
<path fill-rule="evenodd" clip-rule="evenodd" d="M200.67 27.6437C197.545 31.5508 196.132 33.7389 195.982 36.2394C195.823 38.864 197.302 41.5469 200.67 41.7095C204.039 41.5469 205.517 38.864 205.359 36.2394C205.209 33.7389 203.796 31.5508 200.67 27.6437Z" stroke="#1971D4" stroke-width="1.6" stroke-miterlimit="79.8403" stroke-linecap="round" stroke-linejoin="round"/>
<path d="M107.68 37.0206C98.9485 39.1482 90.4882 42.4906 81.111 46.3978C74.0781 48.7421 71.1295 49.2401 63.1381 50.3049C59.432 50.977 58.139 52.9451 58.4495 55.775V65.9336L56.1052 69.0593V75.3108L58.4495 83.9065C58.587 85.2391 59.3267 86.056 60.7938 86.2508L70.9524 87.8137C72.9685 87.9054 74.6897 87.5272 74.8595 84.688V83.9065" stroke="#1D252C" stroke-width="1.6" stroke-miterlimit="79.8403" stroke-linecap="round" stroke-linejoin="round"/>
<path d="M58.4494 65.9341H64.7009" stroke="#1D252C" stroke-width="1.6" stroke-miterlimit="79.8403" stroke-linecap="round" stroke-linejoin="round"/>
<path d="M58.4494 54.9928H65.4823C68.1631 55.2095 68.608 57.2944 67.0452 59.6814L64.7009 62.8071" stroke="#1D252C" stroke-width="1.6" stroke-miterlimit="79.8403" stroke-linecap="round" stroke-linejoin="round"/>
<path d="M81.111 53.43L110.024 54.2114" stroke="#1D252C" stroke-width="1.6" stroke-miterlimit="79.8403" stroke-linecap="round" stroke-linejoin="round"/>
<path d="M110.805 40.9276C108.763 41.7455 106.898 44.0534 106.117 47.9605L105.335 51.8677" stroke="#1D252C" stroke-width="1.6" stroke-miterlimit="79.8403" stroke-linecap="round" stroke-linejoin="round"/>
<path d="M99.8655 51.0864L102.21 43.2721C95.1769 45.6164 90.4883 47.1793 90.4883 50.305" stroke="#1D252C" stroke-width="1.6" stroke-miterlimit="79.8403" stroke-linecap="round" stroke-linejoin="round"/>
<path d="M74.8595 83.9072C74.8595 73.5559 83.2625 65.1549 93.6139 65.1549C103.965 65.1549 112.368 73.5559 112.368 83.9072" stroke="#1D252C" stroke-width="1.6" stroke-miterlimit="79.8403" stroke-linecap="round" stroke-linejoin="round"/>
<path d="M112.368 83.9061V86.2504C112.513 87.7914 113.731 88.4239 115.494 88.5947H188.949C190.512 88.5947 192.075 87.8133 192.075 85.469V83.9061" stroke="#1D252C" stroke-width="1.6" stroke-miterlimit="79.8403" stroke-linecap="round" stroke-linejoin="round"/>
<path d="M192.074 83.9072C192.074 73.5559 200.477 65.1549 210.829 65.1549C221.18 65.1549 229.583 73.5559 229.583 83.9072" stroke="#1D252C" stroke-width="1.6" stroke-miterlimit="79.8403" stroke-linecap="round" stroke-linejoin="round"/>
<path d="M103.773 56.5571V60.4643C103.879 61.8385 104.407 62.8742 105.335 63.59C111.087 67.2992 115.874 72.6838 119.149 80.6856C120.183 82.3444 120.183 83.9072 122.527 83.9072H183.479C185.042 83.9072 186.604 83.1258 186.604 80.7815C186.604 72.9672 187.15 67.2627 185.042 58.12L184.26 56.5571C180.724 57.8845 176.446 58.12 176.446 53.4314C176.446 50.3056 177.075 49.048 178.79 48.7428C180.353 48.7428 182.691 50.3067 185.042 52.6499" stroke="#1D252C" stroke-width="1.6" stroke-miterlimit="79.8403" stroke-linecap="round" stroke-linejoin="round"/>
<path d="M177.227 56.5552L170.194 55.7737" stroke="#1D252C" stroke-width="1.6" stroke-miterlimit="79.8403" stroke-linecap="round" stroke-linejoin="round"/>
<path d="M176.679 50.7874C176.742 49.1307 177.003 47.349 174.102 45.6153L170.687 43.9066" stroke="#1D252C" stroke-width="1.6" stroke-miterlimit="79.8403" stroke-linecap="round" stroke-linejoin="round"/>
<path d="M189.235 58.2097L213.656 60.4634" stroke="#1D252C" stroke-width="1.6" stroke-miterlimit="79.8403" stroke-linecap="round" stroke-linejoin="round"/>
<path d="M150.659 87.8135V69.8405" stroke="#1D252C" stroke-width="1.6" stroke-miterlimit="79.8403" stroke-linecap="round" stroke-linejoin="round"/>
</g>
</svg>
