<svg width="120" height="124" viewBox="0 0 120 124" fill="none" xmlns="http://www.w3.org/2000/svg">
<path d="M32.5371 54.5631L33.4842 53.6067C41.8485 45.1488 53.0727 38.8141 65.1668 37.1492" stroke="#1D252C" stroke-width="1.8" stroke-miterlimit="10" stroke-linecap="round" stroke-linejoin="round"/>
<path d="M11.8066 115.761C11.2851 104.501 11.2337 92.8797 14.6898 82.2798C17.1054 74.8672 20.1803 67.7398 23.7697 60.9468L26.5921 55.606C27.6327 53.637 29.8986 53.0174 31.5939 54.238L39.369 59.8431" stroke="#1D252C" stroke-width="1.8" stroke-miterlimit="10" stroke-linecap="round" stroke-linejoin="round"/>
<path d="M53.9587 48.4221L57.1997 52.0606L47.3808 77.4063" stroke="#1971D4" stroke-width="1.8" stroke-miterlimit="10" stroke-linecap="round" stroke-linejoin="round"/>
<path d="M12.1826 114.06C12.1826 114.06 32.2623 39.2884 113.299 11.132" stroke="#1D252C" stroke-width="1.8" stroke-miterlimit="10" stroke-linecap="round" stroke-linejoin="round"/>
<path d="M10.6266 117.612C9.55562 116.284 9.63278 114.215 10.7996 113.01L109.484 11.16C111.944 8.62056 115.804 8.83569 118.063 11.6347C118.278 11.9013 118.264 12.2825 118.031 12.5256L15.9277 117.905C14.4077 119.474 12.0226 119.34 10.6266 117.612Z" fill="#1971D4"/>
<path d="M49.0332 94.4529H109.737L93.5886 118.026L91.2362 108.464H37.526" stroke="#1D252C" stroke-width="1.8" stroke-miterlimit="10" stroke-linecap="round" stroke-linejoin="round"/>
<path d="M91.8439 93.3454V50.3754" stroke="#1D252C" stroke-width="1.8" stroke-miterlimit="10" stroke-linecap="round" stroke-linejoin="round"/>
<path d="M104.64 93.8889V39.0072" stroke="#1D252C" stroke-width="1.8" stroke-miterlimit="10" stroke-linecap="round" stroke-linejoin="round"/>
<path d="M55.7733 28.5732H2L18.1465 5L20.5012 14.5616H67.2805" stroke="#1D252C" stroke-width="1.8" stroke-miterlimit="10" stroke-linecap="round" stroke-linejoin="round"/>
<path d="M18.954 29.4244V48.3887" stroke="#1D252C" stroke-width="1.8" stroke-miterlimit="10" stroke-linecap="round" stroke-linejoin="round"/>
<path d="M6.62131 30.6073V77.0872" stroke="#1D252C" stroke-width="1.8" stroke-miterlimit="10" stroke-linecap="round" stroke-linejoin="round"/>
</svg>
