<svg width="300" height="100" viewBox="0 0 300 100" fill="none" xmlns="http://www.w3.org/2000/svg">
<mask id="mask0_230_15364" style="mask-type:alpha" maskUnits="userSpaceOnUse" x="0" y="0" width="300" height="100">
<rect width="300" height="100" fill="#D9D9D9"/>
</mask>
<g mask="url(#mask0_230_15364)">
<path d="M104.497 8.39561L95.3946 8.39674C90.1991 8.39674 85.981 12.6149 85.981 17.8104V89.0341C85.981 94.2296 90.1991 98.4478 95.3946 98.4478H201.968C207.164 98.4478 211.382 94.2296 211.382 89.0341V17.8104C211.382 12.6149 207.164 8.39674 201.968 8.39674L195.391 8.39561" stroke="#1D252C" stroke-width="1.6" stroke-miterlimit="79.8403" stroke-linecap="round" stroke-linejoin="round"/>
<path d="M190.342 8.39648H181.925" stroke="#1D252C" stroke-width="1.6" stroke-miterlimit="79.8403" stroke-linecap="round" stroke-linejoin="round"/>
<path d="M176.876 8.39648H168.473" stroke="#1D252C" stroke-width="1.6" stroke-miterlimit="79.8403" stroke-linecap="round" stroke-linejoin="round"/>
<path d="M163.424 8.39648H136.479" stroke="#1D252C" stroke-width="1.6" stroke-miterlimit="79.8403" stroke-linecap="round" stroke-linejoin="round"/>
<path d="M131.429 8.39648H123.013" stroke="#1D252C" stroke-width="1.6" stroke-miterlimit="79.8403" stroke-linecap="round" stroke-linejoin="round"/>
<path d="M117.963 8.39648H109.547" stroke="#1D252C" stroke-width="1.6" stroke-miterlimit="79.8403" stroke-linecap="round" stroke-linejoin="round"/>
<path fill-rule="evenodd" clip-rule="evenodd" d="M104.496 3.3477V13.4459C104.496 14.8396 105.627 15.9707 107.021 15.9707H107.022C108.416 15.9707 109.547 14.8396 109.547 13.4459V3.3477C109.547 1.954 108.416 0.822877 107.022 0.822877H107.021C105.627 0.822877 104.496 1.954 104.496 3.3477Z" stroke="#1971D4" stroke-width="1.6" stroke-miterlimit="79.8403"/>
<path fill-rule="evenodd" clip-rule="evenodd" d="M117.962 3.3477V13.4459C117.962 14.8396 119.093 15.9707 120.487 15.9707H120.488C121.882 15.9707 123.013 14.8396 123.013 13.4459V3.3477C123.013 1.954 121.882 0.822877 120.488 0.822877H120.487C119.093 0.822877 117.962 1.954 117.962 3.3477Z" stroke="#1971D4" stroke-width="1.6" stroke-miterlimit="79.8403"/>
<path fill-rule="evenodd" clip-rule="evenodd" d="M131.428 3.3477V13.4459C131.428 14.8396 132.559 15.9707 133.953 15.9707H133.954C135.347 15.9707 136.479 14.8396 136.479 13.4459V3.3477C136.479 1.954 135.347 0.822877 133.954 0.822877H133.953C132.559 0.822877 131.428 1.954 131.428 3.3477Z" stroke="#1971D4" stroke-width="1.6" stroke-miterlimit="79.8403"/>
<path fill-rule="evenodd" clip-rule="evenodd" d="M163.409 3.3477V13.4459C163.409 14.8396 164.54 15.9707 165.934 15.9707H165.935C167.329 15.9707 168.46 14.8396 168.46 13.4459V3.3477C168.46 1.954 167.329 0.822877 165.935 0.822877H165.934C164.54 0.822877 163.409 1.954 163.409 3.3477Z" stroke="#1971D4" stroke-width="1.6" stroke-miterlimit="79.8403"/>
<path fill-rule="evenodd" clip-rule="evenodd" d="M176.875 3.3477V13.4459C176.875 14.8396 178.006 15.9707 179.4 15.9707H179.401C180.794 15.9707 181.926 14.8396 181.926 13.4459V3.3477C181.926 1.954 180.794 0.822877 179.401 0.822877H179.4C178.006 0.822877 176.875 1.954 176.875 3.3477Z" stroke="#1971D4" stroke-width="1.6" stroke-miterlimit="79.8403"/>
<path fill-rule="evenodd" clip-rule="evenodd" d="M190.34 3.3477V13.4459C190.34 14.8396 191.472 15.9707 192.865 15.9707H192.866C194.26 15.9707 195.391 14.8396 195.391 13.4459V3.3477C195.391 1.954 194.26 0.822877 192.866 0.822877H192.865C191.472 0.822877 190.34 1.954 190.34 3.3477Z" stroke="#1971D4" stroke-width="1.6" stroke-miterlimit="79.8403"/>
<path fill-rule="evenodd" clip-rule="evenodd" d="M133.111 26.0686C133.111 27.9258 134.619 29.4351 136.476 29.4351H163.411C165.268 29.4351 166.777 27.9269 166.777 26.0697C166.777 24.2126 165.268 22.7033 163.411 22.7033H136.476C134.619 22.7033 133.111 24.2115 133.111 26.0686Z" stroke="#1D252C" stroke-width="1.6" stroke-miterlimit="79.8403"/>
<path fill-rule="evenodd" clip-rule="evenodd" d="M114.596 45.4273C114.596 48.2147 116.858 50.478 119.645 50.478H119.646C122.434 50.478 124.696 48.2158 124.696 45.4284C124.696 42.641 122.434 40.3776 119.646 40.3776H119.645C116.858 40.3776 114.596 42.6398 114.596 45.4273Z" stroke="#1D252C" stroke-width="1.6" stroke-miterlimit="79.8403"/>
<path fill-rule="evenodd" clip-rule="evenodd" d="M129.745 45.4273C129.745 48.2147 132.007 50.478 134.794 50.478H134.796C137.583 50.478 139.845 48.2158 139.845 45.4284C139.845 42.641 137.583 40.3776 134.796 40.3776H134.794C132.007 40.3776 129.745 42.6398 129.745 45.4273Z" stroke="#1D252C" stroke-width="1.6" stroke-miterlimit="79.8403"/>
<path fill-rule="evenodd" clip-rule="evenodd" d="M144.894 45.4273C144.894 48.2147 147.156 50.478 149.943 50.478H149.944C152.732 50.478 154.994 48.2158 154.994 45.4284C154.994 42.641 152.732 40.3776 149.944 40.3776H149.943C147.156 40.3776 144.894 42.6398 144.894 45.4273Z" stroke="#1D252C" stroke-width="1.6" stroke-miterlimit="79.8403"/>
<path fill-rule="evenodd" clip-rule="evenodd" d="M160.043 45.4273C160.043 48.2147 162.305 50.478 165.092 50.478H165.093C167.881 50.478 170.143 48.2158 170.143 45.4284C170.143 42.641 167.881 40.3776 165.093 40.3776H165.092C162.305 40.3776 160.043 42.6398 160.043 45.4273Z" stroke="#1D252C" stroke-width="1.6" stroke-miterlimit="79.8403"/>
<path fill-rule="evenodd" clip-rule="evenodd" d="M175.192 45.4273C175.192 48.2147 177.454 50.478 180.241 50.478H180.242C183.03 50.478 185.292 48.2158 185.292 45.4284C185.292 42.641 183.03 40.3776 180.242 40.3776H180.241C177.454 40.3776 175.192 42.6398 175.192 45.4273Z" stroke="#1971D4" stroke-width="1.6" stroke-miterlimit="79.8403"/>
<path fill-rule="evenodd" clip-rule="evenodd" d="M190.34 45.4273C190.34 48.2147 192.603 50.478 195.39 50.478H195.391C198.179 50.478 200.441 48.2158 200.441 45.4284C200.441 42.641 198.179 40.3776 195.391 40.3776H195.39C192.603 40.3776 190.34 42.6398 190.34 45.4273Z" stroke="#1971D4" stroke-width="1.6" stroke-miterlimit="79.8403"/>
<path fill-rule="evenodd" clip-rule="evenodd" d="M99.4466 60.5762C99.4466 63.3636 101.709 65.627 104.496 65.627H104.497C107.285 65.627 109.547 63.3647 109.547 60.5773C109.547 57.7899 107.285 55.5265 104.497 55.5265H104.496C101.709 55.5265 99.4466 57.7888 99.4466 60.5762Z" stroke="#1D252C" stroke-width="1.6" stroke-miterlimit="79.8403"/>
<path fill-rule="evenodd" clip-rule="evenodd" d="M114.596 60.5762C114.596 63.3636 116.858 65.627 119.645 65.627H119.646C122.434 65.627 124.696 63.3647 124.696 60.5773C124.696 57.7899 122.434 55.5265 119.646 55.5265H119.645C116.858 55.5265 114.596 57.7888 114.596 60.5762Z" stroke="#1D252C" stroke-width="1.6" stroke-miterlimit="79.8403"/>
<path fill-rule="evenodd" clip-rule="evenodd" d="M129.745 60.5762C129.745 63.3636 132.007 65.627 134.794 65.627H134.796C137.583 65.627 139.845 63.3647 139.845 60.5773C139.845 57.7899 137.583 55.5265 134.796 55.5265H134.794C132.007 55.5265 129.745 57.7888 129.745 60.5762Z" stroke="#1D252C" stroke-width="1.6" stroke-miterlimit="79.8403"/>
<path fill-rule="evenodd" clip-rule="evenodd" d="M144.894 60.5762C144.894 63.3636 147.156 65.627 149.943 65.627H149.944C152.732 65.627 154.994 63.3647 154.994 60.5773C154.994 57.7899 152.732 55.5265 149.944 55.5265H149.943C147.156 55.5265 144.894 57.7888 144.894 60.5762Z" stroke="#1D252C" stroke-width="1.6" stroke-miterlimit="79.8403"/>
<path fill-rule="evenodd" clip-rule="evenodd" d="M160.043 60.5762C160.043 63.3636 162.305 65.627 165.092 65.627H165.093C167.881 65.627 170.143 63.3647 170.143 60.5773C170.143 57.7899 167.881 55.5265 165.093 55.5265H165.092C162.305 55.5265 160.043 57.7888 160.043 60.5762Z" stroke="#1D252C" stroke-width="1.6" stroke-miterlimit="79.8403"/>
<path fill-rule="evenodd" clip-rule="evenodd" d="M175.192 60.5762C175.192 63.3636 177.454 65.627 180.241 65.627H180.242C183.03 65.627 185.292 63.3647 185.292 60.5773C185.292 57.7899 183.03 55.5265 180.242 55.5265H180.241C177.454 55.5265 175.192 57.7888 175.192 60.5762Z" stroke="#1971D4" stroke-width="1.6" stroke-miterlimit="79.8403"/>
<path fill-rule="evenodd" clip-rule="evenodd" d="M190.34 60.5762C190.34 63.3636 192.603 65.627 195.39 65.627H195.391C198.179 65.627 200.441 63.3647 200.441 60.5773C200.441 57.7899 198.179 55.5265 195.391 55.5265H195.39C192.603 55.5265 190.34 57.7888 190.34 60.5762Z" stroke="#1971D4" stroke-width="1.6" stroke-miterlimit="79.8403"/>
<path fill-rule="evenodd" clip-rule="evenodd" d="M99.4466 75.7251C99.4466 78.5125 101.709 80.7759 104.496 80.7759H104.497C107.285 80.7759 109.547 78.5136 109.547 75.7262C109.547 72.9388 107.285 70.6755 104.497 70.6755H104.496C101.709 70.6755 99.4466 72.9377 99.4466 75.7251Z" stroke="#1D252C" stroke-width="1.6" stroke-miterlimit="79.8403"/>
<path fill-rule="evenodd" clip-rule="evenodd" d="M114.596 75.7251C114.596 78.5125 116.858 80.7759 119.645 80.7759H119.646C122.434 80.7759 124.696 78.5136 124.696 75.7262C124.696 72.9388 122.434 70.6755 119.646 70.6755H119.645C116.858 70.6755 114.596 72.9377 114.596 75.7251Z" stroke="#1D252C" stroke-width="1.6" stroke-miterlimit="79.8403"/>
<path fill-rule="evenodd" clip-rule="evenodd" d="M129.745 75.7251C129.745 78.5125 132.007 80.7759 134.794 80.7759H134.796C137.583 80.7759 139.845 78.5136 139.845 75.7262C139.845 72.9388 137.583 70.6755 134.796 70.6755H134.794C132.007 70.6755 129.745 72.9377 129.745 75.7251Z" stroke="#1D252C" stroke-width="1.6" stroke-miterlimit="79.8403"/>
<path fill-rule="evenodd" clip-rule="evenodd" d="M144.894 75.7251C144.894 78.5125 147.156 80.7759 149.943 80.7759H149.944C152.732 80.7759 154.994 78.5136 154.994 75.7262C154.994 72.9388 152.732 70.6755 149.944 70.6755H149.943C147.156 70.6755 144.894 72.9377 144.894 75.7251Z" stroke="#1D252C" stroke-width="1.6" stroke-miterlimit="79.8403"/>
<path d="M81.3633 81.662L75.8412 78.731C75.7807 78.6995 75.7212 78.6692 75.6606 78.6389C72.9181 80.1404 69.941 81.2356 66.8226 81.8595C66.7968 81.9178 66.7721 81.9762 66.7485 82.0357L62.95 91.3899C60.3354 91.5324 57.6726 91.419 54.9884 91.0297L52.0316 81.3848C52.0114 81.3231 51.9923 81.2603 51.971 81.1985C48.8817 80.2963 46.0191 78.9408 43.4438 77.2194C43.3843 77.2419 43.3249 77.2666 43.2654 77.2912L33.9729 81.2165C31.9856 79.4334 30.1834 77.4596 28.5922 75.3286L33.3198 66.4221C33.3512 66.3627 33.3815 66.3032 33.4118 66.2437C31.9104 63.5012 30.8152 60.5241 30.1924 57.4068C30.134 57.381 30.0746 57.3563 30.0151 57.3316L20.662 53.5343C20.5195 50.9208 20.6328 48.2569 21.0222 45.5716L30.6648 42.6136C30.7277 42.5945 30.7916 42.5743 30.8545 42.553C31.7567 39.466 33.1111 36.6045 34.8313 34.0314C34.8078 33.9708 34.7831 33.9102 34.7584 33.8485L30.8343 24.5594C32.6173 22.571 34.5923 20.7688 36.7233 19.1787L45.6275 23.9029C45.687 23.9355 45.7476 23.9669 45.8082 23.9972C48.5496 22.4969 51.5255 21.4017 54.6417 20.7789C54.6675 20.7194 54.6933 20.6588 54.718 20.5982L58.5153 11.2485C61.1299 11.1049 63.7928 11.2182 66.4769 11.6076L69.4349 21.2468C69.454 21.3119 69.4742 21.3759 69.4955 21.4387C72.5825 22.3409 75.444 23.6953 78.0182 25.4156C78.0788 25.392 78.1394 25.3662 78.2011 25.3404L81.5911 23.9086" stroke="#1971D4" stroke-width="1.6" stroke-miterlimit="79.8403" stroke-linecap="round" stroke-linejoin="round"/>
<path fill-rule="evenodd" clip-rule="evenodd" d="M60.7338 43.7439C64.9149 43.7439 68.3083 47.1372 68.3083 51.3183C68.3083 55.4995 64.9149 58.8928 60.7338 58.8928C56.5527 58.8928 53.1593 55.4995 53.1593 51.3183C53.1593 47.1372 56.5527 43.7439 60.7338 43.7439Z" stroke="#1971D4" stroke-width="1.6" stroke-miterlimit="79.8403"/>
<path fill-rule="evenodd" clip-rule="evenodd" d="M60.7338 31.9608C71.4188 31.9608 80.0908 40.6327 80.0908 51.3178C80.0908 62.0029 71.4188 70.6748 60.7338 70.6748C50.0487 70.6748 41.3768 62.0029 41.3768 51.3178C41.3768 40.6327 50.0487 31.9608 60.7338 31.9608Z" stroke="#1971D4" stroke-width="1.6" stroke-miterlimit="79.8403"/>
<path fill-rule="evenodd" clip-rule="evenodd" d="M213.065 50.4767L207.174 63.1008C203.107 71.7391 200.47 80.4222 200.441 89.1907L207.174 82.4578L214.748 69.8337C225.023 49.285 235.16 28.8294 236.63 14.2875L234.105 13.4459C226.699 21.7352 219.777 35.0259 213.065 50.4767Z" fill="#F2F2F2"/>
<path d="M214.653 46.2513C219.606 35.7031 225.154 23.4785 230.841 16.6547L236.071 19.0942C234.499 27.8369 228.701 39.9448 223.805 50.5188" stroke="#1971D4" stroke-width="1.6" stroke-miterlimit="79.8403" stroke-linecap="round" stroke-linejoin="round"/>
<path d="M212.163 51.5913C207.267 62.1652 202.123 74.5784 200.551 83.321L204.473 85.1501C210.16 78.3264 216.362 66.4058 221.315 55.8588" stroke="#1971D4" stroke-width="1.6" stroke-miterlimit="79.8403" stroke-linecap="round" stroke-linejoin="round"/>
<path d="M212.163 51.5899L221.315 55.8574" stroke="#1971D4" stroke-width="1.6" stroke-miterlimit="79.8403" stroke-linecap="round" stroke-linejoin="round"/>
<path d="M214.653 46.2513L223.805 50.5188" stroke="#1971D4" stroke-width="1.6" stroke-miterlimit="79.8403" stroke-linecap="round" stroke-linejoin="round"/>
<path d="M223.805 50.5179L220.959 56.6201" stroke="#1971D4" stroke-width="1.6" stroke-miterlimit="79.8403" stroke-linecap="round" stroke-linejoin="round"/>
<path d="M214.653 46.2518L211.807 52.354" stroke="#1971D4" stroke-width="1.6" stroke-miterlimit="79.8403" stroke-linecap="round" stroke-linejoin="round"/>
<path d="M230.841 16.6542L233.927 13.4505L236.541 14.6703L236.071 19.0938" stroke="#1971D4" stroke-width="1.6" stroke-miterlimit="79.8403" stroke-linecap="round" stroke-linejoin="round"/>
<path d="M232.802 17.5703C227.729 25.4916 224.025 32.9774 220.113 41.3677" stroke="#1971D4" stroke-width="1.6" stroke-miterlimit="79.8403" stroke-linecap="round" stroke-linejoin="round"/>
<path d="M200.551 83.3196L199.724 88.505L201.031 89.1155L204.473 85.1487" stroke="#1971D4" stroke-width="1.6" stroke-miterlimit="79.8403" stroke-linecap="round" stroke-linejoin="round"/>
<path d="M200.378 88.8111L199.311 91.0991" stroke="#1971D4" stroke-width="1.6" stroke-miterlimit="79.8403" stroke-linecap="round" stroke-linejoin="round"/>
</g>
</svg>
