<svg width="320" height="104" viewBox="0 0 320 104" fill="none" xmlns="http://www.w3.org/2000/svg">
<path d="M300.545 80.8571L316.668 78.3812L316.665 75.4641C318.519 68.2058 317.996 61.6866 316.054 55.577L317.78 50.0926C318.553 48.0218 317.225 47.3053 314.66 47.3843C310.115 44.7402 305.569 42.367 301.024 40.2557C302.501 39.4499 303.049 38.757 303.035 38.0314C291.484 35.3411 280.742 33.8854 270.508 33.2072C251.637 31.9501 236.444 32.4613 226.772 35.6707C217.399 39.108 208.336 43.4921 199.49 48.5353C191.748 49.2496 184.088 50.3849 176.522 51.9885C169.464 53.6597 165.824 56.8036 163.514 59.4048L164.343 61.9438L162.684 70.4074L165.173 78.871L172.641 80.5637L179.279 83.1028" stroke="#1D252C" stroke-width="1.6998" stroke-miterlimit="79.8403" stroke-linecap="round" stroke-linejoin="round"/>
<path d="M314.567 47.3413L300.296 46.2411" stroke="#1D252C" stroke-width="1.6998" stroke-miterlimit="79.8403" stroke-linecap="round" stroke-linejoin="round"/>
<path d="M216.562 44.9602C226.028 39.8042 234.482 36.4188 247.264 36.0735" stroke="#1D252C" stroke-width="1.6998" stroke-miterlimit="79.8403" stroke-linecap="round" stroke-linejoin="round"/>
<path d="M214.15 48.084C214.602 46.617 215.32 45.7165 216.428 45.0247C219.272 45.1015 221.791 45.8496 221.409 48.4226C221.298 49.5996 220.843 50.0667 220.29 50.4538C219.447 51.1049 217.933 51.1118 216.597 51.0045" stroke="#1D252C" stroke-width="1.6998" stroke-miterlimit="79.8403" stroke-linecap="round" stroke-linejoin="round"/>
<path d="M220.767 50.0947L273.872 48.402L294.615 44.1702" stroke="#1D252C" stroke-width="1.6998" stroke-miterlimit="79.8403" stroke-linecap="round" stroke-linejoin="round"/>
<path d="M250.637 48.4021L252.297 36.5531C260.54 36.008 268.471 37.0192 276.359 38.2458" stroke="#1D252C" stroke-width="1.6998" stroke-miterlimit="79.8403" stroke-linecap="round" stroke-linejoin="round"/>
<path d="M236.532 55.1729H243.17" stroke="#1D252C" stroke-width="1.6998" stroke-miterlimit="79.8403" stroke-linecap="round" stroke-linejoin="round"/>
<path d="M275.531 52.634H282.169" stroke="#1D252C" stroke-width="1.6998" stroke-miterlimit="79.8403" stroke-linecap="round" stroke-linejoin="round"/>
<path d="M203.341 78.0245C202.883 85.0354 196.94 90.3399 190.066 89.8725C183.193 89.4051 177.993 83.3428 178.451 76.332C178.909 69.3211 184.852 64.0166 191.726 64.484C198.599 64.9514 203.8 71.0137 203.341 78.0245Z" stroke="#1D252C" stroke-width="1.6998" stroke-miterlimit="79.8403"/>
<path d="M163.762 65.0403L169.323 58.5583L180.939 55.1729" stroke="#1D252C" stroke-width="1.6998" stroke-miterlimit="79.8403" stroke-linecap="round" stroke-linejoin="round"/>
<path d="M175.961 60.251C173.299 62.6987 171.086 65.5391 169.323 68.7146" stroke="#1D252C" stroke-width="1.6998" stroke-miterlimit="79.8403" stroke-linecap="round" stroke-linejoin="round"/>
<path d="M175.13 76.3318C174.893 63.9095 181.768 58.5583 190.895 57.7119C202.512 57.7119 208.61 64.1273 209.15 75.4854" stroke="#1D252C" stroke-width="1.6998" stroke-miterlimit="79.8403" stroke-linecap="round" stroke-linejoin="round"/>
<path d="M203.341 81.4099H273.041" stroke="#1D252C" stroke-width="1.6998" stroke-miterlimit="79.8403" stroke-linecap="round" stroke-linejoin="round"/>
<path d="M207.492 76.3318L255.618 73.7927L272.213 76.3318" stroke="#1D252C" stroke-width="1.6998" stroke-miterlimit="79.8403" stroke-linecap="round" stroke-linejoin="round"/>
<path d="M269.724 75.4856C270.553 66.1757 276.362 57.7121 287.148 57.7121C297.106 57.7121 302.53 62.7846 304.573 72.1002" stroke="#1D252C" stroke-width="1.6998" stroke-miterlimit="79.8403" stroke-linecap="round" stroke-linejoin="round"/>
<path d="M317.02 50.9411H301.254L307.892 56.0193L316.19 54.3266" stroke="#1D252C" stroke-width="1.6998" stroke-miterlimit="79.8403" stroke-linecap="round" stroke-linejoin="round"/>
<path d="M300.423 78.0245C299.965 85.0354 294.021 90.3399 287.148 89.8725C280.275 89.4051 275.074 83.3428 275.532 76.332C275.991 69.3211 281.934 64.0166 288.807 64.484C295.681 64.9514 300.881 71.0137 300.423 78.0245Z" stroke="#1D252C" stroke-width="1.6998" stroke-miterlimit="79.8403"/>
<path d="M197.234 77.6092C197.001 81.1799 193.974 83.8815 190.473 83.6435C186.973 83.4054 184.324 80.3178 184.557 76.7471C184.791 73.1764 187.818 70.4747 191.318 70.7128C194.819 70.9508 197.468 74.0384 197.234 77.6092Z" stroke="#1D252C" stroke-width="1.6998" stroke-miterlimit="79.8403"/>
<path d="M294.316 77.6092C294.083 81.1799 291.056 83.8815 287.555 83.6435C284.054 83.4054 281.406 80.3178 281.639 76.7471C281.872 73.1764 284.899 70.4747 288.4 70.7128C291.901 70.9508 294.549 74.0384 294.316 77.6092Z" stroke="#1D252C" stroke-width="1.6998" stroke-miterlimit="79.8403"/>
<path d="M8.51324 51.7178L20.7959 50.095C38.2208 42.4778 53.1564 39.0924 73.0705 39.0924C88.0062 39.0924 100.166 43.0308 113.043 51.2585C116.167 53.0336 118.317 53.9804 122.207 54.5627C136.132 55.945 149.576 57.3929 156.9 65.3543C157.763 66.5088 158.385 67.9487 158.472 70.0048L158.285 78.9547C158.12 80.5798 156.675 81.443 155.265 81.7646C152.214 82.5501 148.578 83.103 144.726 82.9992" stroke="#1971D4" stroke-width="1.6998" stroke-miterlimit="79.8403" stroke-linecap="round" stroke-linejoin="round"/>
<path d="M134.528 89.7645C128.171 90.2631 122.622 85.4111 122.133 78.9274C121.645 72.4436 126.401 66.7834 132.758 66.2848C139.114 65.7862 144.664 70.6382 145.153 77.122C145.641 83.6057 140.885 89.266 134.528 89.7645Z" stroke="#1D252C" stroke-width="1.6998" stroke-miterlimit="79.8403"/>
<path d="M157.706 72.9466H151.068L154.387 78.8711" stroke="#1971D4" stroke-width="1.6998" stroke-miterlimit="79.8403" stroke-linecap="round" stroke-linejoin="round"/>
<path d="M155.218 67.022H148.58C148.657 64.4344 146.492 62.4471 141.941 61.0975" stroke="#1971D4" stroke-width="1.6998" stroke-miterlimit="79.8403" stroke-linecap="round" stroke-linejoin="round"/>
<path d="M122.857 83.103H49.0085" stroke="#1971D4" stroke-width="1.6998" stroke-miterlimit="79.8403" stroke-linecap="round" stroke-linejoin="round"/>
<path d="M26.6051 81.4102L10.0099 78.8711C6.38001 78.0879 2.58194 78.0902 2 73.9171L2.16595 69.0082C2.60849 65.4896 3.87967 61.3391 6.0658 54.7048C6.54153 53.3822 7.33036 52.4422 8.35041 51.7876" stroke="#1971D4" stroke-width="1.6998" stroke-miterlimit="79.8403" stroke-linecap="round" stroke-linejoin="round"/>
<path d="M9.18118 54.3267H19.968C22.4573 54.3267 22.4573 56.0194 19.968 57.7121L14.1597 61.0976L10.8407 62.7903L5.41962 62.3389" stroke="#1971D4" stroke-width="1.6998" stroke-miterlimit="79.8403" stroke-linecap="round" stroke-linejoin="round"/>
<path d="M46.5185 58.5586H53.1566" stroke="#1971D4" stroke-width="1.6998" stroke-miterlimit="79.8403" stroke-linecap="round" stroke-linejoin="round"/>
<path d="M81.3684 60.2512H88.0065" stroke="#1971D4" stroke-width="1.6998" stroke-miterlimit="79.8403" stroke-linecap="round" stroke-linejoin="round"/>
<path d="M107.091 50.9412C105.918 51.2899 105.383 52.5278 105.383 53.7658C105.383 55.7643 106.609 56.8657 107.921 56.8657H111.24" stroke="#1971D4" stroke-width="1.6998" stroke-miterlimit="79.8403" stroke-linecap="round" stroke-linejoin="round"/>
<path d="M106.262 50.9414C96.8533 46.2052 87.0013 43.05 76.3904 42.4778" stroke="#1971D4" stroke-width="1.6998" stroke-miterlimit="79.8403" stroke-linecap="round" stroke-linejoin="round"/>
<path d="M106.002 56.0083L44.8598 52.6342" stroke="#1971D4" stroke-width="1.6998" stroke-miterlimit="79.8403" stroke-linecap="round" stroke-linejoin="round"/>
<path d="M73.071 54.3269L71.4115 42.4779C62.3052 42.9045 56.4759 43.3243 49.8378 45.017" stroke="#1971D4" stroke-width="1.6998" stroke-miterlimit="79.8403" stroke-linecap="round" stroke-linejoin="round"/>
<path d="M134.173 85.0367C130.376 85.3346 127.062 82.4368 126.77 78.5642C126.478 74.6916 129.319 71.3107 133.115 71.0128C136.912 70.7149 140.226 73.6127 140.518 77.4853C140.811 81.3579 137.97 84.7388 134.173 85.0367Z" stroke="#1971D4" stroke-width="1.6998" stroke-miterlimit="79.8403"/>
<path d="M39.1068 89.7645C32.7503 90.2631 27.201 85.4111 26.7122 78.9274C26.2235 72.4436 30.9802 66.7834 37.3368 66.2848C43.6934 65.7862 49.2427 70.6382 49.7314 77.122C50.2202 83.6057 45.4634 89.266 39.1068 89.7645Z" stroke="#1D252C" stroke-width="1.6998" stroke-miterlimit="79.8403"/>
<path d="M38.7499 85.0367C34.9533 85.3346 31.6387 82.4368 31.3467 78.5642C31.0546 74.6916 33.8956 71.3107 37.6922 71.0128C41.4889 70.7149 44.8034 73.6127 45.0955 77.4853C45.3876 81.3579 42.5465 84.7388 38.7499 85.0367Z" stroke="#1D252C" stroke-width="1.6998" stroke-miterlimit="79.8403"/>
<path fill-rule="evenodd" clip-rule="evenodd" d="M118.991 86.1011L160.081 13.5119C163.485 7.49603 169.01 7.49603 172.414 13.5119L213.504 86.1011C216.908 92.1171 214.143 97 207.333 97H125.162C118.352 97 115.587 92.1171 118.991 86.1011ZM195.131 80.9722L168.151 33.3077C167.102 31.4502 165.393 31.4502 164.343 33.3077L137.364 80.9722C136.313 82.8297 137.167 84.3374 139.269 84.3374H193.226C195.328 84.3374 196.182 82.8297 195.131 80.9722Z" fill="white" stroke="white" stroke-width="6.79921" stroke-miterlimit="79.8403"/>
<path fill-rule="evenodd" clip-rule="evenodd" d="M125.162 97H207.332C214.143 97 216.908 92.1171 213.502 86.1011L172.415 13.5119C169.011 7.49603 163.483 7.49603 160.079 13.5119L118.992 86.1011C115.586 92.1171 118.351 97 125.162 97Z" stroke="#1971D4" stroke-width="1.6998" stroke-miterlimit="79.8403"/>
<path fill-rule="evenodd" clip-rule="evenodd" d="M139.269 84.3374H193.225C195.328 84.3374 196.181 82.8286 195.13 80.9723L168.151 33.3077C167.101 31.4502 165.393 31.4502 164.343 33.3077L137.364 80.9723C136.313 82.8286 137.166 84.3374 139.269 84.3374Z" stroke="#1971D4" stroke-width="1.6998" stroke-miterlimit="79.8403"/>
<path d="M166.201 31.4614V9.26541" stroke="#1971D4" stroke-width="1.6998" stroke-miterlimit="79.8403" stroke-linecap="round" stroke-linejoin="round"/>
<path d="M195.406 83.3861L213.592 94.0964" stroke="#1971D4" stroke-width="1.6998" stroke-miterlimit="79.8403" stroke-linecap="round" stroke-linejoin="round"/>
<path d="M137.024 83.3861L118.838 94.0964" stroke="#1971D4" stroke-width="1.6998" stroke-miterlimit="79.8403" stroke-linecap="round" stroke-linejoin="round"/>
</svg>
