<svg width="155" height="124" viewBox="0 0 155 124" fill="none" xmlns="http://www.w3.org/2000/svg">
<g clip-path="url(#clip0_484_3013)">
<path d="M7.18079 97.3631L7.20248 45.5272L7.20867 34.6729L7.21487 13.621C7.21487 11.0685 9.29712 8.99692 11.8659 9L144.176 9.06164C146.741 9.06164 148.824 11.1332 148.821 13.6888L148.786 97.3693" stroke="#1D252C" stroke-width="1.8" stroke-miterlimit="10" stroke-linecap="round" stroke-linejoin="round"/>
<path d="M126.868 107.669H151.901C153.612 107.669 155 109.05 155 110.752C155 115.86 150.839 120 145.704 120H10.2958C5.16141 120 1 115.86 1 110.752C1 109.05 2.38817 107.669 4.09859 107.669H116.023H126.868Z" stroke="#1D252C" stroke-width="1.8" stroke-miterlimit="10" stroke-linecap="round" stroke-linejoin="round"/>
<path d="M75.56 81.386V86.7006C75.56 88.1002 74.5901 89.2377 73.3972 89.2377H61.9757C60.7797 89.2377 59.8129 88.1032 59.8129 86.7006V81.386" stroke="#1D252C" stroke-width="1.8" stroke-miterlimit="10" stroke-linecap="round" stroke-linejoin="round"/>
<path d="M134.657 81.3857V86.7004C134.657 88.0999 133.687 89.2374 132.494 89.2374H121.073C119.877 89.2374 118.91 88.103 118.91 86.7004V81.3857" stroke="#1D252C" stroke-width="1.8" stroke-miterlimit="10" stroke-linecap="round" stroke-linejoin="round"/>
<path d="M60.2164 38.1195H56.6189C51.9121 38.1195 53.6381 46.4953 59.64 46.4953H68.3161V46.1747C68.313 41.7263 64.6876 38.1195 60.2164 38.1195Z" stroke="#1D252C" stroke-width="1.8" stroke-miterlimit="10" stroke-linecap="round" stroke-linejoin="round"/>
<path d="M134.098 38.061H137.696C139.186 38.061 140.395 39.2633 140.395 40.7461C140.395 43.8905 137.832 46.4368 134.675 46.4368H125.998V46.1162C125.998 41.6678 129.624 38.061 134.098 38.061Z" stroke="#1D252C" stroke-width="1.8" stroke-miterlimit="10" stroke-linecap="round" stroke-linejoin="round"/>
<path d="M89.077 66.702C87.0412 66.702 85.2564 65.3425 84.7296 63.385L83.5119 58.8688H110.944L109.726 63.385C109.199 65.3425 107.414 66.702 105.379 66.702" stroke="#1D252C" stroke-width="1.8" stroke-miterlimit="10" stroke-linecap="round" stroke-linejoin="round"/>
<path d="M117.027 67.2774H125.542C127.544 67.2774 129.165 65.1688 129.165 62.5701V61.3925C129.165 60.0916 128.353 59.0404 127.352 59.0404H122.936C120.51 59.0404 118.378 61.1305 117.712 64.1608L117.027 67.2774Z" fill="#1971D4" stroke="#1971D4" stroke-width="1.8" stroke-miterlimit="10" stroke-linecap="round" stroke-linejoin="round"/>
<path d="M77.5407 67.2774H69.0258C67.0241 67.2774 65.4036 65.1688 65.4036 62.5701V61.3925C65.4036 60.0916 66.2154 59.0404 67.2162 59.0404H71.6317C74.0579 59.0404 76.1898 61.1305 76.856 64.1608L77.5407 67.2774Z" fill="#1971D4" stroke="#1971D4" stroke-width="1.8" stroke-miterlimit="10" stroke-linecap="round" stroke-linejoin="round"/>
<path d="M117.799 28.2317H76.6529C74.6946 28.2317 72.9904 29.5634 72.5225 31.4531L68.3115 46.4907H126.141L121.93 31.4531C121.462 29.5634 119.757 28.2317 117.799 28.2317Z" stroke="#1D252C" stroke-width="1.8" stroke-miterlimit="10" stroke-linecap="round" stroke-linejoin="round"/>
<path d="M137.756 70.223C137.688 70.223 137.564 70.223 137.39 70.223V56.9611C137.39 53.2619 135.107 49.9448 131.639 48.61L126.139 46.4922H68.3103L62.8103 48.61C59.343 49.9448 57.0593 53.2619 57.0593 56.9611V70.223C56.8889 70.223 56.7618 70.223 56.6937 70.223C55.4666 70.223 54.472 71.2249 54.472 72.461V79.092C54.472 80.3281 55.4666 81.33 56.6937 81.33C59.4886 81.33 131.36 81.33 137.756 81.33C138.983 81.33 139.978 80.3281 139.978 79.092V72.461C139.978 71.2249 138.983 70.223 137.756 70.223Z" stroke="#1D252C" stroke-width="1.8" stroke-miterlimit="10" stroke-linecap="round" stroke-linejoin="round"/>
<path d="M35.334 54.9917C31.7397 59.4246 25.211 60.1182 20.7552 56.5423C18.7566 54.9393 17.514 52.7506 17.0771 50.4231" stroke="#1971D4" stroke-width="1.8" stroke-miterlimit="10" stroke-linecap="round" stroke-linejoin="round"/>
<path d="M35.692 57.5498L36.3145 53.782L32.5303 54.0777" stroke="#1971D4" stroke-width="1.8" stroke-miterlimit="10" stroke-linecap="round" stroke-linejoin="round"/>
<path d="M19.6177 40.3488C23.2276 35.9282 29.7563 35.2531 34.1997 38.8445C36.4462 40.6602 37.7321 43.2189 37.9862 45.8762" stroke="#1971D4" stroke-width="1.8" stroke-miterlimit="10" stroke-linecap="round" stroke-linejoin="round"/>
<path d="M19.2672 37.7924L18.4033 41.668L22.336 41.1196" stroke="#1971D4" stroke-width="1.8" stroke-miterlimit="10" stroke-linecap="round" stroke-linejoin="round"/>
<path d="M16.2733 72.604H37.9882" stroke="#1D252C" stroke-width="1.8" stroke-miterlimit="10" stroke-linecap="round" stroke-linejoin="round"/>
<path d="M33.1771 80.9263H37.8188" stroke="#1D252C" stroke-width="1.8" stroke-miterlimit="10" stroke-linecap="round" stroke-linejoin="round"/>
<path d="M16.1038 80.9263H25.0371" stroke="#1D252C" stroke-width="1.8" stroke-miterlimit="10" stroke-linecap="round" stroke-linejoin="round"/>
</g>
<defs>
<clipPath id="clip0_484_3013">
<rect width="155" height="124" fill="white"/>
</clipPath>
</defs>
</svg>
