<svg width="300" height="100" viewBox="0 0 300 100" fill="none" xmlns="http://www.w3.org/2000/svg">
<mask id="mask0_230_15288" style="mask-type:alpha" maskUnits="userSpaceOnUse" x="0" y="0" width="300" height="100">
<rect width="300" height="100" fill="#D9D9D9"/>
</mask>
<g mask="url(#mask0_230_15288)">
<path d="M173.871 7.40144C170.075 7.40144 166.278 8.92011 164.759 14.2355H158.684C156.876 14.2355 155.647 15.3431 155.647 17.2728V21.8289" stroke="#1D252C" stroke-width="1.6" stroke-miterlimit="79.8403" stroke-linecap="round" stroke-linejoin="round"/>
<path d="M173.871 7.40144C177.668 7.40144 181.465 8.92011 182.983 14.2355H189.058C190.866 14.2355 192.095 15.3431 192.095 17.2728V21.8289" stroke="#1D252C" stroke-width="1.6" stroke-miterlimit="79.8403" stroke-linecap="round" stroke-linejoin="round"/>
<path d="M173.871 22.5874H136.664C133.351 22.5874 131.348 24.4382 131.348 27.9028V99.2805" stroke="#1D252C" stroke-width="1.6" stroke-miterlimit="79.8403" stroke-linecap="round" stroke-linejoin="round"/>
<path d="M173.871 22.5891H211.079C214.391 22.5891 216.394 24.4398 216.394 27.9044V40.4771" stroke="#1D252C" stroke-width="1.6" stroke-miterlimit="79.8403" stroke-linecap="round" stroke-linejoin="round"/>
<path d="M216.394 84.8015V99.2805" stroke="#1D252C" stroke-width="1.6" stroke-miterlimit="79.8403" stroke-linecap="round" stroke-linejoin="round"/>
<path fill-rule="evenodd" clip-rule="evenodd" d="M224.083 39.8622C236.71 39.8622 246.958 50.1102 246.958 62.7375C246.958 75.3648 236.71 85.6128 224.083 85.6128C211.455 85.6128 201.207 75.3648 201.207 62.7375C201.207 50.1102 211.455 39.8622 224.083 39.8622Z" stroke="#1D252C" stroke-width="1.6" stroke-miterlimit="79.8403"/>
<path d="M213.789 61.5946L221.796 69.6011L235.146 57.395" stroke="#1D252C" stroke-width="1.6" stroke-miterlimit="79.8403" stroke-linecap="round" stroke-linejoin="round"/>
<path d="M129.07 30.9413H110.846C108.568 30.9413 106.773 32.0448 105.531 33.9786L97.9374 46.128H90.344C88.149 46.2981 87.3087 47.4331 87.3067 49.1654C87.3067 51.4434 90.344 52.9621 93.3814 53.7214L90.344 58.2774C89.5847 59.7961 88.8254 61.3148 88.8254 64.3521V91.6883C88.7859 93.207 89.5462 93.9653 91.1034 93.9663H99.4561C100.922 93.8509 101.639 93.0531 101.734 91.6883V86.3729H129.07" stroke="#1971D4" stroke-width="1.6" stroke-miterlimit="79.8403" stroke-linecap="round" stroke-linejoin="round"/>
<path d="M129.07 53.7217H101.734C99.5148 53.7217 98.9448 52.0957 100.215 49.925L107.049 38.5349C108.835 35.694 109.173 34.7382 112.365 34.7382H129.07" stroke="#1971D4" stroke-width="1.6" stroke-miterlimit="79.8403" stroke-linecap="round" stroke-linejoin="round"/>
<path d="M98.6968 70.4272C96.1818 70.4272 94.1387 68.3861 94.1387 65.8712C94.1387 63.3563 96.1818 61.3152 98.6968 61.3152C99.3528 61.3152 99.9765 61.4539 100.54 61.704" stroke="#1971D4" stroke-width="1.6" stroke-miterlimit="79.8403" stroke-linecap="round" stroke-linejoin="round"/>
<path d="M108.304 65.2597C109.342 65.6222 110.087 66.6093 110.087 67.7696C110.087 69.2366 108.895 70.4272 107.428 70.4272C107.364 70.4272 107.302 70.4252 107.24 70.4202" stroke="#1971D4" stroke-width="1.6" stroke-miterlimit="79.8403" stroke-linecap="round" stroke-linejoin="round"/>
<path d="M100.513 61.6827L108.468 65.3306" stroke="#1971D4" stroke-width="1.6" stroke-miterlimit="79.8403" stroke-linecap="round" stroke-linejoin="round"/>
<path d="M107.049 70.4272H98.6967" stroke="#1971D4" stroke-width="1.6" stroke-miterlimit="79.8403" stroke-linecap="round" stroke-linejoin="round"/>
<path d="M128.311 74.9826H119.958C118.602 74.8641 117.854 76.0679 118.439 77.2606L119.958 80.298C120.265 80.7738 120.715 81.0897 121.477 81.0573H128.311" stroke="#1971D4" stroke-width="1.6" stroke-miterlimit="79.8403" stroke-linecap="round" stroke-linejoin="round"/>
<path fill-rule="evenodd" clip-rule="evenodd" d="M145.015 41.3332V47.1295C145.015 48.2533 145.929 49.1665 147.052 49.1665H152.851C153.974 49.1665 154.888 48.2533 154.888 47.1295V41.3332C154.888 40.2094 153.974 39.2961 152.851 39.2961H147.052C145.929 39.2961 145.015 40.2094 145.015 41.3332Z" stroke="#1D252C" stroke-width="1.6" stroke-miterlimit="79.8403"/>
<path fill-rule="evenodd" clip-rule="evenodd" d="M145.015 60.3151V66.1114C145.015 67.2352 145.929 68.1484 147.052 68.1484H152.851C153.974 68.1484 154.888 67.2352 154.888 66.1114V60.3151C154.888 59.1913 153.974 58.2781 152.851 58.2781H147.052C145.929 58.2781 145.015 59.1913 145.015 60.3151Z" stroke="#1D252C" stroke-width="1.6" stroke-miterlimit="79.8403"/>
<path fill-rule="evenodd" clip-rule="evenodd" d="M145.015 79.299V85.0953C145.015 86.2191 145.929 87.1323 147.052 87.1323H152.851C153.974 87.1323 154.888 86.2191 154.888 85.0953V79.299C154.888 78.1752 153.974 77.262 152.851 77.262H147.052C145.929 77.262 145.015 78.1752 145.015 79.299Z" stroke="#1D252C" stroke-width="1.6" stroke-miterlimit="79.8403"/>
<path d="M161.722 41.5718H197.411" stroke="#1D252C" stroke-width="1.6" stroke-miterlimit="79.8403" stroke-linecap="round" stroke-linejoin="round"/>
<path d="M161.722 46.8879H189.058" stroke="#1D252C" stroke-width="1.6" stroke-miterlimit="79.8403" stroke-linecap="round" stroke-linejoin="round"/>
<path d="M161.722 60.5557H197.411" stroke="#1D252C" stroke-width="1.6" stroke-miterlimit="79.8403" stroke-linecap="round" stroke-linejoin="round"/>
<path d="M161.722 65.8699H189.058" stroke="#1D252C" stroke-width="1.6" stroke-miterlimit="79.8403" stroke-linecap="round" stroke-linejoin="round"/>
<path d="M161.722 79.5396H197.411" stroke="#1D252C" stroke-width="1.6" stroke-miterlimit="79.8403" stroke-linecap="round" stroke-linejoin="round"/>
<path d="M161.722 84.8538H189.058" stroke="#1D252C" stroke-width="1.6" stroke-miterlimit="79.8403" stroke-linecap="round" stroke-linejoin="round"/>
<path fill-rule="evenodd" clip-rule="evenodd" d="M173.871 11.9578C175.548 11.9578 176.909 13.3185 176.909 14.9951C176.909 16.6717 175.548 18.0325 173.871 18.0325C172.195 18.0325 170.833 16.6717 170.833 14.9951C170.833 13.3185 172.195 11.9578 173.871 11.9578Z" stroke="#1D252C" stroke-width="1.6" stroke-miterlimit="79.8403"/>
<path fill-rule="evenodd" clip-rule="evenodd" d="M61.5266 29.0426L60.4321 32.8201C60.0201 34.2385 60.8381 35.7258 62.2566 36.1369L72.5249 39.1135C73.9443 39.5245 75.4316 38.7065 75.8427 37.288L76.9381 33.5116C77.3482 32.0911 76.5301 30.6048 75.1117 30.1928L64.8434 27.2162C63.4249 26.8051 61.9387 27.6242 61.5266 29.0426Z" stroke="#1D252C" stroke-width="1.6" stroke-miterlimit="79.8403"/>
<path d="M68.6431 28.4363L62.7324 35.1914" stroke="#1D252C" stroke-width="1.6" stroke-miterlimit="79.8403" stroke-linecap="round" stroke-linejoin="round"/>
<path d="M74.2168 30.08L67.8201 37.3909" stroke="#1D252C" stroke-width="1.6" stroke-miterlimit="79.8403" stroke-linecap="round" stroke-linejoin="round"/>
<path fill-rule="evenodd" clip-rule="evenodd" d="M63.4271 19.8008C63.0292 21.7295 63.8169 22.6326 65.1158 23.0943L84.8333 28.8785C86.3965 29.4687 86.8126 31.0492 86.3955 32.4676L85.1228 37.2524C77.8474 42.4088 74.3281 48.5807 75.1735 61.1847L77.3897 86.7289C78.1045 92.351 75.6757 97.9458 69.2375 97.9458C63.6174 97.9458 60.5335 94.0023 61.2685 87.0215L63.8786 60.1298C64.5407 52.8219 63.4513 47.544 59.843 42.583L52.7902 31.6586C50.2591 26.24 50.7026 21.1697 54.2087 16.4598L60.7623 9.23084C62.2719 7.68989 64.0973 6.84247 66.5039 7.27175L63.4271 19.8008Z" stroke="#1D252C" stroke-width="1.6" stroke-miterlimit="79.8403" stroke-linejoin="round"/>
<path d="M84.001 28.2803C84.7451 20.9785 82.9571 15.6672 78.7312 12.2704L75.2858 25.9162" stroke="#1D252C" stroke-width="1.6" stroke-miterlimit="79.8403" stroke-linecap="round" stroke-linejoin="round"/>
<path fill-rule="evenodd" clip-rule="evenodd" d="M69.5291 85.9416C71.6269 85.9416 73.3308 87.6435 73.3308 89.7413C73.3308 91.8391 71.6269 93.541 69.5291 93.541C67.4313 93.541 65.7283 91.8391 65.7283 89.7413C65.7283 87.6435 67.4313 85.9416 69.5291 85.9416Z" stroke="#1D252C" stroke-width="1.6" stroke-miterlimit="79.8403" stroke-linejoin="round"/>
</g>
</svg>
