<svg width="120" height="124" viewBox="0 0 120 124" fill="none" xmlns="http://www.w3.org/2000/svg">
<path d="M88.9868 27.1299C83.858 34.119 76.9147 44.8423 77.0615 51.485C77.2932 61.9951 85.5485 70.8077 95.4438 70.0691C96.8819 69.9613 100.231 68.7777 101.3 67.1996" stroke="#1971D4" stroke-width="1.8" stroke-miterlimit="10" stroke-linecap="round" stroke-linejoin="round"/>
<path d="M64.6495 13.5444C52.6944 29.3806 37.7872 52.0407 37.7872 66.6038C37.7872 90.9153 56.3896 110.626 79.3364 110.626C79.6392 110.626 80.5842 110.621 80.887 110.616" stroke="#1D252C" stroke-width="1.8" stroke-miterlimit="10" stroke-linecap="round" stroke-linejoin="round"/>
<path d="M104.464 55.7505C104.464 67.545 95.4404 77.1054 84.3087 77.1054C73.1771 77.1054 64.1534 67.545 64.1534 55.7505C64.1534 46.1144 77.6109 29.1635 82.5334 23.2868C83.46 22.1812 85.1597 22.1812 86.0864 23.2868C91.0065 29.1635 104.464 46.1144 104.464 55.7505Z" stroke="#1971D4" stroke-width="1.8" stroke-miterlimit="10" stroke-linecap="round" stroke-linejoin="round"/>
<path d="M72.484 23.5818C66.4537 15.4894 60.9991 8.95674 58.3108 5.81199C57.3864 4.72934 55.7143 4.72934 54.7876 5.81199C46.8741 15.0696 15 53.6851 15 74.9781C15 99.2897 33.6024 119 56.5492 119C77.9271 119 95.5294 101.895 97.8392 79.8982" stroke="#1D252C" stroke-width="1.8" stroke-miterlimit="10" stroke-linecap="round" stroke-linejoin="round"/>
</svg>
