<svg width="155" height="124" viewBox="0 0 155 124" fill="none" xmlns="http://www.w3.org/2000/svg">
<path d="M29.2872 32.9288H24.5529C18.3579 32.9288 20.6312 43.8893 28.5271 43.8893H39.9417V43.4702C39.9417 37.6491 35.1707 32.9288 29.2872 32.9288Z" stroke="#1D252C" stroke-width="1.8" stroke-miterlimit="10" stroke-linecap="round" stroke-linejoin="round"/>
<path d="M126.492 32.861H131.226C133.188 32.861 134.777 34.4352 134.777 36.374C134.777 40.4873 131.407 43.8214 127.25 43.8214H115.835V43.4024C115.835 37.579 120.606 32.861 126.492 32.861Z" stroke="#1D252C" stroke-width="1.8" stroke-miterlimit="10" stroke-linecap="round" stroke-linejoin="round"/>
<path d="M105.047 20H50.9161C48.3406 20 46.097 21.7395 45.4812 24.2152L39.941 43.8892H116.024L110.484 24.2152C109.869 21.7395 107.625 20 105.047 20Z" stroke="#1D252C" stroke-width="1.8" stroke-miterlimit="10" stroke-linecap="round" stroke-linejoin="round"/>
<path d="M83.9039 56.0464H59.937L61.5372 61.9558C62.2309 64.5176 64.5774 66.2979 67.2559 66.2979H73.8378" stroke="#1D252C" stroke-width="1.8" stroke-miterlimit="10" stroke-linecap="round" stroke-linejoin="round"/>
<path d="M52.0803 67.0535L51.1783 62.9764C50.3015 59.0104 47.4948 56.2765 44.3035 56.2765H38.4954C37.1791 56.2765 36.1122 57.6559 36.1122 59.3547V60.8949C36.1122 64.2969 38.2459 67.0535 40.8786 67.0535H52.0803Z" stroke="#1D252C" stroke-width="1.8" stroke-miterlimit="10" stroke-linecap="round" stroke-linejoin="round"/>
<path d="M112.078 56.2765H117.886C119.202 56.2765 120.269 57.6559 120.269 59.3547V60.8949C120.269 61.7443 120.136 62.5551 119.893 63.2913" stroke="#1D252C" stroke-width="1.8" stroke-miterlimit="10" stroke-linecap="round" stroke-linejoin="round"/>
<path d="M130.827 74.9396V57.5895C130.827 52.7514 127.821 48.4094 123.259 46.6631L116.024 43.8929H39.941L32.7068 46.6631C28.1464 48.4094 25.1382 52.7514 25.1382 57.5895V74.9396" stroke="#1D252C" stroke-width="1.8" stroke-miterlimit="10" stroke-linecap="round" stroke-linejoin="round"/>
<path d="M131.579 89.4568C133.065 89.3209 134.23 88.0683 134.23 86.5417V77.8667C134.23 76.2494 132.923 74.938 131.309 74.938C131.22 74.938 131.055 74.938 130.826 74.938" stroke="#1D252C" stroke-width="1.8" stroke-miterlimit="10" stroke-linecap="round" stroke-linejoin="round"/>
<path d="M28.7469 89.5382V97.2778C28.7469 99.3186 30.0221 100.972 31.5949 100.972H46.6243C48.1971 100.972 49.4722 99.3186 49.4722 97.2778V89.5382" stroke="#1D252C" stroke-width="1.8" stroke-miterlimit="10" stroke-linecap="round" stroke-linejoin="round"/>
<path d="M25.1425 74.9377C24.9182 74.9377 24.7533 74.9377 24.6595 74.9377C23.0455 74.9377 21.7383 76.2492 21.7383 77.8664V86.5415C21.7383 88.1587 23.0455 89.4701 24.6595 89.4701C26.3398 89.4701 46.9987 89.4701 69.7432 89.4701" stroke="#1D252C" stroke-width="1.8" stroke-miterlimit="10" stroke-linecap="round" stroke-linejoin="round"/>
<path d="M127.487 89.5381V97.2777C127.487 99.3185 126.212 100.972 124.64 100.972H120.207" stroke="#1D252C" stroke-width="1.8" stroke-miterlimit="10" stroke-linecap="round" stroke-linejoin="round"/>
<path d="M131.094 74.9387C131.318 74.9387 131.483 74.9387 131.577 74.9387C133.191 74.9387 134.498 76.2502 134.498 77.8674V86.5424C134.498 88.1597 133.191 89.4711 131.577 89.4711C131.099 89.4711 129.075 89.4711 125.902 89.4711" stroke="#1D252C" stroke-width="1.8" stroke-miterlimit="10" stroke-linecap="round" stroke-linejoin="round"/>
<path d="M78.8289 92.7234L60.5876 105.328L58.0487 107.233C55.8784 108.862 55.3336 111.935 57.1673 114.164C59.024 116.42 62.4374 116.628 64.5596 114.615L82.9635 97.7246" stroke="#1971D4" stroke-width="1.8" stroke-miterlimit="10" stroke-linecap="round" stroke-linejoin="round"/>
<path d="M81.6566 94.9505C89.4037 103.992 103.234 105.166 112.416 97.5507C121.658 89.8859 122.851 76.3116 115.172 67.1904C107.418 57.9785 93.4077 56.7758 84.1749 64.5358C74.9901 72.2527 73.8661 85.8587 81.6566 94.9505Z" stroke="#1971D4" stroke-width="1.8" stroke-miterlimit="10" stroke-linecap="round" stroke-linejoin="round"/>
</svg>
