<svg width="155" height="124" viewBox="0 0 155 124" fill="none" xmlns="http://www.w3.org/2000/svg">
<path d="M29.2872 32.9289H24.5529C18.3579 32.9289 20.6312 43.8894 28.5271 43.8894H39.9417V43.4703C39.9417 37.6492 35.1707 32.9289 29.2872 32.9289Z" stroke="#1E1A34" stroke-width="1.8" stroke-miterlimit="10" stroke-linecap="round" stroke-linejoin="round"/>
<path d="M126.492 32.861H131.226C133.188 32.861 134.777 34.4352 134.777 36.3741C134.777 40.4873 131.407 43.8215 127.25 43.8215H115.835V43.4024C115.835 37.5791 120.606 32.861 126.492 32.861Z" stroke="#1E1A34" stroke-width="1.8" stroke-miterlimit="10" stroke-linecap="round" stroke-linejoin="round"/>
<path d="M105.048 20H50.9164C48.341 20 46.0974 21.7395 45.4816 24.2152L39.9414 43.8892H116.025L110.485 24.2152C109.869 21.7395 107.625 20 105.048 20Z" stroke="#1E1A34" stroke-width="1.8" stroke-miterlimit="10" stroke-linecap="round" stroke-linejoin="round"/>
<path d="M83.9035 56.0463H59.9365L61.5368 61.9558C62.2304 64.5175 64.577 66.2978 67.2555 66.2978H73.8373" stroke="#1E1A34" stroke-width="1.8" stroke-miterlimit="10" stroke-linecap="round" stroke-linejoin="round"/>
<path d="M52.0804 67.0534L51.1783 62.9764C50.3015 59.0103 47.4948 56.2765 44.3035 56.2765H38.4955C37.1791 56.2765 36.1123 57.6559 36.1123 59.3546V60.8948C36.1123 64.2969 38.2459 67.0534 40.8787 67.0534H52.0804Z" stroke="#1E1A34" stroke-width="1.8" stroke-miterlimit="10" stroke-linecap="round" stroke-linejoin="round"/>
<path d="M112.078 56.2765H117.886C119.203 56.2765 120.269 57.6559 120.269 59.3546V60.8948C120.269 61.7442 120.137 62.5551 119.894 63.2912" stroke="#1E1A34" stroke-width="1.8" stroke-miterlimit="10" stroke-linecap="round" stroke-linejoin="round"/>
<path d="M130.828 74.9396V57.5895C130.828 52.7514 127.822 48.4094 123.259 46.6631L116.025 43.8929H39.9415L32.7072 46.6631C28.1469 48.4094 25.1387 52.7514 25.1387 57.5895V74.9396" stroke="#1E1A34" stroke-width="1.8" stroke-miterlimit="10" stroke-linecap="round" stroke-linejoin="round"/>
<path d="M131.579 89.4568C133.065 89.3209 134.23 88.0683 134.23 86.5417V77.8667C134.23 76.2495 132.923 74.938 131.309 74.938C131.22 74.938 131.055 74.938 130.826 74.938" stroke="#1E1A34" stroke-width="1.8" stroke-miterlimit="10" stroke-linecap="round" stroke-linejoin="round"/>
<path d="M28.7471 89.5382V97.2778C28.7471 99.3186 30.0222 100.972 31.595 100.972H46.6244C48.1972 100.972 49.4723 99.3186 49.4723 97.2778V89.5382" stroke="#1E1A34" stroke-width="1.8" stroke-miterlimit="10" stroke-linecap="round" stroke-linejoin="round"/>
<path d="M25.1425 74.9377C24.9182 74.9377 24.7533 74.9377 24.6595 74.9377C23.0455 74.9377 21.7383 76.2492 21.7383 77.8664V86.5415C21.7383 88.1587 23.0455 89.4701 24.6595 89.4701C26.3398 89.4701 46.9987 89.4701 69.7432 89.4701" stroke="#1E1A34" stroke-width="1.8" stroke-miterlimit="10" stroke-linecap="round" stroke-linejoin="round"/>
<path d="M127.487 89.5381V97.2777C127.487 99.3185 126.212 100.972 124.639 100.972H120.207" stroke="#1E1A34" stroke-width="1.8" stroke-miterlimit="10" stroke-linecap="round" stroke-linejoin="round"/>
<path d="M131.094 74.9388C131.318 74.9388 131.483 74.9388 131.577 74.9388C133.191 74.9388 134.498 76.2502 134.498 77.8674V86.5425C134.498 88.1597 133.191 89.4711 131.577 89.4711C131.098 89.4711 129.074 89.4711 125.901 89.4711" stroke="#1E1A34" stroke-width="1.8" stroke-miterlimit="10" stroke-linecap="round" stroke-linejoin="round"/>
<path d="M78.8291 92.7234L60.5878 105.328L58.0489 107.233C55.8786 108.862 55.3337 111.935 57.1675 114.164C59.0241 116.42 62.4375 116.628 64.5597 114.615L82.9636 97.7245" stroke="#0074B8" stroke-width="1.8" stroke-miterlimit="10" stroke-linecap="round" stroke-linejoin="round"/>
<path d="M81.6573 94.9505C89.4044 103.992 103.234 105.166 112.417 97.5507C121.659 89.8859 122.851 76.3116 115.173 67.1903C107.419 57.9785 93.4084 56.7758 84.1756 64.5357C74.9908 72.2527 73.8667 85.8587 81.6573 94.9505Z" stroke="#0074B8" stroke-width="1.8" stroke-miterlimit="10" stroke-linecap="round" stroke-linejoin="round"/>
</svg>
