<svg width="300" height="100" viewBox="0 0 300 100" fill="none" xmlns="http://www.w3.org/2000/svg">
<mask id="mask0_196_9703" style="mask-type:alpha" maskUnits="userSpaceOnUse" x="0" y="0" width="300" height="100">
<rect width="300" height="100" fill="#D9D9D9"/>
</mask>
<g mask="url(#mask0_196_9703)">
<path d="M197.918 67.7329H209.476" stroke="#1E1A34" stroke-width="1.6" stroke-miterlimit="79.8403" stroke-linecap="round" stroke-linejoin="round"/>
<path d="M219.572 67.7329H232.526C236.646 67.7329 237.47 64.4369 237.47 61.9649V37.2448" stroke="#1E1A34" stroke-width="1.6" stroke-miterlimit="79.8403" stroke-linecap="round" stroke-linejoin="round"/>
<path d="M199.565 35.5977H208.245" stroke="#1E1A34" stroke-width="1.6" stroke-miterlimit="79.8403" stroke-linecap="round" stroke-linejoin="round"/>
<path d="M218.957 35.5977H230.878C234.174 35.5977 237.47 33.9497 237.47 30.6536C237.47 26.5336 234.13 25.7789 229.23 24.0616C226.769 23.3574 225.23 21.7237 225.11 19.9416C224.945 17.5531 227.109 14.9976 230.878 14.9976H277.846" stroke="#1E1A34" stroke-width="1.6" stroke-miterlimit="79.8403" stroke-linecap="round" stroke-linejoin="round"/>
<path d="M225.109 19.942V31.478" stroke="#1E1A34" stroke-width="1.6" stroke-miterlimit="79.8403" stroke-linecap="round" stroke-linejoin="round"/>
<path d="M239.941 50.4292H277.845L269.605 33.1252L277.845 14.9971" stroke="#1E1A34" stroke-width="1.6" stroke-miterlimit="79.8403" stroke-linecap="round" stroke-linejoin="round"/>
<path d="M102.333 67.7329H90.9619" stroke="#1E1A34" stroke-width="1.6" stroke-miterlimit="79.8403" stroke-linecap="round" stroke-linejoin="round"/>
<path d="M80.349 67.7329H67.7253C63.6053 67.7329 62.7812 64.4369 62.7812 61.9649V37.2448" stroke="#1E1A34" stroke-width="1.6" stroke-miterlimit="79.8403" stroke-linecap="round" stroke-linejoin="round"/>
<path d="M100.685 35.5977H92.1816" stroke="#1E1A34" stroke-width="1.6" stroke-miterlimit="79.8403" stroke-linecap="round" stroke-linejoin="round"/>
<path d="M81.2719 35.5977H69.3734C66.0774 35.5977 62.7814 33.9497 62.7814 30.6536C62.7814 26.5336 66.1213 25.7789 71.0214 24.0616C73.4824 23.3574 75.0205 21.7237 75.1414 19.9416C75.3062 17.5531 73.1418 14.9976 69.3734 14.9976H22.4053" stroke="#1E1A34" stroke-width="1.6" stroke-miterlimit="79.8403" stroke-linecap="round" stroke-linejoin="round"/>
<path d="M75.1416 19.942V31.478" stroke="#1E1A34" stroke-width="1.6" stroke-miterlimit="79.8403" stroke-linecap="round" stroke-linejoin="round"/>
<path d="M60.3094 50.4292H22.4053L30.6453 33.1252L22.4053 14.9971" stroke="#1E1A34" stroke-width="1.6" stroke-miterlimit="79.8403" stroke-linecap="round" stroke-linejoin="round"/>
<path fill-rule="evenodd" clip-rule="evenodd" d="M119.637 75.1506V80.9186C119.539 82.3996 118.759 83.2654 117.165 83.3906H108.101C106.41 83.3895 105.586 82.5666 105.629 80.9186V51.2546C105.629 47.9585 106.453 46.3105 107.277 44.6625L110.573 39.7185C107.277 38.8945 103.981 37.2465 103.981 34.7745C103.981 32.8947 104.893 31.6631 107.277 31.4785H115.517L123.757 18.2945C125.109 16.196 127.053 14.9985 129.526 14.9985H170.726C173.198 14.9985 175.142 16.196 176.494 18.2945L184.734 31.4785H192.974C195.358 31.6631 196.27 32.8947 196.27 34.7745C196.27 37.2465 192.974 38.8945 189.678 39.7185L192.974 44.6625C193.798 46.3105 194.622 47.9585 194.622 51.2546V80.9186C194.666 82.5666 193.842 83.3895 192.15 83.3906H183.086C181.493 83.2654 180.712 82.3996 180.614 80.9186V75.1506H119.637Z" stroke="#0074B8" stroke-width="1.6" stroke-miterlimit="79.8403" stroke-linecap="round" stroke-linejoin="round"/>
<path fill-rule="evenodd" clip-rule="evenodd" d="M119.637 39.7178C117.231 39.7178 116.616 37.9533 117.989 35.5978L125.405 23.2377C127.339 20.1549 127.712 19.1177 131.173 19.1177H169.077C172.538 19.1177 172.912 20.1549 174.845 23.2377L182.261 35.5978C183.646 37.9533 183.019 39.7178 180.613 39.7178H119.637Z" stroke="#0074B8" stroke-width="1.6" stroke-miterlimit="79.8403" stroke-linecap="round" stroke-linejoin="round"/>
<path d="M116.341 57.8452C113.617 57.8452 111.397 55.6303 111.397 52.9012C111.397 50.1721 113.617 47.9572 116.341 47.9572C117.056 47.9572 117.726 48.1077 118.341 48.3791" stroke="#0074B8" stroke-width="1.6" stroke-miterlimit="79.8403" stroke-linecap="round" stroke-linejoin="round"/>
<path d="M126.768 52.2376C127.889 52.6309 128.702 53.7021 128.702 54.9612C128.702 56.5532 127.405 57.8452 125.812 57.8452C125.746 57.8452 125.68 57.843 125.614 57.8375" stroke="#0074B8" stroke-width="1.6" stroke-miterlimit="79.8403" stroke-linecap="round" stroke-linejoin="round"/>
<path d="M118.309 48.3569L126.944 52.3154" stroke="#0074B8" stroke-width="1.6" stroke-miterlimit="79.8403" stroke-linecap="round" stroke-linejoin="round"/>
<path d="M125.406 57.8452H116.342" stroke="#0074B8" stroke-width="1.6" stroke-miterlimit="79.8403" stroke-linecap="round" stroke-linejoin="round"/>
<path d="M183.91 57.8452C186.634 57.8452 188.854 55.6303 188.854 52.9012C188.854 50.1721 186.634 47.9572 183.91 47.9572C183.196 47.9572 182.525 48.1077 181.91 48.3791" stroke="#0074B8" stroke-width="1.6" stroke-miterlimit="79.8403" stroke-linecap="round" stroke-linejoin="round"/>
<path d="M173.483 52.2376C172.363 52.6309 171.55 53.7021 171.55 54.9612C171.55 56.5532 172.846 57.8452 174.439 57.8452C174.505 57.8452 174.571 57.843 174.637 57.8375" stroke="#0074B8" stroke-width="1.6" stroke-miterlimit="79.8403" stroke-linecap="round" stroke-linejoin="round"/>
<path d="M181.943 48.3569L173.308 52.3154" stroke="#0074B8" stroke-width="1.6" stroke-miterlimit="79.8403" stroke-linecap="round" stroke-linejoin="round"/>
<path d="M174.846 57.8452H183.91" stroke="#0074B8" stroke-width="1.6" stroke-miterlimit="79.8403" stroke-linecap="round" stroke-linejoin="round"/>
<path fill-rule="evenodd" clip-rule="evenodd" d="M159.189 69.3803C160.013 69.4155 160.508 69.0727 160.837 68.5563L162.485 65.2603C163.122 63.9661 162.309 62.6598 160.837 62.7883H139.413C137.941 62.6598 137.128 63.9661 137.765 65.2603L139.413 68.5563C139.743 69.0727 140.237 69.4155 141.061 69.3803H159.189Z" stroke="#0074B8" stroke-width="1.6" stroke-miterlimit="79.8403" stroke-linecap="round" stroke-linejoin="round"/>
<path fill-rule="evenodd" clip-rule="evenodd" d="M96.5658 96.5211L80.2176 87.0594C78.8663 86.2771 78.8663 85.006 80.2176 84.2248L84.92 81.5155C81.2834 72.981 79.2618 63.5874 79.2618 53.7247C79.2618 35.8262 85.9088 19.4704 96.8625 6.99387L104.652 13.1124C95.0167 23.8991 89.1498 38.1312 89.1498 53.7247C89.1498 61.79 90.7209 69.4917 93.5665 76.5396L96.5878 74.8004C97.9392 74.0193 99.0378 74.6554 99.0378 76.2199L99.0158 95.106C99.0158 96.6705 97.9172 97.3034 96.5658 96.5211ZM208.399 94.0392L200.61 87.9174C207.235 78.1657 211.102 66.3945 211.102 53.7247C211.102 42.1744 207.883 31.37 202.302 22.1599L197.896 24.6923C196.545 25.4735 195.446 24.8373 195.446 23.2728L195.468 4.38673C195.468 2.82222 196.567 2.18938 197.929 2.97163L214.266 12.4334C215.618 13.2156 215.618 14.4868 214.266 15.2679L210.871 17.2236C217.288 27.8873 220.99 40.378 220.99 53.7247C220.99 68.6984 216.343 82.5911 208.399 94.0392Z" stroke="#1E1A34" stroke-width="1.6" stroke-miterlimit="79.8403"/>
</g>
</svg>
