<svg width="320" height="104" viewBox="0 0 320 104" fill="none" xmlns="http://www.w3.org/2000/svg">
<path d="M38.1633 35.6272L58.0527 33.0453C86.2698 20.9289 110.456 15.543 142.704 15.543C166.89 15.543 186.58 21.8074 207.433 34.8964C212.493 37.7201 215.973 39.2255 222.274 40.1521C244.823 42.3511 266.593 44.6551 278.454 57.3196C279.852 59.1554 280.858 61.4463 280.999 64.7163L280.697 78.9529C280.43 81.5381 278.089 82.9111 275.807 83.4231C270.866 84.6736 264.977 85.5521 258.74 85.388" stroke="#EB0A1E" stroke-width="1.6998" stroke-miterlimit="79.8403" stroke-linecap="round" stroke-linejoin="round"/>
<path d="M242.225 96.1518C231.931 96.9451 222.944 89.2263 222.152 78.9114C221.361 68.5964 229.064 59.5915 239.358 58.7982C249.651 58.0049 258.638 65.7237 259.43 76.0386C260.222 86.3535 252.519 95.3585 242.225 96.1518Z" stroke="#EB0A1E" stroke-width="1.6998" stroke-miterlimit="79.8403"/>
<path d="M279.757 69.3963H269.009L274.382 78.8203" stroke="#EB0A1E" stroke-width="1.6998" stroke-miterlimit="79.8403" stroke-linecap="round" stroke-linejoin="round"/>
<path d="M275.728 59.9727H264.977C265.104 55.8558 261.597 52.6952 254.229 50.5487" stroke="#EB0A1E" stroke-width="1.6998" stroke-miterlimit="79.8403" stroke-linecap="round" stroke-linejoin="round"/>
<path d="M223.324 85.5522H103.737" stroke="#EB0A1E" stroke-width="1.6998" stroke-miterlimit="79.8403" stroke-linecap="round" stroke-linejoin="round"/>
<path d="M67.4589 82.8596L40.5848 78.8205C34.7073 77.5755 28.5558 77.5788 27.6135 70.9402L27.8821 63.1321C28.5994 57.5351 30.6576 50.9315 34.1975 40.3785C34.9672 38.2747 36.2458 36.7791 37.8978 35.7387" stroke="#EB0A1E" stroke-width="1.6998" stroke-miterlimit="79.8403" stroke-linecap="round" stroke-linejoin="round"/>
<path d="M39.2408 39.7768H56.7084C60.7396 39.7768 60.7396 42.4692 56.7084 45.1627L47.3031 50.5486L41.9279 53.241L33.1504 52.5233" stroke="#EB0A1E" stroke-width="1.6998" stroke-miterlimit="79.8403" stroke-linecap="round" stroke-linejoin="round"/>
<path d="M99.7063 46.5083H110.456" stroke="#EB0A1E" stroke-width="1.6998" stroke-miterlimit="79.8403" stroke-linecap="round" stroke-linejoin="round"/>
<path d="M156.141 49.2007H166.889" stroke="#EB0A1E" stroke-width="1.6998" stroke-miterlimit="79.8403" stroke-linecap="round" stroke-linejoin="round"/>
<path d="M197.793 34.3909C195.894 34.9455 195.028 36.9159 195.028 38.8851C195.028 42.0633 197.013 43.8159 199.137 43.8159H204.513" stroke="#EB0A1E" stroke-width="1.6998" stroke-miterlimit="79.8403" stroke-linecap="round" stroke-linejoin="round"/>
<path d="M196.449 34.3911C181.213 26.8576 165.259 21.8382 148.076 20.9291" stroke="#EB0A1E" stroke-width="1.6998" stroke-miterlimit="79.8403" stroke-linecap="round" stroke-linejoin="round"/>
<path d="M196.028 42.4507L97.0168 37.0845" stroke="#EB0A1E" stroke-width="1.6998" stroke-miterlimit="79.8403" stroke-linecap="round" stroke-linejoin="round"/>
<path d="M142.704 39.7769L140.016 20.9289C125.27 21.6072 115.831 22.2746 105.081 24.967" stroke="#EB0A1E" stroke-width="1.6998" stroke-miterlimit="79.8403" stroke-linecap="round" stroke-linejoin="round"/>
<path d="M241.647 88.6306C235.499 89.1043 230.131 84.4937 229.659 78.3326C229.186 72.1714 233.787 66.7928 239.935 66.3191C246.083 65.8454 251.451 70.456 251.924 76.6171C252.397 82.7783 247.796 88.1568 241.647 88.6306Z" stroke="#EB0A1E" stroke-width="1.6998" stroke-miterlimit="79.8403"/>
<path d="M87.7023 96.1518C77.4084 96.9451 68.4217 89.2263 67.6299 78.9114C66.8382 68.5964 74.5412 59.5915 84.8351 58.7982C95.129 58.0049 104.116 65.7237 104.907 76.0386C105.699 86.3535 97.9962 95.3585 87.7023 96.1518Z" stroke="#EB0A1E" stroke-width="1.6998" stroke-miterlimit="79.8403"/>
<path d="M87.1257 88.6306C80.9767 89.1044 75.6088 84.4939 75.136 78.3327C74.6631 72.1716 79.2645 66.793 85.4135 66.3192C91.5624 65.8455 96.9304 70.456 97.4032 76.6171C97.876 82.7783 93.2746 88.1569 87.1257 88.6306Z" stroke="#EB0A1E" stroke-width="1.6998" stroke-miterlimit="79.8403"/>
<path fill-rule="evenodd" clip-rule="evenodd" d="M117.001 9.53688V94.4631C117.001 97.5187 119.477 100 122.527 100H186.815C189.864 100 192.341 97.5187 192.341 94.4631V9.53688C192.341 6.48126 189.864 4 186.815 4H122.527C119.477 4 117.001 6.48126 117.001 9.53688Z" fill="white" stroke="white" stroke-width="6.79921" stroke-miterlimit="79.8403"/>
<path d="M137.765 43.5273H129.763C129.211 43.5273 128.763 43.0787 128.763 42.5252V34.5071C128.763 33.9536 129.211 33.505 129.763 33.505H137.765C138.318 33.505 138.766 33.9536 138.766 34.5071V42.5252C138.766 43.0787 138.318 43.5273 137.765 43.5273Z" fill="white" stroke="white" stroke-width="6.79921" stroke-miterlimit="79.8403"/>
<path d="M137.765 59.9375H129.763C129.211 59.9375 128.763 59.4888 128.763 58.9354V50.9172C128.763 50.3638 129.211 49.9151 129.763 49.9151H137.765C138.318 49.9151 138.766 50.3638 138.766 50.9172V58.9354C138.766 59.4888 138.318 59.9375 137.765 59.9375Z" fill="white" stroke="white" stroke-width="6.79921" stroke-miterlimit="79.8403"/>
<path d="M137.765 76.3481H129.763C129.211 76.3481 128.763 75.8995 128.763 75.346V67.3279C128.763 66.7744 129.211 66.3258 129.763 66.3258H137.765C138.318 66.3258 138.766 66.7744 138.766 67.3279V75.346C138.766 75.8995 138.318 76.3481 137.765 76.3481Z" fill="white" stroke="white" stroke-width="6.79921" stroke-miterlimit="79.8403"/>
<path d="M144.775 35.7642H175.707" stroke="white" stroke-width="6.79921" stroke-miterlimit="79.8403" stroke-linecap="round" stroke-linejoin="round"/>
<path d="M144.775 40.6873H164.141" stroke="white" stroke-width="6.79921" stroke-miterlimit="79.8403" stroke-linecap="round" stroke-linejoin="round"/>
<path d="M144.775 52.1746H175.707" stroke="white" stroke-width="6.79921" stroke-miterlimit="79.8403" stroke-linecap="round" stroke-linejoin="round"/>
<path d="M144.775 57.0977H164.141" stroke="white" stroke-width="6.79921" stroke-miterlimit="79.8403" stroke-linecap="round" stroke-linejoin="round"/>
<path d="M144.775 68.585H175.707" stroke="white" stroke-width="6.79921" stroke-miterlimit="79.8403" stroke-linecap="round" stroke-linejoin="round"/>
<path d="M144.775 73.5081H164.141" stroke="white" stroke-width="6.79921" stroke-miterlimit="79.8403" stroke-linecap="round" stroke-linejoin="round"/>
<path d="M139.33 9.14073V14.8844C139.33 16.4532 140.363 17.3459 141.787 17.3459H167.991C169.415 17.3459 170.448 16.4532 170.448 14.8844V9.14073" stroke="white" stroke-width="6.79921" stroke-miterlimit="79.8403" stroke-linecap="round" stroke-linejoin="round"/>
<path fill-rule="evenodd" clip-rule="evenodd" d="M192.66 53.6439L182.349 75.798L181.395 85.0425C181.281 86.3324 182.349 87.0293 183.466 86.0107L189.921 79.335L200.231 57.182C204.723 48.3324 211.89 29.0479 209.441 28.2547L208.854 27.9812C205.952 26.2734 197.736 42.7364 192.66 53.6439Z" fill="white" stroke="white" stroke-width="6.79921" stroke-miterlimit="79.8403"/>
<path d="M189.791 78.4751L183.111 75.3549" stroke="white" stroke-width="6.79921" stroke-miterlimit="79.8403" stroke-linecap="round" stroke-linejoin="round"/>
<path d="M193.148 53.7879L199.827 56.9092" stroke="white" stroke-width="6.79921" stroke-miterlimit="79.8403" stroke-linecap="round" stroke-linejoin="round"/>
<path d="M204.894 31.1812L212.041 34.5497C211.499 39.8776 208.012 48.8158 203.192 59.3875" stroke="white" stroke-width="6.79921" stroke-miterlimit="79.8403" stroke-linecap="round" stroke-linejoin="round"/>
<path d="M242.102 41.9619C242.102 47.1732 237.886 51.3979 232.685 51.3979C227.484 51.3979 223.268 47.1732 223.268 41.9619C223.268 36.7505 227.484 32.5259 232.685 32.5259C237.886 32.5259 242.102 36.7505 242.102 41.9619Z" fill="white" stroke="#111111" stroke-width="1.6998" stroke-miterlimit="79.8403"/>
<path d="M39.8347 51.8081C39.8347 57.0194 35.6184 61.2441 30.4173 61.2441C25.2163 61.2441 21 57.0194 21 51.8081C21 46.5967 25.2163 42.3721 30.4173 42.3721C35.6184 42.3721 39.8347 46.5967 39.8347 51.8081Z" fill="white" stroke="#111111" stroke-width="1.6998" stroke-miterlimit="79.8403"/>
<path d="M88.9882 24.7311C88.9882 29.9533 84.7631 34.1868 79.5512 34.1868C74.3393 34.1868 70.1143 29.9533 70.1143 24.7311C70.1143 19.5088 74.3393 15.2754 79.5512 15.2754C84.7631 15.2754 88.9882 19.5088 88.9882 24.7311Z" fill="white" stroke="#111111" stroke-width="1.6998" stroke-miterlimit="79.8403"/>
<path d="M229.082 41.3054L232.03 44.2593L236.125 40.1567" stroke="#111111" stroke-width="1.6998" stroke-miterlimit="79.8403" stroke-linecap="round" stroke-linejoin="round"/>
<path d="M76.2761 24.2385L79.2242 27.1924L83.3187 23.0898" stroke="#111111" stroke-width="1.6998" stroke-miterlimit="79.8403" stroke-linecap="round" stroke-linejoin="round"/>
<path d="M26.6514 51.0695L29.5994 54.0234L33.6939 49.9208" stroke="#111111" stroke-width="1.6998" stroke-miterlimit="79.8403" stroke-linecap="round" stroke-linejoin="round"/>
<path fill-rule="evenodd" clip-rule="evenodd" d="M117.001 9.53688V94.4631C117.001 97.5187 119.477 100 122.527 100H186.815C189.864 100 192.341 97.5187 192.341 94.4631V9.53688C192.341 6.48126 189.864 4 186.815 4H122.527C119.477 4 117.001 6.48126 117.001 9.53688Z" fill="white" stroke="#EB0A1E" stroke-width="1.6998" stroke-miterlimit="79.8403"/>
<path d="M137.765 43.5273H129.763C129.211 43.5273 128.763 43.0787 128.763 42.5252V34.5071C128.763 33.9536 129.211 33.505 129.763 33.505H137.765C138.318 33.505 138.766 33.9536 138.766 34.5071V42.5252C138.766 43.0787 138.318 43.5273 137.765 43.5273Z" fill="white" stroke="#EB0A1E" stroke-width="1.6998" stroke-miterlimit="79.8403"/>
<path d="M137.765 59.9375H129.763C129.211 59.9375 128.763 59.4888 128.763 58.9354V50.9172C128.763 50.3638 129.211 49.9151 129.763 49.9151H137.765C138.318 49.9151 138.766 50.3638 138.766 50.9172V58.9354C138.766 59.4888 138.318 59.9375 137.765 59.9375Z" fill="white" stroke="#EB0A1E" stroke-width="1.6998" stroke-miterlimit="79.8403"/>
<path d="M137.765 76.3481H129.763C129.211 76.3481 128.763 75.8995 128.763 75.346V67.3279C128.763 66.7744 129.211 66.3258 129.763 66.3258H137.765C138.318 66.3258 138.766 66.7744 138.766 67.3279V75.346C138.766 75.8995 138.318 76.3481 137.765 76.3481Z" fill="white" stroke="#EB0A1E" stroke-width="1.6998" stroke-miterlimit="79.8403"/>
<path d="M144.775 35.7642H175.707" stroke="#EB0A1E" stroke-width="1.6998" stroke-miterlimit="79.8403" stroke-linecap="round" stroke-linejoin="round"/>
<path d="M144.775 40.6873H164.141" stroke="#EB0A1E" stroke-width="1.6998" stroke-miterlimit="79.8403" stroke-linecap="round" stroke-linejoin="round"/>
<path d="M144.775 52.1746H175.707" stroke="#EB0A1E" stroke-width="1.6998" stroke-miterlimit="79.8403" stroke-linecap="round" stroke-linejoin="round"/>
<path d="M144.775 57.0977H164.141" stroke="#EB0A1E" stroke-width="1.6998" stroke-miterlimit="79.8403" stroke-linecap="round" stroke-linejoin="round"/>
<path d="M144.775 68.585H175.707" stroke="#EB0A1E" stroke-width="1.6998" stroke-miterlimit="79.8403" stroke-linecap="round" stroke-linejoin="round"/>
<path d="M144.775 73.5081H164.141" stroke="#EB0A1E" stroke-width="1.6998" stroke-miterlimit="79.8403" stroke-linecap="round" stroke-linejoin="round"/>
<path d="M141.787 9.14073V14.8844C141.787 16.4532 142.82 17.3459 144.244 17.3459H165.535C166.959 17.3459 167.992 16.4532 167.992 14.8844V9.14073" stroke="#EB0A1E" stroke-width="1.6998" stroke-miterlimit="79.8403" stroke-linecap="round" stroke-linejoin="round"/>
<path fill-rule="evenodd" clip-rule="evenodd" d="M192.66 53.6439L182.349 75.798L181.395 85.0425C181.281 86.3324 182.349 87.0293 183.466 86.0107L189.921 79.335L200.231 57.182C204.723 48.3324 211.89 29.0479 209.441 28.2547L208.854 27.9812C205.952 26.2734 197.736 42.7364 192.66 53.6439Z" fill="white" stroke="#111111" stroke-width="1.6998" stroke-miterlimit="79.8403"/>
<path d="M189.791 78.4751L183.111 75.3549" stroke="#111111" stroke-width="1.6998" stroke-miterlimit="79.8403" stroke-linecap="round" stroke-linejoin="round"/>
<path d="M193.148 53.7879L199.827 56.9092" stroke="#111111" stroke-width="1.6998" stroke-miterlimit="79.8403" stroke-linecap="round" stroke-linejoin="round"/>
<path d="M204.894 31.1812L212.041 34.5497C211.499 39.8776 208.012 48.8158 203.192 59.3875" stroke="#111111" stroke-width="1.6998" stroke-miterlimit="79.8403" stroke-linecap="round" stroke-linejoin="round"/>
<path d="M131.101 38.0857L133.363 40.3525L136.505 37.2039" stroke="#EB0A1E" stroke-width="1.6998" stroke-miterlimit="79.8403" stroke-linecap="round" stroke-linejoin="round"/>
</svg>
