<svg width="120" height="124" viewBox="0 0 120 124" fill="none" xmlns="http://www.w3.org/2000/svg">
<path d="M34.9195 20.1393C43.5742 13.7685 54.2759 10 65.8575 10C94.6551 10 118 33.2813 118 62C118 90.7187 94.6551 114 65.8575 114C54.3179 114 43.5485 110.213 34.9102 103.884" stroke="#111111" stroke-width="1.8" stroke-miterlimit="10" stroke-linecap="round" stroke-linejoin="round"/>
<path d="M65.596 80.5025C75.8416 80.5025 84.1472 72.2196 84.1472 62.0022C84.1472 51.7848 75.8416 43.502 65.596 43.502C55.3505 43.502 47.0449 51.7848 47.0449 62.0022C47.0449 72.2196 55.3505 80.5025 65.596 80.5025Z" stroke="#EB0A1E" stroke-width="1.8" stroke-miterlimit="10" stroke-linecap="round" stroke-linejoin="round"/>
<path d="M65.5956 69.6434C69.825 69.6434 73.2536 66.2242 73.2536 62.0063C73.2536 57.7885 69.825 54.3693 65.5956 54.3693C61.3661 54.3693 57.9375 57.7885 57.9375 62.0063C57.9375 66.2242 61.3661 69.6434 65.5956 69.6434Z" stroke="#111111" stroke-width="1.8" stroke-miterlimit="10" stroke-linecap="round" stroke-linejoin="round"/>
<path d="M7.23815 40.1429L17.0972 49.975V74.0198L7.23815 83.8518L2.42997 69.9207C2.42997 69.9207 2.02275 60.375 3.22257 52.6563C4.42239 44.9375 7.23815 40.1429 7.23815 40.1429Z" fill="#EB0A1E" stroke="#EB0A1E" stroke-width="1.8" stroke-miterlimit="10" stroke-linecap="round" stroke-linejoin="round"/>
<path d="M21.081 20.2261L35.2207 33.545V44.357H27.0888V80.1355H35.2207V90.9475L20.257 103.785C9.26826 94.979 2 79.7025 2 62.3288C1.99767 44.5199 9.63238 28.9176 21.081 20.2261Z" stroke="#111111" stroke-width="1.8" stroke-miterlimit="10" stroke-linecap="round" stroke-linejoin="round"/>
<path d="M3.3728 57.0171C6.13166 57.0171 8.37004 59.247 8.37004 62.0006C8.37004 64.7542 6.134 66.9841 3.3728 66.9841" stroke="#111111" stroke-width="1.8" stroke-miterlimit="10" stroke-linecap="round" stroke-linejoin="round"/>
</svg>
