<svg width="120" height="124" viewBox="0 0 120 124" fill="none" xmlns="http://www.w3.org/2000/svg">
<g clip-path="url(#clip0_484_3985)">
<path d="M113.704 37.2621H5.96191V102.861H113.704V37.2621Z" stroke="#111111" stroke-width="1.8" stroke-miterlimit="10" stroke-linecap="round" stroke-linejoin="round"/>
<path d="M7.26057 102.852H1.77658C-0.308543 102.852 -1.99805 104.541 -1.99805 106.626V115.225C-1.99805 117.311 -0.308543 119 1.77658 119H117.889C119.974 119 121.663 117.311 121.663 115.225V110.926" stroke="#111111" stroke-width="1.8" stroke-miterlimit="10" stroke-linecap="round" stroke-linejoin="round"/>
<path d="M112.403 37.2657H117.887C119.972 37.2657 121.661 35.5762 121.661 33.491V24.8918C121.661 22.8067 119.972 21.1172 117.887 21.1172H1.77462C-0.310496 21.1172 -2 22.8067 -2 24.8918V29.1914" stroke="#111111" stroke-width="1.8" stroke-miterlimit="10" stroke-linecap="round" stroke-linejoin="round"/>
<path d="M53.2887 46.439H22.2409C20.1806 46.439 18.5085 48.111 18.5085 50.1713V89.3879C18.5085 91.4482 20.1806 93.1202 22.2409 93.1202H40.8203" stroke="#111111" stroke-width="1.8" stroke-miterlimit="10" stroke-linecap="round" stroke-linejoin="round"/>
<path d="M66.3713 93.1205H97.4192C99.4794 93.1205 101.151 91.4484 101.151 89.3882V50.1715C101.151 48.1113 99.4794 46.4392 97.4192 46.4392H78.8397" stroke="#111111" stroke-width="1.8" stroke-miterlimit="10" stroke-linecap="round" stroke-linejoin="round"/>
<path d="M18.4729 14.8507V11.29H32.3098V14.8507" stroke="#EB0A1E" stroke-width="1.8" stroke-miterlimit="10" stroke-linecap="round" stroke-linejoin="round"/>
<path d="M22.99 5H27.7868" stroke="#111111" stroke-width="1.8" stroke-miterlimit="10" stroke-linecap="round" stroke-linejoin="round"/>
<path d="M87.3474 14.8507V11.29H101.184V14.8507" stroke="#EB0A1E" stroke-width="1.8" stroke-miterlimit="10" stroke-linecap="round" stroke-linejoin="round"/>
<path d="M91.8687 5H96.6654" stroke="#111111" stroke-width="1.8" stroke-miterlimit="10" stroke-linecap="round" stroke-linejoin="round"/>
<path d="M67.7316 42.8879L43.0735 74.5379H56.3506L48.764 97.3001L76.5847 65.0529H62.0411L67.7316 42.8879Z" stroke="#EB0A1E" stroke-width="1.8" stroke-miterlimit="10" stroke-linecap="round" stroke-linejoin="round"/>
<path d="M26.6025 58.8774H34.7838" stroke="#111111" stroke-width="1.8" stroke-miterlimit="10" stroke-linecap="round" stroke-linejoin="round"/>
<path d="M84.8809 58.8774H93.0621" stroke="#111111" stroke-width="1.8" stroke-miterlimit="10" stroke-linecap="round" stroke-linejoin="round"/>
<path d="M30.6929 54.7899V62.9711" stroke="#111111" stroke-width="1.8" stroke-miterlimit="10" stroke-linecap="round" stroke-linejoin="round"/>
</g>
<defs>
<clipPath id="clip0_484_3985">
<rect width="120" height="124" fill="white"/>
</clipPath>
</defs>
</svg>
