<svg width="300" height="100" viewBox="0 0 300 100" fill="none" xmlns="http://www.w3.org/2000/svg">
<mask id="mask0_237_3986" style="mask-type:alpha" maskUnits="userSpaceOnUse" x="0" y="0" width="300" height="100">
<rect width="300" height="100" fill="#D9D9D9"/>
</mask>
<g mask="url(#mask0_237_3986)">
<path d="M173.871 7.40168C170.075 7.40168 166.278 8.92036 164.759 14.2357H158.685C156.876 14.2357 155.647 15.3433 155.647 17.2731V21.8291" stroke="#111111" stroke-width="1.6" stroke-miterlimit="79.8403" stroke-linecap="round" stroke-linejoin="round"/>
<path d="M173.871 7.40168C177.668 7.40168 181.465 8.92036 182.983 14.2357H189.058C190.866 14.2357 192.095 15.3433 192.095 17.2731V21.8291" stroke="#111111" stroke-width="1.6" stroke-miterlimit="79.8403" stroke-linecap="round" stroke-linejoin="round"/>
<path d="M173.871 22.5876H136.664C133.351 22.5876 131.348 24.4384 131.348 27.903V99.2808" stroke="#111111" stroke-width="1.6" stroke-miterlimit="79.8403" stroke-linecap="round" stroke-linejoin="round"/>
<path d="M173.871 22.5893H211.079C214.392 22.5893 216.394 24.4401 216.394 27.9047V40.4773" stroke="#111111" stroke-width="1.6" stroke-miterlimit="79.8403" stroke-linecap="round" stroke-linejoin="round"/>
<path d="M216.394 84.8017V99.2808" stroke="#111111" stroke-width="1.6" stroke-miterlimit="79.8403" stroke-linecap="round" stroke-linejoin="round"/>
<path fill-rule="evenodd" clip-rule="evenodd" d="M224.083 39.8622C236.71 39.8622 246.958 50.1102 246.958 62.7375C246.958 75.3648 236.71 85.6128 224.083 85.6128C211.455 85.6128 201.207 75.3648 201.207 62.7375C201.207 50.1102 211.455 39.8622 224.083 39.8622Z" stroke="#111111" stroke-width="1.6" stroke-miterlimit="79.8403"/>
<path d="M213.789 61.5949L221.796 69.6013L235.146 57.3952" stroke="#111111" stroke-width="1.6" stroke-miterlimit="79.8403" stroke-linecap="round" stroke-linejoin="round"/>
<path d="M129.07 30.9415H110.846C108.568 30.9415 106.773 32.0451 105.531 33.9789L97.9374 46.1283H90.344C88.149 46.2984 87.3087 47.4333 87.3066 49.1656C87.3066 51.4436 90.344 52.9623 93.3813 53.7216L90.344 58.2777C89.5847 59.7963 88.8253 61.315 88.8253 64.3524V91.6885C88.7858 93.2072 89.5462 93.9655 91.1033 93.9666H99.456C100.922 93.8511 101.639 93.0533 101.734 91.6885V86.3732H129.07" stroke="#EB0A1E" stroke-width="1.6" stroke-miterlimit="79.8403" stroke-linecap="round" stroke-linejoin="round"/>
<path d="M129.07 53.7219H101.734C99.5149 53.7219 98.9449 52.0959 100.216 49.9252L107.05 38.5352C108.836 35.6942 109.173 34.7385 112.365 34.7385H129.07" stroke="#EB0A1E" stroke-width="1.6" stroke-miterlimit="79.8403" stroke-linecap="round" stroke-linejoin="round"/>
<path d="M98.6967 70.4275C96.1818 70.4275 94.1387 68.3864 94.1387 65.8715C94.1387 63.3565 96.1818 61.3154 98.6967 61.3154C99.3528 61.3154 99.9765 61.4541 100.54 61.7042" stroke="#EB0A1E" stroke-width="1.6" stroke-miterlimit="79.8403" stroke-linecap="round" stroke-linejoin="round"/>
<path d="M108.304 65.2599C109.342 65.6224 110.087 66.6095 110.087 67.7698C110.087 69.2368 108.895 70.4275 107.428 70.4275C107.364 70.4275 107.302 70.4255 107.24 70.4204" stroke="#EB0A1E" stroke-width="1.6" stroke-miterlimit="79.8403" stroke-linecap="round" stroke-linejoin="round"/>
<path d="M100.513 61.6832L108.468 65.3311" stroke="#EB0A1E" stroke-width="1.6" stroke-miterlimit="79.8403" stroke-linecap="round" stroke-linejoin="round"/>
<path d="M107.049 70.4275H98.6968" stroke="#EB0A1E" stroke-width="1.6" stroke-miterlimit="79.8403" stroke-linecap="round" stroke-linejoin="round"/>
<path d="M128.311 74.9826H119.958C118.603 74.8641 117.854 76.0679 118.44 77.2606L119.958 80.298C120.265 80.7738 120.716 81.0897 121.477 81.0573H128.311" stroke="#EB0A1E" stroke-width="1.6" stroke-miterlimit="79.8403" stroke-linecap="round" stroke-linejoin="round"/>
<path fill-rule="evenodd" clip-rule="evenodd" d="M145.015 41.3334V47.1297C145.015 48.2535 145.929 49.1667 147.052 49.1667H152.851C153.975 49.1667 154.888 48.2535 154.888 47.1297V41.3334C154.888 40.2096 153.975 39.2964 152.851 39.2964H147.052C145.929 39.2964 145.015 40.2096 145.015 41.3334Z" stroke="#111111" stroke-width="1.6" stroke-miterlimit="79.8403"/>
<path fill-rule="evenodd" clip-rule="evenodd" d="M145.015 60.3154V66.1116C145.015 67.2355 145.929 68.1487 147.052 68.1487H152.851C153.975 68.1487 154.888 67.2355 154.888 66.1116V60.3154C154.888 59.1915 153.975 58.2783 152.851 58.2783H147.052C145.929 58.2783 145.015 59.1915 145.015 60.3154Z" stroke="#111111" stroke-width="1.6" stroke-miterlimit="79.8403"/>
<path fill-rule="evenodd" clip-rule="evenodd" d="M145.015 79.2995V85.0958C145.015 86.2196 145.929 87.1328 147.052 87.1328H152.851C153.975 87.1328 154.888 86.2196 154.888 85.0958V79.2995C154.888 78.1757 153.975 77.2624 152.851 77.2624H147.052C145.929 77.2624 145.015 78.1757 145.015 79.2995Z" stroke="#111111" stroke-width="1.6" stroke-miterlimit="79.8403"/>
<path d="M161.722 41.572H197.411" stroke="#111111" stroke-width="1.6" stroke-miterlimit="79.8403" stroke-linecap="round" stroke-linejoin="round"/>
<path d="M161.722 46.8882H189.058" stroke="#111111" stroke-width="1.6" stroke-miterlimit="79.8403" stroke-linecap="round" stroke-linejoin="round"/>
<path d="M161.722 60.5559H197.411" stroke="#111111" stroke-width="1.6" stroke-miterlimit="79.8403" stroke-linecap="round" stroke-linejoin="round"/>
<path d="M161.722 65.8701H189.058" stroke="#111111" stroke-width="1.6" stroke-miterlimit="79.8403" stroke-linecap="round" stroke-linejoin="round"/>
<path d="M161.722 79.54H197.411" stroke="#111111" stroke-width="1.6" stroke-miterlimit="79.8403" stroke-linecap="round" stroke-linejoin="round"/>
<path d="M161.722 84.854H189.058" stroke="#111111" stroke-width="1.6" stroke-miterlimit="79.8403" stroke-linecap="round" stroke-linejoin="round"/>
<path fill-rule="evenodd" clip-rule="evenodd" d="M173.871 11.958C175.548 11.958 176.909 13.3187 176.909 14.9954C176.909 16.672 175.548 18.0327 173.871 18.0327C172.194 18.0327 170.833 16.672 170.833 14.9954C170.833 13.3187 172.194 11.958 173.871 11.958Z" stroke="#111111" stroke-width="1.6" stroke-miterlimit="79.8403"/>
<path fill-rule="evenodd" clip-rule="evenodd" d="M61.5266 29.0429L60.4321 32.8203C60.0201 34.2388 60.8381 35.7261 62.2566 36.1371L72.5248 39.1137C73.9443 39.5248 75.4316 38.7067 75.8426 37.2883L76.9381 33.5118C77.3482 32.0914 76.5301 30.6051 75.1116 30.193L64.8434 27.2164C63.4249 26.8054 61.9387 27.6244 61.5266 29.0429Z" stroke="#111111" stroke-width="1.6" stroke-miterlimit="79.8403"/>
<path d="M68.6431 28.4366L62.7324 35.1917" stroke="#111111" stroke-width="1.6" stroke-miterlimit="79.8403" stroke-linecap="round" stroke-linejoin="round"/>
<path d="M74.2168 30.0802L67.8201 37.3911" stroke="#111111" stroke-width="1.6" stroke-miterlimit="79.8403" stroke-linecap="round" stroke-linejoin="round"/>
<path fill-rule="evenodd" clip-rule="evenodd" d="M63.4271 19.8011C63.0292 21.7298 63.8169 22.6329 65.1158 23.0946L84.8333 28.8787C86.3965 29.469 86.8127 31.0494 86.3955 32.4678L85.1229 37.2527C77.8474 42.4091 74.3281 48.581 75.1735 61.185L77.3898 86.7291C78.1046 92.3512 75.6757 97.946 69.2375 97.946C63.6174 97.946 60.5335 94.0026 61.2685 87.0217L63.8786 60.13C64.5408 52.8221 63.4514 47.5442 59.843 42.5832L52.7903 31.6589C50.2591 26.2402 50.7026 21.1699 54.2087 16.46L60.7623 9.23108C62.2719 7.69013 64.0973 6.84271 66.5039 7.27199L63.4271 19.8011Z" stroke="#111111" stroke-width="1.6" stroke-miterlimit="79.8403" stroke-linejoin="round"/>
<path d="M84.001 28.2805C84.7452 20.9787 82.9572 15.6674 78.7312 12.2706L75.2859 25.9165" stroke="#111111" stroke-width="1.6" stroke-miterlimit="79.8403" stroke-linecap="round" stroke-linejoin="round"/>
<path fill-rule="evenodd" clip-rule="evenodd" d="M69.5293 85.9421C71.6271 85.9421 73.331 87.644 73.331 89.7418C73.331 91.8396 71.6271 93.5415 69.5293 93.5415C67.4315 93.5415 65.7285 91.8396 65.7285 89.7418C65.7285 87.644 67.4315 85.9421 69.5293 85.9421Z" stroke="#111111" stroke-width="1.6" stroke-miterlimit="79.8403" stroke-linejoin="round"/>
</g>
</svg>
