<svg width="300" height="100" viewBox="0 0 300 100" fill="none" xmlns="http://www.w3.org/2000/svg">
<mask id="mask0_237_4110" style="mask-type:alpha" maskUnits="userSpaceOnUse" x="0" y="0" width="300" height="100">
<rect width="300" height="100" fill="#D9D9D9"/>
</mask>
<g mask="url(#mask0_237_4110)">
<path d="M229.42 82.6302V85.9135C229.42 88.3759 230.241 89.1968 232.704 89.1968H243.375C245.581 88.5511 246.753 87.2334 246.658 85.0926V71.9594L244.195 68.6761C244.195 62.1094 241.733 58.8261 236.808 58.0053L203.975 50.6178L198.229 48.9762L171.142 36.6638C157.188 30.918 146.517 30.0971 135.846 30.0971C121.071 30.0971 111.433 31.1763 101.371 33.3805C92.1998 35.6153 83.313 39.1263 73.463 43.2304C66.0756 45.6929 62.9783 46.216 54.584 47.3345C50.6911 48.0404 49.3329 50.1078 49.659 53.0803V63.7511L47.1965 67.0344V73.601L49.659 82.6302C49.8035 84.0299 50.5805 84.888 52.1215 85.0926L62.7923 86.7343C64.91 86.8306 66.718 86.4333 66.8964 83.451V82.6302" stroke="#111111" stroke-width="1.6" stroke-miterlimit="79.8403" stroke-linecap="round" stroke-linejoin="round"/>
<path fill-rule="evenodd" clip-rule="evenodd" d="M209.72 67.0346C218.328 67.0346 225.316 74.0215 225.316 82.6292C225.316 91.237 218.328 98.2239 209.72 98.2239C201.113 98.2239 194.125 91.237 194.125 82.6292C194.125 74.0215 201.113 67.0346 209.72 67.0346Z" stroke="#111111" stroke-width="1.6" stroke-miterlimit="79.8403"/>
<path fill-rule="evenodd" clip-rule="evenodd" d="M209.721 74.3748C214.278 74.3748 217.977 78.0729 217.977 82.6302C217.977 87.1874 214.278 90.8855 209.721 90.8855C205.163 90.8855 201.464 87.1874 201.464 82.6302C201.464 78.0729 205.163 74.3748 209.721 74.3748Z" stroke="#111111" stroke-width="1.6" stroke-miterlimit="79.8403"/>
<path fill-rule="evenodd" clip-rule="evenodd" d="M86.5962 67.0346C95.204 67.0346 102.192 74.0215 102.192 82.6292C102.192 91.237 95.204 98.2239 86.5962 98.2239C77.9885 98.2239 71.0005 91.237 71.0005 82.6292C71.0005 74.0215 77.9885 67.0346 86.5962 67.0346Z" stroke="#111111" stroke-width="1.6" stroke-miterlimit="79.8403"/>
<path fill-rule="evenodd" clip-rule="evenodd" d="M86.5963 74.3748C91.1535 74.3748 94.8527 78.0729 94.8527 82.6302C94.8527 87.1874 91.1535 90.8855 86.5963 90.8855C82.0391 90.8855 78.3398 87.1874 78.3398 82.6302C78.3398 78.0729 82.0391 74.3748 86.5963 74.3748Z" stroke="#111111" stroke-width="1.6" stroke-miterlimit="79.8403"/>
<path d="M240.912 67.855H237.629C236.77 67.4292 235.892 67.1337 235.287 64.9383L233.645 60.0954" stroke="#EB0A1E" stroke-width="1.6" stroke-miterlimit="79.8403" stroke-linecap="round" stroke-linejoin="round"/>
<path d="M49.6589 63.7512H56.2256" stroke="#111111" stroke-width="1.6" stroke-miterlimit="79.8403" stroke-linecap="round" stroke-linejoin="round"/>
<path d="M52.1216 52.2592H57.0466C59.8625 52.4869 60.3299 54.6769 58.6882 57.1842L56.2257 60.4675" stroke="#EB0A1E" stroke-width="1.6" stroke-miterlimit="79.8403" stroke-linecap="round" stroke-linejoin="round"/>
<path d="M73.4631 50.6182L135.846 53.1025" stroke="#111111" stroke-width="1.6" stroke-miterlimit="79.8403" stroke-linecap="round" stroke-linejoin="round"/>
<path d="M135.025 49.7964L133.383 34.2006C123.456 34.2357 113.83 35.1824 104.654 37.484C102.509 38.3431 100.55 40.7673 99.7295 44.8714L98.9087 48.9756" stroke="#111111" stroke-width="1.6" stroke-miterlimit="79.8403" stroke-linecap="round" stroke-linejoin="round"/>
<path d="M93.1629 48.1548L95.6254 39.9465C88.238 42.409 83.313 44.0506 83.313 47.334" stroke="#111111" stroke-width="1.6" stroke-miterlimit="79.8403" stroke-linecap="round" stroke-linejoin="round"/>
<path d="M66.8965 82.6294C66.8965 71.7562 75.7231 62.9317 86.5964 62.9317C97.4696 62.9317 106.296 71.7562 106.296 82.6294" stroke="#111111" stroke-width="1.6" stroke-miterlimit="79.8403" stroke-linecap="round" stroke-linejoin="round"/>
<path d="M106.296 82.63V85.0924C106.448 86.7111 107.728 87.3754 109.579 87.5549H186.737C188.379 87.5549 190.021 86.7341 190.021 84.2716V82.63" stroke="#111111" stroke-width="1.6" stroke-miterlimit="79.8403" stroke-linecap="round" stroke-linejoin="round"/>
<path d="M190.021 82.6294C190.021 71.7562 198.847 62.9317 209.72 62.9317C220.594 62.9317 229.42 71.7562 229.42 82.6294" stroke="#111111" stroke-width="1.6" stroke-miterlimit="79.8403" stroke-linecap="round" stroke-linejoin="round"/>
<path d="M97.2671 53.9004V58.0045C97.3787 59.4481 97.9336 60.536 98.9087 61.2879C104.95 65.1841 109.979 70.8401 113.419 79.2454C114.504 80.9877 114.504 82.6294 116.967 82.6294H180.992C182.633 82.6294 184.275 81.8086 184.275 79.3461C184.275 71.1378 184.848 65.1458 182.633 55.5421L181.812 53.9004C178.098 55.2947 173.604 55.5421 173.604 50.6171C173.604 47.3338 174.265 46.0128 176.067 45.6921C177.708 45.6921 180.164 47.3349 182.633 49.7963" stroke="#111111" stroke-width="1.6" stroke-miterlimit="79.8403" stroke-linecap="round" stroke-linejoin="round"/>
<path d="M174.425 53.9001L135.846 53.0793" stroke="#111111" stroke-width="1.6" stroke-miterlimit="79.8403" stroke-linecap="round" stroke-linejoin="round"/>
<path d="M187.038 55.6366L212.69 58.0039" stroke="#111111" stroke-width="1.6" stroke-miterlimit="79.8403" stroke-linecap="round" stroke-linejoin="round"/>
<path d="M141.592 86.7329C141.592 72.7788 140.771 65.3914 139.129 53.8998" stroke="#111111" stroke-width="1.6" stroke-miterlimit="79.8403" stroke-linecap="round" stroke-linejoin="round"/>
<path d="M142.413 49.7964L139.95 34.2006C148.158 34.2006 158.829 35.8423 169.5 40.7673L172.783 42.4089C175.831 44.2301 173.915 46.1016 173.849 47.8417" stroke="#111111" stroke-width="1.6" stroke-miterlimit="79.8403" stroke-linecap="round" stroke-linejoin="round"/>
<path fill-rule="evenodd" clip-rule="evenodd" d="M85.7744 1.36881C101.633 1.36881 114.504 14.2394 114.504 30.0978C114.504 45.9551 101.633 58.8257 85.7744 58.8257C69.9171 58.8257 57.0454 45.9551 57.0454 30.0978C57.0454 14.2394 69.9171 1.36881 85.7744 1.36881Z" fill="white" stroke="#EB0A1E" stroke-width="1.6" stroke-miterlimit="79.8403"/>
<path d="M85.7754 5.47159V30.0964H97.267" stroke="#EB0A1E" stroke-width="1.6" stroke-miterlimit="79.8403" stroke-linecap="round" stroke-linejoin="round"/>
<path d="M105.475 30.0964H110.4" stroke="#EB0A1E" stroke-width="1.6" stroke-miterlimit="79.8403" stroke-linecap="round" stroke-linejoin="round"/>
<path d="M61.1506 30.0964H66.0756" stroke="#EB0A1E" stroke-width="1.6" stroke-miterlimit="79.8403" stroke-linecap="round" stroke-linejoin="round"/>
<path d="M85.7744 54.7222L85.7755 49.7972" stroke="#EB0A1E" stroke-width="1.6" stroke-miterlimit="79.8403" stroke-linecap="round" stroke-linejoin="round"/>
<path d="M85.7744 10.3962V5.47127" stroke="#EB0A1E" stroke-width="1.6" stroke-miterlimit="79.8403" stroke-linecap="round" stroke-linejoin="round"/>
<path d="M105.679 18.6055L107.102 17.7846" stroke="#EB0A1E" stroke-width="1.6" stroke-miterlimit="79.8403" stroke-linecap="round" stroke-linejoin="round"/>
<path d="M64.4492 42.4092L65.872 41.5884" stroke="#EB0A1E" stroke-width="1.6" stroke-miterlimit="79.8403" stroke-linecap="round" stroke-linejoin="round"/>
<path d="M98.0868 51.4221L97.2671 50.0004" stroke="#EB0A1E" stroke-width="1.6" stroke-miterlimit="79.8403" stroke-linecap="round" stroke-linejoin="round"/>
<path d="M74.2838 10.1948L73.4619 8.77097" stroke="#EB0A1E" stroke-width="1.6" stroke-miterlimit="79.8403" stroke-linecap="round" stroke-linejoin="round"/>
<path d="M97.2671 10.1907L98.0879 8.769" stroke="#EB0A1E" stroke-width="1.6" stroke-miterlimit="79.8403" stroke-linecap="round" stroke-linejoin="round"/>
<path d="M73.4619 51.4221L74.2838 49.9993" stroke="#EB0A1E" stroke-width="1.6" stroke-miterlimit="79.8403" stroke-linecap="round" stroke-linejoin="round"/>
<path d="M107.099 42.4092L105.678 41.5873" stroke="#EB0A1E" stroke-width="1.6" stroke-miterlimit="79.8403" stroke-linecap="round" stroke-linejoin="round"/>
<path d="M65.8677 18.6055L64.4482 17.7857" stroke="#EB0A1E" stroke-width="1.6" stroke-miterlimit="79.8403" stroke-linecap="round" stroke-linejoin="round"/>
<path d="M44.7341 48.9766L38.9883 44.8724" stroke="#EB0A1E" stroke-width="1.6" stroke-miterlimit="79.8403" stroke-linecap="round" stroke-linejoin="round"/>
<path d="M44.7341 63.7508L38.9883 67.855" stroke="#EB0A1E" stroke-width="1.6" stroke-miterlimit="79.8403" stroke-linecap="round" stroke-linejoin="round"/>
<path d="M43.0923 56.3638H36.5256" stroke="#EB0A1E" stroke-width="1.6" stroke-miterlimit="79.8403" stroke-linecap="round" stroke-linejoin="round"/>
<path d="M238.532 53.2207L239.693 46.2557" stroke="#EB0A1E" stroke-width="1.6" stroke-miterlimit="79.8403" stroke-linecap="round" stroke-linejoin="round"/>
<path d="M248.979 63.668L255.944 62.5068" stroke="#EB0A1E" stroke-width="1.6" stroke-miterlimit="79.8403" stroke-linecap="round" stroke-linejoin="round"/>
<path d="M245.737 56.4614L250.381 51.8177" stroke="#EB0A1E" stroke-width="1.6" stroke-miterlimit="79.8403" stroke-linecap="round" stroke-linejoin="round"/>
<path fill-rule="evenodd" clip-rule="evenodd" d="M132.913 92.6944L147.877 66.7792C149.115 64.633 151.129 64.633 152.368 66.7792L167.328 92.6944C168.568 94.8405 167.562 96.584 165.082 96.584H135.159C132.68 96.584 131.675 94.8405 132.913 92.6944ZM159.352 88.7785L151.423 75.2928C150.754 74.1557 149.669 74.1557 149 75.2928L141.07 88.7774C140.401 89.9145 140.93 90.8382 142.248 90.8382L158.174 90.8393C159.492 90.8393 160.021 89.9156 159.352 88.7785Z" fill="white" stroke="#EB0A1E" stroke-width="1.6" stroke-miterlimit="79.8403"/>
</g>
</svg>
