<svg width="320" height="104" viewBox="0 0 320 104" fill="none" xmlns="http://www.w3.org/2000/svg">
<path d="M81.8212 85.5535L59.4795 82.1763" stroke="#EB0A1E" stroke-width="1.6998" stroke-miterlimit="79.8403" stroke-linecap="round" stroke-linejoin="round"/>
<path d="M59.4798 82.176L59.4843 78.1986C56.9145 68.302 57.6408 59.4125 60.3311 51.0813" stroke="#EB0A1E" stroke-width="1.6998" stroke-miterlimit="79.8403" stroke-linecap="round" stroke-linejoin="round" stroke-dasharray="3.4 3.4"/>
<path d="M60.3299 51.0815L57.9381 43.6038C56.8671 40.7792 58.7083 39.8027 62.2612 39.91C68.5583 36.3045 74.8588 33.0686 81.1559 30.1898C79.1109 29.0912 78.3508 28.1462 78.3711 27.1573C94.3762 23.4895 109.262 21.5037 123.444 20.5791" stroke="#EB0A1E" stroke-width="1.6998" stroke-miterlimit="79.8403" stroke-linecap="round" stroke-linejoin="round"/>
<path d="M123.445 20.579C149.594 18.8656 170.649 19.5619 184.051 23.9382" stroke="#EB0A1E" stroke-width="1.6998" stroke-miterlimit="79.8403" stroke-linecap="round" stroke-linejoin="round" stroke-dasharray="3.4 3.4"/>
<path d="M184.049 23.9381C197.037 28.6253 209.597 34.6032 221.855 41.4797" stroke="#EB0A1E" stroke-width="1.6998" stroke-miterlimit="79.8403" stroke-linecap="round" stroke-linejoin="round"/>
<path d="M221.856 41.4798C232.585 42.454 243.198 44.0014 253.683 46.1874C263.465 48.4682 268.507 52.7542 271.71 56.3021L270.559 59.7629" stroke="#EB0A1E" stroke-width="1.6998" stroke-miterlimit="79.8403" stroke-linecap="round" stroke-linejoin="round" stroke-dasharray="3.4 3.4"/>
<path d="M270.56 59.7631L272.86 71.3043L269.41 82.8454L259.062 85.1534L249.863 88.6143" stroke="#EB0A1E" stroke-width="1.6998" stroke-miterlimit="79.8403" stroke-linecap="round" stroke-linejoin="round"/>
<path d="M62.3896 39.8523L82.1673 38.3513" stroke="#EB0A1E" stroke-width="1.6998" stroke-miterlimit="79.8403" stroke-linecap="round" stroke-linejoin="round"/>
<path d="M198.197 36.605C185.08 29.5747 173.366 24.9576 155.654 24.4863" stroke="#EB0A1E" stroke-width="1.6998" stroke-miterlimit="79.8403" stroke-linecap="round" stroke-linejoin="round"/>
<path d="M201.543 40.865C200.916 38.8644 199.922 37.6359 198.387 36.6932C194.446 36.7983 190.955 37.8178 191.484 41.3262C191.638 42.9311 192.269 43.5675 193.036 44.0953C194.202 44.9826 196.301 44.9928 198.153 44.8458" stroke="#EB0A1E" stroke-width="1.6998" stroke-miterlimit="79.8403" stroke-linecap="round" stroke-linejoin="round"/>
<path d="M192.372 43.6069L118.784 41.2989L90.0381 35.5278" stroke="#EB0A1E" stroke-width="1.6998" stroke-miterlimit="79.8403" stroke-linecap="round" stroke-linejoin="round"/>
<path d="M150.978 41.2988L148.679 25.1417C137.255 24.398 126.265 25.7758 115.335 27.4497" stroke="#EB0A1E" stroke-width="1.6998" stroke-miterlimit="79.8403" stroke-linecap="round" stroke-linejoin="round"/>
<path d="M170.525 50.5308H161.327" stroke="#EB0A1E" stroke-width="1.6998" stroke-miterlimit="79.8403" stroke-linecap="round" stroke-linejoin="round"/>
<path d="M116.485 47.0679H107.286" stroke="#EB0A1E" stroke-width="1.6998" stroke-miterlimit="79.8403" stroke-linecap="round" stroke-linejoin="round"/>
<path d="M251.011 79.3823C251.646 88.9423 244.439 97.2089 234.915 97.8462C225.39 98.4835 217.154 91.2502 216.519 81.6901C215.884 72.1301 223.091 63.8635 232.615 63.2262C242.14 62.5889 250.376 69.8222 251.011 79.3823Z" stroke="#EB0A1E" stroke-width="1.6998" stroke-miterlimit="79.8403" stroke-linecap="round" stroke-linejoin="round" stroke-dasharray="3.4 3.4"/>
<path d="M271.366 63.9856L263.662 55.1469L247.564 50.5309" stroke="#EB0A1E" stroke-width="1.6998" stroke-miterlimit="79.8403" stroke-linecap="round" stroke-linejoin="round"/>
<path d="M254.461 57.4561C258.151 60.7926 261.216 64.6661 263.661 68.9961" stroke="#EB0A1E" stroke-width="1.6998" stroke-miterlimit="79.8403" stroke-linecap="round" stroke-linejoin="round"/>
<path d="M255.614 79.3821C255.941 62.4439 246.414 55.147 233.767 53.993C217.67 53.993 209.218 62.7412 208.471 78.2281" stroke="#EB0A1E" stroke-width="1.6998" stroke-miterlimit="79.8403" stroke-linecap="round" stroke-linejoin="round"/>
<path d="M216.519 86.3071H119.934" stroke="#EB0A1E" stroke-width="1.6998" stroke-miterlimit="79.8403" stroke-linecap="round" stroke-linejoin="round"/>
<path d="M210.769 79.3821L144.08 75.9201L121.083 79.3821" stroke="#EB0A1E" stroke-width="1.6998" stroke-miterlimit="79.8403" stroke-linecap="round" stroke-linejoin="round"/>
<path d="M124.533 78.228C123.383 65.534 115.335 53.993 100.387 53.993C86.589 53.993 79.0724 60.909 76.2402 73.612" stroke="#EB0A1E" stroke-width="1.6998" stroke-miterlimit="79.8403" stroke-linecap="round" stroke-linejoin="round"/>
<path d="M58.9941 44.76H80.8404L71.6424 51.6851L60.1439 49.3771" stroke="#EB0A1E" stroke-width="1.6998" stroke-miterlimit="79.8403" stroke-linecap="round" stroke-linejoin="round"/>
<path d="M116.484 79.3823C117.119 88.9423 109.912 97.2089 100.387 97.8462C90.8625 98.4835 82.6264 91.2502 81.9915 81.6901C81.3565 72.1301 88.5632 63.8635 98.0879 63.2262C107.613 62.5889 115.849 69.8222 116.484 79.3823Z" stroke="#EB0A1E" stroke-width="1.6998" stroke-miterlimit="79.8403" stroke-linecap="round" stroke-linejoin="round" stroke-dasharray="3.4 3.4"/>
<path d="M231.146 25.3736C241.875 26.3478 252.488 27.8952 262.973 30.0812C272.755 32.362 277.797 36.648 281 40.1959L279.849 43.6567" stroke="#111111" stroke-width="1.6998" stroke-miterlimit="79.8403" stroke-linecap="round" stroke-linejoin="round"/>
<path d="M123.445 7.86346C149.594 6.14998 170.649 6.84627 184.051 11.2227" stroke="#111111" stroke-width="1.6998" stroke-miterlimit="79.8403" stroke-linecap="round" stroke-linejoin="round"/>
<path d="M42.5882 82.176L42.5927 78.1986C40.0229 68.302 40.7492 59.4125 43.4395 51.0813" stroke="#111111" stroke-width="1.6998" stroke-miterlimit="79.8403" stroke-linecap="round" stroke-linejoin="round"/>
<path fill-rule="evenodd" clip-rule="evenodd" d="M159.045 92.7937L153.739 80.6863C152.646 78.2121 149.579 76.432 146.893 76.7248L133.8 78.1534C131.529 75.252 129.652 72.0217 128.262 68.5495L136.049 57.8719C137.642 55.6826 137.642 52.1268 136.052 49.942L128.262 39.2734C129.657 35.7968 131.531 32.5665 133.803 29.6628L146.897 31.0892C149.583 31.3785 152.646 29.6029 153.739 27.1242L159.049 15.0282C160.857 14.7739 162.701 14.6371 164.578 14.6371C166.455 14.6371 168.302 14.7739 170.112 15.0282L175.423 27.1242C176.51 29.6029 179.581 31.3785 182.268 31.0869L195.35 29.665C197.621 32.5664 199.496 35.7968 200.89 39.2734L193.112 49.9442C191.518 52.129 191.514 55.6871 193.108 57.8742L200.895 68.5428C199.5 72.0217 197.626 75.2565 195.35 78.1557L182.268 76.7292C179.581 76.4399 176.514 78.2155 175.427 80.6942L170.107 92.7937C168.3 93.048 166.453 93.1814 164.578 93.1814C162.701 93.1814 160.85 93.048 159.045 92.7937Z" fill="white" stroke="white" stroke-width="6.79921" stroke-miterlimit="79.8403" stroke-linejoin="round"/>
<path d="M164.693 66.5295V41.2953" stroke="white" stroke-width="6.79921" stroke-miterlimit="79.8403" stroke-linecap="round" stroke-linejoin="round"/>
<path d="M177.264 53.9136H152.122" stroke="white" stroke-width="6.79921" stroke-miterlimit="79.8403" stroke-linecap="round" stroke-linejoin="round"/>
<path fill-rule="evenodd" clip-rule="evenodd" d="M159.045 92.7937L153.739 80.6863C152.646 78.2121 149.579 76.432 146.893 76.7248L133.8 78.1534C131.529 75.252 129.652 72.0217 128.262 68.5495L136.049 57.8719C137.642 55.6826 137.642 52.1268 136.052 49.942L128.262 39.2734C129.657 35.7968 131.531 32.5665 133.803 29.6628L146.897 31.0892C149.583 31.3785 152.646 29.6029 153.739 27.1242L159.049 15.0282C160.857 14.7739 162.701 14.6371 164.578 14.6371C166.455 14.6371 168.302 14.7739 170.112 15.0282L175.423 27.1242C176.51 29.6029 179.581 31.3785 182.268 31.0869L195.35 29.665C197.621 32.5664 199.496 35.7968 200.89 39.2734L193.112 49.9442C191.518 52.129 191.514 55.6871 193.108 57.8742L200.895 68.5428C199.5 72.0217 197.626 75.2565 195.35 78.1557L182.268 76.7292C179.581 76.4399 176.514 78.2155 175.427 80.6942L170.107 92.7937C168.3 93.048 166.453 93.1814 164.578 93.1814C162.701 93.1814 160.85 93.048 159.045 92.7937Z" fill="white" stroke="#111111" stroke-width="1.6998" stroke-miterlimit="79.8403" stroke-linejoin="round"/>
<path d="M164.693 66.5295V41.2953" stroke="#111111" stroke-width="1.6998" stroke-miterlimit="79.8403" stroke-linecap="round" stroke-linejoin="round"/>
<path d="M177.264 53.9136H152.122" stroke="#111111" stroke-width="1.6998" stroke-miterlimit="79.8403" stroke-linecap="round" stroke-linejoin="round"/>
</svg>
