<svg width="155" height="124" viewBox="0 0 155 124" fill="none" xmlns="http://www.w3.org/2000/svg">
<g clip-path="url(#clip0_484_1882)">
<path d="M7.18066 97.3631L7.20235 45.5272L7.20855 34.6729L7.21475 13.621C7.21475 11.0685 9.297 8.99692 11.8657 9L144.176 9.06164C146.741 9.06164 148.823 11.1332 148.82 13.6888L148.786 97.3693" stroke="#111111" stroke-width="1.8" stroke-miterlimit="10" stroke-linecap="round" stroke-linejoin="round"/>
<path d="M126.868 107.669H151.901C153.612 107.669 155 109.05 155 110.752C155 115.86 150.839 120 145.704 120H10.2958C5.16141 120 1 115.86 1 110.752C1 109.05 2.38817 107.669 4.09859 107.669H116.023H126.868Z" stroke="#111111" stroke-width="1.8" stroke-miterlimit="10" stroke-linecap="round" stroke-linejoin="round"/>
<path d="M75.5595 81.3861V86.7007C75.5595 88.1002 74.5897 89.2378 73.3967 89.2378H61.9753C60.7793 89.2378 59.8125 88.1033 59.8125 86.7007V81.3861" stroke="#111111" stroke-width="1.8" stroke-miterlimit="10" stroke-linecap="round" stroke-linejoin="round"/>
<path d="M134.656 81.3858V86.7004C134.656 88.0999 133.686 89.2375 132.493 89.2375H121.072C119.876 89.2375 118.909 88.103 118.909 86.7004V81.3858" stroke="#111111" stroke-width="1.8" stroke-miterlimit="10" stroke-linecap="round" stroke-linejoin="round"/>
<path d="M60.2161 38.1195H56.6186C51.9118 38.1195 53.6377 46.4953 59.6397 46.4953H68.3158V46.1747C68.3127 41.7263 64.6873 38.1195 60.2161 38.1195Z" stroke="#111111" stroke-width="1.8" stroke-miterlimit="10" stroke-linecap="round" stroke-linejoin="round"/>
<path d="M134.098 38.061H137.695C139.186 38.061 140.394 39.2633 140.394 40.7461C140.394 43.8904 137.832 46.4368 134.674 46.4368H125.998V46.1162C125.998 41.6678 129.623 38.061 134.098 38.061Z" stroke="#111111" stroke-width="1.8" stroke-miterlimit="10" stroke-linecap="round" stroke-linejoin="round"/>
<path d="M89.0768 66.702C87.041 66.702 85.2562 65.3425 84.7295 63.385L83.5117 58.8688H110.944L109.726 63.385C109.199 65.3425 107.414 66.702 105.378 66.702" stroke="#111111" stroke-width="1.8" stroke-miterlimit="10" stroke-linecap="round" stroke-linejoin="round"/>
<path d="M117.027 67.2774H125.542C127.544 67.2774 129.165 65.1688 129.165 62.57V61.3924C129.165 60.0915 128.353 59.0403 127.352 59.0403H122.936C120.51 59.0403 118.378 61.1304 117.712 64.1607L117.027 67.2774Z" fill="#002C5E" stroke="#002C5E" stroke-width="1.8" stroke-miterlimit="10" stroke-linecap="round" stroke-linejoin="round"/>
<path d="M77.5405 67.2774H69.0256C67.0239 67.2774 65.4033 65.1688 65.4033 62.57V61.3924C65.4033 60.0915 66.2151 59.0403 67.216 59.0403H71.6315C74.0577 59.0403 76.1895 61.1304 76.8557 64.1607L77.5405 67.2774Z" fill="#002C5E" stroke="#002C5E" stroke-width="1.8" stroke-miterlimit="10" stroke-linecap="round" stroke-linejoin="round"/>
<path d="M117.799 28.2317H76.6529C74.6946 28.2317 72.9904 29.5634 72.5225 31.4531L68.3115 46.4906H126.141L121.93 31.4531C121.462 29.5634 119.757 28.2317 117.799 28.2317Z" stroke="#111111" stroke-width="1.8" stroke-miterlimit="10" stroke-linecap="round" stroke-linejoin="round"/>
<path d="M137.756 70.2229C137.687 70.2229 137.564 70.2229 137.39 70.2229V56.9611C137.39 53.2618 135.106 49.9448 131.639 48.61L126.139 46.4922H68.31L62.81 48.61C59.3427 49.9448 57.059 53.2618 57.059 56.9611V70.2229C56.8886 70.2229 56.7615 70.2229 56.6934 70.2229C55.4663 70.2229 54.4717 71.2248 54.4717 72.461V79.0919C54.4717 80.3281 55.4663 81.33 56.6934 81.33C59.4883 81.33 131.36 81.33 137.756 81.33C138.983 81.33 139.977 80.3281 139.977 79.0919V72.461C139.977 71.2248 138.983 70.2229 137.756 70.2229Z" stroke="#111111" stroke-width="1.8" stroke-miterlimit="10" stroke-linecap="round" stroke-linejoin="round"/>
<path d="M35.334 54.9917C31.7397 59.4246 25.211 60.1182 20.7552 56.5423C18.7566 54.9392 17.514 52.7505 17.0771 50.4231" stroke="#002C5E" stroke-width="1.8" stroke-miterlimit="10" stroke-linecap="round" stroke-linejoin="round"/>
<path d="M35.692 57.5497L36.3144 53.7819L32.5303 54.0777" stroke="#002C5E" stroke-width="1.8" stroke-miterlimit="10" stroke-linecap="round" stroke-linejoin="round"/>
<path d="M19.6182 40.3488C23.228 35.9282 29.7568 35.2531 34.2001 38.8445C36.4466 40.6602 37.7325 43.2188 37.9866 45.8762" stroke="#002C5E" stroke-width="1.8" stroke-miterlimit="10" stroke-linecap="round" stroke-linejoin="round"/>
<path d="M19.2673 37.7923L18.4033 41.668L22.3361 41.1196" stroke="#002C5E" stroke-width="1.8" stroke-miterlimit="10" stroke-linecap="round" stroke-linejoin="round"/>
<path d="M16.2734 72.604H37.9884" stroke="#111111" stroke-width="1.8" stroke-miterlimit="10" stroke-linecap="round" stroke-linejoin="round"/>
<path d="M33.1768 80.9263H37.8184" stroke="#111111" stroke-width="1.8" stroke-miterlimit="10" stroke-linecap="round" stroke-linejoin="round"/>
<path d="M16.1035 80.9263H25.0368" stroke="#111111" stroke-width="1.8" stroke-miterlimit="10" stroke-linecap="round" stroke-linejoin="round"/>
</g>
<defs>
<clipPath id="clip0_484_1882">
<rect width="155" height="124" fill="white"/>
</clipPath>
</defs>
</svg>
