<svg width="300" height="100" viewBox="0 0 300 100" fill="none" xmlns="http://www.w3.org/2000/svg">
<mask id="mask0_223_1323" style="mask-type:alpha" maskUnits="userSpaceOnUse" x="0" y="0" width="300" height="100">
<rect width="300" height="100" fill="#D9D9D9"/>
</mask>
<g mask="url(#mask0_223_1323)">
<path d="M89.4463 48.9341H105.096" stroke="#002C5E" stroke-width="1.6" stroke-miterlimit="79.8403" stroke-linecap="round" stroke-linejoin="round"/>
<path d="M93.566 48.9338V53.0518H88.6238L84.5059 57.1708V72.8196H90.2713L96.8598 78.585H110.862V71.9964H114.157V76.1144H117.451L120.746 70.349V62.9362L117.451 57.1708H114.157V61.2888H110.862V57.994L106.744 53.0518H100.979V48.9338" stroke="#002C5E" stroke-width="1.6" stroke-miterlimit="79.8403" stroke-linecap="round" stroke-linejoin="round"/>
<path d="M84.5057 61.2896H79.5635" stroke="#002C5E" stroke-width="1.6" stroke-miterlimit="79.8403" stroke-linecap="round" stroke-linejoin="round"/>
<path d="M84.5057 68.7012H79.5635" stroke="#002C5E" stroke-width="1.6" stroke-miterlimit="79.8403" stroke-linecap="round" stroke-linejoin="round"/>
<path d="M79.5635 56.3469V73.6431" stroke="#002C5E" stroke-width="1.6" stroke-miterlimit="79.8403" stroke-linecap="round" stroke-linejoin="round"/>
<path d="M151.22 42.3471C145.027 42.25 139.666 43.8668 134.541 47.7589C132.842 49.0486 133.109 50.5039 134.436 51.9181L143.279 62.4083C144.007 63.3243 145.051 63.604 146.047 62.9908C147.399 62.0209 149.528 61.2073 151.22 61.2906" stroke="#002C5E" stroke-width="1.6" stroke-miterlimit="79.8403" stroke-linecap="round" stroke-linejoin="round"/>
<path d="M151.221 42.3471C157.413 42.25 162.775 43.8668 167.899 47.7589C169.599 49.0486 169.332 50.5039 168.004 51.9181L159.161 62.4083C158.433 63.3243 157.39 63.604 156.393 62.9908C155.041 62.0209 152.912 61.2073 151.221 61.2906" stroke="#002C5E" stroke-width="1.6" stroke-miterlimit="79.8403" stroke-linecap="round" stroke-linejoin="round"/>
<path d="M151.221 57.9956V54.7008" stroke="#002C5E" stroke-width="1.6" stroke-miterlimit="79.8403" stroke-linecap="round" stroke-linejoin="round"/>
<path d="M151.221 51.4058V48.111" stroke="#002C5E" stroke-width="1.6" stroke-miterlimit="79.8403" stroke-linecap="round" stroke-linejoin="round"/>
<path d="M151.221 44.8159V41.5211" stroke="#002C5E" stroke-width="1.6" stroke-miterlimit="79.8403" stroke-linecap="round" stroke-linejoin="round"/>
<path d="M151.221 38.2285V36.5811" stroke="#002C5E" stroke-width="1.6" stroke-miterlimit="79.8403" stroke-linecap="round" stroke-linejoin="round"/>
<path d="M152.867 33.2847C153.551 32.1882 154.967 31.6373 156.162 31.6373" stroke="#002C5E" stroke-width="1.6" stroke-miterlimit="79.8403" stroke-linecap="round" stroke-linejoin="round"/>
<path d="M162.614 34.9995C162.307 33.7458 161.135 32.778 160 32.4034" stroke="#002C5E" stroke-width="1.6" stroke-miterlimit="79.8403" stroke-linecap="round" stroke-linejoin="round"/>
<path d="M149.573 33.2847C148.889 32.1882 147.473 31.6373 146.278 31.6373" stroke="#002C5E" stroke-width="1.6" stroke-miterlimit="79.8403" stroke-linecap="round" stroke-linejoin="round"/>
<path d="M139.826 34.9995C140.133 33.7458 141.306 32.778 142.44 32.4034" stroke="#002C5E" stroke-width="1.6" stroke-miterlimit="79.8403" stroke-linecap="round" stroke-linejoin="round"/>
<path d="M48.2148 60.4476C50.0279 60.4476 50.5915 60.9193 52.1038 61.8544C52.9027 62.4295 54.4024 63.7593 56.5014 63.7593" stroke="#002C5E" stroke-width="1.6" stroke-miterlimit="79.8403" stroke-linecap="round" stroke-linejoin="round"/>
<path d="M64.7886 60.4476C62.9755 60.4476 62.4109 60.9193 60.8986 61.8544C60.1007 62.4295 58.6 63.7593 56.502 63.7593" stroke="#002C5E" stroke-width="1.6" stroke-miterlimit="79.8403" stroke-linecap="round" stroke-linejoin="round"/>
<path d="M48.2154 60.4476C46.4023 60.4476 45.8377 60.9193 44.3254 61.8544C43.5265 62.4295 42.0268 63.7593 39.9277 63.7593" stroke="#002C5E" stroke-width="1.6" stroke-miterlimit="79.8403" stroke-linecap="round" stroke-linejoin="round"/>
<path d="M31.6406 60.4476C33.4537 60.4476 34.0184 60.9193 35.5307 61.8544C36.3285 62.4295 37.8293 63.7593 39.9273 63.7593" stroke="#002C5E" stroke-width="1.6" stroke-miterlimit="79.8403" stroke-linecap="round" stroke-linejoin="round"/>
<path d="M53.4033 55.3683C54.2075 55.8738 55.247 56.3477 56.5018 56.3477" stroke="#002C5E" stroke-width="1.6" stroke-miterlimit="79.8403" stroke-linecap="round" stroke-linejoin="round"/>
<path d="M64.7886 53.036C62.9755 53.036 62.4109 53.5077 60.8986 54.4428C60.1007 55.0179 58.6 56.3477 56.502 56.3477" stroke="#002C5E" stroke-width="1.6" stroke-miterlimit="79.8403" stroke-linecap="round" stroke-linejoin="round"/>
<path d="M55.6973 48.8687C55.9548 48.9109 56.2238 48.9341 56.5014 48.9341" stroke="#002C5E" stroke-width="1.6" stroke-miterlimit="79.8403" stroke-linecap="round" stroke-linejoin="round"/>
<path d="M64.7886 45.6224C62.9755 45.6224 62.4109 46.0941 60.8986 47.0292C60.1007 47.6043 58.6 48.9341 56.502 48.9341" stroke="#002C5E" stroke-width="1.6" stroke-miterlimit="79.8403" stroke-linecap="round" stroke-linejoin="round"/>
<path d="M40.8406 48.8497C40.5504 48.9035 40.2465 48.9341 39.9277 48.9341" stroke="#002C5E" stroke-width="1.6" stroke-miterlimit="79.8403" stroke-linecap="round" stroke-linejoin="round"/>
<path d="M31.6406 45.6224C33.4537 45.6224 34.0184 46.0941 35.5307 47.0292C36.3285 47.6043 37.8293 48.9341 39.9273 48.9341" stroke="#002C5E" stroke-width="1.6" stroke-miterlimit="79.8403" stroke-linecap="round" stroke-linejoin="round"/>
<path d="M43.2273 55.3683C42.4242 55.8738 41.3836 56.3477 40.1299 56.3477" stroke="#002C5E" stroke-width="1.6" stroke-miterlimit="79.8403" stroke-linecap="round" stroke-linejoin="round"/>
<path d="M31.8428 53.036C33.6559 53.036 34.2205 53.5077 35.7328 54.4428C36.5317 55.0179 38.0313 56.3477 40.1304 56.3477" stroke="#002C5E" stroke-width="1.6" stroke-miterlimit="79.8403" stroke-linecap="round" stroke-linejoin="round"/>
<path fill-rule="evenodd" clip-rule="evenodd" d="M43.3232 49.7586C43.3232 47.6088 44.6984 45.7788 46.6149 45.0981L46.6159 30.2578C46.6159 29.2025 47.3547 28.3445 48.2634 28.3445C49.1731 28.3445 49.9118 29.2025 49.9118 30.2578V45.0981C51.8305 45.7778 53.2067 47.6088 53.2067 49.7586C53.2067 52.4866 50.9925 54.6997 48.2644 54.6997C45.5374 54.6997 43.3232 52.4866 43.3232 49.7586Z" stroke="#002C5E" stroke-width="1.6" stroke-miterlimit="79.8403"/>
<path d="M49.9121 29.9907H53.2069" stroke="#002C5E" stroke-width="1.6" stroke-miterlimit="79.8403" stroke-linecap="round" stroke-linejoin="round"/>
<path d="M49.9121 34.1084H53.2069" stroke="#002C5E" stroke-width="1.6" stroke-miterlimit="79.8403" stroke-linecap="round" stroke-linejoin="round"/>
<path d="M49.9121 38.2285H53.2069" stroke="#002C5E" stroke-width="1.6" stroke-miterlimit="79.8403" stroke-linecap="round" stroke-linejoin="round"/>
<path d="M49.9121 42.3462H53.2069" stroke="#002C5E" stroke-width="1.6" stroke-miterlimit="79.8403" stroke-linecap="round" stroke-linejoin="round"/>
<path d="M189.547 13.597C187.458 13.597 186.413 14.6439 186.413 16.7367V93.143C186.413 96.2827 188.503 98.3765 191.637 98.3765H259.549C262.683 98.3765 264.773 96.2827 264.773 93.143V54.4169C264.773 50.4129 263.833 47.0105 262.55 43.7146L252.609 19.0796C250.76 15.5779 248.325 13.4514 244.922 13.597H224.026C218.802 13.597 216.698 15.2613 213.578 18.8305L195.816 38.7165" stroke="#111111" stroke-width="1.6" stroke-miterlimit="79.8403" stroke-linecap="round" stroke-linejoin="round"/>
<path d="M264.646 60.2894H255.243C253.153 60.2894 252.108 61.3342 252.108 63.4238" stroke="#111111" stroke-width="1.6" stroke-miterlimit="79.8403" stroke-linecap="round" stroke-linejoin="round"/>
<path d="M264.646 72.1605H255.243C253.153 72.1605 252.108 73.2053 252.108 75.2949" stroke="#111111" stroke-width="1.6" stroke-miterlimit="79.8403" stroke-linecap="round" stroke-linejoin="round"/>
<path d="M264.773 84.0341H255.37C253.28 84.0341 252.235 85.0789 252.235 87.1685" stroke="#111111" stroke-width="1.6" stroke-miterlimit="79.8403" stroke-linecap="round" stroke-linejoin="round"/>
<path fill-rule="evenodd" clip-rule="evenodd" d="M225.706 24.836L250.146 45.0935C252.002 46.1298 252.797 44.4835 252.235 43.0208L244.922 25.4038C244.153 23.5928 242.829 22.471 240.742 22.2947L226.965 22.3116C225.388 22.3116 224.848 23.6298 225.706 24.836Z" stroke="#111111" stroke-width="1.6" stroke-miterlimit="79.8403" stroke-linecap="round" stroke-linejoin="round"/>
<path fill-rule="evenodd" clip-rule="evenodd" d="M195.911 86.4661C195.911 88.3594 197.035 89.5752 199.043 89.5752H241.853C243.771 89.5752 244.985 88.1631 244.985 86.4661V56.4087C244.985 53.65 244.21 51.9509 241.853 50.1906L228.28 38.7896C221.412 33.3736 215.983 33.114 209.899 38.6208L198.681 49.5204C197.786 50.4017 196.208 51.9857 195.911 55.3724V86.4661Z" stroke="#111111" stroke-width="1.6" stroke-miterlimit="79.8403" stroke-linecap="round" stroke-linejoin="round"/>
<path fill-rule="evenodd" clip-rule="evenodd" d="M218.802 54.4953C224.026 60.7641 227.773 66.4873 228.205 71.2121C228.703 76.682 223.486 80.6152 218.802 80.6152C214.117 80.6152 208.899 76.682 209.398 71.2121C209.83 66.4873 213.578 60.7641 218.802 54.4953Z" stroke="#111111" stroke-width="1.6" stroke-miterlimit="79.8403" stroke-linecap="round" stroke-linejoin="round"/>
<path d="M189.548 13.5979H211.489C213.578 13.5979 214.736 15.3804 214.639 17.3423" stroke="#111111" stroke-width="1.6" stroke-miterlimit="79.8403" stroke-linecap="round" stroke-linejoin="round"/>
<path d="M189.579 12.7969V4.73824C189.579 3.10561 190.675 1.88666 192.667 1.7157H207.07C209.063 1.88666 210.158 3.10561 210.158 4.73824V12.7969" stroke="#111111" stroke-width="1.6" stroke-miterlimit="79.8403" stroke-linecap="round" stroke-linejoin="round"/>
<path d="M195.12 5.67325V13.5884" stroke="#111111" stroke-width="1.6" stroke-miterlimit="79.8403" stroke-linecap="round" stroke-linejoin="round"/>
<path d="M199.869 5.67325V13.5884" stroke="#111111" stroke-width="1.6" stroke-miterlimit="79.8403" stroke-linecap="round" stroke-linejoin="round"/>
<path d="M204.617 5.67325V13.5884" stroke="#111111" stroke-width="1.6" stroke-miterlimit="79.8403" stroke-linecap="round" stroke-linejoin="round"/>
<path d="M67.5257 69.825C62.3429 74.2585 55.6139 76.937 48.2645 76.937C31.897 76.937 18.6123 63.6533 18.6123 47.2859C18.6123 30.9195 31.897 17.6358 48.2645 17.6358C62.3186 17.6358 74.1005 27.4305 77.1494 40.5612" stroke="#111111" stroke-width="1.6" stroke-miterlimit="79.8403" stroke-linecap="round" stroke-linejoin="round"/>
<path d="M128.174 71.4842C125.061 84.5273 113.323 94.2344 99.3309 94.2344C82.9634 94.2344 69.6787 80.9507 69.6787 64.5833C69.6787 48.2158 82.9634 34.9321 99.3309 34.9321C106.471 34.9321 113.025 37.4607 118.146 41.6705" stroke="#111111" stroke-width="1.6" stroke-miterlimit="79.8403" stroke-linecap="round" stroke-linejoin="round"/>
<path fill-rule="evenodd" clip-rule="evenodd" d="M151.219 18.4604C167.587 18.4604 180.872 31.7441 180.872 48.1116C180.872 64.479 167.587 77.7627 151.219 77.7627C134.853 77.7627 121.568 64.479 121.568 48.1116C121.568 31.7441 134.853 18.4604 151.219 18.4604Z" stroke="#111111" stroke-width="1.6" stroke-miterlimit="79.8403" stroke-linecap="round" stroke-linejoin="round"/>
</g>
</svg>
