<svg width="300" height="100" viewBox="0 0 300 100" fill="none" xmlns="http://www.w3.org/2000/svg">
<mask id="mask0_230_13638" style="mask-type:alpha" maskUnits="userSpaceOnUse" x="0" y="0" width="300" height="100">
<rect width="300" height="100" fill="#D9D9D9"/>
</mask>
<g mask="url(#mask0_230_13638)">
<path fill-rule="evenodd" clip-rule="evenodd" d="M76.9578 39.2296L263.542 81.8006L286.185 82.7065C287.242 82.6361 287.946 81.4421 287.092 80.8947L75.7414 31.311C74.9624 35.7648 75.4426 38.3023 76.9578 39.2296Z" stroke="black" stroke-width="1.6" stroke-miterlimit="79.8403" stroke-linecap="round" stroke-linejoin="round"/>
<path d="M95.9727 44.6627L96.8796 49.1913L242.714 81.7993L250.866 79.0815" stroke="black" stroke-width="1.6" stroke-miterlimit="79.8403" stroke-linecap="round" stroke-linejoin="round"/>
<path d="M47.0698 65.4949H169.236" stroke="black" stroke-width="1.6" stroke-miterlimit="79.8403" stroke-linecap="round" stroke-linejoin="round"/>
<path d="M102.311 51.0032L95.0659 65.4949" stroke="black" stroke-width="1.6" stroke-miterlimit="79.8403" stroke-linecap="round" stroke-linejoin="round"/>
<path d="M106.398 51.9092L99.6006 65.4949" stroke="black" stroke-width="1.6" stroke-miterlimit="79.8403" stroke-linecap="round" stroke-linejoin="round"/>
<path fill-rule="evenodd" clip-rule="evenodd" d="M149.112 68.0733C157.51 68.0733 164.339 74.8961 164.339 83.3023C164.339 91.7085 157.51 98.5312 149.112 98.5312C140.704 98.5312 133.875 91.7085 133.875 83.3023C133.875 74.8961 140.704 68.0733 149.112 68.0733Z" stroke="black" stroke-width="1.6" stroke-miterlimit="79.8403" stroke-linecap="round" stroke-linejoin="round"/>
<path fill-rule="evenodd" clip-rule="evenodd" d="M149.112 75.3821C153.476 75.3821 157.029 78.9289 157.029 83.3006C157.029 87.6724 153.476 91.2192 149.112 91.2192C144.737 91.2192 141.184 87.6724 141.184 83.3006C141.184 78.9289 144.737 75.3821 149.112 75.3821Z" stroke="black" stroke-width="1.6" stroke-miterlimit="79.8403" stroke-linecap="round" stroke-linejoin="round"/>
<path d="M162.631 75.1362H175.436V67.1333" stroke="black" stroke-width="1.6" stroke-miterlimit="79.8403" stroke-linecap="round" stroke-linejoin="round"/>
<path d="M172.235 75.9351V85.5386H169.834C169.119 81.3632 167.935 77.7224 165.833 75.1348" stroke="black" stroke-width="1.6" stroke-miterlimit="79.8403" stroke-linecap="round" stroke-linejoin="round"/>
<path d="M136.222 75.1362H109.012" stroke="black" stroke-width="1.6" stroke-miterlimit="79.8403" stroke-linecap="round" stroke-linejoin="round"/>
<path d="M109.012 66.3312V83.9375H46.5894" stroke="black" stroke-width="1.6" stroke-miterlimit="79.8403" stroke-linecap="round" stroke-linejoin="round"/>
<path d="M56.1933 65.5315L55.393 11.9122C55.1262 9.30218 54.3366 7.09552 50.5912 7.11046H38.5869" stroke="black" stroke-width="1.6" stroke-miterlimit="79.8403" stroke-linecap="round" stroke-linejoin="round"/>
<path fill-rule="evenodd" clip-rule="evenodd" d="M78.6011 70.4307V79.0407C78.6011 79.9765 79.3586 80.7373 80.2976 80.7373H104.114C105.053 80.7373 105.811 79.9765 105.811 79.0407V70.4307C105.811 69.4949 105.053 68.7341 104.114 68.7341H80.2976C79.3586 68.7341 78.6011 69.4949 78.6011 70.4307Z" stroke="black" stroke-width="1.6" stroke-miterlimit="79.8403" stroke-linecap="round" stroke-linejoin="round"/>
<path fill-rule="evenodd" clip-rule="evenodd" d="M47.3901 70.4307V79.0407C47.3901 79.9765 48.1478 80.7373 49.0868 80.7373H72.9034C73.8424 80.7373 74.5999 79.9765 74.5999 79.0407V70.4307C74.5999 69.4949 73.8424 68.7341 72.9034 68.7341H49.0868C48.1478 68.7341 47.3901 69.4949 47.3901 70.4307Z" stroke="black" stroke-width="1.6" stroke-miterlimit="79.8403" stroke-linecap="round" stroke-linejoin="round"/>
<path d="M92.2061 80.7373V77.5362" stroke="black" stroke-width="1.6" stroke-miterlimit="79.8403" stroke-linecap="round" stroke-linejoin="round"/>
<path d="M60.9946 80.7373V77.5362" stroke="black" stroke-width="1.6" stroke-miterlimit="79.8403" stroke-linecap="round" stroke-linejoin="round"/>
<path fill-rule="evenodd" clip-rule="evenodd" d="M153.978 22.2322C160.722 22.2322 166.206 27.7094 166.206 34.4585C166.206 41.2086 160.722 46.6858 153.978 46.6858C147.223 46.6858 141.75 41.2086 141.75 34.4585C141.75 27.7094 147.223 22.2322 153.978 22.2322Z" stroke="#2198DC" stroke-width="1.6" stroke-miterlimit="79.8403" stroke-linecap="round" stroke-linejoin="round"/>
<path fill-rule="evenodd" clip-rule="evenodd" d="M153.978 28.1001C157.488 28.1001 160.337 30.9481 160.337 34.4576C160.337 37.9682 157.488 40.8162 153.978 40.8162C150.467 40.8162 147.618 37.9682 147.618 34.4576C147.618 30.9481 150.467 28.1001 153.978 28.1001Z" stroke="#2198DC" stroke-width="1.6" stroke-miterlimit="79.8403" stroke-linecap="round" stroke-linejoin="round"/>
<path fill-rule="evenodd" clip-rule="evenodd" d="M242.745 43.0624C249.489 43.0624 254.974 48.5407 254.974 55.2898C254.974 62.0389 249.489 67.5171 242.745 67.5171C235.991 67.5171 230.517 62.0389 230.517 55.2898C230.517 48.5407 235.991 43.0624 242.745 43.0624Z" stroke="#2198DC" stroke-width="1.6" stroke-miterlimit="79.8403" stroke-linecap="round" stroke-linejoin="round"/>
<path fill-rule="evenodd" clip-rule="evenodd" d="M242.746 48.9325C246.256 48.9325 249.106 51.7816 249.106 55.2911C249.106 58.8006 246.256 61.6497 242.746 61.6497C239.235 61.6497 236.386 58.8006 236.386 55.2911C236.386 51.7816 239.235 48.9325 242.746 48.9325Z" stroke="#2198DC" stroke-width="1.6" stroke-miterlimit="79.8403" stroke-linecap="round" stroke-linejoin="round"/>
<path fill-rule="evenodd" clip-rule="evenodd" d="M168.916 42.1573L225.961 55.4933C227.455 44.8473 235.362 37.49 246.843 39.5078C256.82 41.9278 260.117 51.4022 259.029 59.5096L265.836 61.1785C268.76 61.4623 270.82 59.8308 272.175 56.6489L273.989 48.4977L272.175 45.7799L273.989 36.7228L269.464 22.2312C268.557 19.5134 266.413 17.3473 264.023 16.7956L200.618 2.30398C196.073 1.30628 192.648 2.17699 189.756 3.20883L171.637 10.4552L139.935 9.54926C130.47 9.63356 127.888 15.434 125.445 20.4193C122.521 28.4243 126.128 32.4012 130.876 34.9109L137.214 36.7228L139.028 28.5705C140.842 23.1371 147.372 16.6899 157.147 18.6074C166.078 20.479 171.274 29.2331 169.823 37.6287L168.916 42.1573Z" stroke="#2198DC" stroke-width="1.6" stroke-miterlimit="79.8403" stroke-linecap="round" stroke-linejoin="round"/>
<path d="M272.089 45.8699L261.654 43.3708" stroke="#2198DC" stroke-width="1.6" stroke-miterlimit="79.8403" stroke-linecap="round" stroke-linejoin="round"/>
<path d="M174.06 31.2866L225.737 42.8833" stroke="#2198DC" stroke-width="1.6" stroke-miterlimit="79.8403" stroke-linecap="round" stroke-linejoin="round"/>
<path d="M223.091 49.5669C226.815 40.9728 233.174 34.3966 245.851 35.3025C256.628 36.679 261.963 43.1059 263.18 52.8523" stroke="#2198DC" stroke-width="1.6" stroke-miterlimit="79.8403" stroke-linecap="round" stroke-linejoin="round"/>
<path d="M163.261 16.0208C171.2 19.7971 174.38 27.4468 174.22 36.9446" stroke="#2198DC" stroke-width="1.6" stroke-miterlimit="79.8403" stroke-linecap="round" stroke-linejoin="round"/>
<path d="M171.562 10.4522L177.922 11.3037L193.448 4.87262" stroke="#2198DC" stroke-width="1.6" stroke-miterlimit="79.8403" stroke-linecap="round" stroke-linejoin="round"/>
<path d="M128.166 15.8892L147.18 19.5129" stroke="#2198DC" stroke-width="1.6" stroke-miterlimit="79.8403" stroke-linecap="round" stroke-linejoin="round"/>
<path d="M142.944 18.5322C143.766 14.7805 143.563 12.7926 141.835 12.0392L134.504 10.524" stroke="#2198DC" stroke-width="1.6" stroke-miterlimit="79.8403" stroke-linecap="round" stroke-linejoin="round"/>
<path d="M140.917 24.5828L131.058 22.6258" stroke="#2198DC" stroke-width="1.6" stroke-miterlimit="79.8403" stroke-linecap="round" stroke-linejoin="round"/>
<path fill-rule="evenodd" clip-rule="evenodd" d="M211.535 23.177L183.823 16.9262C185.968 16.6392 188.988 16.2465 190.887 14.934C192.872 12.9408 191.581 10.4236 188.166 10.6776L196.585 7.05386C198.687 6.24931 200.459 5.94627 203.03 6.52141L215.248 9.40885L211.535 23.177Z" stroke="#2198DC" stroke-width="1.6" stroke-miterlimit="79.8403" stroke-linecap="round" stroke-linejoin="round"/>
<path fill-rule="evenodd" clip-rule="evenodd" d="M220.391 10.794L216.923 24.2922L240.409 29.8622C243.023 30.4096 244.335 29.3842 243.845 27.4432C243.012 24.2655 242.073 21.1615 240.899 17.7309C240.366 16.1826 239.32 15.4624 237.389 14.7827L220.391 10.794Z" stroke="#2198DC" stroke-width="1.6" stroke-miterlimit="79.8403" stroke-linecap="round" stroke-linejoin="round"/>
<path d="M246.95 17.0188L250.674 26.7759C251.218 28.5141 252.925 30.2449 255.283 30.6951L268.237 33.7747" stroke="#2198DC" stroke-width="1.6" stroke-miterlimit="79.8403" stroke-linecap="round" stroke-linejoin="round"/>
<path d="M210.563 27.3904L204.481 25.9787" stroke="#2198DC" stroke-width="1.6" stroke-miterlimit="79.8403" stroke-linecap="round" stroke-linejoin="round"/>
<path d="M234.679 33.4695L228.597 32.0578" stroke="#2198DC" stroke-width="1.6" stroke-miterlimit="79.8403" stroke-linecap="round" stroke-linejoin="round"/>
<path d="M165.032 41.2014L169.514 42.3218" stroke="#2198DC" stroke-width="1.6" stroke-miterlimit="79.8403" stroke-linecap="round" stroke-linejoin="round"/>
<path d="M137.823 34.002L141.024 34.8022" stroke="#2198DC" stroke-width="1.6" stroke-miterlimit="79.8403" stroke-linecap="round" stroke-linejoin="round"/>
<path d="M225.822 55.4082L230.304 56.5286" stroke="#2198DC" stroke-width="1.6" stroke-miterlimit="79.8403" stroke-linecap="round" stroke-linejoin="round"/>
<path d="M254.632 58.4174L259.114 59.5378" stroke="#2198DC" stroke-width="1.6" stroke-miterlimit="79.8403" stroke-linecap="round" stroke-linejoin="round"/>
</g>
</svg>
