<svg width="300" height="100" viewBox="0 0 300 100" fill="none" xmlns="http://www.w3.org/2000/svg">
<mask id="mask0_230_13553" style="mask-type:alpha" maskUnits="userSpaceOnUse" x="0" y="0" width="300" height="100">
<rect width="300" height="100" fill="#D9D9D9"/>
</mask>
<g mask="url(#mask0_230_13553)">
<path d="M89.4468 48.9338H105.097" stroke="#2198DC" stroke-width="1.6" stroke-miterlimit="79.8403" stroke-linecap="round" stroke-linejoin="round"/>
<path d="M93.5655 48.9338V53.0518H88.6233L84.5054 57.1708V72.8196H90.2708L96.8593 78.585H110.862V71.9964H114.156V76.1144H117.45L120.745 70.349V62.9362L117.45 57.1708H114.156V61.2888H110.862V57.994L106.744 53.0518H100.978V48.9338" stroke="#2198DC" stroke-width="1.6" stroke-miterlimit="79.8403" stroke-linecap="round" stroke-linejoin="round"/>
<path d="M84.5052 61.2896H79.563" stroke="#2198DC" stroke-width="1.6" stroke-miterlimit="79.8403" stroke-linecap="round" stroke-linejoin="round"/>
<path d="M84.5052 68.7012H79.563" stroke="#2198DC" stroke-width="1.6" stroke-miterlimit="79.8403" stroke-linecap="round" stroke-linejoin="round"/>
<path d="M79.563 56.3469V73.6431" stroke="#2198DC" stroke-width="1.6" stroke-miterlimit="79.8403" stroke-linecap="round" stroke-linejoin="round"/>
<path d="M151.22 42.3471C145.027 42.25 139.666 43.8668 134.541 47.7589C132.842 49.0486 133.109 50.5039 134.436 51.9181L143.279 62.4083C144.007 63.3243 145.051 63.604 146.047 62.9908C147.399 62.0209 149.528 61.2073 151.22 61.2906" stroke="#2198DC" stroke-width="1.6" stroke-miterlimit="79.8403" stroke-linecap="round" stroke-linejoin="round"/>
<path d="M151.22 42.3471C157.413 42.25 162.774 43.8668 167.899 47.7589C169.598 49.0486 169.331 50.5039 168.003 51.9181L159.161 62.4083C158.432 63.3243 157.39 63.604 156.392 62.9908C155.041 62.0209 152.912 61.2073 151.22 61.2906" stroke="#2198DC" stroke-width="1.6" stroke-miterlimit="79.8403" stroke-linecap="round" stroke-linejoin="round"/>
<path d="M151.22 57.9956V54.7008" stroke="#2198DC" stroke-width="1.6" stroke-miterlimit="79.8403" stroke-linecap="round" stroke-linejoin="round"/>
<path d="M151.22 51.4058V48.111" stroke="#2198DC" stroke-width="1.6" stroke-miterlimit="79.8403" stroke-linecap="round" stroke-linejoin="round"/>
<path d="M151.22 44.8159V41.5211" stroke="#2198DC" stroke-width="1.6" stroke-miterlimit="79.8403" stroke-linecap="round" stroke-linejoin="round"/>
<path d="M151.22 38.2283V36.5809" stroke="#2198DC" stroke-width="1.6" stroke-miterlimit="79.8403" stroke-linecap="round" stroke-linejoin="round"/>
<path d="M152.867 33.2844C153.551 32.1879 154.967 31.637 156.162 31.637" stroke="#2198DC" stroke-width="1.6" stroke-miterlimit="79.8403" stroke-linecap="round" stroke-linejoin="round"/>
<path d="M162.614 34.9995C162.307 33.7458 161.135 32.778 160 32.4034" stroke="#2198DC" stroke-width="1.6" stroke-miterlimit="79.8403" stroke-linecap="round" stroke-linejoin="round"/>
<path d="M149.573 33.2844C148.889 32.1879 147.473 31.637 146.278 31.637" stroke="#2198DC" stroke-width="1.6" stroke-miterlimit="79.8403" stroke-linecap="round" stroke-linejoin="round"/>
<path d="M139.826 34.9995C140.133 33.7458 141.305 32.778 142.44 32.4034" stroke="#2198DC" stroke-width="1.6" stroke-miterlimit="79.8403" stroke-linecap="round" stroke-linejoin="round"/>
<path d="M48.2153 60.4478C50.0284 60.4478 50.592 60.9196 52.1043 61.8546C52.9032 62.4298 54.4028 63.7595 56.5019 63.7595" stroke="#2198DC" stroke-width="1.6" stroke-miterlimit="79.8403" stroke-linecap="round" stroke-linejoin="round"/>
<path d="M64.7881 60.4478C62.975 60.4478 62.4104 60.9196 60.8981 61.8546C60.1002 62.4298 58.5995 63.7595 56.5015 63.7595" stroke="#2198DC" stroke-width="1.6" stroke-miterlimit="79.8403" stroke-linecap="round" stroke-linejoin="round"/>
<path d="M48.2149 60.4478C46.4018 60.4478 45.8372 60.9196 44.3249 61.8546C43.526 62.4298 42.0263 63.7595 39.9272 63.7595" stroke="#2198DC" stroke-width="1.6" stroke-miterlimit="79.8403" stroke-linecap="round" stroke-linejoin="round"/>
<path d="M31.6406 60.4478C33.4537 60.4478 34.0184 60.9196 35.5307 61.8546C36.3285 62.4298 37.8293 63.7595 39.9273 63.7595" stroke="#2198DC" stroke-width="1.6" stroke-miterlimit="79.8403" stroke-linecap="round" stroke-linejoin="round"/>
<path d="M53.4033 55.3683C54.2075 55.8738 55.247 56.3477 56.5018 56.3477" stroke="#2198DC" stroke-width="1.6" stroke-miterlimit="79.8403" stroke-linecap="round" stroke-linejoin="round"/>
<path d="M64.7881 53.036C62.975 53.036 62.4104 53.5077 60.8981 54.4428C60.1002 55.0179 58.5995 56.3477 56.5015 56.3477" stroke="#2198DC" stroke-width="1.6" stroke-miterlimit="79.8403" stroke-linecap="round" stroke-linejoin="round"/>
<path d="M55.6973 48.8684C55.9548 48.9106 56.2238 48.9338 56.5014 48.9338" stroke="#2198DC" stroke-width="1.6" stroke-miterlimit="79.8403" stroke-linecap="round" stroke-linejoin="round"/>
<path d="M64.7881 45.6221C62.975 45.6221 62.4104 46.0939 60.8981 47.0289C60.1002 47.6041 58.5995 48.9338 56.5015 48.9338" stroke="#2198DC" stroke-width="1.6" stroke-miterlimit="79.8403" stroke-linecap="round" stroke-linejoin="round"/>
<path d="M40.8401 48.8494C40.5499 48.9032 40.246 48.9338 39.9272 48.9338" stroke="#2198DC" stroke-width="1.6" stroke-miterlimit="79.8403" stroke-linecap="round" stroke-linejoin="round"/>
<path d="M31.6406 45.6221C33.4537 45.6221 34.0184 46.0939 35.5307 47.0289C36.3285 47.6041 37.8293 48.9338 39.9273 48.9338" stroke="#2198DC" stroke-width="1.6" stroke-miterlimit="79.8403" stroke-linecap="round" stroke-linejoin="round"/>
<path d="M43.2273 55.3683C42.4242 55.8738 41.3836 56.3477 40.1299 56.3477" stroke="#2198DC" stroke-width="1.6" stroke-miterlimit="79.8403" stroke-linecap="round" stroke-linejoin="round"/>
<path d="M31.8423 53.036C33.6554 53.036 34.22 53.5077 35.7323 54.4428C36.5312 55.0179 38.0308 56.3477 40.1299 56.3477" stroke="#2198DC" stroke-width="1.6" stroke-miterlimit="79.8403" stroke-linecap="round" stroke-linejoin="round"/>
<path fill-rule="evenodd" clip-rule="evenodd" d="M43.3237 49.7586C43.3237 47.6088 44.6989 45.7788 46.6154 45.0981L46.6164 30.2578C46.6164 29.2025 47.3552 28.3445 48.2639 28.3445C49.1736 28.3445 49.9123 29.2025 49.9123 30.2578V45.0981C51.831 45.7778 53.2071 47.6088 53.2071 49.7586C53.2071 52.4866 50.993 54.6997 48.2649 54.6997C45.5379 54.6997 43.3237 52.4866 43.3237 49.7586Z" stroke="#2198DC" stroke-width="1.6" stroke-miterlimit="79.8403"/>
<path d="M49.9121 29.9905H53.2069" stroke="#2198DC" stroke-width="1.6" stroke-miterlimit="79.8403" stroke-linecap="round" stroke-linejoin="round"/>
<path d="M49.9121 34.1084H53.2069" stroke="#2198DC" stroke-width="1.6" stroke-miterlimit="79.8403" stroke-linecap="round" stroke-linejoin="round"/>
<path d="M49.9121 38.2283H53.2069" stroke="#2198DC" stroke-width="1.6" stroke-miterlimit="79.8403" stroke-linecap="round" stroke-linejoin="round"/>
<path d="M49.9121 42.3462H53.2069" stroke="#2198DC" stroke-width="1.6" stroke-miterlimit="79.8403" stroke-linecap="round" stroke-linejoin="round"/>
<path d="M189.547 13.597C187.458 13.597 186.413 14.6439 186.413 16.7367V93.143C186.413 96.2827 188.503 98.3765 191.637 98.3765H259.549C262.683 98.3765 264.773 96.2827 264.773 93.143V54.4169C264.773 50.4129 263.833 47.0105 262.55 43.7146L252.609 19.0796C250.76 15.5779 248.325 13.4514 244.922 13.597H224.026C218.802 13.597 216.698 15.2613 213.578 18.8305L195.816 38.7165" stroke="black" stroke-width="1.6" stroke-miterlimit="79.8403" stroke-linecap="round" stroke-linejoin="round"/>
<path d="M264.646 60.2894H255.243C253.154 60.2894 252.109 61.3342 252.109 63.4238" stroke="black" stroke-width="1.6" stroke-miterlimit="79.8403" stroke-linecap="round" stroke-linejoin="round"/>
<path d="M264.646 72.1605H255.243C253.154 72.1605 252.109 73.2053 252.109 75.2949" stroke="black" stroke-width="1.6" stroke-miterlimit="79.8403" stroke-linecap="round" stroke-linejoin="round"/>
<path d="M264.773 84.0341H255.37C253.28 84.0341 252.235 85.0789 252.235 87.1685" stroke="black" stroke-width="1.6" stroke-miterlimit="79.8403" stroke-linecap="round" stroke-linejoin="round"/>
<path fill-rule="evenodd" clip-rule="evenodd" d="M225.706 24.8358L250.146 45.0932C252.002 46.1296 252.797 44.4832 252.236 43.0205L244.922 25.4035C244.154 23.5926 242.829 22.4707 240.743 22.2945L226.965 22.3114C225.389 22.3114 224.848 23.6295 225.706 24.8358Z" stroke="black" stroke-width="1.6" stroke-miterlimit="79.8403" stroke-linecap="round" stroke-linejoin="round"/>
<path fill-rule="evenodd" clip-rule="evenodd" d="M195.911 86.4661C195.911 88.3594 197.035 89.5752 199.043 89.5752H241.853C243.771 89.5752 244.985 88.1631 244.985 86.4661V56.4087C244.985 53.65 244.21 51.9509 241.853 50.1906L228.28 38.7896C221.412 33.3736 215.983 33.114 209.899 38.6208L198.681 49.5204C197.786 50.4017 196.208 51.9857 195.911 55.3724V86.4661Z" stroke="black" stroke-width="1.6" stroke-miterlimit="79.8403" stroke-linecap="round" stroke-linejoin="round"/>
<path fill-rule="evenodd" clip-rule="evenodd" d="M218.802 54.4953C224.026 60.7641 227.774 66.4873 228.205 71.2121C228.703 76.682 223.487 80.6152 218.802 80.6152C214.117 80.6152 208.9 76.682 209.399 71.2121C209.831 66.4873 213.578 60.7641 218.802 54.4953Z" stroke="black" stroke-width="1.6" stroke-miterlimit="79.8403" stroke-linecap="round" stroke-linejoin="round"/>
<path d="M189.548 13.5977H211.489C213.578 13.5977 214.736 15.3801 214.639 17.342" stroke="black" stroke-width="1.6" stroke-miterlimit="79.8403" stroke-linecap="round" stroke-linejoin="round"/>
<path d="M189.579 12.7969V4.73824C189.579 3.10561 190.675 1.88666 192.667 1.7157H207.07C209.063 1.88666 210.158 3.10561 210.158 4.73824V12.7969" stroke="black" stroke-width="1.6" stroke-miterlimit="79.8403" stroke-linecap="round" stroke-linejoin="round"/>
<path d="M195.12 5.67325V13.5884" stroke="black" stroke-width="1.6" stroke-miterlimit="79.8403" stroke-linecap="round" stroke-linejoin="round"/>
<path d="M199.869 5.67325V13.5884" stroke="black" stroke-width="1.6" stroke-miterlimit="79.8403" stroke-linecap="round" stroke-linejoin="round"/>
<path d="M204.617 5.67325V13.5884" stroke="black" stroke-width="1.6" stroke-miterlimit="79.8403" stroke-linecap="round" stroke-linejoin="round"/>
<path d="M67.5257 69.825C62.3429 74.2585 55.6139 76.937 48.2645 76.937C31.897 76.937 18.6123 63.6533 18.6123 47.2859C18.6123 30.9195 31.897 17.6358 48.2645 17.6358C62.3186 17.6358 74.1005 27.4305 77.1494 40.5612" stroke="black" stroke-width="1.6" stroke-miterlimit="79.8403" stroke-linecap="round" stroke-linejoin="round"/>
<path d="M128.174 71.4842C125.061 84.5273 113.323 94.2344 99.3309 94.2344C82.9634 94.2344 69.6787 80.9507 69.6787 64.5833C69.6787 48.2158 82.9634 34.9321 99.3309 34.9321C106.471 34.9321 113.025 37.4607 118.146 41.6705" stroke="black" stroke-width="1.6" stroke-miterlimit="79.8403" stroke-linecap="round" stroke-linejoin="round"/>
<path fill-rule="evenodd" clip-rule="evenodd" d="M151.219 18.4604C167.587 18.4604 180.872 31.7441 180.872 48.1116C180.872 64.479 167.587 77.7627 151.219 77.7627C134.853 77.7627 121.568 64.479 121.568 48.1116C121.568 31.7441 134.853 18.4604 151.219 18.4604Z" stroke="black" stroke-width="1.6" stroke-miterlimit="79.8403" stroke-linecap="round" stroke-linejoin="round"/>
</g>
</svg>
