<svg width="320" height="104" viewBox="0 0 320 104" fill="none" xmlns="http://www.w3.org/2000/svg">
<g clip-path="url(#clip0_484_2347)">
<path d="M148.522 46.0742H140.891V43.5145L162.935 22.1838" stroke="#2198DC" stroke-width="1.6998" stroke-miterlimit="79.8403" stroke-linecap="round" stroke-linejoin="round"/>
<path d="M177.348 46.0742H184.979V43.5145L162.935 22.1838" stroke="#2198DC" stroke-width="1.6998" stroke-miterlimit="79.8403" stroke-linecap="round" stroke-linejoin="round"/>
<path fill-rule="evenodd" clip-rule="evenodd" d="M154.457 58.8728V43.5147H171.413V58.8728H154.457Z" stroke="#2198DC" stroke-width="1.6998" stroke-miterlimit="79.8403" stroke-linecap="round" stroke-linejoin="round"/>
<path d="M147.674 36.689H95.9561L110.369 52.9004H144.282" stroke="#2198DC" stroke-width="1.6998" stroke-miterlimit="79.8403" stroke-linecap="round" stroke-linejoin="round"/>
<path d="M36.6084 59.7261L67.978 26.4501" stroke="#2198DC" stroke-width="1.6998" stroke-miterlimit="79.8403" stroke-linecap="round" stroke-linejoin="round"/>
<path d="M112.912 56.3132L116.304 59.7261H99.3471L67.9775 26.4501" stroke="#2198DC" stroke-width="1.6998" stroke-miterlimit="79.8403" stroke-linecap="round" stroke-linejoin="round"/>
<path d="M67.9775 26.4502H106.13L117.152 36.689" stroke="#2198DC" stroke-width="1.6998" stroke-miterlimit="79.8403" stroke-linecap="round" stroke-linejoin="round"/>
<path d="M74.7614 49.4874C74.7614 53.7285 71.3451 57.1665 67.1309 57.1665C62.9168 57.1665 59.5005 53.7285 59.5005 49.4874C59.5005 45.2464 62.9168 41.8083 67.1309 41.8083C71.3451 41.8083 74.7614 45.2464 74.7614 49.4874Z" stroke="#2198DC" stroke-width="1.6998" stroke-miterlimit="79.8403" stroke-linecap="round" stroke-linejoin="round"/>
<path d="M67.1304 44.3679V53.7534" stroke="#2198DC" stroke-width="1.6998" stroke-miterlimit="79.8403" stroke-linecap="round" stroke-linejoin="round"/>
<path d="M62.043 49.4873H72.2169" stroke="#2198DC" stroke-width="1.6998" stroke-miterlimit="79.8403" stroke-linecap="round" stroke-linejoin="round"/>
<path d="M36.6084 59.7261H54.4128" stroke="#2198DC" stroke-width="1.6998" stroke-miterlimit="79.8403" stroke-linecap="round" stroke-linejoin="round"/>
<path d="M42.5439 59.7261V95.5618" stroke="#2198DC" stroke-width="1.6998" stroke-miterlimit="79.8403" stroke-linecap="round" stroke-linejoin="round"/>
<path fill-rule="evenodd" clip-rule="evenodd" d="M56.1084 68.2583H78.9997V88.7358H56.1084V68.2583Z" stroke="#2198DC" stroke-width="1.6998" stroke-miterlimit="79.8403" stroke-linecap="round" stroke-linejoin="round"/>
<path d="M71.3696 68.2583V88.7358" stroke="#2198DC" stroke-width="1.6998" stroke-miterlimit="79.8403" stroke-linecap="round" stroke-linejoin="round"/>
<path d="M63.7383 68.2583V88.7358" stroke="#2198DC" stroke-width="1.6998" stroke-miterlimit="79.8403" stroke-linecap="round" stroke-linejoin="round"/>
<path d="M56.1084 75.0845H78.9997" stroke="#2198DC" stroke-width="1.6998" stroke-miterlimit="79.8403" stroke-linecap="round" stroke-linejoin="round"/>
<path d="M93.4124 72.5245C98.0948 72.5245 101.891 76.3446 101.891 81.0568C101.891 85.7691 98.0948 89.5891 93.4124 89.5891C88.7299 89.5891 84.9341 85.7691 84.9341 81.0568C84.9341 76.3446 88.7299 72.5245 93.4124 72.5245Z" stroke="black" stroke-width="1.6998" stroke-miterlimit="79.8403" stroke-linecap="round" stroke-linejoin="round"/>
<path d="M93.4126 82.7633V95.5618" stroke="black" stroke-width="1.6998" stroke-miterlimit="79.8403" stroke-linecap="round" stroke-linejoin="round"/>
<path d="M7.78223 95.5618H313" stroke="#2198DC" stroke-width="1.6998" stroke-miterlimit="79.8403" stroke-linecap="round" stroke-linejoin="round"/>
<path d="M39.4582 78.1845C37.9965 78.3927 36.4919 78.4655 34.9647 78.3892C21.9002 77.7487 11.8145 66.5589 12.4509 53.4124C13.0873 40.2647 24.2074 30.1135 37.2719 30.7551C43.3921 31.0543 48.8566 33.6709 52.8742 37.7175" stroke="black" stroke-width="1.6998" stroke-miterlimit="79.8403" stroke-linecap="round" stroke-linejoin="round"/>
<path d="M35.7607 63.139V95.5618" stroke="black" stroke-width="1.6998" stroke-miterlimit="79.8403" stroke-linecap="round" stroke-linejoin="round"/>
<path d="M180.74 71.6714H107.827L104.436 66.552H179.044" stroke="#2198DC" stroke-width="1.6998" stroke-miterlimit="79.8403" stroke-linecap="round" stroke-linejoin="round"/>
<path d="M144.282 46.0742V66.5518" stroke="#2198DC" stroke-width="1.6998" stroke-miterlimit="79.8403" stroke-linecap="round" stroke-linejoin="round"/>
<path d="M144.282 71.6713V94.7085" stroke="#2198DC" stroke-width="1.6998" stroke-miterlimit="79.8403" stroke-linecap="round" stroke-linejoin="round"/>
<path d="M112.913 72.5245V94.7085" stroke="#2198DC" stroke-width="1.6998" stroke-miterlimit="79.8403" stroke-linecap="round" stroke-linejoin="round"/>
<path fill-rule="evenodd" clip-rule="evenodd" d="M123.086 57.1665V62.2859H134.956V57.1665H123.086Z" stroke="#2198DC" stroke-width="1.6998" stroke-miterlimit="79.8403" stroke-linecap="round" stroke-linejoin="round"/>
<path d="M162.935 22.1841H201.087" stroke="#2198DC" stroke-width="1.6998" stroke-miterlimit="79.8403" stroke-linecap="round" stroke-linejoin="round"/>
<path d="M162.935 44.3679V58.0195" stroke="#2198DC" stroke-width="1.6998" stroke-miterlimit="79.8403" stroke-linecap="round" stroke-linejoin="round"/>
<path d="M184.978 46.0742H210.412" stroke="#2198DC" stroke-width="1.6998" stroke-miterlimit="79.8403" stroke-linecap="round" stroke-linejoin="round"/>
<path fill-rule="evenodd" clip-rule="evenodd" d="M192.609 50.3407V57.1665H206.175V50.3407H192.609Z" stroke="#2198DC" stroke-width="1.6998" stroke-miterlimit="79.8403" stroke-linecap="round" stroke-linejoin="round"/>
<path d="M154.457 72.5247V87.8828" stroke="#2198DC" stroke-width="1.6998" stroke-miterlimit="79.8403" stroke-linecap="round" stroke-linejoin="round"/>
<path d="M162.935 72.5247V87.8828" stroke="#2198DC" stroke-width="1.6998" stroke-miterlimit="79.8403" stroke-linecap="round" stroke-linejoin="round"/>
<path d="M171.413 72.5247V87.8828" stroke="#2198DC" stroke-width="1.6998" stroke-miterlimit="79.8403" stroke-linecap="round" stroke-linejoin="round"/>
<path d="M151.064 87.8828H175.651" stroke="#2198DC" stroke-width="1.6998" stroke-miterlimit="79.8403" stroke-linecap="round" stroke-linejoin="round"/>
<path d="M190.065 35.8357L220.587 3.71337e-05" stroke="#2198DC" stroke-width="1.6998" stroke-miterlimit="79.8403" stroke-linecap="round" stroke-linejoin="round"/>
<path d="M251.109 35.8357L220.587 3.71337e-05" stroke="#2198DC" stroke-width="1.6998" stroke-miterlimit="79.8403" stroke-linecap="round" stroke-linejoin="round"/>
<path d="M259.587 46.0742H301.13V43.5145L279.087 22.1838" stroke="#2198DC" stroke-width="1.6998" stroke-miterlimit="79.8403" stroke-linecap="round" stroke-linejoin="round"/>
<path d="M279.087 22.1841H240.087" stroke="#2198DC" stroke-width="1.6998" stroke-miterlimit="79.8403" stroke-linecap="round" stroke-linejoin="round"/>
<path d="M296.891 46.9277V65.6987" stroke="#2198DC" stroke-width="1.6998" stroke-miterlimit="79.8403" stroke-linecap="round" stroke-linejoin="round"/>
<path d="M224.826 66.552H311.304L308.761 71.6714H223.13" stroke="#2198DC" stroke-width="1.6998" stroke-miterlimit="79.8403" stroke-linecap="round" stroke-linejoin="round"/>
<path d="M201.934 59.7262C190.913 59.7262 188.369 64.8455 181.586 64.8455L184.13 71.6714H191.76V66.552C195.152 64.8455 198.376 63.9343 201.934 63.9923" stroke="#2198DC" stroke-width="1.6998" stroke-miterlimit="79.8403" stroke-linecap="round" stroke-linejoin="round"/>
<path d="M201.934 59.7262C212.956 59.7262 215.499 64.8455 222.282 64.8455L219.738 71.6714H212.108V66.552C208.717 64.8455 205.493 63.9343 201.934 63.9923" stroke="#2198DC" stroke-width="1.6998" stroke-miterlimit="79.8403" stroke-linecap="round" stroke-linejoin="round"/>
<path fill-rule="evenodd" clip-rule="evenodd" d="M285.021 51.1939V62.2859H290.956V51.1939H285.021Z" stroke="#2198DC" stroke-width="1.6998" stroke-miterlimit="79.8403" stroke-linecap="round" stroke-linejoin="round"/>
<path fill-rule="evenodd" clip-rule="evenodd" d="M273.151 51.1939V62.2859H279.086V51.1939H273.151Z" stroke="#2198DC" stroke-width="1.6998" stroke-miterlimit="79.8403" stroke-linecap="round" stroke-linejoin="round"/>
<path fill-rule="evenodd" clip-rule="evenodd" d="M228.217 58.8728V43.5147H245.173V58.8728H228.217Z" stroke="#2198DC" stroke-width="1.6998" stroke-miterlimit="79.8403" stroke-linecap="round" stroke-linejoin="round"/>
<path d="M236.696 44.3679V58.0195" stroke="#2198DC" stroke-width="1.6998" stroke-miterlimit="79.8403" stroke-linecap="round" stroke-linejoin="round"/>
<path d="M294.348 74.2309V88.7358H271.457V74.2309" stroke="#2198DC" stroke-width="1.6998" stroke-miterlimit="79.8403" stroke-linecap="round" stroke-linejoin="round"/>
<path d="M286.717 74.2309V88.7358" stroke="#2198DC" stroke-width="1.6998" stroke-miterlimit="79.8403" stroke-linecap="round" stroke-linejoin="round"/>
<path d="M279.087 74.2309V88.7358" stroke="#2198DC" stroke-width="1.6998" stroke-miterlimit="79.8403" stroke-linecap="round" stroke-linejoin="round"/>
<path d="M185.826 71.6713V95.5618" stroke="#2198DC" stroke-width="1.6998" stroke-miterlimit="79.8403" stroke-linecap="round" stroke-linejoin="round"/>
<path d="M218.043 71.6713V95.5618" stroke="#2198DC" stroke-width="1.6998" stroke-miterlimit="79.8403" stroke-linecap="round" stroke-linejoin="round"/>
<path fill-rule="evenodd" clip-rule="evenodd" d="M196.847 73.3778V90.4424H206.173V73.3778H196.847Z" stroke="#2198DC" stroke-width="1.6998" stroke-miterlimit="79.8403" stroke-linecap="round" stroke-linejoin="round"/>
<path d="M193.457 90.4424H209.566" stroke="#2198DC" stroke-width="1.6998" stroke-miterlimit="79.8403" stroke-linecap="round" stroke-linejoin="round"/>
<path d="M190.913 93.002H212.109" stroke="#2198DC" stroke-width="1.6998" stroke-miterlimit="79.8403" stroke-linecap="round" stroke-linejoin="round"/>
<path d="M261.282 46.0744V66.552V95.5618" stroke="#2198DC" stroke-width="1.6998" stroke-miterlimit="79.8403" stroke-linecap="round" stroke-linejoin="round"/>
<path d="M306.217 71.6713V95.5618" stroke="#2198DC" stroke-width="1.6998" stroke-miterlimit="79.8403" stroke-linecap="round" stroke-linejoin="round"/>
<path d="M228.217 26.4501C228.217 30.6911 224.801 34.1291 220.586 34.1291C216.372 34.1291 212.956 30.6911 212.956 26.4501C212.956 22.209 216.372 18.771 220.586 18.771C224.801 18.771 228.217 22.209 228.217 26.4501Z" stroke="#2198DC" stroke-width="1.6998" stroke-miterlimit="79.8403" stroke-linecap="round" stroke-linejoin="round"/>
<path d="M220.587 21.3308V30.7163" stroke="#2198DC" stroke-width="1.6998" stroke-miterlimit="79.8403" stroke-linecap="round" stroke-linejoin="round"/>
<path d="M215.5 26.4502H225.673" stroke="#2198DC" stroke-width="1.6998" stroke-miterlimit="79.8403" stroke-linecap="round" stroke-linejoin="round"/>
<path fill-rule="evenodd" clip-rule="evenodd" d="M156.189 96C154.243 96 152.105 95.1945 150.217 93.0023C143.674 85.0809 131.749 68.2302 126.044 56.6433C123.726 51.9335 122.237 46.5718 122.237 40.9542C122.237 22.1149 137.431 6.82383 156.151 6.82383C174.871 6.82383 190.065 22.1149 190.065 40.9542C190.065 46.5388 188.586 51.9699 186.26 56.6433C180.567 68.0857 168.63 85.0809 162.087 93.0023C160.128 95.2287 158.136 96 156.189 96Z" fill="white" stroke="white" stroke-width="6.79921" stroke-miterlimit="79.8403" stroke-linecap="round" stroke-linejoin="round"/>
<path fill-rule="evenodd" clip-rule="evenodd" d="M156.189 96C154.243 96 152.105 95.1945 150.217 93.0023C143.674 85.0809 131.749 68.2302 126.044 56.6433C123.726 51.9335 122.237 46.5718 122.237 40.9542C122.237 22.1149 137.431 6.82383 156.151 6.82383C174.871 6.82383 190.065 22.1149 190.065 40.9542C190.065 46.5388 188.586 51.9699 186.26 56.6433C180.567 68.0857 168.63 85.0809 162.087 93.0023C160.128 95.2287 158.136 96 156.189 96Z" fill="white" stroke="black" stroke-width="1.6998" stroke-miterlimit="79.8403" stroke-linecap="round" stroke-linejoin="round"/>
<path d="M156.025 26.5778L155.949 58.8618" stroke="black" stroke-width="1.6998" stroke-miterlimit="79.8403" stroke-linecap="round" stroke-linejoin="round"/>
<path d="M170.856 42.5196L155.949 58.8618" stroke="black" stroke-width="1.6998" stroke-miterlimit="79.8403" stroke-linecap="round" stroke-linejoin="round"/>
<path d="M141.043 42.5196L155.951 58.8618" stroke="black" stroke-width="1.6998" stroke-miterlimit="79.8403" stroke-linecap="round" stroke-linejoin="round"/>
<path d="M25.241 79.6441C22.2725 86.0444 14.7008 88.8157 8.34102 85.8283C1.98005 82.8409 -0.773694 75.2221 2.19483 68.8206C3.77179 65.4202 6.64762 63.0436 9.95075 62.0118" stroke="black" stroke-width="1.6998" stroke-miterlimit="79.8403" stroke-linecap="round" stroke-linejoin="round"/>
<path d="M13.7168 74.2313V95.562" stroke="black" stroke-width="1.6998" stroke-miterlimit="79.8403" stroke-linecap="round" stroke-linejoin="round"/>
<path d="M35.7609 67.4053L20.5 55.4601" stroke="black" stroke-width="1.6998" stroke-miterlimit="79.8403" stroke-linecap="round" stroke-linejoin="round"/>
<path d="M35.7607 40.1018V55.46" stroke="black" stroke-width="1.6998" stroke-miterlimit="79.8403" stroke-linecap="round" stroke-linejoin="round"/>
<path d="M35.7611 47.781L28.9785 42.6616" stroke="black" stroke-width="1.6998" stroke-miterlimit="79.8403" stroke-linecap="round" stroke-linejoin="round"/>
</g>
<defs>
<clipPath id="clip0_484_2347">
<rect width="320" height="104" fill="white"/>
</clipPath>
</defs>
</svg>
