<svg width="300" height="100" viewBox="0 0 300 100" fill="none" xmlns="http://www.w3.org/2000/svg">
<mask id="mask0_230_13520" style="mask-type:alpha" maskUnits="userSpaceOnUse" x="0" y="0" width="300" height="100">
<rect width="300" height="100" fill="#D9D9D9"/>
</mask>
<g mask="url(#mask0_230_13520)">
<path d="M171.341 47.8652C166.26 59.421 154.708 67.4968 141.281 67.4968C129.341 67.4968 118.882 61.1099 113.14 51.5681" stroke="#2198DC" stroke-width="1.6" stroke-miterlimit="79.8403" stroke-linecap="round" stroke-linejoin="round"/>
<path d="M114.524 15.6747C120.474 7.31341 130.244 1.85693 141.281 1.85693C153.222 1.85693 163.68 8.24383 169.423 17.7856" stroke="#2198DC" stroke-width="1.6" stroke-miterlimit="79.8403" stroke-linecap="round" stroke-linejoin="round"/>
<path d="M163.161 15.9213L169.413 18.2656L170.194 12.0142" stroke="#2198DC" stroke-width="1.6" stroke-miterlimit="79.8403" stroke-linecap="round" stroke-linejoin="round"/>
<path d="M120.182 54.2125L113.15 51.0868L112.368 58.9011" stroke="#2198DC" stroke-width="1.6" stroke-miterlimit="79.8403" stroke-linecap="round" stroke-linejoin="round"/>
<path d="M142.844 24.5178V22.1735L146.751 19.8292V17.4849H134.249V19.8292L138.156 22.1735V24.5178" stroke="#2198DC" stroke-width="1.6" stroke-miterlimit="79.8403" stroke-linecap="round" stroke-linejoin="round"/>
<path fill-rule="evenodd" clip-rule="evenodd" d="M156.91 25.2992L161.599 27.6435C163.126 28.5405 163.943 28.4249 166.287 27.6435L192.856 18.2663L198.326 21.392L196.763 23.7363L192.075 21.392L158.473 49.5236C157.336 50.5113 156.022 50.9989 154.566 51.0864H125.653C121.746 51.0864 120.968 49.4548 119.401 47.1793L104.724 29.2292C103.797 28.254 102.916 26.4942 104.554 24.5177L108.582 20.0959C109.754 18.9727 111.512 18.533 113.15 19.8291L121.746 25.2992H156.91Z" stroke="#2198DC" stroke-width="1.6" stroke-miterlimit="79.8403"/>
<path d="M120.183 28.4247V42.4905" stroke="#2198DC" stroke-width="1.6" stroke-miterlimit="79.8403" stroke-linecap="round" stroke-linejoin="round"/>
<path d="M199.889 51.8673L231.927 30.7686C233.353 29.8403 236.47 30.033 238.179 31.5501C238.96 32.3315 238.96 33.8944 236.616 33.8944H234.272L205.359 53.4302" stroke="black" stroke-width="1.6" stroke-miterlimit="79.8403" stroke-linecap="round" stroke-linejoin="round"/>
<path d="M174.578 40.3675L199.107 51.867L205.359 53.4299L236.616 60.4628C241.305 61.2442 243.649 64.37 243.649 70.6214L245.993 73.7471V86.2501C246.084 88.288 244.968 89.5425 242.868 90.1572H232.709C230.365 90.1572 229.583 89.3758 229.583 87.0315V83.9058" stroke="black" stroke-width="1.6" stroke-miterlimit="79.8403" stroke-linecap="round" stroke-linejoin="round"/>
<path fill-rule="evenodd" clip-rule="evenodd" d="M210.829 69.0606C219.023 69.0606 225.676 75.7121 225.676 83.9068C225.676 92.1014 219.023 98.7529 210.829 98.7529C202.634 98.7529 195.981 92.1014 195.981 83.9068C195.981 75.7121 202.634 69.0606 210.829 69.0606Z" stroke="black" stroke-width="1.6" stroke-miterlimit="79.8403"/>
<path fill-rule="evenodd" clip-rule="evenodd" d="M210.829 76.0481C215.167 76.0481 218.689 79.5687 218.689 83.9072C218.689 88.2457 215.167 91.7664 210.829 91.7664C206.49 91.7664 202.969 88.2457 202.969 83.9072C202.969 79.5687 206.49 76.0481 210.829 76.0481Z" stroke="black" stroke-width="1.6" stroke-miterlimit="79.8403"/>
<path fill-rule="evenodd" clip-rule="evenodd" d="M93.6138 69.0606C101.808 69.0606 108.461 75.7121 108.461 83.9068C108.461 92.1014 101.808 98.7529 93.6138 98.7529C85.4192 98.7529 78.7666 92.1014 78.7666 83.9068C78.7666 75.7121 85.4192 69.0606 93.6138 69.0606Z" stroke="black" stroke-width="1.6" stroke-miterlimit="79.8403"/>
<path fill-rule="evenodd" clip-rule="evenodd" d="M93.6136 76.0481C97.9521 76.0481 101.474 79.5687 101.474 83.9072C101.474 88.2457 97.9521 91.7664 93.6136 91.7664C89.2751 91.7664 85.7534 88.2457 85.7534 83.9072C85.7534 79.5687 89.2751 76.0481 93.6136 76.0481Z" stroke="black" stroke-width="1.6" stroke-miterlimit="79.8403"/>
<path d="M243.649 70.6218L237.398 69.8404C236.58 69.4351 235.744 69.1538 235.168 67.0637L233.605 62.4533" stroke="black" stroke-width="1.6" stroke-miterlimit="79.8403" stroke-linecap="round" stroke-linejoin="round"/>
<path fill-rule="evenodd" clip-rule="evenodd" d="M200.67 27.6434C197.545 31.5506 196.132 33.7386 195.982 36.2392C195.823 38.8638 197.302 41.5467 200.67 41.7092C204.039 41.5467 205.517 38.8638 205.359 36.2392C205.209 33.7386 203.796 31.5506 200.67 27.6434Z" stroke="#2198DC" stroke-width="1.6" stroke-miterlimit="79.8403" stroke-linecap="round" stroke-linejoin="round"/>
<path d="M107.68 37.0206C98.9483 39.1482 90.488 42.4906 81.1108 46.3978C74.0779 48.7421 71.1293 49.2401 63.1379 50.3049C59.4318 50.977 58.1388 52.9451 58.4493 55.775V65.9336L56.105 69.0593V75.3108L58.4493 83.9065C58.5868 85.2391 59.3266 86.056 60.7936 86.2508L70.9522 87.8137C72.9683 87.9054 74.6895 87.5272 74.8594 84.688V83.9065" stroke="black" stroke-width="1.6" stroke-miterlimit="79.8403" stroke-linecap="round" stroke-linejoin="round"/>
<path d="M58.4492 65.9343H64.7007" stroke="black" stroke-width="1.6" stroke-miterlimit="79.8403" stroke-linecap="round" stroke-linejoin="round"/>
<path d="M58.4492 54.993H65.4821C68.1629 55.2098 68.6078 57.2946 67.045 59.6816L64.7007 62.8074" stroke="black" stroke-width="1.6" stroke-miterlimit="79.8403" stroke-linecap="round" stroke-linejoin="round"/>
<path d="M81.1108 53.43L110.024 54.2114" stroke="black" stroke-width="1.6" stroke-miterlimit="79.8403" stroke-linecap="round" stroke-linejoin="round"/>
<path d="M110.805 40.9276C108.763 41.7455 106.898 44.0534 106.117 47.9605L105.335 51.8677" stroke="black" stroke-width="1.6" stroke-miterlimit="79.8403" stroke-linecap="round" stroke-linejoin="round"/>
<path d="M99.8655 51.0864L102.21 43.2721C95.1769 45.6164 90.4883 47.1793 90.4883 50.305" stroke="black" stroke-width="1.6" stroke-miterlimit="79.8403" stroke-linecap="round" stroke-linejoin="round"/>
<path d="M74.8594 83.9072C74.8594 73.5559 83.2624 65.1549 93.6138 65.1549C103.965 65.1549 112.368 73.5559 112.368 83.9072" stroke="black" stroke-width="1.6" stroke-miterlimit="79.8403" stroke-linecap="round" stroke-linejoin="round"/>
<path d="M112.368 83.9061V86.2504C112.513 87.7914 113.731 88.4239 115.494 88.5947H188.949C190.511 88.5947 192.074 87.8133 192.074 85.469V83.9061" stroke="black" stroke-width="1.6" stroke-miterlimit="79.8403" stroke-linecap="round" stroke-linejoin="round"/>
<path d="M192.074 83.9072C192.074 73.5559 200.477 65.1549 210.829 65.1549C221.18 65.1549 229.583 73.5559 229.583 83.9072" stroke="black" stroke-width="1.6" stroke-miterlimit="79.8403" stroke-linecap="round" stroke-linejoin="round"/>
<path d="M103.772 56.5571V60.4643C103.879 61.8385 104.407 62.8742 105.335 63.59C111.087 67.2992 115.874 72.6838 119.149 80.6856C120.183 82.3444 120.183 83.9072 122.527 83.9072H183.479C185.041 83.9072 186.604 83.1258 186.604 80.7815C186.604 72.9672 187.15 67.2627 185.041 58.12L184.26 56.5571C180.724 57.8845 176.446 58.12 176.446 53.4314C176.446 50.3056 177.075 49.048 178.79 48.7428C180.353 48.7428 182.691 50.3067 185.041 52.6499" stroke="black" stroke-width="1.6" stroke-miterlimit="79.8403" stroke-linecap="round" stroke-linejoin="round"/>
<path d="M177.227 56.5552L170.194 55.7737" stroke="black" stroke-width="1.6" stroke-miterlimit="79.8403" stroke-linecap="round" stroke-linejoin="round"/>
<path d="M176.679 50.7874C176.742 49.1307 177.003 47.349 174.101 45.6153L170.687 43.9066" stroke="black" stroke-width="1.6" stroke-miterlimit="79.8403" stroke-linecap="round" stroke-linejoin="round"/>
<path d="M189.235 58.21L213.656 60.4636" stroke="black" stroke-width="1.6" stroke-miterlimit="79.8403" stroke-linecap="round" stroke-linejoin="round"/>
<path d="M150.658 87.8135V69.8405" stroke="black" stroke-width="1.6" stroke-miterlimit="79.8403" stroke-linecap="round" stroke-linejoin="round"/>
</g>
</svg>
