<svg width="155" height="124" viewBox="0 0 155 124" fill="none" xmlns="http://www.w3.org/2000/svg">
<g clip-path="url(#clip0_484_2505)">
<path d="M7.18066 97.3631L7.20235 45.5272L7.20855 34.6729L7.21475 13.621C7.21475 11.0685 9.297 8.99692 11.8657 9L144.176 9.06164C146.741 9.06164 148.823 11.1332 148.82 13.6888L148.786 97.3693" stroke="black" stroke-width="1.8" stroke-miterlimit="10" stroke-linecap="round" stroke-linejoin="round"/>
<path d="M126.868 107.669H151.901C153.612 107.669 155 109.05 155 110.752C155 115.86 150.839 120 145.704 120H10.2958C5.16141 120 1 115.86 1 110.752C1 109.05 2.38817 107.669 4.09859 107.669H116.023H126.868Z" stroke="black" stroke-width="1.8" stroke-miterlimit="10" stroke-linecap="round" stroke-linejoin="round"/>
<path d="M75.56 81.386V86.7006C75.56 88.1002 74.5902 89.2377 73.3972 89.2377H61.9758C60.7798 89.2377 59.813 88.1032 59.813 86.7006V81.386" stroke="black" stroke-width="1.8" stroke-miterlimit="10" stroke-linecap="round" stroke-linejoin="round"/>
<path d="M134.657 81.3857V86.7004C134.657 88.0999 133.687 89.2374 132.494 89.2374H121.073C119.877 89.2374 118.91 88.103 118.91 86.7004V81.3857" stroke="black" stroke-width="1.8" stroke-miterlimit="10" stroke-linecap="round" stroke-linejoin="round"/>
<path d="M60.2165 38.1195H56.6191C51.9123 38.1195 53.6382 46.4953 59.6402 46.4953H68.3163V46.1747C68.3132 41.7263 64.6878 38.1195 60.2165 38.1195Z" stroke="black" stroke-width="1.8" stroke-miterlimit="10" stroke-linecap="round" stroke-linejoin="round"/>
<path d="M134.098 38.061H137.696C139.186 38.061 140.395 39.2633 140.395 40.7461C140.395 43.8905 137.832 46.4368 134.675 46.4368H125.999V46.1162C125.999 41.6678 129.624 38.061 134.098 38.061Z" stroke="black" stroke-width="1.8" stroke-miterlimit="10" stroke-linecap="round" stroke-linejoin="round"/>
<path d="M89.0773 66.702C87.0415 66.702 85.2567 65.3425 84.73 63.385L83.5122 58.8688H110.944L109.726 63.385C109.2 65.3425 107.415 66.702 105.379 66.702" stroke="black" stroke-width="1.8" stroke-miterlimit="10" stroke-linecap="round" stroke-linejoin="round"/>
<path d="M117.027 67.2774H125.542C127.544 67.2774 129.165 65.1688 129.165 62.5701V61.3925C129.165 60.0916 128.353 59.0404 127.352 59.0404H122.936C120.51 59.0404 118.378 61.1305 117.712 64.1608L117.027 67.2774Z" fill="#2198DC" stroke="#2198DC" stroke-width="1.8" stroke-miterlimit="10" stroke-linecap="round" stroke-linejoin="round"/>
<path d="M77.541 67.2774H69.0261C67.0244 67.2774 65.4038 65.1688 65.4038 62.5701V61.3925C65.4038 60.0916 66.2156 59.0404 67.2165 59.0404H71.632C74.0582 59.0404 76.19 61.1305 76.8562 64.1608L77.541 67.2774Z" fill="#2198DC" stroke="#2198DC" stroke-width="1.8" stroke-miterlimit="10" stroke-linecap="round" stroke-linejoin="round"/>
<path d="M117.799 28.2317H76.6529C74.6946 28.2317 72.9904 29.5634 72.5225 31.4531L68.3115 46.4907H126.141L121.93 31.4531C121.462 29.5634 119.757 28.2317 117.799 28.2317Z" stroke="black" stroke-width="1.8" stroke-miterlimit="10" stroke-linecap="round" stroke-linejoin="round"/>
<path d="M137.756 70.223C137.688 70.223 137.564 70.223 137.39 70.223V56.9611C137.39 53.2619 135.107 49.9448 131.64 48.61L126.14 46.4922H68.3105L62.8105 48.61C59.3432 49.9448 57.0595 53.2619 57.0595 56.9611V70.223C56.8891 70.223 56.762 70.223 56.6939 70.223C55.4668 70.223 54.4722 71.2249 54.4722 72.461V79.092C54.4722 80.3281 55.4668 81.33 56.6939 81.33C59.4888 81.33 131.361 81.33 137.756 81.33C138.983 81.33 139.978 80.3281 139.978 79.092V72.461C139.978 71.2249 138.983 70.223 137.756 70.223Z" stroke="black" stroke-width="1.8" stroke-miterlimit="10" stroke-linecap="round" stroke-linejoin="round"/>
<path d="M35.334 54.9917C31.7397 59.4246 25.211 60.1182 20.7552 56.5423C18.7566 54.9393 17.514 52.7506 17.0771 50.4231" stroke="#2198DC" stroke-width="1.8" stroke-miterlimit="10" stroke-linecap="round" stroke-linejoin="round"/>
<path d="M35.692 57.5498L36.3144 53.782L32.5303 54.0777" stroke="#2198DC" stroke-width="1.8" stroke-miterlimit="10" stroke-linecap="round" stroke-linejoin="round"/>
<path d="M19.6177 40.3488C23.2275 35.9282 29.7563 35.2531 34.1997 38.8445C36.4461 40.6602 37.732 43.2189 37.9861 45.8762" stroke="#2198DC" stroke-width="1.8" stroke-miterlimit="10" stroke-linecap="round" stroke-linejoin="round"/>
<path d="M19.2673 37.7924L18.4033 41.668L22.3361 41.1196" stroke="#2198DC" stroke-width="1.8" stroke-miterlimit="10" stroke-linecap="round" stroke-linejoin="round"/>
<path d="M16.2734 72.604H37.9884" stroke="black" stroke-width="1.8" stroke-miterlimit="10" stroke-linecap="round" stroke-linejoin="round"/>
<path d="M33.1772 80.9263H37.8189" stroke="black" stroke-width="1.8" stroke-miterlimit="10" stroke-linecap="round" stroke-linejoin="round"/>
<path d="M16.104 80.9263H25.0372" stroke="black" stroke-width="1.8" stroke-miterlimit="10" stroke-linecap="round" stroke-linejoin="round"/>
</g>
<defs>
<clipPath id="clip0_484_2505">
<rect width="155" height="124" fill="white"/>
</clipPath>
</defs>
</svg>
