<svg width="120" height="124" viewBox="0 0 120 124" fill="none" xmlns="http://www.w3.org/2000/svg">
<path d="M22.9336 27.666V19.8237" stroke="black" stroke-width="1.8" stroke-miterlimit="10" stroke-linecap="round" stroke-linejoin="round"/>
<path d="M43.7129 27.666V19.8237" stroke="black" stroke-width="1.8" stroke-miterlimit="10" stroke-linecap="round" stroke-linejoin="round"/>
<path d="M45.334 19.8245H21.3085C20.5724 19.8245 19.9727 19.2717 19.9727 18.5882V6.23633C19.9727 5.55509 20.57 5 21.3085 5H45.334C46.07 5 46.6698 5.5528 46.6698 6.23633V18.5882C46.6673 19.2717 46.07 19.8245 45.334 19.8245Z" stroke="black" stroke-width="1.8" stroke-miterlimit="10" stroke-linecap="round" stroke-linejoin="round"/>
<path d="M43.7108 27.6655H22.9345L16 35.2784V111.589C16 115.683 19.5862 119 24.0077 119H95.9923C100.416 119 104 115.681 104 111.589V50.7153L98.2204 20.1993C97.9081 18.5524 96.3641 17.3528 94.5598 17.3528H72.6484C71.5852 17.3528 70.5666 17.7427 69.8156 18.44L30.8877 56.9635" stroke="black" stroke-width="1.8" stroke-miterlimit="10" stroke-linecap="round" stroke-linejoin="round"/>
<path d="M95.5397 49.1553L89.552 24.1879H76.8502C73.7002 27.1032 74.015 31.9132 77.5194 34.457L95.5397 49.1553Z" stroke="black" stroke-width="1.8" stroke-miterlimit="10" stroke-linecap="round" stroke-linejoin="round"/>
<path d="M84.3097 59.1216L62.7973 40.7166L30.8906 71.595V108.299H84.3097V59.1216Z" stroke="black" stroke-width="1.8" stroke-miterlimit="10" stroke-linecap="round" stroke-linejoin="round"/>
<path d="M75.6749 86.2013C75.6749 94.6928 68.6561 101.574 59.9966 101.574C51.3371 101.574 44.3184 94.6905 44.3184 86.2013C44.3184 79.2627 54.7871 67.0623 58.6137 62.8303C59.3349 62.0344 60.6559 62.0344 61.3771 62.8303C65.2062 67.0623 75.6749 79.265 75.6749 86.2013Z" stroke="#2198DC" stroke-width="1.8" stroke-miterlimit="10" stroke-linecap="round" stroke-linejoin="round"/>
</svg>
