<svg width="300" height="100" viewBox="0 0 300 100" fill="none" xmlns="http://www.w3.org/2000/svg">
<mask id="mask0_230_13680" style="mask-type:alpha" maskUnits="userSpaceOnUse" x="0" y="0" width="300" height="100">
<rect width="300" height="100" fill="#D9D9D9"/>
</mask>
<g mask="url(#mask0_230_13680)">
<path d="M104.497 8.39561L95.3946 8.39674C90.1991 8.39674 85.981 12.6149 85.981 17.8104V89.0341C85.981 94.2296 90.1991 98.4478 95.3946 98.4478H201.968C207.164 98.4478 211.382 94.2296 211.382 89.0341V17.8104C211.382 12.6149 207.164 8.39674 201.968 8.39674L195.391 8.39561" stroke="black" stroke-width="1.6" stroke-miterlimit="79.8403" stroke-linecap="round" stroke-linejoin="round"/>
<path d="M190.341 8.39624H181.925" stroke="black" stroke-width="1.6" stroke-miterlimit="79.8403" stroke-linecap="round" stroke-linejoin="round"/>
<path d="M176.876 8.39624H168.473" stroke="black" stroke-width="1.6" stroke-miterlimit="79.8403" stroke-linecap="round" stroke-linejoin="round"/>
<path d="M163.423 8.39624H136.479" stroke="black" stroke-width="1.6" stroke-miterlimit="79.8403" stroke-linecap="round" stroke-linejoin="round"/>
<path d="M131.429 8.39624H123.013" stroke="black" stroke-width="1.6" stroke-miterlimit="79.8403" stroke-linecap="round" stroke-linejoin="round"/>
<path d="M117.963 8.39624H109.547" stroke="black" stroke-width="1.6" stroke-miterlimit="79.8403" stroke-linecap="round" stroke-linejoin="round"/>
<path fill-rule="evenodd" clip-rule="evenodd" d="M104.496 3.3477V13.4459C104.496 14.8396 105.627 15.9707 107.021 15.9707H107.022C108.416 15.9707 109.547 14.8396 109.547 13.4459V3.3477C109.547 1.954 108.416 0.822877 107.022 0.822877H107.021C105.627 0.822877 104.496 1.954 104.496 3.3477Z" stroke="#2198DC" stroke-width="1.6" stroke-miterlimit="79.8403"/>
<path fill-rule="evenodd" clip-rule="evenodd" d="M117.962 3.3477V13.4459C117.962 14.8396 119.093 15.9707 120.487 15.9707H120.488C121.882 15.9707 123.013 14.8396 123.013 13.4459V3.3477C123.013 1.954 121.882 0.822877 120.488 0.822877H120.487C119.093 0.822877 117.962 1.954 117.962 3.3477Z" stroke="#2198DC" stroke-width="1.6" stroke-miterlimit="79.8403"/>
<path fill-rule="evenodd" clip-rule="evenodd" d="M131.428 3.3477V13.4459C131.428 14.8396 132.559 15.9707 133.953 15.9707H133.954C135.347 15.9707 136.479 14.8396 136.479 13.4459V3.3477C136.479 1.954 135.347 0.822877 133.954 0.822877H133.953C132.559 0.822877 131.428 1.954 131.428 3.3477Z" stroke="#2198DC" stroke-width="1.6" stroke-miterlimit="79.8403"/>
<path fill-rule="evenodd" clip-rule="evenodd" d="M163.409 3.3477V13.4459C163.409 14.8396 164.54 15.9707 165.934 15.9707H165.935C167.328 15.9707 168.459 14.8396 168.459 13.4459V3.3477C168.459 1.954 167.328 0.822877 165.935 0.822877H165.934C164.54 0.822877 163.409 1.954 163.409 3.3477Z" stroke="#2198DC" stroke-width="1.6" stroke-miterlimit="79.8403"/>
<path fill-rule="evenodd" clip-rule="evenodd" d="M176.875 3.3477V13.4459C176.875 14.8396 178.006 15.9707 179.4 15.9707H179.401C180.795 15.9707 181.926 14.8396 181.926 13.4459V3.3477C181.926 1.954 180.795 0.822877 179.401 0.822877H179.4C178.006 0.822877 176.875 1.954 176.875 3.3477Z" stroke="#2198DC" stroke-width="1.6" stroke-miterlimit="79.8403"/>
<path fill-rule="evenodd" clip-rule="evenodd" d="M190.34 3.3477V13.4459C190.34 14.8396 191.471 15.9707 192.865 15.9707H192.866C194.26 15.9707 195.391 14.8396 195.391 13.4459V3.3477C195.391 1.954 194.26 0.822877 192.866 0.822877H192.865C191.471 0.822877 190.34 1.954 190.34 3.3477Z" stroke="#2198DC" stroke-width="1.6" stroke-miterlimit="79.8403"/>
<path fill-rule="evenodd" clip-rule="evenodd" d="M133.111 26.0686C133.111 27.9258 134.619 29.4351 136.476 29.4351H163.411C165.268 29.4351 166.776 27.9269 166.776 26.0697C166.776 24.2126 165.268 22.7033 163.411 22.7033H136.476C134.619 22.7033 133.111 24.2115 133.111 26.0686Z" stroke="black" stroke-width="1.6" stroke-miterlimit="79.8403"/>
<path fill-rule="evenodd" clip-rule="evenodd" d="M114.596 45.4275C114.596 48.2149 116.858 50.4783 119.645 50.4783H119.646C122.434 50.4783 124.696 48.216 124.696 45.4286C124.696 42.6412 122.434 40.3778 119.646 40.3778H119.645C116.858 40.3778 114.596 42.6401 114.596 45.4275Z" stroke="black" stroke-width="1.6" stroke-miterlimit="79.8403"/>
<path fill-rule="evenodd" clip-rule="evenodd" d="M129.745 45.4275C129.745 48.2149 132.007 50.4783 134.794 50.4783H134.795C137.583 50.4783 139.845 48.216 139.845 45.4286C139.845 42.6412 137.583 40.3778 134.795 40.3778H134.794C132.007 40.3778 129.745 42.6401 129.745 45.4275Z" stroke="black" stroke-width="1.6" stroke-miterlimit="79.8403"/>
<path fill-rule="evenodd" clip-rule="evenodd" d="M144.894 45.4275C144.894 48.2149 147.156 50.4783 149.943 50.4783H149.944C152.732 50.4783 154.994 48.216 154.994 45.4286C154.994 42.6412 152.732 40.3778 149.944 40.3778H149.943C147.156 40.3778 144.894 42.6401 144.894 45.4275Z" stroke="black" stroke-width="1.6" stroke-miterlimit="79.8403"/>
<path fill-rule="evenodd" clip-rule="evenodd" d="M160.042 45.4275C160.042 48.2149 162.305 50.4783 165.092 50.4783H165.093C167.881 50.4783 170.143 48.216 170.143 45.4286C170.143 42.6412 167.881 40.3778 165.093 40.3778H165.092C162.305 40.3778 160.042 42.6401 160.042 45.4275Z" stroke="black" stroke-width="1.6" stroke-miterlimit="79.8403"/>
<path fill-rule="evenodd" clip-rule="evenodd" d="M175.191 45.4275C175.191 48.2149 177.454 50.4783 180.241 50.4783H180.242C183.03 50.4783 185.292 48.216 185.292 45.4286C185.292 42.6412 183.03 40.3778 180.242 40.3778H180.241C177.454 40.3778 175.191 42.6401 175.191 45.4275Z" stroke="#2198DC" stroke-width="1.6" stroke-miterlimit="79.8403"/>
<path fill-rule="evenodd" clip-rule="evenodd" d="M190.34 45.4275C190.34 48.2149 192.603 50.4783 195.39 50.4783H195.391C198.179 50.4783 200.441 48.216 200.441 45.4286C200.441 42.6412 198.179 40.3778 195.391 40.3778H195.39C192.603 40.3778 190.34 42.6401 190.34 45.4275Z" stroke="#2198DC" stroke-width="1.6" stroke-miterlimit="79.8403"/>
<path fill-rule="evenodd" clip-rule="evenodd" d="M99.4468 60.5764C99.4468 63.3638 101.709 65.6272 104.496 65.6272H104.498C107.285 65.6272 109.547 63.365 109.547 60.5775C109.547 57.7901 107.285 55.5268 104.498 55.5268H104.496C101.709 55.5268 99.4468 57.789 99.4468 60.5764Z" stroke="black" stroke-width="1.6" stroke-miterlimit="79.8403"/>
<path fill-rule="evenodd" clip-rule="evenodd" d="M114.596 60.5764C114.596 63.3638 116.858 65.6272 119.645 65.6272H119.646C122.434 65.6272 124.696 63.365 124.696 60.5775C124.696 57.7901 122.434 55.5268 119.646 55.5268H119.645C116.858 55.5268 114.596 57.789 114.596 60.5764Z" stroke="black" stroke-width="1.6" stroke-miterlimit="79.8403"/>
<path fill-rule="evenodd" clip-rule="evenodd" d="M129.745 60.5764C129.745 63.3638 132.007 65.6272 134.794 65.6272H134.795C137.583 65.6272 139.845 63.365 139.845 60.5775C139.845 57.7901 137.583 55.5268 134.795 55.5268H134.794C132.007 55.5268 129.745 57.789 129.745 60.5764Z" stroke="black" stroke-width="1.6" stroke-miterlimit="79.8403"/>
<path fill-rule="evenodd" clip-rule="evenodd" d="M144.894 60.5764C144.894 63.3638 147.156 65.6272 149.943 65.6272H149.944C152.732 65.6272 154.994 63.365 154.994 60.5775C154.994 57.7901 152.732 55.5268 149.944 55.5268H149.943C147.156 55.5268 144.894 57.789 144.894 60.5764Z" stroke="black" stroke-width="1.6" stroke-miterlimit="79.8403"/>
<path fill-rule="evenodd" clip-rule="evenodd" d="M160.042 60.5764C160.042 63.3638 162.305 65.6272 165.092 65.6272H165.093C167.881 65.6272 170.143 63.365 170.143 60.5775C170.143 57.7901 167.881 55.5268 165.093 55.5268H165.092C162.305 55.5268 160.042 57.789 160.042 60.5764Z" stroke="black" stroke-width="1.6" stroke-miterlimit="79.8403"/>
<path fill-rule="evenodd" clip-rule="evenodd" d="M175.191 60.5764C175.191 63.3638 177.454 65.6272 180.241 65.6272H180.242C183.03 65.6272 185.292 63.365 185.292 60.5775C185.292 57.7901 183.03 55.5268 180.242 55.5268H180.241C177.454 55.5268 175.191 57.789 175.191 60.5764Z" stroke="#2198DC" stroke-width="1.6" stroke-miterlimit="79.8403"/>
<path fill-rule="evenodd" clip-rule="evenodd" d="M190.34 60.5764C190.34 63.3638 192.603 65.6272 195.39 65.6272H195.391C198.179 65.6272 200.441 63.365 200.441 60.5775C200.441 57.7901 198.179 55.5268 195.391 55.5268H195.39C192.603 55.5268 190.34 57.789 190.34 60.5764Z" stroke="#2198DC" stroke-width="1.6" stroke-miterlimit="79.8403"/>
<path fill-rule="evenodd" clip-rule="evenodd" d="M99.4468 75.7251C99.4468 78.5125 101.709 80.7759 104.496 80.7759H104.498C107.285 80.7759 109.547 78.5136 109.547 75.7262C109.547 72.9388 107.285 70.6755 104.498 70.6755H104.496C101.709 70.6755 99.4468 72.9377 99.4468 75.7251Z" stroke="black" stroke-width="1.6" stroke-miterlimit="79.8403"/>
<path fill-rule="evenodd" clip-rule="evenodd" d="M114.596 75.7251C114.596 78.5125 116.858 80.7759 119.645 80.7759H119.646C122.434 80.7759 124.696 78.5136 124.696 75.7262C124.696 72.9388 122.434 70.6755 119.646 70.6755H119.645C116.858 70.6755 114.596 72.9377 114.596 75.7251Z" stroke="black" stroke-width="1.6" stroke-miterlimit="79.8403"/>
<path fill-rule="evenodd" clip-rule="evenodd" d="M129.745 75.7251C129.745 78.5125 132.007 80.7759 134.794 80.7759H134.795C137.583 80.7759 139.845 78.5136 139.845 75.7262C139.845 72.9388 137.583 70.6755 134.795 70.6755H134.794C132.007 70.6755 129.745 72.9377 129.745 75.7251Z" stroke="black" stroke-width="1.6" stroke-miterlimit="79.8403"/>
<path fill-rule="evenodd" clip-rule="evenodd" d="M144.894 75.7251C144.894 78.5125 147.156 80.7759 149.943 80.7759H149.944C152.732 80.7759 154.994 78.5136 154.994 75.7262C154.994 72.9388 152.732 70.6755 149.944 70.6755H149.943C147.156 70.6755 144.894 72.9377 144.894 75.7251Z" stroke="black" stroke-width="1.6" stroke-miterlimit="79.8403"/>
<path d="M81.3635 81.662L75.8414 78.731C75.7808 78.6995 75.7213 78.6692 75.6607 78.6389C72.9182 80.1404 69.9411 81.2356 66.8227 81.8595C66.7969 81.9178 66.7722 81.9762 66.7486 82.0357L62.9502 91.3899C60.3356 91.5324 57.6727 91.419 54.9885 91.0297L52.0317 81.3848C52.0115 81.3231 51.9924 81.2603 51.9711 81.1985C48.8818 80.2963 46.0192 78.9408 43.4439 77.2194C43.3845 77.2419 43.325 77.2666 43.2655 77.2912L33.973 81.2165C31.9857 79.4334 30.1835 77.4596 28.5923 75.3286L33.3199 66.4221C33.3513 66.3627 33.3816 66.3032 33.4119 66.2437C31.9105 63.5012 30.8153 60.5241 30.1925 57.4068C30.1342 57.381 30.0747 57.3563 30.0152 57.3316L20.6621 53.5343C20.5196 50.9208 20.633 48.2569 21.0223 45.5716L30.6649 42.6136C30.7278 42.5945 30.7917 42.5743 30.8546 42.553C31.7568 39.466 33.1112 36.6045 34.8315 34.0314C34.8079 33.9708 34.7832 33.9102 34.7585 33.8485L30.8344 24.5594C32.6175 22.571 34.5924 20.7688 36.7234 19.1787L45.6276 23.9029C45.6871 23.9355 45.7477 23.9669 45.8083 23.9972C48.5497 22.4969 51.5256 21.4017 54.6418 20.7789C54.6676 20.7194 54.6934 20.6588 54.7181 20.5982L58.5155 11.2485C61.1301 11.1049 63.7929 11.2182 66.4771 11.6076L69.435 21.2468C69.4541 21.3119 69.4743 21.3759 69.4956 21.4387C72.5827 22.3409 75.4441 23.6953 78.0183 25.4156C78.0789 25.392 78.1395 25.3662 78.2012 25.3404L81.5912 23.9086" stroke="#2198DC" stroke-width="1.6" stroke-miterlimit="79.8403" stroke-linecap="round" stroke-linejoin="round"/>
<path fill-rule="evenodd" clip-rule="evenodd" d="M60.7337 43.7439C64.9148 43.7439 68.3081 47.1372 68.3081 51.3183C68.3081 55.4995 64.9148 58.8928 60.7337 58.8928C56.5525 58.8928 53.1592 55.4995 53.1592 51.3183C53.1592 47.1372 56.5525 43.7439 60.7337 43.7439Z" stroke="#2198DC" stroke-width="1.6" stroke-miterlimit="79.8403"/>
<path fill-rule="evenodd" clip-rule="evenodd" d="M60.734 31.9608C71.419 31.9608 80.091 40.6327 80.091 51.3178C80.091 62.0029 71.419 70.6748 60.734 70.6748C50.0489 70.6748 41.377 62.0029 41.377 51.3178C41.377 40.6327 50.0489 31.9608 60.734 31.9608Z" stroke="#2198DC" stroke-width="1.6" stroke-miterlimit="79.8403"/>
<path fill-rule="evenodd" clip-rule="evenodd" d="M213.065 50.4767L207.174 63.1008C203.107 71.7391 200.47 80.4222 200.441 89.1907L207.174 82.4578L214.748 69.8337C225.023 49.285 235.16 28.8294 236.63 14.2875L234.105 13.4459C226.699 21.7352 219.777 35.0259 213.065 50.4767Z" fill="#F2F2F2"/>
<path d="M214.653 46.2513C219.606 35.7031 225.154 23.4785 230.841 16.6547L236.071 19.0942C234.499 27.8369 228.701 39.9448 223.805 50.5188" stroke="#2198DC" stroke-width="1.6" stroke-miterlimit="79.8403" stroke-linecap="round" stroke-linejoin="round"/>
<path d="M212.163 51.5913C207.267 62.1652 202.123 74.5784 200.551 83.321L204.473 85.1501C210.16 78.3264 216.362 66.4058 221.315 55.8588" stroke="#2198DC" stroke-width="1.6" stroke-miterlimit="79.8403" stroke-linecap="round" stroke-linejoin="round"/>
<path d="M212.163 51.5899L221.315 55.8574" stroke="#2198DC" stroke-width="1.6" stroke-miterlimit="79.8403" stroke-linecap="round" stroke-linejoin="round"/>
<path d="M214.653 46.2513L223.805 50.5188" stroke="#2198DC" stroke-width="1.6" stroke-miterlimit="79.8403" stroke-linecap="round" stroke-linejoin="round"/>
<path d="M223.805 50.5181L220.959 56.6204" stroke="#2198DC" stroke-width="1.6" stroke-miterlimit="79.8403" stroke-linecap="round" stroke-linejoin="round"/>
<path d="M214.653 46.2518L211.807 52.354" stroke="#2198DC" stroke-width="1.6" stroke-miterlimit="79.8403" stroke-linecap="round" stroke-linejoin="round"/>
<path d="M230.841 16.6542L233.927 13.4505L236.541 14.6703L236.071 19.0938" stroke="#2198DC" stroke-width="1.6" stroke-miterlimit="79.8403" stroke-linecap="round" stroke-linejoin="round"/>
<path d="M232.802 17.5701C227.729 25.4913 224.025 32.9772 220.113 41.3674" stroke="#2198DC" stroke-width="1.6" stroke-miterlimit="79.8403" stroke-linecap="round" stroke-linejoin="round"/>
<path d="M200.551 83.3196L199.724 88.505L201.031 89.1155L204.473 85.1487" stroke="#2198DC" stroke-width="1.6" stroke-miterlimit="79.8403" stroke-linecap="round" stroke-linejoin="round"/>
<path d="M200.378 88.8111L199.311 91.0991" stroke="#2198DC" stroke-width="1.6" stroke-miterlimit="79.8403" stroke-linecap="round" stroke-linejoin="round"/>
</g>
</svg>
