<svg width="155" height="124" viewBox="0 0 155 124" fill="none" xmlns="http://www.w3.org/2000/svg">
<path d="M29.2872 32.9289H24.5529C18.3579 32.9289 20.6312 43.8894 28.5271 43.8894H39.9417V43.4703C39.9417 37.6492 35.1707 32.9289 29.2872 32.9289Z" stroke="#393839" stroke-width="1.8" stroke-miterlimit="10" stroke-linecap="round" stroke-linejoin="round"/>
<path d="M126.493 32.861H131.227C133.189 32.861 134.778 34.4352 134.778 36.3741C134.778 40.4873 131.408 43.8215 127.251 43.8215H115.836V43.4024C115.836 37.5791 120.607 32.861 126.493 32.861Z" stroke="#393839" stroke-width="1.8" stroke-miterlimit="10" stroke-linecap="round" stroke-linejoin="round"/>
<path d="M105.048 20H50.9164C48.341 20 46.0974 21.7395 45.4816 24.2152L39.9414 43.8892H116.025L110.485 24.2152C109.869 21.7395 107.625 20 105.048 20Z" stroke="#393839" stroke-width="1.8" stroke-miterlimit="10" stroke-linecap="round" stroke-linejoin="round"/>
<path d="M83.9045 56.0463H59.9375L61.5377 61.9558C62.2314 64.5175 64.578 66.2978 67.2565 66.2978H73.8383" stroke="#393839" stroke-width="1.8" stroke-miterlimit="10" stroke-linecap="round" stroke-linejoin="round"/>
<path d="M52.0794 67.0534L51.1774 62.9764C50.3006 59.0103 47.4939 56.2765 44.3025 56.2765H38.4945C37.1782 56.2765 36.1113 57.6559 36.1113 59.3546V60.8948C36.1113 64.2969 38.245 67.0534 40.8777 67.0534H52.0794Z" stroke="#393839" stroke-width="1.8" stroke-miterlimit="10" stroke-linecap="round" stroke-linejoin="round"/>
<path d="M112.078 56.2765H117.886C119.203 56.2765 120.269 57.6559 120.269 59.3546V60.8948C120.269 61.7442 120.137 62.5551 119.894 63.2912" stroke="#393839" stroke-width="1.8" stroke-miterlimit="10" stroke-linecap="round" stroke-linejoin="round"/>
<path d="M130.828 74.9396V57.5895C130.828 52.7514 127.822 48.4094 123.259 46.6631L116.025 43.8929H39.9415L32.7072 46.6631C28.1469 48.4094 25.1387 52.7514 25.1387 57.5895V74.9396" stroke="#393839" stroke-width="1.8" stroke-miterlimit="10" stroke-linecap="round" stroke-linejoin="round"/>
<path d="M131.579 89.4568C133.065 89.3209 134.23 88.0683 134.23 86.5417V77.8667C134.23 76.2495 132.923 74.938 131.309 74.938C131.22 74.938 131.055 74.938 130.826 74.938" stroke="#393839" stroke-width="1.8" stroke-miterlimit="10" stroke-linecap="round" stroke-linejoin="round"/>
<path d="M28.7461 89.5382V97.2778C28.7461 99.3186 30.0213 100.972 31.594 100.972H46.6235C48.1962 100.972 49.4714 99.3186 49.4714 97.2778V89.5382" stroke="#393839" stroke-width="1.8" stroke-miterlimit="10" stroke-linecap="round" stroke-linejoin="round"/>
<path d="M25.1425 74.9377C24.9182 74.9377 24.7533 74.9377 24.6595 74.9377C23.0455 74.9377 21.7383 76.2492 21.7383 77.8664V86.5415C21.7383 88.1587 23.0455 89.4701 24.6595 89.4701C26.3398 89.4701 46.9987 89.4701 69.7432 89.4701" stroke="#393839" stroke-width="1.8" stroke-miterlimit="10" stroke-linecap="round" stroke-linejoin="round"/>
<path d="M127.487 89.5381V97.2777C127.487 99.3185 126.212 100.972 124.639 100.972H120.207" stroke="#393839" stroke-width="1.8" stroke-miterlimit="10" stroke-linecap="round" stroke-linejoin="round"/>
<path d="M131.095 74.9388C131.319 74.9388 131.484 74.9388 131.578 74.9388C133.192 74.9388 134.499 76.2502 134.499 77.8674V86.5425C134.499 88.1597 133.192 89.4711 131.578 89.4711C131.099 89.4711 129.075 89.4711 125.902 89.4711" stroke="#393839" stroke-width="1.8" stroke-miterlimit="10" stroke-linecap="round" stroke-linejoin="round"/>
<path d="M78.8281 92.7234L60.5868 105.328L58.0479 107.233C55.8776 108.862 55.3328 111.935 57.1665 114.164C59.0232 116.42 62.4366 116.628 64.5588 114.615L82.9627 97.7245" stroke="#B6862D" stroke-width="1.8" stroke-miterlimit="10" stroke-linecap="round" stroke-linejoin="round"/>
<path d="M81.6563 94.9505C89.4034 103.992 103.233 105.166 112.416 97.5507C121.658 89.8859 122.85 76.3116 115.172 67.1903C107.418 57.9785 93.4074 56.7758 84.1746 64.5357C74.9898 72.2527 73.8658 85.8587 81.6563 94.9505Z" stroke="#B6862D" stroke-width="1.8" stroke-miterlimit="10" stroke-linecap="round" stroke-linejoin="round"/>
</svg>
