<svg width="320" height="104" viewBox="0 0 320 104" fill="none" xmlns="http://www.w3.org/2000/svg">
<path d="M300.545 80.8572L316.668 78.3813L316.664 75.4643C318.519 68.2059 317.995 61.6867 316.054 55.5771L317.78 50.0927C318.553 48.0219 317.224 47.3054 314.66 47.3844C310.115 44.7404 305.569 42.3672 301.024 40.2558C302.501 39.45 303.049 38.7571 303.034 38.0315C291.484 35.3412 280.741 33.8856 270.508 33.2073C251.637 31.9502 236.443 32.4614 226.772 35.6708C217.399 39.1081 208.336 43.4922 199.489 48.5354C191.747 49.2497 184.088 50.385 176.522 51.9886C169.463 53.6599 165.823 56.8038 163.513 59.4049L164.343 61.944L162.684 70.4075L165.173 78.8711L172.641 80.5638L179.279 83.1029" stroke="#393839" stroke-width="1.6998" stroke-miterlimit="79.8403" stroke-linecap="round" stroke-linejoin="round"/>
<path d="M314.567 47.3413L300.295 46.2411" stroke="#393839" stroke-width="1.6998" stroke-miterlimit="79.8403" stroke-linecap="round" stroke-linejoin="round"/>
<path d="M216.562 44.9603C226.028 39.8043 234.482 36.4189 247.264 36.0736" stroke="#393839" stroke-width="1.6998" stroke-miterlimit="79.8403" stroke-linecap="round" stroke-linejoin="round"/>
<path d="M214.148 48.084C214.601 46.617 215.319 45.7165 216.426 45.0247C219.271 45.1015 221.79 45.8496 221.408 48.4226C221.296 49.5996 220.842 50.0667 220.289 50.4538C219.446 51.1049 217.932 51.1118 216.596 51.0045" stroke="#393839" stroke-width="1.6998" stroke-miterlimit="79.8403" stroke-linecap="round" stroke-linejoin="round"/>
<path d="M220.768 50.0948L273.872 48.4021L294.616 44.1703" stroke="#393839" stroke-width="1.6998" stroke-miterlimit="79.8403" stroke-linecap="round" stroke-linejoin="round"/>
<path d="M250.637 48.4022L252.296 36.5532C260.54 36.0082 268.471 37.0193 276.359 38.2459" stroke="#393839" stroke-width="1.6998" stroke-miterlimit="79.8403" stroke-linecap="round" stroke-linejoin="round"/>
<path d="M236.531 55.173H243.169" stroke="#393839" stroke-width="1.6998" stroke-miterlimit="79.8403" stroke-linecap="round" stroke-linejoin="round"/>
<path d="M275.531 52.634H282.169" stroke="#393839" stroke-width="1.6998" stroke-miterlimit="79.8403" stroke-linecap="round" stroke-linejoin="round"/>
<path d="M203.34 78.0245C202.882 85.0354 196.939 90.3399 190.065 89.8725C183.192 89.4051 177.991 83.3428 178.45 76.332C178.908 69.3211 184.851 64.0166 191.725 64.484C198.598 64.9514 203.798 71.0137 203.34 78.0245Z" stroke="#393839" stroke-width="1.6998" stroke-miterlimit="79.8403"/>
<path d="M163.762 65.0404L169.322 58.5584L180.939 55.173" stroke="#393839" stroke-width="1.6998" stroke-miterlimit="79.8403" stroke-linecap="round" stroke-linejoin="round"/>
<path d="M175.96 60.2511C173.298 62.6988 171.086 65.5392 169.322 68.7147" stroke="#393839" stroke-width="1.6998" stroke-miterlimit="79.8403" stroke-linecap="round" stroke-linejoin="round"/>
<path d="M175.129 76.3319C174.892 63.9096 181.767 58.5584 190.894 57.712C202.511 57.712 208.609 64.1274 209.149 75.4856" stroke="#393839" stroke-width="1.6998" stroke-miterlimit="79.8403" stroke-linecap="round" stroke-linejoin="round"/>
<path d="M203.34 81.41H273.039" stroke="#393839" stroke-width="1.6998" stroke-miterlimit="79.8403" stroke-linecap="round" stroke-linejoin="round"/>
<path d="M207.492 76.3319L255.618 73.7928L272.213 76.3319" stroke="#393839" stroke-width="1.6998" stroke-miterlimit="79.8403" stroke-linecap="round" stroke-linejoin="round"/>
<path d="M269.723 75.4857C270.552 66.1758 276.361 57.7122 287.148 57.7122C297.105 57.7122 302.529 62.7847 304.572 72.1003" stroke="#393839" stroke-width="1.6998" stroke-miterlimit="79.8403" stroke-linecap="round" stroke-linejoin="round"/>
<path d="M317.019 50.9413H301.254L307.892 56.0194L316.19 54.3267" stroke="#393839" stroke-width="1.6998" stroke-miterlimit="79.8403" stroke-linecap="round" stroke-linejoin="round"/>
<path d="M300.422 78.0245C299.964 85.0354 294.021 90.3399 287.147 89.8725C280.274 89.4051 275.073 83.3428 275.532 76.332C275.99 69.3211 281.933 64.0166 288.807 64.484C295.68 64.9514 300.88 71.0137 300.422 78.0245Z" stroke="#393839" stroke-width="1.6998" stroke-miterlimit="79.8403"/>
<path d="M197.235 77.6093C197.002 81.18 193.975 83.8817 190.474 83.6436C186.973 83.4056 184.325 80.3179 184.558 76.7472C184.791 73.1765 187.818 70.4748 191.319 70.7129C194.82 70.9509 197.468 74.0386 197.235 77.6093Z" stroke="#393839" stroke-width="1.6998" stroke-miterlimit="79.8403"/>
<path d="M294.315 77.6093C294.082 81.18 291.055 83.8817 287.554 83.6436C284.053 83.4056 281.405 80.3179 281.638 76.7472C281.871 73.1765 284.898 70.4748 288.399 70.7129C291.9 70.9509 294.548 74.0386 294.315 77.6093Z" stroke="#393839" stroke-width="1.6998" stroke-miterlimit="79.8403"/>
<path d="M8.51367 51.7178L20.7963 50.095C38.2212 42.4778 53.1568 39.0924 73.071 39.0924C88.0066 39.0924 100.166 43.0308 113.043 51.2585C116.167 53.0336 118.317 53.9804 122.207 54.5627C136.133 55.945 149.577 57.3929 156.901 65.3543C157.764 66.5088 158.385 67.9487 158.473 70.0048L158.286 78.9547C158.12 80.5798 156.675 81.443 155.266 81.7646C152.214 82.5501 148.579 83.103 144.727 82.9992" stroke="#B6862D" stroke-width="1.6998" stroke-miterlimit="79.8403" stroke-linecap="round" stroke-linejoin="round"/>
<path d="M134.528 89.7645C128.171 90.2631 122.622 85.4111 122.133 78.9274C121.645 72.4436 126.401 66.7834 132.758 66.2848C139.115 65.7862 144.664 70.6382 145.153 77.122C145.641 83.6057 140.885 89.266 134.528 89.7645Z" stroke="#393839" stroke-width="1.6998" stroke-miterlimit="79.8403"/>
<path d="M157.706 72.9466H151.068L154.387 78.8711" stroke="#B6862D" stroke-width="1.6998" stroke-miterlimit="79.8403" stroke-linecap="round" stroke-linejoin="round"/>
<path d="M155.218 67.0221H148.579C148.657 64.4345 146.492 62.4473 141.941 61.0976" stroke="#B6862D" stroke-width="1.6998" stroke-miterlimit="79.8403" stroke-linecap="round" stroke-linejoin="round"/>
<path d="M122.856 83.1029H49.0078" stroke="#B6862D" stroke-width="1.6998" stroke-miterlimit="79.8403" stroke-linecap="round" stroke-linejoin="round"/>
<path d="M26.6051 81.4103L10.0099 78.8712C6.38001 78.088 2.58194 78.0903 2 73.9172L2.16595 69.0083C2.60849 65.4897 3.87967 61.3392 6.0658 54.7049C6.54153 53.3823 7.33036 52.4423 8.35041 51.7878" stroke="#B6862D" stroke-width="1.6998" stroke-miterlimit="79.8403" stroke-linecap="round" stroke-linejoin="round"/>
<path d="M9.18149 54.3267H19.9683C22.4576 54.3267 22.4576 56.0194 19.9683 57.7121L14.16 61.0976L10.841 62.7903L5.41992 62.3389" stroke="#B6862D" stroke-width="1.6998" stroke-miterlimit="79.8403" stroke-linecap="round" stroke-linejoin="round"/>
<path d="M46.5176 58.5586H53.1556" stroke="#B6862D" stroke-width="1.6998" stroke-miterlimit="79.8403" stroke-linecap="round" stroke-linejoin="round"/>
<path d="M81.3691 60.2512H88.0072" stroke="#B6862D" stroke-width="1.6998" stroke-miterlimit="79.8403" stroke-linecap="round" stroke-linejoin="round"/>
<path d="M107.091 50.9413C105.918 51.29 105.383 52.528 105.383 53.7659C105.383 55.7644 106.609 56.8658 107.921 56.8658H111.24" stroke="#B6862D" stroke-width="1.6998" stroke-miterlimit="79.8403" stroke-linecap="round" stroke-linejoin="round"/>
<path d="M106.262 50.9413C96.8535 46.2051 87.0016 43.0498 76.3906 42.4777" stroke="#B6862D" stroke-width="1.6998" stroke-miterlimit="79.8403" stroke-linecap="round" stroke-linejoin="round"/>
<path d="M106.001 56.0082L44.8594 52.634" stroke="#B6862D" stroke-width="1.6998" stroke-miterlimit="79.8403" stroke-linecap="round" stroke-linejoin="round"/>
<path d="M73.0711 54.3269L71.4116 42.4779C62.3053 42.9045 56.4759 43.3243 49.8379 45.017" stroke="#B6862D" stroke-width="1.6998" stroke-miterlimit="79.8403" stroke-linecap="round" stroke-linejoin="round"/>
<path d="M134.173 85.0367C130.377 85.3346 127.062 82.4368 126.77 78.5642C126.478 74.6916 129.319 71.3107 133.116 71.0128C136.912 70.7149 140.227 73.6127 140.519 77.4853C140.811 81.3579 137.97 84.7388 134.173 85.0367Z" stroke="#B6862D" stroke-width="1.6998" stroke-miterlimit="79.8403"/>
<path d="M39.1061 89.7645C32.7495 90.2631 27.2003 85.4111 26.7115 78.9274C26.2227 72.4436 30.9795 66.7834 37.3361 66.2848C43.6927 65.7862 49.2419 70.6382 49.7307 77.122C50.2195 83.6057 45.4627 89.266 39.1061 89.7645Z" stroke="#393839" stroke-width="1.6998" stroke-miterlimit="79.8403"/>
<path d="M38.7497 85.0367C34.953 85.3346 31.6385 82.4368 31.3464 78.5642C31.0543 74.6916 33.8954 71.3107 37.692 71.0128C41.4886 70.7149 44.8032 73.6127 45.0952 77.4853C45.3873 81.3579 42.5463 84.7388 38.7497 85.0367Z" stroke="#393839" stroke-width="1.6998" stroke-miterlimit="79.8403"/>
<path fill-rule="evenodd" clip-rule="evenodd" d="M118.99 86.1013L160.08 13.5121C163.484 7.49615 169.009 7.49615 172.413 13.5121L213.503 86.1013C216.907 92.1172 214.142 97.0001 207.332 97.0001H125.161C118.351 97.0001 115.586 92.1172 118.99 86.1013ZM195.13 80.9724L168.151 33.3078C167.101 31.4503 165.392 31.4503 164.343 33.3078L137.363 80.9724C136.312 82.8298 137.166 84.3375 139.268 84.3375H193.225C195.327 84.3375 196.181 82.8298 195.13 80.9724Z" fill="white" stroke="white" stroke-width="6.79921" stroke-miterlimit="79.8403"/>
<path fill-rule="evenodd" clip-rule="evenodd" d="M125.161 97.0001H207.331C214.142 97.0001 216.907 92.1172 213.501 86.1013L172.414 13.5121C169.01 7.49615 163.483 7.49615 160.078 13.5121L118.991 86.1013C115.586 92.1172 118.35 97.0001 125.161 97.0001Z" stroke="#B6862D" stroke-width="1.6998" stroke-miterlimit="79.8403"/>
<path fill-rule="evenodd" clip-rule="evenodd" d="M139.267 84.3374H193.224C195.327 84.3374 196.18 82.8286 195.129 80.9723L168.149 33.3077C167.099 31.4502 165.391 31.4502 164.341 33.3077L137.362 80.9723C136.311 82.8286 137.164 84.3374 139.267 84.3374Z" stroke="#B6862D" stroke-width="1.6998" stroke-miterlimit="79.8403"/>
<path d="M166.201 31.4617V9.26565" stroke="#B6862D" stroke-width="1.6998" stroke-miterlimit="79.8403" stroke-linecap="round" stroke-linejoin="round"/>
<path d="M195.404 83.3862L213.59 94.0966" stroke="#B6862D" stroke-width="1.6998" stroke-miterlimit="79.8403" stroke-linecap="round" stroke-linejoin="round"/>
<path d="M137.024 83.3862L118.838 94.0966" stroke="#B6862D" stroke-width="1.6998" stroke-miterlimit="79.8403" stroke-linecap="round" stroke-linejoin="round"/>
</svg>
