<svg width="300" height="100" viewBox="0 0 300 100" fill="none" xmlns="http://www.w3.org/2000/svg">
<mask id="mask0_155_5161" style="mask-type:alpha" maskUnits="userSpaceOnUse" x="0" y="0" width="300" height="100">
<rect width="300" height="100" fill="#D9D9D9"/>
</mask>
<g mask="url(#mask0_155_5161)">
<path d="M104.497 8.39561L95.3942 8.39674C90.1986 8.39674 85.9805 12.6149 85.9805 17.8104V89.0341C85.9805 94.2296 90.1986 98.4478 95.3942 98.4478H201.968C207.163 98.4478 211.381 94.2296 211.381 89.0341V17.8104C211.381 12.6149 207.163 8.39674 201.968 8.39674L195.391 8.39561" stroke="#393839" stroke-width="1.6" stroke-miterlimit="79.8403" stroke-linecap="round" stroke-linejoin="round"/>
<path d="M190.342 8.39648H181.926" stroke="#393839" stroke-width="1.6" stroke-miterlimit="79.8403" stroke-linecap="round" stroke-linejoin="round"/>
<path d="M176.875 8.39648H168.473" stroke="#393839" stroke-width="1.6" stroke-miterlimit="79.8403" stroke-linecap="round" stroke-linejoin="round"/>
<path d="M163.423 8.39648H136.479" stroke="#393839" stroke-width="1.6" stroke-miterlimit="79.8403" stroke-linecap="round" stroke-linejoin="round"/>
<path d="M131.43 8.39648H123.014" stroke="#393839" stroke-width="1.6" stroke-miterlimit="79.8403" stroke-linecap="round" stroke-linejoin="round"/>
<path d="M117.963 8.39648H109.547" stroke="#393839" stroke-width="1.6" stroke-miterlimit="79.8403" stroke-linecap="round" stroke-linejoin="round"/>
<path fill-rule="evenodd" clip-rule="evenodd" d="M104.496 3.3477V13.4459C104.496 14.8396 105.627 15.9707 107.021 15.9707H107.022C108.416 15.9707 109.547 14.8396 109.547 13.4459V3.3477C109.547 1.954 108.416 0.822877 107.022 0.822877H107.021C105.627 0.822877 104.496 1.954 104.496 3.3477Z" stroke="#B6862D" stroke-width="1.6" stroke-miterlimit="79.8403"/>
<path fill-rule="evenodd" clip-rule="evenodd" d="M117.963 3.3477V13.4459C117.963 14.8396 119.094 15.9707 120.488 15.9707H120.489C121.883 15.9707 123.014 14.8396 123.014 13.4459V3.3477C123.014 1.954 121.883 0.822877 120.489 0.822877H120.488C119.094 0.822877 117.963 1.954 117.963 3.3477Z" stroke="#B6862D" stroke-width="1.6" stroke-miterlimit="79.8403"/>
<path fill-rule="evenodd" clip-rule="evenodd" d="M131.428 3.3477V13.4459C131.428 14.8396 132.559 15.9707 133.953 15.9707H133.954C135.347 15.9707 136.479 14.8396 136.479 13.4459V3.3477C136.479 1.954 135.347 0.822877 133.954 0.822877H133.953C132.559 0.822877 131.428 1.954 131.428 3.3477Z" stroke="#B6862D" stroke-width="1.6" stroke-miterlimit="79.8403"/>
<path fill-rule="evenodd" clip-rule="evenodd" d="M163.408 3.3477V13.4459C163.408 14.8396 164.539 15.9707 165.933 15.9707H165.934C167.328 15.9707 168.459 14.8396 168.459 13.4459V3.3477C168.459 1.954 167.328 0.822877 165.934 0.822877H165.933C164.539 0.822877 163.408 1.954 163.408 3.3477Z" stroke="#B6862D" stroke-width="1.6" stroke-miterlimit="79.8403"/>
<path fill-rule="evenodd" clip-rule="evenodd" d="M176.875 3.3477V13.4459C176.875 14.8396 178.006 15.9707 179.4 15.9707H179.401C180.795 15.9707 181.926 14.8396 181.926 13.4459V3.3477C181.926 1.954 180.795 0.822877 179.401 0.822877H179.4C178.006 0.822877 176.875 1.954 176.875 3.3477Z" stroke="#B6862D" stroke-width="1.6" stroke-miterlimit="79.8403"/>
<path fill-rule="evenodd" clip-rule="evenodd" d="M190.34 3.3477V13.4459C190.34 14.8396 191.471 15.9707 192.865 15.9707H192.866C194.26 15.9707 195.391 14.8396 195.391 13.4459V3.3477C195.391 1.954 194.26 0.822877 192.866 0.822877H192.865C191.471 0.822877 190.34 1.954 190.34 3.3477Z" stroke="#B6862D" stroke-width="1.6" stroke-miterlimit="79.8403"/>
<path fill-rule="evenodd" clip-rule="evenodd" d="M133.111 26.0686C133.111 27.9258 134.62 29.4351 136.477 29.4351H163.412C165.269 29.4351 166.777 27.9269 166.777 26.0697C166.777 24.2126 165.269 22.7033 163.412 22.7033H136.477C134.62 22.7033 133.111 24.2115 133.111 26.0686Z" stroke="#393839" stroke-width="1.6" stroke-miterlimit="79.8403"/>
<path fill-rule="evenodd" clip-rule="evenodd" d="M114.596 45.4273C114.596 48.2147 116.858 50.478 119.645 50.478H119.646C122.434 50.478 124.696 48.2158 124.696 45.4284C124.696 42.641 122.434 40.3776 119.646 40.3776H119.645C116.858 40.3776 114.596 42.6398 114.596 45.4273Z" stroke="#393839" stroke-width="1.6" stroke-miterlimit="79.8403"/>
<path fill-rule="evenodd" clip-rule="evenodd" d="M129.744 45.4273C129.744 48.2147 132.006 50.478 134.794 50.478H134.795C137.582 50.478 139.845 48.2158 139.845 45.4284C139.845 42.641 137.582 40.3776 134.795 40.3776H134.794C132.006 40.3776 129.744 42.6398 129.744 45.4273Z" stroke="#393839" stroke-width="1.6" stroke-miterlimit="79.8403"/>
<path fill-rule="evenodd" clip-rule="evenodd" d="M144.895 45.4273C144.895 48.2147 147.157 50.478 149.944 50.478H149.945C152.733 50.478 154.995 48.2158 154.995 45.4284C154.995 42.641 152.733 40.3776 149.945 40.3776H149.944C147.157 40.3776 144.895 42.6398 144.895 45.4273Z" stroke="#393839" stroke-width="1.6" stroke-miterlimit="79.8403"/>
<path fill-rule="evenodd" clip-rule="evenodd" d="M160.043 45.4273C160.043 48.2147 162.305 50.478 165.093 50.478H165.094C167.881 50.478 170.143 48.2158 170.143 45.4284C170.143 42.641 167.881 40.3776 165.094 40.3776H165.093C162.305 40.3776 160.043 42.6398 160.043 45.4273Z" stroke="#393839" stroke-width="1.6" stroke-miterlimit="79.8403"/>
<path fill-rule="evenodd" clip-rule="evenodd" d="M175.191 45.4273C175.191 48.2147 177.454 50.478 180.241 50.478H180.242C183.03 50.478 185.292 48.2158 185.292 45.4284C185.292 42.641 183.03 40.3776 180.242 40.3776H180.241C177.454 40.3776 175.191 42.6398 175.191 45.4273Z" stroke="#B6862D" stroke-width="1.6" stroke-miterlimit="79.8403"/>
<path fill-rule="evenodd" clip-rule="evenodd" d="M190.34 45.4273C190.34 48.2147 192.602 50.478 195.389 50.478H195.391C198.178 50.478 200.44 48.2158 200.44 45.4284C200.44 42.641 198.178 40.3776 195.391 40.3776H195.389C192.602 40.3776 190.34 42.6398 190.34 45.4273Z" stroke="#B6862D" stroke-width="1.6" stroke-miterlimit="79.8403"/>
<path fill-rule="evenodd" clip-rule="evenodd" d="M99.4473 60.5762C99.4473 63.3636 101.71 65.627 104.497 65.627H104.498C107.285 65.627 109.548 63.3647 109.548 60.5773C109.548 57.7899 107.285 55.5265 104.498 55.5265H104.497C101.71 55.5265 99.4473 57.7888 99.4473 60.5762Z" stroke="#393839" stroke-width="1.6" stroke-miterlimit="79.8403"/>
<path fill-rule="evenodd" clip-rule="evenodd" d="M114.596 60.5762C114.596 63.3636 116.858 65.627 119.645 65.627H119.646C122.434 65.627 124.696 63.3647 124.696 60.5773C124.696 57.7899 122.434 55.5265 119.646 55.5265H119.645C116.858 55.5265 114.596 57.7888 114.596 60.5762Z" stroke="#393839" stroke-width="1.6" stroke-miterlimit="79.8403"/>
<path fill-rule="evenodd" clip-rule="evenodd" d="M129.744 60.5762C129.744 63.3636 132.006 65.627 134.794 65.627H134.795C137.582 65.627 139.845 63.3647 139.845 60.5773C139.845 57.7899 137.582 55.5265 134.795 55.5265H134.794C132.006 55.5265 129.744 57.7888 129.744 60.5762Z" stroke="#393839" stroke-width="1.6" stroke-miterlimit="79.8403"/>
<path fill-rule="evenodd" clip-rule="evenodd" d="M144.895 60.5762C144.895 63.3636 147.157 65.627 149.944 65.627H149.945C152.733 65.627 154.995 63.3647 154.995 60.5773C154.995 57.7899 152.733 55.5265 149.945 55.5265H149.944C147.157 55.5265 144.895 57.7888 144.895 60.5762Z" stroke="#393839" stroke-width="1.6" stroke-miterlimit="79.8403"/>
<path fill-rule="evenodd" clip-rule="evenodd" d="M160.043 60.5762C160.043 63.3636 162.305 65.627 165.093 65.627H165.094C167.881 65.627 170.143 63.3647 170.143 60.5773C170.143 57.7899 167.881 55.5265 165.094 55.5265H165.093C162.305 55.5265 160.043 57.7888 160.043 60.5762Z" stroke="#393839" stroke-width="1.6" stroke-miterlimit="79.8403"/>
<path fill-rule="evenodd" clip-rule="evenodd" d="M175.191 60.5762C175.191 63.3636 177.454 65.627 180.241 65.627H180.242C183.03 65.627 185.292 63.3647 185.292 60.5773C185.292 57.7899 183.03 55.5265 180.242 55.5265H180.241C177.454 55.5265 175.191 57.7888 175.191 60.5762Z" stroke="#B6862D" stroke-width="1.6" stroke-miterlimit="79.8403"/>
<path fill-rule="evenodd" clip-rule="evenodd" d="M190.34 60.5762C190.34 63.3636 192.602 65.627 195.389 65.627H195.391C198.178 65.627 200.44 63.3647 200.44 60.5773C200.44 57.7899 198.178 55.5265 195.391 55.5265H195.389C192.602 55.5265 190.34 57.7888 190.34 60.5762Z" stroke="#B6862D" stroke-width="1.6" stroke-miterlimit="79.8403"/>
<path fill-rule="evenodd" clip-rule="evenodd" d="M99.4473 75.7251C99.4473 78.5125 101.71 80.7759 104.497 80.7759H104.498C107.285 80.7759 109.548 78.5136 109.548 75.7262C109.548 72.9388 107.285 70.6755 104.498 70.6755H104.497C101.71 70.6755 99.4473 72.9377 99.4473 75.7251Z" stroke="#393839" stroke-width="1.6" stroke-miterlimit="79.8403"/>
<path fill-rule="evenodd" clip-rule="evenodd" d="M114.596 75.7251C114.596 78.5125 116.858 80.7759 119.645 80.7759H119.646C122.434 80.7759 124.696 78.5136 124.696 75.7262C124.696 72.9388 122.434 70.6755 119.646 70.6755H119.645C116.858 70.6755 114.596 72.9377 114.596 75.7251Z" stroke="#393839" stroke-width="1.6" stroke-miterlimit="79.8403"/>
<path fill-rule="evenodd" clip-rule="evenodd" d="M129.744 75.7251C129.744 78.5125 132.006 80.7759 134.794 80.7759H134.795C137.582 80.7759 139.845 78.5136 139.845 75.7262C139.845 72.9388 137.582 70.6755 134.795 70.6755H134.794C132.006 70.6755 129.744 72.9377 129.744 75.7251Z" stroke="#393839" stroke-width="1.6" stroke-miterlimit="79.8403"/>
<path fill-rule="evenodd" clip-rule="evenodd" d="M144.895 75.7251C144.895 78.5125 147.157 80.7759 149.944 80.7759H149.945C152.733 80.7759 154.995 78.5136 154.995 75.7262C154.995 72.9388 152.733 70.6755 149.945 70.6755H149.944C147.157 70.6755 144.895 72.9377 144.895 75.7251Z" stroke="#393839" stroke-width="1.6" stroke-miterlimit="79.8403"/>
<path d="M81.3639 81.662L75.8419 78.731C75.7813 78.6995 75.7218 78.6692 75.6612 78.6389C72.9187 80.1404 69.9416 81.2356 66.8232 81.8595C66.7974 81.9178 66.7727 81.9762 66.7491 82.0357L62.9507 91.3899C60.3361 91.5324 57.6732 91.419 54.989 91.0297L52.0322 81.3848C52.012 81.3231 51.9929 81.2603 51.9716 81.1985C48.8823 80.2963 46.0197 78.9408 43.4444 77.2194C43.3849 77.2419 43.3255 77.2666 43.266 77.2912L33.9735 81.2165C31.9862 79.4334 30.184 77.4596 28.5928 75.3286L33.3204 66.4221C33.3518 66.3627 33.3821 66.3032 33.4124 66.2437C31.911 63.5012 30.8158 60.5241 30.193 57.4068C30.1346 57.381 30.0752 57.3563 30.0157 57.3316L20.6626 53.5343C20.5201 50.9208 20.6334 48.2569 21.0228 45.5716L30.6654 42.6136C30.7283 42.5945 30.7922 42.5743 30.8551 42.553C31.7573 39.466 33.1117 36.6045 34.8319 34.0314C34.8084 33.9708 34.7837 33.9102 34.759 33.8485L30.8349 24.5594C32.618 22.571 34.5929 20.7688 36.7239 19.1787L45.6281 23.9029C45.6876 23.9355 45.7482 23.9669 45.8088 23.9972C48.5502 22.4969 51.5261 21.4017 54.6423 20.7789C54.6681 20.7194 54.6939 20.6588 54.7186 20.5982L58.5159 11.2485C61.1305 11.1049 63.7934 11.2182 66.4776 11.6076L69.4355 21.2468C69.4546 21.3119 69.4748 21.3759 69.4961 21.4387C72.5831 22.3409 75.4446 23.6953 78.0188 25.4156C78.0794 25.392 78.14 25.3662 78.2017 25.3404L81.5917 23.9086" stroke="#B6862D" stroke-width="1.6" stroke-miterlimit="79.8403" stroke-linecap="round" stroke-linejoin="round"/>
<path fill-rule="evenodd" clip-rule="evenodd" d="M60.7346 43.7439C64.9157 43.7439 68.3091 47.1372 68.3091 51.3183C68.3091 55.4995 64.9157 58.8928 60.7346 58.8928C56.5535 58.8928 53.1602 55.4995 53.1602 51.3183C53.1602 47.1372 56.5535 43.7439 60.7346 43.7439Z" stroke="#B6862D" stroke-width="1.6" stroke-miterlimit="79.8403"/>
<path fill-rule="evenodd" clip-rule="evenodd" d="M60.734 31.9608C71.419 31.9608 80.091 40.6327 80.091 51.3178C80.091 62.0029 71.419 70.6748 60.734 70.6748C50.0489 70.6748 41.377 62.0029 41.377 51.3178C41.377 40.6327 50.0489 31.9608 60.734 31.9608Z" stroke="#B6862D" stroke-width="1.6" stroke-miterlimit="79.8403"/>
<path fill-rule="evenodd" clip-rule="evenodd" d="M213.066 50.4767L207.174 63.1008C203.108 71.7391 200.471 80.4222 200.441 89.1907L207.174 82.4578L214.749 69.8337C225.023 49.285 235.161 28.8294 236.631 14.2875L234.106 13.4459C226.7 21.7352 219.777 35.0259 213.066 50.4767Z" fill="#F2F2F2"/>
<path d="M214.652 46.2513C219.605 35.7031 225.153 23.4785 230.84 16.6547L236.071 19.0942C234.499 27.8369 228.7 39.9448 223.805 50.5188" stroke="#B6862D" stroke-width="1.6" stroke-miterlimit="79.8403" stroke-linecap="round" stroke-linejoin="round"/>
<path d="M212.163 51.5913C207.267 62.1652 202.123 74.5784 200.551 83.321L204.473 85.1501C210.16 78.3264 216.362 66.4058 221.315 55.8588" stroke="#B6862D" stroke-width="1.6" stroke-miterlimit="79.8403" stroke-linecap="round" stroke-linejoin="round"/>
<path d="M212.162 51.5899L221.314 55.8574" stroke="#B6862D" stroke-width="1.6" stroke-miterlimit="79.8403" stroke-linecap="round" stroke-linejoin="round"/>
<path d="M214.652 46.2513L223.805 50.5188" stroke="#B6862D" stroke-width="1.6" stroke-miterlimit="79.8403" stroke-linecap="round" stroke-linejoin="round"/>
<path d="M223.805 50.5179L220.959 56.6201" stroke="#B6862D" stroke-width="1.6" stroke-miterlimit="79.8403" stroke-linecap="round" stroke-linejoin="round"/>
<path d="M214.652 46.2518L211.807 52.354" stroke="#B6862D" stroke-width="1.6" stroke-miterlimit="79.8403" stroke-linecap="round" stroke-linejoin="round"/>
<path d="M230.84 16.6542L233.926 13.4505L236.54 14.6703L236.07 19.0938" stroke="#B6862D" stroke-width="1.6" stroke-miterlimit="79.8403" stroke-linecap="round" stroke-linejoin="round"/>
<path d="M232.802 17.5703C227.729 25.4916 224.025 32.9774 220.113 41.3677" stroke="#B6862D" stroke-width="1.6" stroke-miterlimit="79.8403" stroke-linecap="round" stroke-linejoin="round"/>
<path d="M200.552 83.3196L199.725 88.505L201.032 89.1155L204.474 85.1487" stroke="#B6862D" stroke-width="1.6" stroke-miterlimit="79.8403" stroke-linecap="round" stroke-linejoin="round"/>
<path d="M200.378 88.8111L199.311 91.0991" stroke="#B6862D" stroke-width="1.6" stroke-miterlimit="79.8403" stroke-linecap="round" stroke-linejoin="round"/>
</g>
</svg>
