<svg width="300" height="100" viewBox="0 0 300 100" fill="none" xmlns="http://www.w3.org/2000/svg">
<mask id="mask0_155_5287" style="mask-type:alpha" maskUnits="userSpaceOnUse" x="0" y="0" width="300" height="100">
<rect width="300" height="100" fill="#D9D9D9"/>
</mask>
<g mask="url(#mask0_155_5287)">
<path d="M197.918 67.7329H209.476" stroke="#393839" stroke-width="1.6" stroke-miterlimit="79.8403" stroke-linecap="round" stroke-linejoin="round"/>
<path d="M219.572 67.7329H232.526C236.646 67.7329 237.47 64.4369 237.47 61.9649V37.2448" stroke="#393839" stroke-width="1.6" stroke-miterlimit="79.8403" stroke-linecap="round" stroke-linejoin="round"/>
<path d="M199.566 35.5977H208.246" stroke="#393839" stroke-width="1.6" stroke-miterlimit="79.8403" stroke-linecap="round" stroke-linejoin="round"/>
<path d="M218.957 35.5977H230.878C234.174 35.5977 237.47 33.9497 237.47 30.6536C237.47 26.5336 234.13 25.7789 229.23 24.0616C226.769 23.3574 225.23 21.7237 225.11 19.9416C224.945 17.5531 227.109 14.9976 230.878 14.9976H277.846" stroke="#393839" stroke-width="1.6" stroke-miterlimit="79.8403" stroke-linecap="round" stroke-linejoin="round"/>
<path d="M225.109 19.942V31.478" stroke="#393839" stroke-width="1.6" stroke-miterlimit="79.8403" stroke-linecap="round" stroke-linejoin="round"/>
<path d="M239.941 50.4292H277.845L269.605 33.1252L277.845 14.9971" stroke="#393839" stroke-width="1.6" stroke-miterlimit="79.8403" stroke-linecap="round" stroke-linejoin="round"/>
<path d="M102.334 67.7329H90.9629" stroke="#393839" stroke-width="1.6" stroke-miterlimit="79.8403" stroke-linecap="round" stroke-linejoin="round"/>
<path d="M80.349 67.7329H67.7253C63.6053 67.7329 62.7812 64.4369 62.7812 61.9649V37.2448" stroke="#393839" stroke-width="1.6" stroke-miterlimit="79.8403" stroke-linecap="round" stroke-linejoin="round"/>
<path d="M100.685 35.5977H92.1816" stroke="#393839" stroke-width="1.6" stroke-miterlimit="79.8403" stroke-linecap="round" stroke-linejoin="round"/>
<path d="M81.2709 35.5977H69.3724C66.0764 35.5977 62.7804 33.9497 62.7804 30.6536C62.7804 26.5336 66.1203 25.7789 71.0204 24.0616C73.4814 23.3574 75.0196 21.7237 75.1404 19.9416C75.3052 17.5531 73.1408 14.9976 69.3724 14.9976H22.4043" stroke="#393839" stroke-width="1.6" stroke-miterlimit="79.8403" stroke-linecap="round" stroke-linejoin="round"/>
<path d="M75.1406 19.942V31.478" stroke="#393839" stroke-width="1.6" stroke-miterlimit="79.8403" stroke-linecap="round" stroke-linejoin="round"/>
<path d="M60.3084 50.4292H22.4043L30.6443 33.1252L22.4043 14.9971" stroke="#393839" stroke-width="1.6" stroke-miterlimit="79.8403" stroke-linecap="round" stroke-linejoin="round"/>
<path fill-rule="evenodd" clip-rule="evenodd" d="M119.637 75.1504V80.9184C119.538 82.3994 118.758 83.2651 117.164 83.3904H108.1C106.409 83.3893 105.585 82.5664 105.628 80.9184V51.2543C105.628 47.9583 106.452 46.3103 107.276 44.6623L110.572 39.7183C107.276 38.8943 103.98 37.2463 103.98 34.7743C103.98 32.8945 104.892 31.6628 107.276 31.4783H115.516L123.757 18.2942C125.108 16.1958 127.053 14.9982 129.525 14.9982H170.725C173.197 14.9982 175.141 16.1958 176.493 18.2942L184.733 31.4783H192.973C195.357 31.6628 196.269 32.8945 196.269 34.7743C196.269 37.2463 192.973 38.8943 189.677 39.7183L192.973 44.6623C193.797 46.3103 194.621 47.9583 194.621 51.2543V80.9184C194.665 82.5664 193.841 83.3893 192.149 83.3904H183.085C181.492 83.2651 180.712 82.3994 180.613 80.9184V75.1504H119.637Z" stroke="#B6862D" stroke-width="1.6" stroke-miterlimit="79.8403" stroke-linecap="round" stroke-linejoin="round"/>
<path fill-rule="evenodd" clip-rule="evenodd" d="M119.637 39.7178C117.231 39.7178 116.616 37.9533 117.989 35.5978L125.405 23.2377C127.339 20.1549 127.712 19.1177 131.173 19.1177H169.077C172.538 19.1177 172.912 20.1549 174.845 23.2377L182.261 35.5978C183.646 37.9533 183.019 39.7178 180.613 39.7178H119.637Z" stroke="#B6862D" stroke-width="1.6" stroke-miterlimit="79.8403" stroke-linecap="round" stroke-linejoin="round"/>
<path d="M116.34 57.8452C113.616 57.8452 111.396 55.6303 111.396 52.9012C111.396 50.1721 113.616 47.9572 116.34 47.9572C117.055 47.9572 117.725 48.1077 118.34 48.3791" stroke="#B6862D" stroke-width="1.6" stroke-miterlimit="79.8403" stroke-linecap="round" stroke-linejoin="round"/>
<path d="M126.767 52.2376C127.888 52.6309 128.701 53.7021 128.701 54.9612C128.701 56.5532 127.404 57.8452 125.811 57.8452C125.745 57.8452 125.679 57.843 125.613 57.8375" stroke="#B6862D" stroke-width="1.6" stroke-miterlimit="79.8403" stroke-linecap="round" stroke-linejoin="round"/>
<path d="M118.309 48.3569L126.944 52.3154" stroke="#B6862D" stroke-width="1.6" stroke-miterlimit="79.8403" stroke-linecap="round" stroke-linejoin="round"/>
<path d="M125.406 57.8452H116.342" stroke="#B6862D" stroke-width="1.6" stroke-miterlimit="79.8403" stroke-linecap="round" stroke-linejoin="round"/>
<path d="M183.91 57.8452C186.634 57.8452 188.854 55.6303 188.854 52.9012C188.854 50.1721 186.634 47.9572 183.91 47.9572C183.196 47.9572 182.525 48.1077 181.91 48.3791" stroke="#B6862D" stroke-width="1.6" stroke-miterlimit="79.8403" stroke-linecap="round" stroke-linejoin="round"/>
<path d="M173.482 52.2376C172.362 52.6309 171.549 53.7021 171.549 54.9612C171.549 56.5532 172.845 57.8452 174.438 57.8452C174.504 57.8452 174.57 57.843 174.636 57.8375" stroke="#B6862D" stroke-width="1.6" stroke-miterlimit="79.8403" stroke-linecap="round" stroke-linejoin="round"/>
<path d="M181.942 48.3569L173.307 52.3154" stroke="#B6862D" stroke-width="1.6" stroke-miterlimit="79.8403" stroke-linecap="round" stroke-linejoin="round"/>
<path d="M174.846 57.8452H183.91" stroke="#B6862D" stroke-width="1.6" stroke-miterlimit="79.8403" stroke-linecap="round" stroke-linejoin="round"/>
<path fill-rule="evenodd" clip-rule="evenodd" d="M159.19 69.3803C160.014 69.4155 160.509 69.0727 160.838 68.5563L162.486 65.2603C163.123 63.9661 162.31 62.6598 160.838 62.7883H139.414C137.942 62.6598 137.129 63.9661 137.766 65.2603L139.414 68.5563C139.744 69.0727 140.238 69.4155 141.062 69.3803H159.19Z" stroke="#B6862D" stroke-width="1.6" stroke-miterlimit="79.8403" stroke-linecap="round" stroke-linejoin="round"/>
<path fill-rule="evenodd" clip-rule="evenodd" d="M96.5648 96.5211L80.2166 87.0594C78.8653 86.2771 78.8653 85.006 80.2166 84.2248L84.919 81.5155C81.2824 72.981 79.2608 63.5874 79.2608 53.7247C79.2608 35.8262 85.9078 19.4704 96.8615 6.99387L104.651 13.1124C95.0157 23.8991 89.1488 38.1312 89.1488 53.7247C89.1488 61.79 90.7199 69.4917 93.5655 76.5396L96.5868 74.8004C97.9382 74.0193 99.0369 74.6554 99.0369 76.2199L99.0149 95.106C99.0149 96.6705 97.9162 97.3034 96.5648 96.5211ZM208.398 94.0392L200.609 87.9174C207.234 78.1657 211.101 66.3945 211.101 53.7247C211.101 42.1744 207.882 31.37 202.301 22.1599L197.895 24.6923C196.544 25.4735 195.445 24.8373 195.445 23.2728L195.467 4.38673C195.467 2.82222 196.566 2.18938 197.928 2.97163L214.265 12.4334C215.617 13.2156 215.617 14.4868 214.265 15.2679L210.87 17.2236C217.287 27.8873 220.989 40.378 220.989 53.7247C220.989 68.6984 216.342 82.5911 208.398 94.0392Z" stroke="#393839" stroke-width="1.6" stroke-miterlimit="79.8403"/>
</g>
</svg>
