<svg width="300" height="100" viewBox="0 0 300 100" fill="none" xmlns="http://www.w3.org/2000/svg">
<mask id="mask0_155_5119" style="mask-type:alpha" maskUnits="userSpaceOnUse" x="0" y="0" width="300" height="100">
<rect width="300" height="100" fill="#D9D9D9"/>
</mask>
<g mask="url(#mask0_155_5119)">
<path fill-rule="evenodd" clip-rule="evenodd" d="M76.9578 39.2296L263.542 81.8006L286.185 82.7065C287.242 82.6361 287.946 81.4421 287.092 80.8947L75.7414 31.311C74.9624 35.7648 75.4426 38.3023 76.9578 39.2296Z" stroke="#393839" stroke-width="1.6" stroke-miterlimit="79.8403" stroke-linecap="round" stroke-linejoin="round"/>
<path d="M95.9727 44.6627L96.8796 49.1913L242.714 81.7993L250.866 79.0815" stroke="#393839" stroke-width="1.6" stroke-miterlimit="79.8403" stroke-linecap="round" stroke-linejoin="round"/>
<path d="M47.0703 65.4946H169.237" stroke="#393839" stroke-width="1.6" stroke-miterlimit="79.8403" stroke-linecap="round" stroke-linejoin="round"/>
<path d="M102.312 51.003L95.0664 65.4946" stroke="#393839" stroke-width="1.6" stroke-miterlimit="79.8403" stroke-linecap="round" stroke-linejoin="round"/>
<path d="M106.399 51.9089L99.6016 65.4946" stroke="#393839" stroke-width="1.6" stroke-miterlimit="79.8403" stroke-linecap="round" stroke-linejoin="round"/>
<path fill-rule="evenodd" clip-rule="evenodd" d="M149.112 68.0733C157.51 68.0733 164.339 74.8961 164.339 83.3023C164.339 91.7085 157.51 98.5312 149.112 98.5312C140.704 98.5312 133.875 91.7085 133.875 83.3023C133.875 74.8961 140.704 68.0733 149.112 68.0733Z" stroke="#393839" stroke-width="1.6" stroke-miterlimit="79.8403" stroke-linecap="round" stroke-linejoin="round"/>
<path fill-rule="evenodd" clip-rule="evenodd" d="M149.112 75.3821C153.476 75.3821 157.029 78.9289 157.029 83.3006C157.029 87.6724 153.476 91.2192 149.112 91.2192C144.737 91.2192 141.184 87.6724 141.184 83.3006C141.184 78.9289 144.737 75.3821 149.112 75.3821Z" stroke="#393839" stroke-width="1.6" stroke-miterlimit="79.8403" stroke-linecap="round" stroke-linejoin="round"/>
<path d="M162.631 75.1362H175.435V67.1333" stroke="#393839" stroke-width="1.6" stroke-miterlimit="79.8403" stroke-linecap="round" stroke-linejoin="round"/>
<path d="M172.234 75.9351V85.5386H169.833C169.119 81.3632 167.934 77.7224 165.832 75.1348" stroke="#393839" stroke-width="1.6" stroke-miterlimit="79.8403" stroke-linecap="round" stroke-linejoin="round"/>
<path d="M136.222 75.1362H109.012" stroke="#393839" stroke-width="1.6" stroke-miterlimit="79.8403" stroke-linecap="round" stroke-linejoin="round"/>
<path d="M109.012 66.3312V83.9375H46.5898" stroke="#393839" stroke-width="1.6" stroke-miterlimit="79.8403" stroke-linecap="round" stroke-linejoin="round"/>
<path d="M56.1923 65.5312L55.392 11.9119C55.1252 9.30194 54.3356 7.09528 50.5903 7.11022H38.5859" stroke="#393839" stroke-width="1.6" stroke-miterlimit="79.8403" stroke-linecap="round" stroke-linejoin="round"/>
<path fill-rule="evenodd" clip-rule="evenodd" d="M78.6016 70.4307V79.0407C78.6016 79.9765 79.3591 80.7373 80.2981 80.7373H104.115C105.054 80.7373 105.811 79.9765 105.811 79.0407V70.4307C105.811 69.4949 105.054 68.7341 104.115 68.7341H80.2981C79.3591 68.7341 78.6016 69.4949 78.6016 70.4307Z" stroke="#393839" stroke-width="1.6" stroke-miterlimit="79.8403" stroke-linecap="round" stroke-linejoin="round"/>
<path fill-rule="evenodd" clip-rule="evenodd" d="M47.3906 70.4307V79.0407C47.3906 79.9765 48.1483 80.7373 49.0873 80.7373H72.9038C73.8429 80.7373 74.6004 79.9765 74.6004 79.0407V70.4307C74.6004 69.4949 73.8429 68.7341 72.9038 68.7341H49.0873C48.1483 68.7341 47.3906 69.4949 47.3906 70.4307Z" stroke="#393839" stroke-width="1.6" stroke-miterlimit="79.8403" stroke-linecap="round" stroke-linejoin="round"/>
<path d="M92.207 80.7373V77.5362" stroke="#393839" stroke-width="1.6" stroke-miterlimit="79.8403" stroke-linecap="round" stroke-linejoin="round"/>
<path d="M60.9941 80.7373V77.5362" stroke="#393839" stroke-width="1.6" stroke-miterlimit="79.8403" stroke-linecap="round" stroke-linejoin="round"/>
<path fill-rule="evenodd" clip-rule="evenodd" d="M153.978 22.2322C160.722 22.2322 166.207 27.7094 166.207 34.4585C166.207 41.2086 160.722 46.6858 153.978 46.6858C147.224 46.6858 141.75 41.2086 141.75 34.4585C141.75 27.7094 147.224 22.2322 153.978 22.2322Z" stroke="#B6862D" stroke-width="1.6" stroke-miterlimit="79.8403" stroke-linecap="round" stroke-linejoin="round"/>
<path fill-rule="evenodd" clip-rule="evenodd" d="M153.977 28.1004C157.487 28.1004 160.336 30.9483 160.336 34.4579C160.336 37.9684 157.487 40.8164 153.977 40.8164C150.466 40.8164 147.617 37.9684 147.617 34.4579C147.617 30.9483 150.466 28.1004 153.977 28.1004Z" stroke="#B6862D" stroke-width="1.6" stroke-miterlimit="79.8403" stroke-linecap="round" stroke-linejoin="round"/>
<path fill-rule="evenodd" clip-rule="evenodd" d="M242.746 43.0624C249.49 43.0624 254.974 48.5407 254.974 55.2898C254.974 62.0389 249.49 67.5171 242.746 67.5171C235.992 67.5171 230.518 62.0389 230.518 55.2898C230.518 48.5407 235.992 43.0624 242.746 43.0624Z" stroke="#B6862D" stroke-width="1.6" stroke-miterlimit="79.8403" stroke-linecap="round" stroke-linejoin="round"/>
<path fill-rule="evenodd" clip-rule="evenodd" d="M242.746 48.9323C246.257 48.9323 249.106 51.7813 249.106 55.2909C249.106 58.8004 246.257 61.6494 242.746 61.6494C239.236 61.6494 236.387 58.8004 236.387 55.2909C236.387 51.7813 239.236 48.9323 242.746 48.9323Z" stroke="#B6862D" stroke-width="1.6" stroke-miterlimit="79.8403" stroke-linecap="round" stroke-linejoin="round"/>
<path fill-rule="evenodd" clip-rule="evenodd" d="M168.917 42.157L225.961 55.493C227.455 44.847 235.362 37.4897 246.844 39.5075C256.82 41.9276 260.118 51.402 259.029 59.5094L265.837 61.1783C268.761 61.4621 270.82 59.8306 272.175 56.6486L273.989 48.4974L272.175 45.7797L273.989 36.7225L269.465 22.2309C268.558 19.5131 266.413 17.347 264.023 16.7953L200.619 2.30373C196.073 1.30604 192.648 2.17674 189.756 3.20858L171.638 10.4549L139.936 9.54902C130.471 9.63331 127.889 15.4338 125.445 20.419C122.521 28.4241 126.128 32.401 130.876 34.9107L137.215 36.7225L139.029 28.5703C140.843 23.1368 147.373 16.6897 157.147 18.6072C166.078 20.4788 171.275 29.2329 169.824 37.6285L168.917 42.157Z" stroke="#B6862D" stroke-width="1.6" stroke-miterlimit="79.8403" stroke-linecap="round" stroke-linejoin="round"/>
<path d="M272.09 45.8701L261.654 43.3711" stroke="#B6862D" stroke-width="1.6" stroke-miterlimit="79.8403" stroke-linecap="round" stroke-linejoin="round"/>
<path d="M174.059 31.2866L225.736 42.8833" stroke="#B6862D" stroke-width="1.6" stroke-miterlimit="79.8403" stroke-linecap="round" stroke-linejoin="round"/>
<path d="M223.09 49.5671C226.814 40.9731 233.173 34.3968 245.85 35.3028C256.627 36.6793 261.962 43.1061 263.179 52.8525" stroke="#B6862D" stroke-width="1.6" stroke-miterlimit="79.8403" stroke-linecap="round" stroke-linejoin="round"/>
<path d="M163.262 16.0208C171.201 19.7971 174.38 27.4468 174.22 36.9446" stroke="#B6862D" stroke-width="1.6" stroke-miterlimit="79.8403" stroke-linecap="round" stroke-linejoin="round"/>
<path d="M171.562 10.4522L177.922 11.3037L193.448 4.87262" stroke="#B6862D" stroke-width="1.6" stroke-miterlimit="79.8403" stroke-linecap="round" stroke-linejoin="round"/>
<path d="M128.166 15.8892L147.181 19.5129" stroke="#B6862D" stroke-width="1.6" stroke-miterlimit="79.8403" stroke-linecap="round" stroke-linejoin="round"/>
<path d="M142.944 18.5322C143.766 14.7805 143.563 12.7926 141.835 12.0392L134.504 10.524" stroke="#B6862D" stroke-width="1.6" stroke-miterlimit="79.8403" stroke-linecap="round" stroke-linejoin="round"/>
<path d="M140.916 24.583L131.057 22.626" stroke="#B6862D" stroke-width="1.6" stroke-miterlimit="79.8403" stroke-linecap="round" stroke-linejoin="round"/>
<path fill-rule="evenodd" clip-rule="evenodd" d="M211.534 23.1772L183.822 16.9265C185.967 16.6394 188.987 16.2468 190.886 14.9343C192.871 12.941 191.58 10.4238 188.165 10.6778L196.584 7.05411C198.686 6.24955 200.458 5.94652 203.029 6.52166L215.247 9.40909L211.534 23.1772Z" stroke="#B6862D" stroke-width="1.6" stroke-miterlimit="79.8403" stroke-linecap="round" stroke-linejoin="round"/>
<path fill-rule="evenodd" clip-rule="evenodd" d="M220.392 10.794L216.924 24.2922L240.41 29.8622C243.024 30.4096 244.336 29.3842 243.845 27.4432C243.013 24.2655 242.074 21.1615 240.9 17.7309C240.367 16.1826 239.321 15.4624 237.39 14.7827L220.392 10.794Z" stroke="#B6862D" stroke-width="1.6" stroke-miterlimit="79.8403" stroke-linecap="round" stroke-linejoin="round"/>
<path d="M246.949 17.019L250.673 26.7761C251.217 28.5143 252.925 30.2451 255.283 30.6954L268.237 33.7749" stroke="#B6862D" stroke-width="1.6" stroke-miterlimit="79.8403" stroke-linecap="round" stroke-linejoin="round"/>
<path d="M210.563 27.3906L204.48 25.9789" stroke="#B6862D" stroke-width="1.6" stroke-miterlimit="79.8403" stroke-linecap="round" stroke-linejoin="round"/>
<path d="M234.678 33.4697L228.596 32.058" stroke="#B6862D" stroke-width="1.6" stroke-miterlimit="79.8403" stroke-linecap="round" stroke-linejoin="round"/>
<path d="M165.033 41.2014L169.515 42.3218" stroke="#B6862D" stroke-width="1.6" stroke-miterlimit="79.8403" stroke-linecap="round" stroke-linejoin="round"/>
<path d="M137.822 34.002L141.023 34.8022" stroke="#B6862D" stroke-width="1.6" stroke-miterlimit="79.8403" stroke-linecap="round" stroke-linejoin="round"/>
<path d="M225.822 55.4084L230.304 56.5288" stroke="#B6862D" stroke-width="1.6" stroke-miterlimit="79.8403" stroke-linecap="round" stroke-linejoin="round"/>
<path d="M254.633 58.4172L259.115 59.5376" stroke="#B6862D" stroke-width="1.6" stroke-miterlimit="79.8403" stroke-linecap="round" stroke-linejoin="round"/>
</g>
</svg>
