<svg width="300" height="100" viewBox="0 0 300 100" fill="none" xmlns="http://www.w3.org/2000/svg">
<mask id="mask0_155_5209" style="mask-type:alpha" maskUnits="userSpaceOnUse" x="0" y="0" width="300" height="100">
<rect width="300" height="100" fill="#D9D9D9"/>
</mask>
<g mask="url(#mask0_155_5209)">
<path d="M229.421 82.6302V85.9135C229.421 88.3759 230.242 89.1968 232.704 89.1968H243.375C245.582 88.5511 246.754 87.2334 246.659 85.0926V71.9594L244.196 68.6761C244.196 62.1094 241.734 58.8261 236.809 58.0053L203.975 50.6178L198.23 48.9762L171.142 36.6638C157.188 30.918 146.517 30.0971 135.847 30.0971C121.072 30.0971 111.434 31.1763 101.372 33.3805C92.2005 35.6153 83.3137 39.1263 73.4638 43.2304C66.0763 45.6929 62.9791 46.216 54.5847 47.3345C50.6918 48.0404 49.3336 50.1078 49.6598 53.0803V63.7511L47.1973 67.0344V73.601L49.6598 82.6302C49.8042 84.0299 50.5813 84.888 52.1222 85.0926L62.793 86.7343C64.9107 86.8306 66.7188 86.4333 66.8971 83.451V82.6302" stroke="#393839" stroke-width="1.6" stroke-miterlimit="79.8403" stroke-linecap="round" stroke-linejoin="round"/>
<path fill-rule="evenodd" clip-rule="evenodd" d="M209.721 67.0343C218.328 67.0343 225.316 74.0212 225.316 82.629C225.316 91.2367 218.328 98.2236 209.721 98.2236C201.113 98.2236 194.125 91.2367 194.125 82.629C194.125 74.0212 201.113 67.0343 209.721 67.0343Z" stroke="#393839" stroke-width="1.6" stroke-miterlimit="79.8403"/>
<path fill-rule="evenodd" clip-rule="evenodd" d="M209.721 74.3748C214.279 74.3748 217.978 78.0729 217.978 82.6302C217.978 87.1874 214.279 90.8855 209.721 90.8855C205.164 90.8855 201.465 87.1874 201.465 82.6302C201.465 78.0729 205.164 74.3748 209.721 74.3748Z" stroke="#393839" stroke-width="1.6" stroke-miterlimit="79.8403"/>
<path fill-rule="evenodd" clip-rule="evenodd" d="M86.5957 67.0343C95.2035 67.0343 102.191 74.0212 102.191 82.629C102.191 91.2367 95.2035 98.2236 86.5957 98.2236C77.988 98.2236 71 91.2367 71 82.629C71 74.0212 77.988 67.0343 86.5957 67.0343Z" stroke="#393839" stroke-width="1.6" stroke-miterlimit="79.8403"/>
<path fill-rule="evenodd" clip-rule="evenodd" d="M86.5963 74.3748C91.1535 74.3748 94.8527 78.0729 94.8527 82.6302C94.8527 87.1874 91.1535 90.8855 86.5963 90.8855C82.0391 90.8855 78.3398 87.1874 78.3398 82.6302C78.3398 78.0729 82.0391 74.3748 86.5963 74.3748Z" stroke="#393839" stroke-width="1.6" stroke-miterlimit="79.8403"/>
<path d="M240.912 67.855H237.628C236.769 67.4292 235.891 67.1337 235.286 64.9383L233.645 60.0954" stroke="#B6862D" stroke-width="1.6" stroke-miterlimit="79.8403" stroke-linecap="round" stroke-linejoin="round"/>
<path d="M49.6582 63.7512H56.2248" stroke="#393839" stroke-width="1.6" stroke-miterlimit="79.8403" stroke-linecap="round" stroke-linejoin="round"/>
<path d="M52.1211 52.2592H57.0461C59.8621 52.4869 60.3294 54.6769 58.6877 57.1842L56.2252 60.4675" stroke="#B6862D" stroke-width="1.6" stroke-miterlimit="79.8403" stroke-linecap="round" stroke-linejoin="round"/>
<path d="M73.4629 50.6182L135.846 53.1025" stroke="#393839" stroke-width="1.6" stroke-miterlimit="79.8403" stroke-linecap="round" stroke-linejoin="round"/>
<path d="M135.025 49.7964L133.383 34.2006C123.455 34.2357 113.83 35.1824 104.654 37.484C102.509 38.3431 100.55 40.7673 99.729 44.8714L98.9082 48.9756" stroke="#393839" stroke-width="1.6" stroke-miterlimit="79.8403" stroke-linecap="round" stroke-linejoin="round"/>
<path d="M93.1624 48.1548L95.6249 39.9465C88.2375 42.409 83.3125 44.0506 83.3125 47.334" stroke="#393839" stroke-width="1.6" stroke-miterlimit="79.8403" stroke-linecap="round" stroke-linejoin="round"/>
<path d="M66.8965 82.6294C66.8965 71.7562 75.7231 62.9317 86.5964 62.9317C97.4696 62.9317 106.296 71.7562 106.296 82.6294" stroke="#393839" stroke-width="1.6" stroke-miterlimit="79.8403" stroke-linecap="round" stroke-linejoin="round"/>
<path d="M106.297 82.63V85.0924C106.449 86.7111 107.728 87.3754 109.58 87.5549H186.738C188.38 87.5549 190.021 86.7341 190.021 84.2716V82.63" stroke="#393839" stroke-width="1.6" stroke-miterlimit="79.8403" stroke-linecap="round" stroke-linejoin="round"/>
<path d="M190.021 82.6294C190.021 71.7562 198.848 62.9317 209.721 62.9317C220.595 62.9317 229.421 71.7562 229.421 82.6294" stroke="#393839" stroke-width="1.6" stroke-miterlimit="79.8403" stroke-linecap="round" stroke-linejoin="round"/>
<path d="M97.2676 53.9004V58.0045C97.3792 59.4481 97.9341 60.536 98.9092 61.2879C104.951 65.1841 109.979 70.8401 113.419 79.2454C114.505 80.9877 114.505 82.6294 116.967 82.6294H180.992C182.634 82.6294 184.275 81.8086 184.275 79.3461C184.275 71.1378 184.849 65.1458 182.634 55.5421L181.813 53.9004C178.098 55.2947 173.605 55.5421 173.605 50.6171C173.605 47.3338 174.266 46.0128 176.067 45.6921C177.709 45.6921 180.165 47.3349 182.634 49.7963" stroke="#393839" stroke-width="1.6" stroke-miterlimit="79.8403" stroke-linecap="round" stroke-linejoin="round"/>
<path d="M174.425 53.9001L135.846 53.0793" stroke="#393839" stroke-width="1.6" stroke-miterlimit="79.8403" stroke-linecap="round" stroke-linejoin="round"/>
<path d="M187.039 55.6366L212.69 58.0039" stroke="#393839" stroke-width="1.6" stroke-miterlimit="79.8403" stroke-linecap="round" stroke-linejoin="round"/>
<path d="M141.591 86.7329C141.591 72.7788 140.771 65.3914 139.129 53.8998" stroke="#393839" stroke-width="1.6" stroke-miterlimit="79.8403" stroke-linecap="round" stroke-linejoin="round"/>
<path d="M142.412 49.7964L139.949 34.2006C148.158 34.2006 158.828 35.8423 169.499 40.7673L172.782 42.4089C175.83 44.2301 173.914 46.1016 173.848 47.8417" stroke="#393839" stroke-width="1.6" stroke-miterlimit="79.8403" stroke-linecap="round" stroke-linejoin="round"/>
<path fill-rule="evenodd" clip-rule="evenodd" d="M85.7739 1.36881C101.632 1.36881 114.504 14.2394 114.504 30.0978C114.504 45.9551 101.632 58.8257 85.7739 58.8257C69.9166 58.8257 57.0449 45.9551 57.0449 30.0978C57.0449 14.2394 69.9166 1.36881 85.7739 1.36881Z" fill="white" stroke="#B6862D" stroke-width="1.6" stroke-miterlimit="79.8403"/>
<path d="M85.7754 5.47159V30.0964H97.267" stroke="#B6862D" stroke-width="1.6" stroke-miterlimit="79.8403" stroke-linecap="round" stroke-linejoin="round"/>
<path d="M105.475 30.0964H110.4" stroke="#B6862D" stroke-width="1.6" stroke-miterlimit="79.8403" stroke-linecap="round" stroke-linejoin="round"/>
<path d="M61.1504 30.0964H66.0754" stroke="#B6862D" stroke-width="1.6" stroke-miterlimit="79.8403" stroke-linecap="round" stroke-linejoin="round"/>
<path d="M85.7734 54.7222L85.7745 49.7972" stroke="#B6862D" stroke-width="1.6" stroke-miterlimit="79.8403" stroke-linecap="round" stroke-linejoin="round"/>
<path d="M85.7734 10.3965V5.47151" stroke="#B6862D" stroke-width="1.6" stroke-miterlimit="79.8403" stroke-linecap="round" stroke-linejoin="round"/>
<path d="M105.68 18.6055L107.102 17.7846" stroke="#B6862D" stroke-width="1.6" stroke-miterlimit="79.8403" stroke-linecap="round" stroke-linejoin="round"/>
<path d="M64.4492 42.4092L65.872 41.5884" stroke="#B6862D" stroke-width="1.6" stroke-miterlimit="79.8403" stroke-linecap="round" stroke-linejoin="round"/>
<path d="M98.0873 51.4221L97.2676 50.0004" stroke="#B6862D" stroke-width="1.6" stroke-miterlimit="79.8403" stroke-linecap="round" stroke-linejoin="round"/>
<path d="M74.2829 10.1948L73.4609 8.77097" stroke="#B6862D" stroke-width="1.6" stroke-miterlimit="79.8403" stroke-linecap="round" stroke-linejoin="round"/>
<path d="M97.2676 10.1909L98.0884 8.76925" stroke="#B6862D" stroke-width="1.6" stroke-miterlimit="79.8403" stroke-linecap="round" stroke-linejoin="round"/>
<path d="M73.4609 51.4221L74.2829 49.9993" stroke="#B6862D" stroke-width="1.6" stroke-miterlimit="79.8403" stroke-linecap="round" stroke-linejoin="round"/>
<path d="M107.099 42.4092L105.678 41.5873" stroke="#B6862D" stroke-width="1.6" stroke-miterlimit="79.8403" stroke-linecap="round" stroke-linejoin="round"/>
<path d="M65.8667 18.6055L64.4473 17.7857" stroke="#B6862D" stroke-width="1.6" stroke-miterlimit="79.8403" stroke-linecap="round" stroke-linejoin="round"/>
<path d="M44.7341 48.9766L38.9883 44.8724" stroke="#B6862D" stroke-width="1.6" stroke-miterlimit="79.8403" stroke-linecap="round" stroke-linejoin="round"/>
<path d="M44.7341 63.7508L38.9883 67.855" stroke="#B6862D" stroke-width="1.6" stroke-miterlimit="79.8403" stroke-linecap="round" stroke-linejoin="round"/>
<path d="M43.092 56.3638H36.5254" stroke="#B6862D" stroke-width="1.6" stroke-miterlimit="79.8403" stroke-linecap="round" stroke-linejoin="round"/>
<path d="M238.531 53.2207L239.692 46.2557" stroke="#B6862D" stroke-width="1.6" stroke-miterlimit="79.8403" stroke-linecap="round" stroke-linejoin="round"/>
<path d="M248.979 63.668L255.944 62.5068" stroke="#B6862D" stroke-width="1.6" stroke-miterlimit="79.8403" stroke-linecap="round" stroke-linejoin="round"/>
<path d="M245.738 56.4614L250.382 51.8177" stroke="#B6862D" stroke-width="1.6" stroke-miterlimit="79.8403" stroke-linecap="round" stroke-linejoin="round"/>
<path fill-rule="evenodd" clip-rule="evenodd" d="M132.913 92.6944L147.877 66.7792C149.115 64.633 151.128 64.633 152.367 66.7792L167.327 92.6944C168.567 94.8405 167.561 96.584 165.081 96.584H135.158C132.68 96.584 131.675 94.8405 132.913 92.6944ZM159.352 88.7785L151.423 75.2928C150.754 74.1557 149.669 74.1557 149 75.2928L141.07 88.7774C140.401 89.9145 140.929 90.8382 142.248 90.8382L158.173 90.8393C159.492 90.8393 160.021 89.9156 159.352 88.7785Z" fill="white" stroke="#B6862D" stroke-width="1.6" stroke-miterlimit="79.8403"/>
</g>
</svg>
