<svg width="320" height="104" viewBox="0 0 320 104" fill="none" xmlns="http://www.w3.org/2000/svg">
<g clip-path="url(#clip0_393_145)">
<path d="M148.523 46.0743H140.893V43.5147L162.936 22.1839" stroke="#B6862D" stroke-width="1.6998" stroke-miterlimit="79.8403" stroke-linecap="round" stroke-linejoin="round"/>
<path d="M177.349 46.0743H184.979V43.5147L162.936 22.1839" stroke="#B6862D" stroke-width="1.6998" stroke-miterlimit="79.8403" stroke-linecap="round" stroke-linejoin="round"/>
<path fill-rule="evenodd" clip-rule="evenodd" d="M154.457 58.8728V43.5147H171.414V58.8728H154.457Z" stroke="#B6862D" stroke-width="1.6998" stroke-miterlimit="79.8403" stroke-linecap="round" stroke-linejoin="round"/>
<path d="M147.674 36.689H95.957L110.37 52.9004H144.283" stroke="#B6862D" stroke-width="1.6998" stroke-miterlimit="79.8403" stroke-linecap="round" stroke-linejoin="round"/>
<path d="M36.6094 59.7262L67.979 26.4502" stroke="#B6862D" stroke-width="1.6998" stroke-miterlimit="79.8403" stroke-linecap="round" stroke-linejoin="round"/>
<path d="M112.913 56.3133L116.305 59.7262H99.3481L67.9785 26.4502" stroke="#B6862D" stroke-width="1.6998" stroke-miterlimit="79.8403" stroke-linecap="round" stroke-linejoin="round"/>
<path d="M67.9785 26.4502H106.131L117.152 36.689" stroke="#B6862D" stroke-width="1.6998" stroke-miterlimit="79.8403" stroke-linecap="round" stroke-linejoin="round"/>
<path d="M74.7628 49.4874C74.7628 53.7285 71.3466 57.1665 67.1324 57.1665C62.9182 57.1665 59.502 53.7285 59.502 49.4874C59.502 45.2464 62.9182 41.8083 67.1324 41.8083C71.3466 41.8083 74.7628 45.2464 74.7628 49.4874Z" stroke="#B6862D" stroke-width="1.6998" stroke-miterlimit="79.8403" stroke-linecap="round" stroke-linejoin="round"/>
<path d="M67.1309 44.368V53.7535" stroke="#B6862D" stroke-width="1.6998" stroke-miterlimit="79.8403" stroke-linecap="round" stroke-linejoin="round"/>
<path d="M62.0449 49.4873H72.2188" stroke="#B6862D" stroke-width="1.6998" stroke-miterlimit="79.8403" stroke-linecap="round" stroke-linejoin="round"/>
<path d="M36.6094 59.7262H54.4137" stroke="#B6862D" stroke-width="1.6998" stroke-miterlimit="79.8403" stroke-linecap="round" stroke-linejoin="round"/>
<path d="M42.5449 59.7261V95.5618" stroke="#B6862D" stroke-width="1.6998" stroke-miterlimit="79.8403" stroke-linecap="round" stroke-linejoin="round"/>
<path fill-rule="evenodd" clip-rule="evenodd" d="M56.1094 68.2584H79.0007V88.736H56.1094V68.2584Z" stroke="#B6862D" stroke-width="1.6998" stroke-miterlimit="79.8403" stroke-linecap="round" stroke-linejoin="round"/>
<path d="M71.3711 68.2584V88.736" stroke="#B6862D" stroke-width="1.6998" stroke-miterlimit="79.8403" stroke-linecap="round" stroke-linejoin="round"/>
<path d="M63.7383 68.2584V88.736" stroke="#B6862D" stroke-width="1.6998" stroke-miterlimit="79.8403" stroke-linecap="round" stroke-linejoin="round"/>
<path d="M56.1094 75.0844H79.0007" stroke="#B6862D" stroke-width="1.6998" stroke-miterlimit="79.8403" stroke-linecap="round" stroke-linejoin="round"/>
<path d="M93.4138 72.5245C98.0962 72.5245 101.892 76.3446 101.892 81.0568C101.892 85.7691 98.0962 89.5891 93.4138 89.5891C88.7314 89.5891 84.9355 85.7691 84.9355 81.0568C84.9355 76.3446 88.7314 72.5245 93.4138 72.5245Z" stroke="#393839" stroke-width="1.6998" stroke-miterlimit="79.8403" stroke-linecap="round" stroke-linejoin="round"/>
<path d="M93.4141 82.7633V95.5618" stroke="#393839" stroke-width="1.6998" stroke-miterlimit="79.8403" stroke-linecap="round" stroke-linejoin="round"/>
<path d="M7.7832 95.5618H313.001" stroke="#B6862D" stroke-width="1.6998" stroke-miterlimit="79.8403" stroke-linecap="round" stroke-linejoin="round"/>
<path d="M39.4596 78.1845C37.998 78.3927 36.4934 78.4655 34.9661 78.3892C21.9017 77.7487 11.8159 66.5589 12.4524 53.4124C13.0888 40.2647 24.2089 30.1135 37.2734 30.7551C43.3935 31.0543 48.8581 33.6709 52.8756 37.7175" stroke="#393839" stroke-width="1.6998" stroke-miterlimit="79.8403" stroke-linecap="round" stroke-linejoin="round"/>
<path d="M35.7617 63.139V95.5618" stroke="#393839" stroke-width="1.6998" stroke-miterlimit="79.8403" stroke-linecap="round" stroke-linejoin="round"/>
<path d="M180.74 71.6714H107.827L104.436 66.552H179.044" stroke="#B6862D" stroke-width="1.6998" stroke-miterlimit="79.8403" stroke-linecap="round" stroke-linejoin="round"/>
<path d="M144.283 46.0744V66.5519" stroke="#B6862D" stroke-width="1.6998" stroke-miterlimit="79.8403" stroke-linecap="round" stroke-linejoin="round"/>
<path d="M144.283 71.6713V94.7085" stroke="#B6862D" stroke-width="1.6998" stroke-miterlimit="79.8403" stroke-linecap="round" stroke-linejoin="round"/>
<path d="M112.914 72.5245V94.7085" stroke="#B6862D" stroke-width="1.6998" stroke-miterlimit="79.8403" stroke-linecap="round" stroke-linejoin="round"/>
<path fill-rule="evenodd" clip-rule="evenodd" d="M123.088 57.1665V62.2859H134.957V57.1665H123.088Z" stroke="#B6862D" stroke-width="1.6998" stroke-miterlimit="79.8403" stroke-linecap="round" stroke-linejoin="round"/>
<path d="M162.936 22.184H201.088" stroke="#B6862D" stroke-width="1.6998" stroke-miterlimit="79.8403" stroke-linecap="round" stroke-linejoin="round"/>
<path d="M162.936 44.368V58.0197" stroke="#B6862D" stroke-width="1.6998" stroke-miterlimit="79.8403" stroke-linecap="round" stroke-linejoin="round"/>
<path d="M184.979 46.0743H210.413" stroke="#B6862D" stroke-width="1.6998" stroke-miterlimit="79.8403" stroke-linecap="round" stroke-linejoin="round"/>
<path fill-rule="evenodd" clip-rule="evenodd" d="M192.609 50.3405V57.1664H206.175V50.3405H192.609Z" stroke="#B6862D" stroke-width="1.6998" stroke-miterlimit="79.8403" stroke-linecap="round" stroke-linejoin="round"/>
<path d="M154.457 72.5246V87.8827" stroke="#B6862D" stroke-width="1.6998" stroke-miterlimit="79.8403" stroke-linecap="round" stroke-linejoin="round"/>
<path d="M162.936 72.5246V87.8827" stroke="#B6862D" stroke-width="1.6998" stroke-miterlimit="79.8403" stroke-linecap="round" stroke-linejoin="round"/>
<path d="M171.414 72.5246V87.8827" stroke="#B6862D" stroke-width="1.6998" stroke-miterlimit="79.8403" stroke-linecap="round" stroke-linejoin="round"/>
<path d="M151.066 87.8827H175.653" stroke="#B6862D" stroke-width="1.6998" stroke-miterlimit="79.8403" stroke-linecap="round" stroke-linejoin="round"/>
<path d="M190.066 35.8357L220.588 3.71337e-05" stroke="#B6862D" stroke-width="1.6998" stroke-miterlimit="79.8403" stroke-linecap="round" stroke-linejoin="round"/>
<path d="M251.11 35.8357L220.588 3.71337e-05" stroke="#B6862D" stroke-width="1.6998" stroke-miterlimit="79.8403" stroke-linecap="round" stroke-linejoin="round"/>
<path d="M259.588 46.0743H301.131V43.5147L279.088 22.1839" stroke="#B6862D" stroke-width="1.6998" stroke-miterlimit="79.8403" stroke-linecap="round" stroke-linejoin="round"/>
<path d="M279.088 22.184H240.088" stroke="#B6862D" stroke-width="1.6998" stroke-miterlimit="79.8403" stroke-linecap="round" stroke-linejoin="round"/>
<path d="M296.893 46.9277V65.6987" stroke="#B6862D" stroke-width="1.6998" stroke-miterlimit="79.8403" stroke-linecap="round" stroke-linejoin="round"/>
<path d="M224.827 66.552H311.305L308.761 71.6714H223.131" stroke="#B6862D" stroke-width="1.6998" stroke-miterlimit="79.8403" stroke-linecap="round" stroke-linejoin="round"/>
<path d="M201.936 59.7262C190.914 59.7262 188.371 64.8455 181.588 64.8455L184.131 71.6714H191.762V66.552C195.153 64.8455 198.377 63.9343 201.936 63.9923" stroke="#B6862D" stroke-width="1.6998" stroke-miterlimit="79.8403" stroke-linecap="round" stroke-linejoin="round"/>
<path d="M201.936 59.7262C212.957 59.7262 215.501 64.8455 222.283 64.8455L219.74 71.6714H212.109V66.552C208.718 64.8455 205.494 63.9343 201.936 63.9923" stroke="#B6862D" stroke-width="1.6998" stroke-miterlimit="79.8403" stroke-linecap="round" stroke-linejoin="round"/>
<path fill-rule="evenodd" clip-rule="evenodd" d="M285.021 51.1939V62.2859H290.956V51.1939H285.021Z" stroke="#B6862D" stroke-width="1.6998" stroke-miterlimit="79.8403" stroke-linecap="round" stroke-linejoin="round"/>
<path fill-rule="evenodd" clip-rule="evenodd" d="M273.152 51.1939V62.2859H279.087V51.1939H273.152Z" stroke="#B6862D" stroke-width="1.6998" stroke-miterlimit="79.8403" stroke-linecap="round" stroke-linejoin="round"/>
<path fill-rule="evenodd" clip-rule="evenodd" d="M228.217 58.8728V43.5147H245.173V58.8728H228.217Z" stroke="#B6862D" stroke-width="1.6998" stroke-miterlimit="79.8403" stroke-linecap="round" stroke-linejoin="round"/>
<path d="M236.697 44.368V58.0197" stroke="#B6862D" stroke-width="1.6998" stroke-miterlimit="79.8403" stroke-linecap="round" stroke-linejoin="round"/>
<path d="M294.348 74.2311V88.736H271.457V74.2311" stroke="#B6862D" stroke-width="1.6998" stroke-miterlimit="79.8403" stroke-linecap="round" stroke-linejoin="round"/>
<path d="M286.719 74.2311V88.736" stroke="#B6862D" stroke-width="1.6998" stroke-miterlimit="79.8403" stroke-linecap="round" stroke-linejoin="round"/>
<path d="M279.088 74.2311V88.736" stroke="#B6862D" stroke-width="1.6998" stroke-miterlimit="79.8403" stroke-linecap="round" stroke-linejoin="round"/>
<path d="M185.826 71.6713V95.5618" stroke="#B6862D" stroke-width="1.6998" stroke-miterlimit="79.8403" stroke-linecap="round" stroke-linejoin="round"/>
<path d="M218.045 71.6713V95.5618" stroke="#B6862D" stroke-width="1.6998" stroke-miterlimit="79.8403" stroke-linecap="round" stroke-linejoin="round"/>
<path fill-rule="evenodd" clip-rule="evenodd" d="M196.848 73.3778V90.4424H206.174V73.3778H196.848Z" stroke="#B6862D" stroke-width="1.6998" stroke-miterlimit="79.8403" stroke-linecap="round" stroke-linejoin="round"/>
<path d="M193.457 90.4424H209.566" stroke="#B6862D" stroke-width="1.6998" stroke-miterlimit="79.8403" stroke-linecap="round" stroke-linejoin="round"/>
<path d="M190.914 93.002H212.11" stroke="#B6862D" stroke-width="1.6998" stroke-miterlimit="79.8403" stroke-linecap="round" stroke-linejoin="round"/>
<path d="M261.283 46.0744V66.552V95.5618" stroke="#B6862D" stroke-width="1.6998" stroke-miterlimit="79.8403" stroke-linecap="round" stroke-linejoin="round"/>
<path d="M306.219 71.6713V95.5618" stroke="#B6862D" stroke-width="1.6998" stroke-miterlimit="79.8403" stroke-linecap="round" stroke-linejoin="round"/>
<path d="M228.218 26.4502C228.218 30.6912 224.802 34.1293 220.587 34.1293C216.373 34.1293 212.957 30.6912 212.957 26.4502C212.957 22.2092 216.373 18.7711 220.587 18.7711C224.802 18.7711 228.218 22.2092 228.218 26.4502Z" stroke="#B6862D" stroke-width="1.6998" stroke-miterlimit="79.8403" stroke-linecap="round" stroke-linejoin="round"/>
<path d="M220.588 21.3308V30.7163" stroke="#B6862D" stroke-width="1.6998" stroke-miterlimit="79.8403" stroke-linecap="round" stroke-linejoin="round"/>
<path d="M215.5 26.4502H225.674" stroke="#B6862D" stroke-width="1.6998" stroke-miterlimit="79.8403" stroke-linecap="round" stroke-linejoin="round"/>
<path fill-rule="evenodd" clip-rule="evenodd" d="M156.189 96C154.242 96 152.105 95.1945 150.217 93.0023C143.674 85.0809 131.749 68.2302 126.044 56.6433C123.725 51.9335 122.236 46.5718 122.236 40.9542C122.236 22.1149 137.431 6.82383 156.151 6.82383C174.871 6.82383 190.065 22.1149 190.065 40.9542C190.065 46.5388 188.585 51.9699 186.26 56.6433C180.567 68.0857 168.629 85.0809 162.086 93.0023C160.127 95.2287 158.136 96 156.189 96Z" fill="white" stroke="white" stroke-width="6.79921" stroke-miterlimit="79.8403" stroke-linecap="round" stroke-linejoin="round"/>
<path fill-rule="evenodd" clip-rule="evenodd" d="M156.189 96C154.242 96 152.105 95.1945 150.217 93.0023C143.674 85.0809 131.749 68.2302 126.044 56.6433C123.725 51.9335 122.236 46.5718 122.236 40.9542C122.236 22.1149 137.431 6.82383 156.151 6.82383C174.871 6.82383 190.065 22.1149 190.065 40.9542C190.065 46.5388 188.585 51.9699 186.26 56.6433C180.567 68.0857 168.629 85.0809 162.086 93.0023C160.127 95.2287 158.136 96 156.189 96Z" fill="white" stroke="#393839" stroke-width="1.6998" stroke-miterlimit="79.8403" stroke-linecap="round" stroke-linejoin="round"/>
<path d="M156.025 26.5778L155.949 58.8618" stroke="#393839" stroke-width="1.6998" stroke-miterlimit="79.8403" stroke-linecap="round" stroke-linejoin="round"/>
<path d="M170.856 42.5196L155.949 58.8618" stroke="#393839" stroke-width="1.6998" stroke-miterlimit="79.8403" stroke-linecap="round" stroke-linejoin="round"/>
<path d="M141.043 42.5196L155.95 58.8618" stroke="#393839" stroke-width="1.6998" stroke-miterlimit="79.8403" stroke-linecap="round" stroke-linejoin="round"/>
<path d="M25.241 79.6441C22.2725 86.0444 14.7008 88.8157 8.34102 85.8283C1.98005 82.8409 -0.773694 75.2221 2.19483 68.8206C3.77179 65.4202 6.64762 63.0436 9.95075 62.0118" stroke="#393839" stroke-width="1.6998" stroke-miterlimit="79.8403" stroke-linecap="round" stroke-linejoin="round"/>
<path d="M13.7168 74.2311V95.5619" stroke="#393839" stroke-width="1.6998" stroke-miterlimit="79.8403" stroke-linecap="round" stroke-linejoin="round"/>
<path d="M35.7609 67.4053L20.5 55.4601" stroke="#393839" stroke-width="1.6998" stroke-miterlimit="79.8403" stroke-linecap="round" stroke-linejoin="round"/>
<path d="M35.7598 40.1018V55.46" stroke="#393839" stroke-width="1.6998" stroke-miterlimit="79.8403" stroke-linecap="round" stroke-linejoin="round"/>
<path d="M35.7611 47.781L28.9785 42.6616" stroke="#393839" stroke-width="1.6998" stroke-miterlimit="79.8403" stroke-linecap="round" stroke-linejoin="round"/>
</g>
<defs>
<clipPath id="clip0_393_145">
<rect width="320" height="104" fill="white"/>
</clipPath>
</defs>
</svg>
