<svg width="300" height="100" viewBox="0 0 300 100" fill="none" xmlns="http://www.w3.org/2000/svg">
<mask id="mask0_155_5033" style="mask-type:alpha" maskUnits="userSpaceOnUse" x="0" y="0" width="300" height="100">
<rect width="300" height="100" fill="#D9D9D9"/>
</mask>
<g mask="url(#mask0_155_5033)">
<path d="M173.871 7.40144C170.074 7.40144 166.277 8.92011 164.759 14.2355H158.684C156.876 14.2355 155.646 15.3431 155.646 17.2728V21.8289" stroke="#393839" stroke-width="1.6" stroke-miterlimit="79.8403" stroke-linecap="round" stroke-linejoin="round"/>
<path d="M173.871 7.40144C177.668 7.40144 181.464 8.92011 182.983 14.2355H189.058C190.866 14.2355 192.095 15.3431 192.095 17.2728V21.8289" stroke="#393839" stroke-width="1.6" stroke-miterlimit="79.8403" stroke-linecap="round" stroke-linejoin="round"/>
<path d="M173.871 22.5874H136.663C133.35 22.5874 131.348 24.4382 131.348 27.9028V99.2805" stroke="#393839" stroke-width="1.6" stroke-miterlimit="79.8403" stroke-linecap="round" stroke-linejoin="round"/>
<path d="M173.871 22.5891H211.079C214.391 22.5891 216.394 24.4398 216.394 27.9044V40.4771" stroke="#393839" stroke-width="1.6" stroke-miterlimit="79.8403" stroke-linecap="round" stroke-linejoin="round"/>
<path d="M216.395 84.8015V99.2805" stroke="#393839" stroke-width="1.6" stroke-miterlimit="79.8403" stroke-linecap="round" stroke-linejoin="round"/>
<path fill-rule="evenodd" clip-rule="evenodd" d="M224.082 39.8619C236.71 39.8619 246.958 50.11 246.958 62.7372C246.958 75.3645 236.71 85.6125 224.082 85.6125C211.455 85.6125 201.207 75.3645 201.207 62.7372C201.207 50.11 211.455 39.8619 224.082 39.8619Z" stroke="#393839" stroke-width="1.6" stroke-miterlimit="79.8403"/>
<path d="M213.789 61.5946L221.796 69.6011L235.146 57.395" stroke="#393839" stroke-width="1.6" stroke-miterlimit="79.8403" stroke-linecap="round" stroke-linejoin="round"/>
<path d="M129.07 30.9413H110.846C108.568 30.9413 106.773 32.0448 105.531 33.9786L97.9374 46.128H90.344C88.149 46.2981 87.3087 47.4331 87.3066 49.1654C87.3066 51.4434 90.344 52.9621 93.3813 53.7214L90.344 58.2774C89.5847 59.7961 88.8253 61.3148 88.8253 64.3521V91.6883C88.7858 93.207 89.5462 93.9653 91.1033 93.9663H99.456C100.922 93.8509 101.639 93.0531 101.734 91.6883V86.3729H129.07" stroke="#B6862D" stroke-width="1.6" stroke-miterlimit="79.8403" stroke-linecap="round" stroke-linejoin="round"/>
<path d="M129.07 53.7217H101.733C99.5142 53.7217 98.9441 52.0957 100.215 49.925L107.049 38.5349C108.835 35.694 109.172 34.7382 112.364 34.7382H129.07" stroke="#B6862D" stroke-width="1.6" stroke-miterlimit="79.8403" stroke-linecap="round" stroke-linejoin="round"/>
<path d="M98.6967 70.4272C96.1818 70.4272 94.1387 68.3861 94.1387 65.8712C94.1387 63.3563 96.1818 61.3152 98.6967 61.3152C99.3528 61.3152 99.9765 61.4539 100.54 61.704" stroke="#B6862D" stroke-width="1.6" stroke-miterlimit="79.8403" stroke-linecap="round" stroke-linejoin="round"/>
<path d="M108.304 65.2597C109.342 65.6222 110.087 66.6093 110.087 67.7696C110.087 69.2366 108.896 70.4272 107.429 70.4272C107.365 70.4272 107.302 70.4252 107.24 70.4202" stroke="#B6862D" stroke-width="1.6" stroke-miterlimit="79.8403" stroke-linecap="round" stroke-linejoin="round"/>
<path d="M100.514 61.6827L108.468 65.3306" stroke="#B6862D" stroke-width="1.6" stroke-miterlimit="79.8403" stroke-linecap="round" stroke-linejoin="round"/>
<path d="M107.05 70.4272H98.6973" stroke="#B6862D" stroke-width="1.6" stroke-miterlimit="79.8403" stroke-linecap="round" stroke-linejoin="round"/>
<path d="M128.311 74.9823H119.958C118.602 74.8639 117.854 76.0677 118.439 77.2604L119.958 80.2977C120.265 80.7736 120.715 81.0894 121.477 81.057H128.311" stroke="#B6862D" stroke-width="1.6" stroke-miterlimit="79.8403" stroke-linecap="round" stroke-linejoin="round"/>
<path fill-rule="evenodd" clip-rule="evenodd" d="M145.016 41.3332V47.1295C145.016 48.2533 145.929 49.1665 147.053 49.1665H152.851C153.975 49.1665 154.888 48.2533 154.888 47.1295V41.3332C154.888 40.2094 153.975 39.2961 152.851 39.2961H147.053C145.929 39.2961 145.016 40.2094 145.016 41.3332Z" stroke="#393839" stroke-width="1.6" stroke-miterlimit="79.8403"/>
<path fill-rule="evenodd" clip-rule="evenodd" d="M145.016 60.3151V66.1114C145.016 67.2352 145.929 68.1484 147.053 68.1484H152.851C153.975 68.1484 154.888 67.2352 154.888 66.1114V60.3151C154.888 59.1913 153.975 58.2781 152.851 58.2781H147.053C145.929 58.2781 145.016 59.1913 145.016 60.3151Z" stroke="#393839" stroke-width="1.6" stroke-miterlimit="79.8403"/>
<path fill-rule="evenodd" clip-rule="evenodd" d="M145.016 79.299V85.0953C145.016 86.2191 145.929 87.1323 147.053 87.1323H152.851C153.975 87.1323 154.888 86.2191 154.888 85.0953V79.299C154.888 78.1752 153.975 77.262 152.851 77.262H147.053C145.929 77.262 145.016 78.1752 145.016 79.299Z" stroke="#393839" stroke-width="1.6" stroke-miterlimit="79.8403"/>
<path d="M161.723 41.5718H197.412" stroke="#393839" stroke-width="1.6" stroke-miterlimit="79.8403" stroke-linecap="round" stroke-linejoin="round"/>
<path d="M161.723 46.8879H189.059" stroke="#393839" stroke-width="1.6" stroke-miterlimit="79.8403" stroke-linecap="round" stroke-linejoin="round"/>
<path d="M161.723 60.5557H197.412" stroke="#393839" stroke-width="1.6" stroke-miterlimit="79.8403" stroke-linecap="round" stroke-linejoin="round"/>
<path d="M161.723 65.8699H189.059" stroke="#393839" stroke-width="1.6" stroke-miterlimit="79.8403" stroke-linecap="round" stroke-linejoin="round"/>
<path d="M161.723 79.5396H197.412" stroke="#393839" stroke-width="1.6" stroke-miterlimit="79.8403" stroke-linecap="round" stroke-linejoin="round"/>
<path d="M161.723 84.8538H189.059" stroke="#393839" stroke-width="1.6" stroke-miterlimit="79.8403" stroke-linecap="round" stroke-linejoin="round"/>
<path fill-rule="evenodd" clip-rule="evenodd" d="M173.87 11.9578C175.547 11.9578 176.909 13.3185 176.909 14.9951C176.909 16.6717 175.547 18.0325 173.87 18.0325C172.194 18.0325 170.832 16.6717 170.832 14.9951C170.832 13.3185 172.194 11.9578 173.87 11.9578Z" stroke="#393839" stroke-width="1.6" stroke-miterlimit="79.8403"/>
<path fill-rule="evenodd" clip-rule="evenodd" d="M61.5273 29.0426L60.4329 32.8201C60.0208 34.2385 60.8389 35.7258 62.2573 36.1369L72.5256 39.1135C73.945 39.5245 75.4323 38.7065 75.8434 37.288L76.9389 33.5116C77.3489 32.0911 76.5308 30.6048 75.1124 30.1928L64.8441 27.2162C63.4257 26.8051 61.9394 27.6242 61.5273 29.0426Z" stroke="#393839" stroke-width="1.6" stroke-miterlimit="79.8403"/>
<path d="M68.6431 28.4363L62.7324 35.1914" stroke="#393839" stroke-width="1.6" stroke-miterlimit="79.8403" stroke-linecap="round" stroke-linejoin="round"/>
<path d="M74.217 30.08L67.8203 37.3909" stroke="#393839" stroke-width="1.6" stroke-miterlimit="79.8403" stroke-linecap="round" stroke-linejoin="round"/>
<path fill-rule="evenodd" clip-rule="evenodd" d="M63.4271 19.8008C63.0292 21.7295 63.8169 22.6326 65.1158 23.0943L84.8333 28.8785C86.3965 29.4687 86.8127 31.0492 86.3955 32.4676L85.1229 37.2524C77.8474 42.4088 74.3281 48.5807 75.1735 61.1847L77.3898 86.7289C78.1046 92.351 75.6757 97.9458 69.2375 97.9458C63.6174 97.9458 60.5335 94.0023 61.2685 87.0215L63.8786 60.1298C64.5408 52.8219 63.4514 47.544 59.843 42.583L52.7903 31.6586C50.2591 26.24 50.7026 21.1697 54.2087 16.4598L60.7623 9.23084C62.2719 7.68989 64.0973 6.84247 66.5039 7.27175L63.4271 19.8008Z" stroke="#393839" stroke-width="1.6" stroke-miterlimit="79.8403" stroke-linejoin="round"/>
<path d="M84.0003 28.2803C84.7445 20.9785 82.9565 15.6672 78.7305 12.2704L75.2852 25.9162" stroke="#393839" stroke-width="1.6" stroke-miterlimit="79.8403" stroke-linecap="round" stroke-linejoin="round"/>
<path fill-rule="evenodd" clip-rule="evenodd" d="M69.5293 85.9416C71.6271 85.9416 73.331 87.6435 73.331 89.7413C73.331 91.8391 71.6271 93.541 69.5293 93.541C67.4315 93.541 65.7285 91.8391 65.7285 89.7413C65.7285 87.6435 67.4315 85.9416 69.5293 85.9416Z" stroke="#393839" stroke-width="1.6" stroke-miterlimit="79.8403" stroke-linejoin="round"/>
</g>
</svg>
