<svg width="120" height="124" viewBox="0 0 120 124" fill="none" xmlns="http://www.w3.org/2000/svg">
<path d="M88.9862 27.1299C83.8573 34.119 76.9141 44.8423 77.0609 51.4851C77.2926 61.9951 85.5478 70.8077 95.4431 70.0691C96.8813 69.9613 100.23 68.7778 101.299 67.1996" stroke="#B6862D" stroke-width="1.8" stroke-miterlimit="10" stroke-linecap="round" stroke-linejoin="round"/>
<path d="M64.6494 13.5444C52.6943 29.3806 37.7871 52.0407 37.7871 66.6038C37.7871 90.9153 56.3895 110.626 79.3363 110.626C79.6391 110.626 80.5841 110.621 80.8869 110.616" stroke="#393839" stroke-width="1.8" stroke-miterlimit="10" stroke-linecap="round" stroke-linejoin="round"/>
<path d="M104.465 55.7505C104.465 67.545 95.4412 77.1054 84.3096 77.1054C73.178 77.1054 64.1543 67.545 64.1543 55.7505C64.1543 46.1144 77.6118 29.1635 82.5342 23.2869C83.4609 22.1813 85.1606 22.1813 86.0873 23.2869C91.0074 29.1635 104.465 46.1144 104.465 55.7505Z" stroke="#B6862D" stroke-width="1.8" stroke-miterlimit="10" stroke-linecap="round" stroke-linejoin="round"/>
<path d="M72.484 23.5818C66.4537 15.4894 60.9991 8.95674 58.3108 5.81199C57.3864 4.72934 55.7143 4.72934 54.7876 5.81199C46.8741 15.0696 15 53.6851 15 74.9781C15 99.2897 33.6024 119 56.5492 119C77.9271 119 95.5294 101.895 97.8392 79.8982" stroke="#393839" stroke-width="1.8" stroke-miterlimit="10" stroke-linecap="round" stroke-linejoin="round"/>
</svg>
