<svg width="155" height="124" viewBox="0 0 155 124" fill="none" xmlns="http://www.w3.org/2000/svg">
<g clip-path="url(#clip0_400_438)">
<path d="M7.18164 97.3631L7.20333 45.5272L7.20953 34.6729L7.21572 13.621C7.21572 11.0685 9.29798 8.99692 11.8667 9L144.177 9.06164C146.742 9.06164 148.824 11.1332 148.821 13.6888L148.787 97.3693" stroke="#393839" stroke-width="1.8" stroke-miterlimit="10" stroke-linecap="round" stroke-linejoin="round"/>
<path d="M126.868 107.669H151.901C153.612 107.669 155 109.05 155 110.752C155 115.86 150.839 120 145.704 120H10.2958C5.16141 120 1 115.86 1 110.752C1 109.05 2.38817 107.669 4.09859 107.669H116.023H126.868Z" stroke="#393839" stroke-width="1.8" stroke-miterlimit="10" stroke-linecap="round" stroke-linejoin="round"/>
<path d="M75.5615 81.3861V86.7007C75.5615 88.1002 74.5916 89.2378 73.3987 89.2378H61.9773C60.7812 89.2378 59.8145 88.1033 59.8145 86.7007V81.3861" stroke="#393839" stroke-width="1.8" stroke-miterlimit="10" stroke-linecap="round" stroke-linejoin="round"/>
<path d="M134.659 81.3858V86.7004C134.659 88.0999 133.689 89.2375 132.496 89.2375H121.075C119.879 89.2375 118.912 88.103 118.912 86.7004V81.3858" stroke="#393839" stroke-width="1.8" stroke-miterlimit="10" stroke-linecap="round" stroke-linejoin="round"/>
<path d="M60.217 38.1195H56.6196C51.9128 38.1195 53.6387 46.4953 59.6407 46.4953H68.3168V46.1747C68.3137 41.7263 64.6883 38.1195 60.217 38.1195Z" stroke="#393839" stroke-width="1.8" stroke-miterlimit="10" stroke-linecap="round" stroke-linejoin="round"/>
<path d="M134.1 38.061H137.697C139.188 38.061 140.396 39.2633 140.396 40.7461C140.396 43.8904 137.834 46.4368 134.676 46.4368H126V46.1162C126 41.6678 129.625 38.061 134.1 38.061Z" stroke="#393839" stroke-width="1.8" stroke-miterlimit="10" stroke-linecap="round" stroke-linejoin="round"/>
<path d="M89.0768 66.702C87.041 66.702 85.2562 65.3425 84.7295 63.385L83.5117 58.8688H110.944L109.726 63.385C109.199 65.3425 107.414 66.702 105.378 66.702" stroke="#393839" stroke-width="1.8" stroke-miterlimit="10" stroke-linecap="round" stroke-linejoin="round"/>
<path d="M117.027 67.2774H125.542C127.544 67.2774 129.165 65.1688 129.165 62.57V61.3924C129.165 60.0915 128.353 59.0403 127.352 59.0403H122.936C120.51 59.0403 118.378 61.1304 117.712 64.1607L117.027 67.2774Z" fill="#B6862D" stroke="#B6862D" stroke-width="1.8" stroke-miterlimit="10" stroke-linecap="round" stroke-linejoin="round"/>
<path d="M77.5415 67.2774H69.0265C67.0249 67.2774 65.4043 65.1688 65.4043 62.57V61.3924C65.4043 60.0915 66.2161 59.0403 67.217 59.0403H71.6325C74.0587 59.0403 76.1905 61.1304 76.8567 64.1607L77.5415 67.2774Z" fill="#B6862D" stroke="#B6862D" stroke-width="1.8" stroke-miterlimit="10" stroke-linecap="round" stroke-linejoin="round"/>
<path d="M117.8 28.2317H76.6539C74.6956 28.2317 72.9914 29.5634 72.5235 31.4531L68.3125 46.4906H126.142L121.931 31.4531C121.463 29.5634 119.758 28.2317 117.8 28.2317Z" stroke="#393839" stroke-width="1.8" stroke-miterlimit="10" stroke-linecap="round" stroke-linejoin="round"/>
<path d="M137.757 70.2229C137.688 70.2229 137.564 70.2229 137.391 70.2229V56.9611C137.391 53.2618 135.107 49.9448 131.64 48.61L126.14 46.4922H68.311L62.811 48.61C59.3436 49.9448 57.06 53.2618 57.06 56.9611V70.2229C56.8896 70.2229 56.7625 70.2229 56.6943 70.2229C55.4673 70.2229 54.4727 71.2248 54.4727 72.461V79.0919C54.4727 80.3281 55.4673 81.33 56.6943 81.33C59.4893 81.33 131.361 81.33 137.757 81.33C138.984 81.33 139.978 80.3281 139.978 79.0919V72.461C139.978 71.2248 138.984 70.2229 137.757 70.2229Z" stroke="#393839" stroke-width="1.8" stroke-miterlimit="10" stroke-linecap="round" stroke-linejoin="round"/>
<path d="M35.3331 54.9917C31.7387 59.4246 25.21 60.1182 20.7542 56.5423C18.7556 54.9392 17.5131 52.7505 17.0762 50.4231" stroke="#B6862D" stroke-width="1.8" stroke-miterlimit="10" stroke-linecap="round" stroke-linejoin="round"/>
<path d="M35.691 57.5497L36.3134 53.7819L32.5293 54.0777" stroke="#B6862D" stroke-width="1.8" stroke-miterlimit="10" stroke-linecap="round" stroke-linejoin="round"/>
<path d="M19.6172 40.3488C23.227 35.9282 29.7558 35.2531 34.1992 38.8445C36.4456 40.6602 37.7316 43.2188 37.9856 45.8762" stroke="#B6862D" stroke-width="1.8" stroke-miterlimit="10" stroke-linecap="round" stroke-linejoin="round"/>
<path d="M19.2663 37.7923L18.4023 41.668L22.3351 41.1196" stroke="#B6862D" stroke-width="1.8" stroke-miterlimit="10" stroke-linecap="round" stroke-linejoin="round"/>
<path d="M16.2734 72.604H37.9884" stroke="#393839" stroke-width="1.8" stroke-miterlimit="10" stroke-linecap="round" stroke-linejoin="round"/>
<path d="M33.1777 80.9263H37.8194" stroke="#393839" stroke-width="1.8" stroke-miterlimit="10" stroke-linecap="round" stroke-linejoin="round"/>
<path d="M16.1035 80.9263H25.0368" stroke="#393839" stroke-width="1.8" stroke-miterlimit="10" stroke-linecap="round" stroke-linejoin="round"/>
</g>
<defs>
<clipPath id="clip0_400_438">
<rect width="155" height="124" fill="white"/>
</clipPath>
</defs>
</svg>
