<svg width="320" height="104" viewBox="0 0 320 104" fill="none" xmlns="http://www.w3.org/2000/svg">
<path d="M38.1641 35.6272L58.0535 33.0453C86.2705 20.9289 110.456 15.543 142.705 15.543C166.891 15.543 186.581 21.8074 207.434 34.8964C212.493 37.7201 215.974 39.2255 222.274 40.1521C244.823 42.3511 266.594 44.6551 278.455 57.3196C279.853 59.1554 280.858 61.4463 281 64.7163L280.698 78.9529C280.43 81.5381 278.089 82.9111 275.807 83.4231C270.867 84.6736 264.978 85.5521 258.74 85.388" stroke="#B6862D" stroke-width="1.6998" stroke-miterlimit="79.8403" stroke-linecap="round" stroke-linejoin="round"/>
<path d="M242.225 96.1518C231.931 96.9451 222.944 89.2263 222.152 78.9114C221.36 68.5964 229.063 59.5915 239.357 58.7982C249.651 58.0049 258.638 65.7237 259.43 76.0386C260.221 86.3535 252.518 95.3585 242.225 96.1518Z" stroke="#B6862D" stroke-width="1.6998" stroke-miterlimit="79.8403"/>
<path d="M279.756 69.3965H269.008L274.381 78.8204" stroke="#B6862D" stroke-width="1.6998" stroke-miterlimit="79.8403" stroke-linecap="round" stroke-linejoin="round"/>
<path d="M275.727 59.9727H264.977C265.103 55.8558 261.596 52.6952 254.229 50.5487" stroke="#B6862D" stroke-width="1.6998" stroke-miterlimit="79.8403" stroke-linecap="round" stroke-linejoin="round"/>
<path d="M223.324 85.5521H103.736" stroke="#B6862D" stroke-width="1.6998" stroke-miterlimit="79.8403" stroke-linecap="round" stroke-linejoin="round"/>
<path d="M67.4587 82.8596L40.5846 78.8205C34.7071 77.5755 28.5556 77.5788 27.6133 70.9402L27.8818 63.1321C28.5992 57.5351 30.6574 50.9315 34.1972 40.3785C34.967 38.2747 36.2455 36.7791 37.8975 35.7387" stroke="#B6862D" stroke-width="1.6998" stroke-miterlimit="79.8403" stroke-linecap="round" stroke-linejoin="round"/>
<path d="M39.2408 39.7768H56.7084C60.7396 39.7768 60.7396 42.4692 56.7084 45.1627L47.3031 50.5486L41.9279 53.241L33.1504 52.5233" stroke="#B6862D" stroke-width="1.6998" stroke-miterlimit="79.8403" stroke-linecap="round" stroke-linejoin="round"/>
<path d="M99.707 46.5083H110.456" stroke="#B6862D" stroke-width="1.6998" stroke-miterlimit="79.8403" stroke-linecap="round" stroke-linejoin="round"/>
<path d="M156.141 49.2008H166.889" stroke="#B6862D" stroke-width="1.6998" stroke-miterlimit="79.8403" stroke-linecap="round" stroke-linejoin="round"/>
<path d="M197.793 34.391C195.894 34.9457 195.027 36.916 195.027 38.8853C195.027 42.0634 197.012 43.816 199.137 43.816H204.512" stroke="#B6862D" stroke-width="1.6998" stroke-miterlimit="79.8403" stroke-linecap="round" stroke-linejoin="round"/>
<path d="M196.449 34.391C181.213 26.8575 165.259 21.8381 148.076 20.929" stroke="#B6862D" stroke-width="1.6998" stroke-miterlimit="79.8403" stroke-linecap="round" stroke-linejoin="round"/>
<path d="M196.029 42.4507L97.0176 37.0845" stroke="#B6862D" stroke-width="1.6998" stroke-miterlimit="79.8403" stroke-linecap="round" stroke-linejoin="round"/>
<path d="M142.704 39.777L140.016 20.929C125.271 21.6073 115.831 22.2747 105.082 24.9671" stroke="#B6862D" stroke-width="1.6998" stroke-miterlimit="79.8403" stroke-linecap="round" stroke-linejoin="round"/>
<path d="M241.646 88.6306C235.498 89.1043 230.13 84.4937 229.657 78.3326C229.185 72.1714 233.786 66.7928 239.934 66.3191C246.082 65.8454 251.45 70.456 251.923 76.6171C252.395 82.7783 247.794 88.1568 241.646 88.6306Z" stroke="#B6862D" stroke-width="1.6998" stroke-miterlimit="79.8403"/>
<path d="M87.7011 96.1518C77.4072 96.9451 68.4205 89.2263 67.6287 78.9114C66.837 68.5964 74.54 59.5915 84.8339 58.7982C95.1278 58.0049 104.115 65.7237 104.906 76.0386C105.698 86.3535 97.995 95.3585 87.7011 96.1518Z" stroke="#B6862D" stroke-width="1.6998" stroke-miterlimit="79.8403"/>
<path d="M87.1254 88.6306C80.9765 89.1044 75.6085 84.4939 75.1357 78.3327C74.6629 72.1716 79.2643 66.793 85.4132 66.3192C91.5622 65.8455 96.9302 70.456 97.403 76.6171C97.8758 82.7783 93.2744 88.1569 87.1254 88.6306Z" stroke="#B6862D" stroke-width="1.6998" stroke-miterlimit="79.8403"/>
<path fill-rule="evenodd" clip-rule="evenodd" d="M117.002 9.53688V94.4631C117.002 97.5187 119.478 100 122.528 100H186.816C189.865 100 192.342 97.5187 192.342 94.4631V9.53688C192.342 6.48126 189.865 4 186.816 4H122.528C119.478 4 117.002 6.48126 117.002 9.53688Z" fill="white" stroke="white" stroke-width="6.79921" stroke-miterlimit="79.8403"/>
<path d="M137.766 43.5273H129.764C129.211 43.5273 128.764 43.0787 128.764 42.5252V34.5071C128.764 33.9536 129.211 33.505 129.764 33.505H137.766C138.318 33.505 138.766 33.9536 138.766 34.5071V42.5252C138.766 43.0787 138.318 43.5273 137.766 43.5273Z" fill="white" stroke="white" stroke-width="6.79921" stroke-miterlimit="79.8403"/>
<path d="M137.766 59.9376H129.764C129.211 59.9376 128.764 59.489 128.764 58.9355V50.9174C128.764 50.3639 129.211 49.9152 129.764 49.9152H137.766C138.318 49.9152 138.766 50.3639 138.766 50.9174V58.9355C138.766 59.489 138.318 59.9376 137.766 59.9376Z" fill="white" stroke="white" stroke-width="6.79921" stroke-miterlimit="79.8403"/>
<path d="M137.766 76.348H129.764C129.211 76.348 128.764 75.8994 128.764 75.3459V67.3278C128.764 66.7743 129.211 66.3256 129.764 66.3256H137.766C138.318 66.3256 138.766 66.7743 138.766 67.3278V75.3459C138.766 75.8994 138.318 76.348 137.766 76.348Z" fill="white" stroke="white" stroke-width="6.79921" stroke-miterlimit="79.8403"/>
<path d="M144.777 35.7642H175.709" stroke="white" stroke-width="6.79921" stroke-miterlimit="79.8403" stroke-linecap="round" stroke-linejoin="round"/>
<path d="M144.777 40.6873H164.143" stroke="white" stroke-width="6.79921" stroke-miterlimit="79.8403" stroke-linecap="round" stroke-linejoin="round"/>
<path d="M144.777 52.1746H175.709" stroke="white" stroke-width="6.79921" stroke-miterlimit="79.8403" stroke-linecap="round" stroke-linejoin="round"/>
<path d="M144.777 57.0977H164.143" stroke="white" stroke-width="6.79921" stroke-miterlimit="79.8403" stroke-linecap="round" stroke-linejoin="round"/>
<path d="M144.777 68.585H175.709" stroke="white" stroke-width="6.79921" stroke-miterlimit="79.8403" stroke-linecap="round" stroke-linejoin="round"/>
<path d="M144.777 73.5081H164.143" stroke="white" stroke-width="6.79921" stroke-miterlimit="79.8403" stroke-linecap="round" stroke-linejoin="round"/>
<path d="M139.33 9.14073V14.8844C139.33 16.4532 140.363 17.3459 141.787 17.3459H167.992C169.415 17.3459 170.448 16.4532 170.448 14.8844V9.14073" stroke="white" stroke-width="6.79921" stroke-miterlimit="79.8403" stroke-linecap="round" stroke-linejoin="round"/>
<path fill-rule="evenodd" clip-rule="evenodd" d="M192.66 53.6437L182.349 75.7978L181.395 85.0424C181.281 86.3323 182.349 87.0291 183.466 86.0106L189.921 79.3348L200.231 57.1818C204.723 48.3322 211.89 29.0478 209.441 28.2546L208.854 27.9811C205.952 26.2733 197.736 42.7363 192.66 53.6437Z" fill="white" stroke="white" stroke-width="6.79921" stroke-miterlimit="79.8403"/>
<path d="M189.791 78.475L183.111 75.3548" stroke="white" stroke-width="6.79921" stroke-miterlimit="79.8403" stroke-linecap="round" stroke-linejoin="round"/>
<path d="M193.148 53.788L199.827 56.9093" stroke="white" stroke-width="6.79921" stroke-miterlimit="79.8403" stroke-linecap="round" stroke-linejoin="round"/>
<path d="M204.895 31.1812L212.042 34.5497C211.5 39.8776 208.013 48.8158 203.193 59.3875" stroke="white" stroke-width="6.79921" stroke-miterlimit="79.8403" stroke-linecap="round" stroke-linejoin="round"/>
<path d="M242.102 41.9618C242.102 47.1731 237.886 51.3978 232.685 51.3978C227.484 51.3978 223.268 47.1731 223.268 41.9618C223.268 36.7504 227.484 32.5258 232.685 32.5258C237.886 32.5258 242.102 36.7504 242.102 41.9618Z" fill="white" stroke="#393839" stroke-width="1.6998" stroke-miterlimit="79.8403"/>
<path d="M39.8347 51.8081C39.8347 57.0194 35.6184 61.2441 30.4173 61.2441C25.2163 61.2441 21 57.0194 21 51.8081C21 46.5967 25.2163 42.3721 30.4173 42.3721C35.6184 42.3721 39.8347 46.5967 39.8347 51.8081Z" fill="white" stroke="#393839" stroke-width="1.6998" stroke-miterlimit="79.8403"/>
<path d="M88.9873 24.731C88.9873 29.9532 84.7622 34.1867 79.5503 34.1867C74.3384 34.1867 70.1133 29.9532 70.1133 24.731C70.1133 19.5087 74.3384 15.2753 79.5503 15.2753C84.7622 15.2753 88.9873 19.5087 88.9873 24.731Z" fill="white" stroke="#393839" stroke-width="1.6998" stroke-miterlimit="79.8403"/>
<path d="M229.082 41.3053L232.03 44.2592L236.125 40.1565" stroke="#393839" stroke-width="1.6998" stroke-miterlimit="79.8403" stroke-linecap="round" stroke-linejoin="round"/>
<path d="M76.2754 24.2384L79.2234 27.1923L83.3179 23.0897" stroke="#393839" stroke-width="1.6998" stroke-miterlimit="79.8403" stroke-linecap="round" stroke-linejoin="round"/>
<path d="M26.6523 51.0695L29.6004 54.0234L33.6949 49.9208" stroke="#393839" stroke-width="1.6998" stroke-miterlimit="79.8403" stroke-linecap="round" stroke-linejoin="round"/>
<path fill-rule="evenodd" clip-rule="evenodd" d="M117.002 9.53688V94.4631C117.002 97.5187 119.478 100 122.528 100H186.816C189.865 100 192.342 97.5187 192.342 94.4631V9.53688C192.342 6.48126 189.865 4 186.816 4H122.528C119.478 4 117.002 6.48126 117.002 9.53688Z" fill="white" stroke="#B6862D" stroke-width="1.6998" stroke-miterlimit="79.8403"/>
<path d="M137.766 43.5273H129.764C129.211 43.5273 128.764 43.0787 128.764 42.5252V34.5071C128.764 33.9536 129.211 33.505 129.764 33.505H137.766C138.318 33.505 138.766 33.9536 138.766 34.5071V42.5252C138.766 43.0787 138.318 43.5273 137.766 43.5273Z" fill="white" stroke="#B6862D" stroke-width="1.6998" stroke-miterlimit="79.8403"/>
<path d="M137.766 59.9376H129.764C129.211 59.9376 128.764 59.489 128.764 58.9355V50.9174C128.764 50.3639 129.211 49.9152 129.764 49.9152H137.766C138.318 49.9152 138.766 50.3639 138.766 50.9174V58.9355C138.766 59.489 138.318 59.9376 137.766 59.9376Z" fill="white" stroke="#B6862D" stroke-width="1.6998" stroke-miterlimit="79.8403"/>
<path d="M137.766 76.348H129.764C129.211 76.348 128.764 75.8994 128.764 75.3459V67.3278C128.764 66.7743 129.211 66.3256 129.764 66.3256H137.766C138.318 66.3256 138.766 66.7743 138.766 67.3278V75.3459C138.766 75.8994 138.318 76.348 137.766 76.348Z" fill="white" stroke="#B6862D" stroke-width="1.6998" stroke-miterlimit="79.8403"/>
<path d="M144.777 35.7642H175.709" stroke="#B6862D" stroke-width="1.6998" stroke-miterlimit="79.8403" stroke-linecap="round" stroke-linejoin="round"/>
<path d="M144.777 40.6873H164.143" stroke="#B6862D" stroke-width="1.6998" stroke-miterlimit="79.8403" stroke-linecap="round" stroke-linejoin="round"/>
<path d="M144.777 52.1746H175.709" stroke="#B6862D" stroke-width="1.6998" stroke-miterlimit="79.8403" stroke-linecap="round" stroke-linejoin="round"/>
<path d="M144.777 57.0977H164.143" stroke="#B6862D" stroke-width="1.6998" stroke-miterlimit="79.8403" stroke-linecap="round" stroke-linejoin="round"/>
<path d="M144.777 68.585H175.709" stroke="#B6862D" stroke-width="1.6998" stroke-miterlimit="79.8403" stroke-linecap="round" stroke-linejoin="round"/>
<path d="M144.777 73.5081H164.143" stroke="#B6862D" stroke-width="1.6998" stroke-miterlimit="79.8403" stroke-linecap="round" stroke-linejoin="round"/>
<path d="M141.787 9.14073V14.8844C141.787 16.4532 142.82 17.3459 144.244 17.3459H165.535C166.959 17.3459 167.992 16.4532 167.992 14.8844V9.14073" stroke="#B6862D" stroke-width="1.6998" stroke-miterlimit="79.8403" stroke-linecap="round" stroke-linejoin="round"/>
<path fill-rule="evenodd" clip-rule="evenodd" d="M192.66 53.6437L182.349 75.7978L181.395 85.0424C181.281 86.3323 182.349 87.0291 183.466 86.0106L189.921 79.3348L200.231 57.1818C204.723 48.3322 211.89 29.0478 209.441 28.2546L208.854 27.9811C205.952 26.2733 197.736 42.7363 192.66 53.6437Z" fill="white" stroke="#393839" stroke-width="1.6998" stroke-miterlimit="79.8403"/>
<path d="M189.791 78.475L183.111 75.3548" stroke="#393839" stroke-width="1.6998" stroke-miterlimit="79.8403" stroke-linecap="round" stroke-linejoin="round"/>
<path d="M193.148 53.788L199.827 56.9093" stroke="#393839" stroke-width="1.6998" stroke-miterlimit="79.8403" stroke-linecap="round" stroke-linejoin="round"/>
<path d="M204.895 31.1812L212.042 34.5497C211.5 39.8776 208.013 48.8158 203.193 59.3875" stroke="#393839" stroke-width="1.6998" stroke-miterlimit="79.8403" stroke-linecap="round" stroke-linejoin="round"/>
<path d="M131.102 38.0856L133.364 40.3524L136.506 37.2038" stroke="#B6862D" stroke-width="1.6998" stroke-miterlimit="79.8403" stroke-linecap="round" stroke-linejoin="round"/>
</svg>
