<svg width="300" height="100" viewBox="0 0 300 100" fill="none" xmlns="http://www.w3.org/2000/svg">
<mask id="mask0_155_4999" style="mask-type:alpha" maskUnits="userSpaceOnUse" x="0" y="0" width="300" height="100">
<rect width="300" height="100" fill="#D9D9D9"/>
</mask>
<g mask="url(#mask0_155_4999)">
<path d="M171.342 47.8649C166.26 59.4207 154.709 67.4966 141.282 67.4966C129.341 67.4966 118.883 61.1097 113.141 51.5679" stroke="#B6862D" stroke-width="1.6" stroke-miterlimit="79.8403" stroke-linecap="round" stroke-linejoin="round"/>
<path d="M114.523 15.6747C120.474 7.31341 130.244 1.85693 141.281 1.85693C153.221 1.85693 163.68 8.24383 169.423 17.7856" stroke="#B6862D" stroke-width="1.6" stroke-miterlimit="79.8403" stroke-linecap="round" stroke-linejoin="round"/>
<path d="M163.162 15.9213L169.414 18.2656L170.195 12.0142" stroke="#B6862D" stroke-width="1.6" stroke-miterlimit="79.8403" stroke-linecap="round" stroke-linejoin="round"/>
<path d="M120.183 54.2123L113.151 51.0866L112.369 58.9009" stroke="#B6862D" stroke-width="1.6" stroke-miterlimit="79.8403" stroke-linecap="round" stroke-linejoin="round"/>
<path d="M142.844 24.5178V22.1735L146.751 19.8292V17.4849H134.248V19.8292L138.155 22.1735V24.5178" stroke="#B6862D" stroke-width="1.6" stroke-miterlimit="79.8403" stroke-linecap="round" stroke-linejoin="round"/>
<path fill-rule="evenodd" clip-rule="evenodd" d="M156.91 25.2992L161.598 27.6435C163.126 28.5405 163.943 28.4249 166.287 27.6435L192.856 18.2663L198.326 21.392L196.763 23.7363L192.074 21.392L158.473 49.5236C157.336 50.5113 156.022 50.9989 154.565 51.0864H125.652C121.745 51.0864 120.968 49.4548 119.401 47.1793L104.724 29.2292C103.796 28.254 102.916 26.4942 104.554 24.5177L108.582 20.0959C109.754 18.9727 111.512 18.533 113.149 19.8291L121.745 25.2992H156.91Z" stroke="#B6862D" stroke-width="1.6" stroke-miterlimit="79.8403"/>
<path d="M120.182 28.4249V42.4907" stroke="#B6862D" stroke-width="1.6" stroke-miterlimit="79.8403" stroke-linecap="round" stroke-linejoin="round"/>
<path d="M199.889 51.8673L231.927 30.7686C233.353 29.8403 236.47 30.033 238.179 31.5501C238.96 32.3315 238.96 33.8944 236.616 33.8944H234.272L205.359 53.4302" stroke="#393839" stroke-width="1.6" stroke-miterlimit="79.8403" stroke-linecap="round" stroke-linejoin="round"/>
<path d="M174.578 40.3675L199.108 51.867L205.359 53.4299L236.617 60.4628C241.305 61.2442 243.649 64.37 243.649 70.6214L245.994 73.7471V86.2501C246.084 88.288 244.969 89.5425 242.868 90.1572H232.709C230.365 90.1572 229.584 89.3758 229.584 87.0315V83.9058" stroke="#393839" stroke-width="1.6" stroke-miterlimit="79.8403" stroke-linecap="round" stroke-linejoin="round"/>
<path fill-rule="evenodd" clip-rule="evenodd" d="M210.828 69.0606C219.022 69.0606 225.675 75.7121 225.675 83.9068C225.675 92.1014 219.022 98.7529 210.828 98.7529C202.633 98.7529 195.98 92.1014 195.98 83.9068C195.98 75.7121 202.633 69.0606 210.828 69.0606Z" stroke="#393839" stroke-width="1.6" stroke-miterlimit="79.8403"/>
<path fill-rule="evenodd" clip-rule="evenodd" d="M210.829 76.0481C215.167 76.0481 218.689 79.5687 218.689 83.9072C218.689 88.2457 215.167 91.7664 210.829 91.7664C206.49 91.7664 202.969 88.2457 202.969 83.9072C202.969 79.5687 206.49 76.0481 210.829 76.0481Z" stroke="#393839" stroke-width="1.6" stroke-miterlimit="79.8403"/>
<path fill-rule="evenodd" clip-rule="evenodd" d="M93.6148 69.0606C101.809 69.0606 108.462 75.7121 108.462 83.9068C108.462 92.1014 101.809 98.7529 93.6148 98.7529C85.4202 98.7529 78.7676 92.1014 78.7676 83.9068C78.7676 75.7121 85.4202 69.0606 93.6148 69.0606Z" stroke="#393839" stroke-width="1.6" stroke-miterlimit="79.8403"/>
<path fill-rule="evenodd" clip-rule="evenodd" d="M93.6141 76.0481C97.9526 76.0481 101.474 79.5687 101.474 83.9072C101.474 88.2457 97.9526 91.7664 93.6141 91.7664C89.2756 91.7664 85.7539 88.2457 85.7539 83.9072C85.7539 79.5687 89.2756 76.0481 93.6141 76.0481Z" stroke="#393839" stroke-width="1.6" stroke-miterlimit="79.8403"/>
<path d="M243.649 70.6216L237.398 69.8401C236.58 69.4348 235.745 69.1535 235.168 67.0635L233.605 62.453" stroke="#393839" stroke-width="1.6" stroke-miterlimit="79.8403" stroke-linecap="round" stroke-linejoin="round"/>
<path fill-rule="evenodd" clip-rule="evenodd" d="M200.671 27.6437C197.545 31.5508 196.132 33.7389 195.982 36.2394C195.824 38.864 197.302 41.5469 200.671 41.7095C204.039 41.5469 205.518 38.864 205.359 36.2394C205.209 33.7389 203.796 31.5508 200.671 27.6437Z" stroke="#B6862D" stroke-width="1.6" stroke-miterlimit="79.8403" stroke-linecap="round" stroke-linejoin="round"/>
<path d="M107.68 37.0206C98.9488 39.1482 90.4885 42.4906 81.1113 46.3978C74.0784 48.7421 71.1298 49.2401 63.1384 50.3049C59.4323 50.977 58.1393 52.9451 58.4498 55.775V65.9336L56.1055 69.0593V75.3108L58.4498 83.9065C58.5873 85.2391 59.3271 86.056 60.7941 86.2508L70.9527 87.8137C72.9688 87.9054 74.69 87.5272 74.8598 84.688V83.9065" stroke="#393839" stroke-width="1.6" stroke-miterlimit="79.8403" stroke-linecap="round" stroke-linejoin="round"/>
<path d="M58.4492 65.9341H64.7007" stroke="#393839" stroke-width="1.6" stroke-miterlimit="79.8403" stroke-linecap="round" stroke-linejoin="round"/>
<path d="M58.4492 54.9928H65.4821C68.1629 55.2095 68.6078 57.2944 67.045 59.6814L64.7007 62.8071" stroke="#393839" stroke-width="1.6" stroke-miterlimit="79.8403" stroke-linecap="round" stroke-linejoin="round"/>
<path d="M81.1113 53.43L110.024 54.2114" stroke="#393839" stroke-width="1.6" stroke-miterlimit="79.8403" stroke-linecap="round" stroke-linejoin="round"/>
<path d="M110.806 40.9276C108.764 41.7455 106.899 44.0534 106.117 47.9605L105.336 51.8677" stroke="#393839" stroke-width="1.6" stroke-miterlimit="79.8403" stroke-linecap="round" stroke-linejoin="round"/>
<path d="M99.8655 51.0864L102.21 43.2721C95.1769 45.6164 90.4883 47.1793 90.4883 50.305" stroke="#393839" stroke-width="1.6" stroke-miterlimit="79.8403" stroke-linecap="round" stroke-linejoin="round"/>
<path d="M74.8594 83.9072C74.8594 73.5559 83.2624 65.1549 93.6138 65.1549C103.965 65.1549 112.368 73.5559 112.368 83.9072" stroke="#393839" stroke-width="1.6" stroke-miterlimit="79.8403" stroke-linecap="round" stroke-linejoin="round"/>
<path d="M112.369 83.9061V86.2504C112.514 87.7914 113.732 88.4239 115.495 88.5947H188.95C190.512 88.5947 192.075 87.8133 192.075 85.469V83.9061" stroke="#393839" stroke-width="1.6" stroke-miterlimit="79.8403" stroke-linecap="round" stroke-linejoin="round"/>
<path d="M192.074 83.9072C192.074 73.5559 200.477 65.1549 210.829 65.1549C221.18 65.1549 229.583 73.5559 229.583 83.9072" stroke="#393839" stroke-width="1.6" stroke-miterlimit="79.8403" stroke-linecap="round" stroke-linejoin="round"/>
<path d="M103.773 56.5571V60.4643C103.88 61.8385 104.408 62.8742 105.336 63.59C111.088 67.2992 115.875 72.6838 119.15 80.6856C120.184 82.3444 120.184 83.9072 122.528 83.9072H183.48C185.042 83.9072 186.605 83.1258 186.605 80.7815C186.605 72.9672 187.151 67.2627 185.042 58.12L184.261 56.5571C180.725 57.8845 176.447 58.12 176.447 53.4314C176.447 50.3056 177.076 49.048 178.791 48.7428C180.354 48.7428 182.692 50.3067 185.042 52.6499" stroke="#393839" stroke-width="1.6" stroke-miterlimit="79.8403" stroke-linecap="round" stroke-linejoin="round"/>
<path d="M177.226 56.5552L170.193 55.7737" stroke="#393839" stroke-width="1.6" stroke-miterlimit="79.8403" stroke-linecap="round" stroke-linejoin="round"/>
<path d="M176.68 50.7874C176.742 49.1307 177.004 47.349 174.102 45.6153L170.688 43.9066" stroke="#393839" stroke-width="1.6" stroke-miterlimit="79.8403" stroke-linecap="round" stroke-linejoin="round"/>
<path d="M189.234 58.2097L213.655 60.4634" stroke="#393839" stroke-width="1.6" stroke-miterlimit="79.8403" stroke-linecap="round" stroke-linejoin="round"/>
<path d="M150.658 87.8135V69.8405" stroke="#393839" stroke-width="1.6" stroke-miterlimit="79.8403" stroke-linecap="round" stroke-linejoin="round"/>
</g>
</svg>
