<svg width="300" height="100" viewBox="0 0 300 100" fill="none" xmlns="http://www.w3.org/2000/svg">
<mask id="mask0_195_7800" style="mask-type:alpha" maskUnits="userSpaceOnUse" x="0" y="0" width="300" height="100">
<rect width="300" height="100" fill="#D9D9D9"/>
</mask>
<g mask="url(#mask0_195_7800)">
<path d="M104.498 8.39561L95.3951 8.39674C90.1996 8.39674 85.9814 12.6149 85.9814 17.8104V89.0341C85.9814 94.2296 90.1996 98.4478 95.3951 98.4478H201.969C207.164 98.4478 211.382 94.2296 211.382 89.0341V17.8104C211.382 12.6149 207.164 8.39674 201.969 8.39674L195.392 8.39561" stroke="black" stroke-width="1.6" stroke-miterlimit="79.8403" stroke-linecap="round" stroke-linejoin="round"/>
<path d="M190.342 8.39648H181.926" stroke="black" stroke-width="1.6" stroke-miterlimit="79.8403" stroke-linecap="round" stroke-linejoin="round"/>
<path d="M176.876 8.39648H168.474" stroke="black" stroke-width="1.6" stroke-miterlimit="79.8403" stroke-linecap="round" stroke-linejoin="round"/>
<path d="M163.423 8.39648H136.479" stroke="black" stroke-width="1.6" stroke-miterlimit="79.8403" stroke-linecap="round" stroke-linejoin="round"/>
<path d="M131.429 8.39648H123.013" stroke="black" stroke-width="1.6" stroke-miterlimit="79.8403" stroke-linecap="round" stroke-linejoin="round"/>
<path d="M117.963 8.39648H109.547" stroke="black" stroke-width="1.6" stroke-miterlimit="79.8403" stroke-linecap="round" stroke-linejoin="round"/>
<path fill-rule="evenodd" clip-rule="evenodd" d="M104.496 3.3477V13.4459C104.496 14.8396 105.627 15.9707 107.021 15.9707H107.022C108.416 15.9707 109.547 14.8396 109.547 13.4459V3.3477C109.547 1.954 108.416 0.822877 107.022 0.822877H107.021C105.627 0.822877 104.496 1.954 104.496 3.3477Z" stroke="#BB0A30" stroke-width="1.6" stroke-miterlimit="79.8403"/>
<path fill-rule="evenodd" clip-rule="evenodd" d="M117.962 3.3477V13.4459C117.962 14.8396 119.093 15.9707 120.487 15.9707H120.488C121.882 15.9707 123.013 14.8396 123.013 13.4459V3.3477C123.013 1.954 121.882 0.822877 120.488 0.822877H120.487C119.093 0.822877 117.962 1.954 117.962 3.3477Z" stroke="#BB0A30" stroke-width="1.6" stroke-miterlimit="79.8403"/>
<path fill-rule="evenodd" clip-rule="evenodd" d="M131.428 3.3477V13.4459C131.428 14.8396 132.559 15.9707 133.953 15.9707H133.954C135.347 15.9707 136.479 14.8396 136.479 13.4459V3.3477C136.479 1.954 135.347 0.822877 133.954 0.822877H133.953C132.559 0.822877 131.428 1.954 131.428 3.3477Z" stroke="#BB0A30" stroke-width="1.6" stroke-miterlimit="79.8403"/>
<path fill-rule="evenodd" clip-rule="evenodd" d="M163.409 3.3477V13.4459C163.409 14.8396 164.54 15.9707 165.934 15.9707H165.935C167.329 15.9707 168.46 14.8396 168.46 13.4459V3.3477C168.46 1.954 167.329 0.822877 165.935 0.822877H165.934C164.54 0.822877 163.409 1.954 163.409 3.3477Z" stroke="#BB0A30" stroke-width="1.6" stroke-miterlimit="79.8403"/>
<path fill-rule="evenodd" clip-rule="evenodd" d="M176.875 3.3477V13.4459C176.875 14.8396 178.006 15.9707 179.4 15.9707H179.401C180.795 15.9707 181.926 14.8396 181.926 13.4459V3.3477C181.926 1.954 180.795 0.822877 179.401 0.822877H179.4C178.006 0.822877 176.875 1.954 176.875 3.3477Z" stroke="#BB0A30" stroke-width="1.6" stroke-miterlimit="79.8403"/>
<path fill-rule="evenodd" clip-rule="evenodd" d="M190.341 3.3477V13.4459C190.341 14.8396 191.472 15.9707 192.866 15.9707H192.867C194.26 15.9707 195.392 14.8396 195.392 13.4459V3.3477C195.392 1.954 194.26 0.822877 192.867 0.822877H192.866C191.472 0.822877 190.341 1.954 190.341 3.3477Z" stroke="#BB0A30" stroke-width="1.6" stroke-miterlimit="79.8403"/>
<path fill-rule="evenodd" clip-rule="evenodd" d="M133.111 26.0686C133.111 27.9258 134.62 29.4351 136.477 29.4351H163.412C165.269 29.4351 166.777 27.9269 166.777 26.0697C166.777 24.2126 165.269 22.7033 163.412 22.7033H136.477C134.62 22.7033 133.111 24.2115 133.111 26.0686Z" stroke="black" stroke-width="1.6" stroke-miterlimit="79.8403"/>
<path fill-rule="evenodd" clip-rule="evenodd" d="M114.596 45.4273C114.596 48.2147 116.858 50.478 119.645 50.478H119.646C122.434 50.478 124.696 48.2158 124.696 45.4284C124.696 42.641 122.434 40.3776 119.646 40.3776H119.645C116.858 40.3776 114.596 42.6398 114.596 45.4273Z" stroke="black" stroke-width="1.6" stroke-miterlimit="79.8403"/>
<path fill-rule="evenodd" clip-rule="evenodd" d="M129.745 45.4273C129.745 48.2147 132.007 50.478 134.795 50.478H134.796C137.583 50.478 139.846 48.2158 139.846 45.4284C139.846 42.641 137.583 40.3776 134.796 40.3776H134.795C132.007 40.3776 129.745 42.6398 129.745 45.4273Z" stroke="black" stroke-width="1.6" stroke-miterlimit="79.8403"/>
<path fill-rule="evenodd" clip-rule="evenodd" d="M144.894 45.4273C144.894 48.2147 147.156 50.478 149.943 50.478H149.944C152.732 50.478 154.994 48.2158 154.994 45.4284C154.994 42.641 152.732 40.3776 149.944 40.3776H149.943C147.156 40.3776 144.894 42.6398 144.894 45.4273Z" stroke="black" stroke-width="1.6" stroke-miterlimit="79.8403"/>
<path fill-rule="evenodd" clip-rule="evenodd" d="M160.043 45.4273C160.043 48.2147 162.305 50.478 165.093 50.478H165.094C167.881 50.478 170.143 48.2158 170.143 45.4284C170.143 42.641 167.881 40.3776 165.094 40.3776H165.093C162.305 40.3776 160.043 42.6398 160.043 45.4273Z" stroke="black" stroke-width="1.6" stroke-miterlimit="79.8403"/>
<path fill-rule="evenodd" clip-rule="evenodd" d="M175.191 45.4273C175.191 48.2147 177.454 50.478 180.241 50.478H180.242C183.03 50.478 185.292 48.2158 185.292 45.4284C185.292 42.641 183.03 40.3776 180.242 40.3776H180.241C177.454 40.3776 175.191 42.6398 175.191 45.4273Z" stroke="#BB0A30" stroke-width="1.6" stroke-miterlimit="79.8403"/>
<path fill-rule="evenodd" clip-rule="evenodd" d="M190.341 45.4273C190.341 48.2147 192.603 50.478 195.39 50.478H195.392C198.179 50.478 200.441 48.2158 200.441 45.4284C200.441 42.641 198.179 40.3776 195.392 40.3776H195.39C192.603 40.3776 190.341 42.6398 190.341 45.4273Z" stroke="#BB0A30" stroke-width="1.6" stroke-miterlimit="79.8403"/>
<path fill-rule="evenodd" clip-rule="evenodd" d="M99.4463 60.5762C99.4463 63.3636 101.709 65.627 104.496 65.627H104.497C107.284 65.627 109.547 63.3647 109.547 60.5773C109.547 57.7899 107.284 55.5265 104.497 55.5265H104.496C101.709 55.5265 99.4463 57.7888 99.4463 60.5762Z" stroke="black" stroke-width="1.6" stroke-miterlimit="79.8403"/>
<path fill-rule="evenodd" clip-rule="evenodd" d="M114.596 60.5762C114.596 63.3636 116.858 65.627 119.645 65.627H119.646C122.434 65.627 124.696 63.3647 124.696 60.5773C124.696 57.7899 122.434 55.5265 119.646 55.5265H119.645C116.858 55.5265 114.596 57.7888 114.596 60.5762Z" stroke="black" stroke-width="1.6" stroke-miterlimit="79.8403"/>
<path fill-rule="evenodd" clip-rule="evenodd" d="M129.745 60.5762C129.745 63.3636 132.007 65.627 134.795 65.627H134.796C137.583 65.627 139.846 63.3647 139.846 60.5773C139.846 57.7899 137.583 55.5265 134.796 55.5265H134.795C132.007 55.5265 129.745 57.7888 129.745 60.5762Z" stroke="black" stroke-width="1.6" stroke-miterlimit="79.8403"/>
<path fill-rule="evenodd" clip-rule="evenodd" d="M144.894 60.5762C144.894 63.3636 147.156 65.627 149.943 65.627H149.944C152.732 65.627 154.994 63.3647 154.994 60.5773C154.994 57.7899 152.732 55.5265 149.944 55.5265H149.943C147.156 55.5265 144.894 57.7888 144.894 60.5762Z" stroke="black" stroke-width="1.6" stroke-miterlimit="79.8403"/>
<path fill-rule="evenodd" clip-rule="evenodd" d="M160.043 60.5762C160.043 63.3636 162.305 65.627 165.093 65.627H165.094C167.881 65.627 170.143 63.3647 170.143 60.5773C170.143 57.7899 167.881 55.5265 165.094 55.5265H165.093C162.305 55.5265 160.043 57.7888 160.043 60.5762Z" stroke="black" stroke-width="1.6" stroke-miterlimit="79.8403"/>
<path fill-rule="evenodd" clip-rule="evenodd" d="M175.191 60.5762C175.191 63.3636 177.454 65.627 180.241 65.627H180.242C183.03 65.627 185.292 63.3647 185.292 60.5773C185.292 57.7899 183.03 55.5265 180.242 55.5265H180.241C177.454 55.5265 175.191 57.7888 175.191 60.5762Z" stroke="#BB0A30" stroke-width="1.6" stroke-miterlimit="79.8403"/>
<path fill-rule="evenodd" clip-rule="evenodd" d="M190.341 60.5762C190.341 63.3636 192.603 65.627 195.39 65.627H195.392C198.179 65.627 200.441 63.3647 200.441 60.5773C200.441 57.7899 198.179 55.5265 195.392 55.5265H195.39C192.603 55.5265 190.341 57.7888 190.341 60.5762Z" stroke="#BB0A30" stroke-width="1.6" stroke-miterlimit="79.8403"/>
<path fill-rule="evenodd" clip-rule="evenodd" d="M99.4463 75.7251C99.4463 78.5125 101.709 80.7759 104.496 80.7759H104.497C107.284 80.7759 109.547 78.5136 109.547 75.7262C109.547 72.9388 107.284 70.6755 104.497 70.6755H104.496C101.709 70.6755 99.4463 72.9377 99.4463 75.7251Z" stroke="black" stroke-width="1.6" stroke-miterlimit="79.8403"/>
<path fill-rule="evenodd" clip-rule="evenodd" d="M114.596 75.7251C114.596 78.5125 116.858 80.7759 119.645 80.7759H119.646C122.434 80.7759 124.696 78.5136 124.696 75.7262C124.696 72.9388 122.434 70.6755 119.646 70.6755H119.645C116.858 70.6755 114.596 72.9377 114.596 75.7251Z" stroke="black" stroke-width="1.6" stroke-miterlimit="79.8403"/>
<path fill-rule="evenodd" clip-rule="evenodd" d="M129.745 75.7251C129.745 78.5125 132.007 80.7759 134.795 80.7759H134.796C137.583 80.7759 139.846 78.5136 139.846 75.7262C139.846 72.9388 137.583 70.6755 134.796 70.6755H134.795C132.007 70.6755 129.745 72.9377 129.745 75.7251Z" stroke="black" stroke-width="1.6" stroke-miterlimit="79.8403"/>
<path fill-rule="evenodd" clip-rule="evenodd" d="M144.894 75.7251C144.894 78.5125 147.156 80.7759 149.943 80.7759H149.944C152.732 80.7759 154.994 78.5136 154.994 75.7262C154.994 72.9388 152.732 70.6755 149.944 70.6755H149.943C147.156 70.6755 144.894 72.9377 144.894 75.7251Z" stroke="black" stroke-width="1.6" stroke-miterlimit="79.8403"/>
<path d="M81.363 81.6622L75.8409 78.7312C75.7803 78.6998 75.7208 78.6695 75.6602 78.6392C72.9177 80.1406 69.9406 81.2358 66.8222 81.8597C66.7964 81.9181 66.7717 81.9764 66.7481 82.0359L62.9497 91.3901C60.3351 91.5326 57.6722 91.4193 54.9881 91.0299L52.0312 81.3851C52.011 81.3233 51.9919 81.2605 51.9706 81.1988C48.8814 80.2966 46.0188 78.941 43.4434 77.2197C43.384 77.2421 43.3245 77.2668 43.265 77.2915L33.9725 81.2167C31.9852 79.4337 30.183 77.4598 28.5918 75.3289L33.3194 66.4224C33.3509 66.3629 33.3812 66.3034 33.4115 66.244C31.91 63.5014 30.8148 60.5244 30.192 57.4071C30.1337 57.3813 30.0742 57.3566 30.0147 57.3319L20.6616 53.5345C20.5191 50.9211 20.6325 48.2571 21.0219 45.5718L30.6644 42.6138C30.7273 42.5948 30.7912 42.5746 30.8541 42.5532C31.7563 39.4662 33.1107 36.6047 34.831 34.0317C34.8074 33.9711 34.7827 33.9105 34.758 33.8488L30.8339 24.5596C32.617 22.5712 34.592 20.769 36.7229 19.179L45.6271 23.9032C45.6866 23.9357 45.7472 23.9671 45.8078 23.9974C48.5492 22.4971 51.5251 21.4019 54.6413 20.7791C54.6671 20.7197 54.6929 20.6591 54.7176 20.5985L58.515 11.2488C61.1296 11.1051 63.7924 11.2185 66.4766 11.6078L69.4346 21.2471C69.4536 21.3122 69.4738 21.3761 69.4952 21.439C72.5822 22.3412 75.4436 23.6956 78.0178 25.4158C78.0784 25.3923 78.139 25.3665 78.2007 25.3407L81.5908 23.9088" stroke="#BB0A30" stroke-width="1.6" stroke-miterlimit="79.8403" stroke-linecap="round" stroke-linejoin="round"/>
<path fill-rule="evenodd" clip-rule="evenodd" d="M60.7337 43.7436C64.9148 43.7436 68.3081 47.137 68.3081 51.3181C68.3081 55.4992 64.9148 58.8926 60.7337 58.8926C56.5525 58.8926 53.1592 55.4992 53.1592 51.3181C53.1592 47.137 56.5525 43.7436 60.7337 43.7436Z" stroke="#BB0A30" stroke-width="1.6" stroke-miterlimit="79.8403"/>
<path fill-rule="evenodd" clip-rule="evenodd" d="M60.734 31.9608C71.419 31.9608 80.091 40.6327 80.091 51.3178C80.091 62.0029 71.419 70.6748 60.734 70.6748C50.0489 70.6748 41.377 62.0029 41.377 51.3178C41.377 40.6327 50.0489 31.9608 60.734 31.9608Z" stroke="#BB0A30" stroke-width="1.6" stroke-miterlimit="79.8403"/>
<path fill-rule="evenodd" clip-rule="evenodd" d="M213.066 50.4764L207.174 63.1006C203.108 71.7388 200.471 80.422 200.441 89.1904L207.174 82.4576L214.749 69.8334C225.023 49.2847 235.161 28.8291 236.631 14.2872L234.106 13.4456C226.7 21.7349 219.777 35.0256 213.066 50.4764Z" fill="#F2F2F2"/>
<path d="M214.652 46.251C219.605 35.7029 225.153 23.4782 230.84 16.6545L236.071 19.094C234.499 27.8366 228.7 39.9446 223.805 50.5186" stroke="#BB0A30" stroke-width="1.6" stroke-miterlimit="79.8403" stroke-linecap="round" stroke-linejoin="round"/>
<path d="M212.163 51.5915C207.267 62.1655 202.123 74.5787 200.551 83.3213L204.473 85.1504C210.16 78.3266 216.362 66.4061 221.315 55.859" stroke="#BB0A30" stroke-width="1.6" stroke-miterlimit="79.8403" stroke-linecap="round" stroke-linejoin="round"/>
<path d="M212.163 51.5899L221.315 55.8574" stroke="#BB0A30" stroke-width="1.6" stroke-miterlimit="79.8403" stroke-linecap="round" stroke-linejoin="round"/>
<path d="M214.652 46.251L223.805 50.5186" stroke="#BB0A30" stroke-width="1.6" stroke-miterlimit="79.8403" stroke-linecap="round" stroke-linejoin="round"/>
<path d="M223.805 50.5179L220.959 56.6201" stroke="#BB0A30" stroke-width="1.6" stroke-miterlimit="79.8403" stroke-linecap="round" stroke-linejoin="round"/>
<path d="M214.652 46.2518L211.807 52.354" stroke="#BB0A30" stroke-width="1.6" stroke-miterlimit="79.8403" stroke-linecap="round" stroke-linejoin="round"/>
<path d="M230.841 16.6542L233.927 13.4505L236.541 14.6703L236.071 19.0938" stroke="#BB0A30" stroke-width="1.6" stroke-miterlimit="79.8403" stroke-linecap="round" stroke-linejoin="round"/>
<path d="M232.802 17.5703C227.729 25.4916 224.025 32.9774 220.113 41.3677" stroke="#BB0A30" stroke-width="1.6" stroke-miterlimit="79.8403" stroke-linecap="round" stroke-linejoin="round"/>
<path d="M200.551 83.3194L199.724 88.5048L201.031 89.1152L204.473 85.1485" stroke="#BB0A30" stroke-width="1.6" stroke-miterlimit="79.8403" stroke-linecap="round" stroke-linejoin="round"/>
<path d="M200.378 88.8111L199.311 91.0991" stroke="#BB0A30" stroke-width="1.6" stroke-miterlimit="79.8403" stroke-linecap="round" stroke-linejoin="round"/>
</g>
</svg>
