<svg width="300" height="100" viewBox="0 0 300 100" fill="none" xmlns="http://www.w3.org/2000/svg">
<mask id="mask0_195_7848" style="mask-type:alpha" maskUnits="userSpaceOnUse" x="0" y="0" width="300" height="100">
<rect width="300" height="100" fill="#D9D9D9"/>
</mask>
<g mask="url(#mask0_195_7848)">
<path d="M229.42 82.6302V85.9135C229.42 88.3759 230.241 89.1968 232.704 89.1968H243.374C245.581 88.5511 246.753 87.2334 246.658 85.0926V71.9594L244.195 68.6761C244.195 62.1094 241.733 58.8261 236.808 58.0053L203.975 50.6178L198.229 48.9762L171.141 36.6638C157.187 30.918 146.517 30.0971 135.846 30.0971C121.071 30.0971 111.433 31.1763 101.371 33.3805C92.1996 35.6153 83.3127 39.1263 73.4628 43.2304C66.0753 45.6929 62.9781 46.216 54.5837 47.3345C50.6908 48.0404 49.3326 50.1078 49.6588 53.0803V63.7511L47.1963 67.0344V73.601L49.6588 82.6302C49.8032 84.0299 50.5803 84.888 52.1213 85.0926L62.792 86.7343C64.9098 86.8306 66.7178 86.4333 66.8962 83.451V82.6302" stroke="black" stroke-width="1.6" stroke-miterlimit="79.8403" stroke-linecap="round" stroke-linejoin="round"/>
<path fill-rule="evenodd" clip-rule="evenodd" d="M209.721 67.0343C218.328 67.0343 225.316 74.0212 225.316 82.629C225.316 91.2367 218.328 98.2236 209.721 98.2236C201.113 98.2236 194.125 91.2367 194.125 82.629C194.125 74.0212 201.113 67.0343 209.721 67.0343Z" stroke="black" stroke-width="1.6" stroke-miterlimit="79.8403"/>
<path fill-rule="evenodd" clip-rule="evenodd" d="M209.72 74.3751C214.278 74.3751 217.977 78.0732 217.977 82.6304C217.977 87.1876 214.278 90.8857 209.72 90.8857C205.163 90.8857 201.464 87.1876 201.464 82.6304C201.464 78.0732 205.163 74.3751 209.72 74.3751Z" stroke="black" stroke-width="1.6" stroke-miterlimit="79.8403"/>
<path fill-rule="evenodd" clip-rule="evenodd" d="M86.5967 67.0343C95.2045 67.0343 102.192 74.0212 102.192 82.629C102.192 91.2367 95.2045 98.2236 86.5967 98.2236C77.989 98.2236 71.001 91.2367 71.001 82.629C71.001 74.0212 77.989 67.0343 86.5967 67.0343Z" stroke="black" stroke-width="1.6" stroke-miterlimit="79.8403"/>
<path fill-rule="evenodd" clip-rule="evenodd" d="M86.5963 74.3751C91.1535 74.3751 94.8527 78.0732 94.8527 82.6304C94.8527 87.1876 91.1535 90.8857 86.5963 90.8857C82.0391 90.8857 78.3398 87.1876 78.3398 82.6304C78.3398 78.0732 82.0391 74.3751 86.5963 74.3751Z" stroke="black" stroke-width="1.6" stroke-miterlimit="79.8403"/>
<path d="M240.912 67.855H237.628C236.769 67.4292 235.891 67.1337 235.286 64.9383L233.645 60.0954" stroke="#BB0A30" stroke-width="1.6" stroke-miterlimit="79.8403" stroke-linecap="round" stroke-linejoin="round"/>
<path d="M49.6592 63.751H56.2258" stroke="black" stroke-width="1.6" stroke-miterlimit="79.8403" stroke-linecap="round" stroke-linejoin="round"/>
<path d="M52.1211 52.259H57.0461C59.8621 52.4866 60.3294 54.6766 58.6877 57.184L56.2252 60.4673" stroke="#BB0A30" stroke-width="1.6" stroke-miterlimit="79.8403" stroke-linecap="round" stroke-linejoin="round"/>
<path d="M73.4629 50.6182L135.846 53.1025" stroke="black" stroke-width="1.6" stroke-miterlimit="79.8403" stroke-linecap="round" stroke-linejoin="round"/>
<path d="M135.026 49.7964L133.384 34.2006C123.456 34.2357 113.831 35.1824 104.655 37.484C102.51 38.3431 100.551 40.7673 99.73 44.8714L98.9092 48.9756" stroke="black" stroke-width="1.6" stroke-miterlimit="79.8403" stroke-linecap="round" stroke-linejoin="round"/>
<path d="M93.1624 48.1548L95.6249 39.9465C88.2375 42.409 83.3125 44.0506 83.3125 47.334" stroke="black" stroke-width="1.6" stroke-miterlimit="79.8403" stroke-linecap="round" stroke-linejoin="round"/>
<path d="M66.8965 82.6294C66.8965 71.7562 75.7231 62.9317 86.5964 62.9317C97.4696 62.9317 106.296 71.7562 106.296 82.6294" stroke="black" stroke-width="1.6" stroke-miterlimit="79.8403" stroke-linecap="round" stroke-linejoin="round"/>
<path d="M106.296 82.6297V85.0922C106.448 86.7109 107.727 87.3752 109.579 87.5547H186.737C188.379 87.5547 190.02 86.7339 190.02 84.2714V82.6297" stroke="black" stroke-width="1.6" stroke-miterlimit="79.8403" stroke-linecap="round" stroke-linejoin="round"/>
<path d="M190.021 82.6294C190.021 71.7562 198.847 62.9317 209.72 62.9317C220.594 62.9317 229.42 71.7562 229.42 82.6294" stroke="black" stroke-width="1.6" stroke-miterlimit="79.8403" stroke-linecap="round" stroke-linejoin="round"/>
<path d="M97.2666 53.9004V58.0045C97.3782 59.4481 97.9331 60.536 98.9083 61.2879C104.95 65.1841 109.978 70.8401 113.418 79.2454C114.504 80.9877 114.504 82.6294 116.966 82.6294H180.991C182.633 82.6294 184.274 81.8086 184.274 79.3461C184.274 71.1378 184.848 65.1458 182.633 55.5421L181.812 53.9004C178.097 55.2947 173.604 55.5421 173.604 50.6171C173.604 47.3338 174.265 46.0128 176.066 45.6921C177.708 45.6921 180.164 47.3349 182.633 49.7963" stroke="black" stroke-width="1.6" stroke-miterlimit="79.8403" stroke-linecap="round" stroke-linejoin="round"/>
<path d="M174.425 53.8999L135.846 53.0791" stroke="black" stroke-width="1.6" stroke-miterlimit="79.8403" stroke-linecap="round" stroke-linejoin="round"/>
<path d="M187.038 55.6366L212.69 58.0039" stroke="black" stroke-width="1.6" stroke-miterlimit="79.8403" stroke-linecap="round" stroke-linejoin="round"/>
<path d="M141.591 86.7329C141.591 72.7788 140.771 65.3914 139.129 53.8998" stroke="black" stroke-width="1.6" stroke-miterlimit="79.8403" stroke-linecap="round" stroke-linejoin="round"/>
<path d="M142.413 49.7964L139.95 34.2006C148.158 34.2006 158.829 35.8423 169.5 40.7673L172.783 42.4089C175.831 44.2301 173.915 46.1016 173.849 47.8417" stroke="black" stroke-width="1.6" stroke-miterlimit="79.8403" stroke-linecap="round" stroke-linejoin="round"/>
<path fill-rule="evenodd" clip-rule="evenodd" d="M85.7739 1.36881C101.632 1.36881 114.504 14.2394 114.504 30.0978C114.504 45.9551 101.632 58.8257 85.7739 58.8257C69.9166 58.8257 57.0449 45.9551 57.0449 30.0978C57.0449 14.2394 69.9166 1.36881 85.7739 1.36881Z" fill="white" stroke="#BB0A30" stroke-width="1.6" stroke-miterlimit="79.8403"/>
<path d="M85.7754 5.47134V30.0962H97.267" stroke="#BB0A30" stroke-width="1.6" stroke-miterlimit="79.8403" stroke-linecap="round" stroke-linejoin="round"/>
<path d="M105.476 30.0962H110.401" stroke="#BB0A30" stroke-width="1.6" stroke-miterlimit="79.8403" stroke-linecap="round" stroke-linejoin="round"/>
<path d="M61.1504 30.0962H66.0754" stroke="#BB0A30" stroke-width="1.6" stroke-miterlimit="79.8403" stroke-linecap="round" stroke-linejoin="round"/>
<path d="M85.7744 54.7222L85.7755 49.7972" stroke="#BB0A30" stroke-width="1.6" stroke-miterlimit="79.8403" stroke-linecap="round" stroke-linejoin="round"/>
<path d="M85.7744 10.3965V5.47151" stroke="#BB0A30" stroke-width="1.6" stroke-miterlimit="79.8403" stroke-linecap="round" stroke-linejoin="round"/>
<path d="M105.679 18.6055L107.101 17.7846" stroke="#BB0A30" stroke-width="1.6" stroke-miterlimit="79.8403" stroke-linecap="round" stroke-linejoin="round"/>
<path d="M64.4492 42.4092L65.872 41.5884" stroke="#BB0A30" stroke-width="1.6" stroke-miterlimit="79.8403" stroke-linecap="round" stroke-linejoin="round"/>
<path d="M98.0863 51.4219L97.2666 50.0002" stroke="#BB0A30" stroke-width="1.6" stroke-miterlimit="79.8403" stroke-linecap="round" stroke-linejoin="round"/>
<path d="M74.2838 10.1948L73.4619 8.77097" stroke="#BB0A30" stroke-width="1.6" stroke-miterlimit="79.8403" stroke-linecap="round" stroke-linejoin="round"/>
<path d="M97.2666 10.1909L98.0874 8.76925" stroke="#BB0A30" stroke-width="1.6" stroke-miterlimit="79.8403" stroke-linecap="round" stroke-linejoin="round"/>
<path d="M73.4619 51.4219L74.2838 49.9991" stroke="#BB0A30" stroke-width="1.6" stroke-miterlimit="79.8403" stroke-linecap="round" stroke-linejoin="round"/>
<path d="M107.099 42.4092L105.678 41.5873" stroke="#BB0A30" stroke-width="1.6" stroke-miterlimit="79.8403" stroke-linecap="round" stroke-linejoin="round"/>
<path d="M65.8677 18.6055L64.4482 17.7857" stroke="#BB0A30" stroke-width="1.6" stroke-miterlimit="79.8403" stroke-linecap="round" stroke-linejoin="round"/>
<path d="M44.7341 48.9766L38.9883 44.8724" stroke="#BB0A30" stroke-width="1.6" stroke-miterlimit="79.8403" stroke-linecap="round" stroke-linejoin="round"/>
<path d="M44.7341 63.7508L38.9883 67.855" stroke="#BB0A30" stroke-width="1.6" stroke-miterlimit="79.8403" stroke-linecap="round" stroke-linejoin="round"/>
<path d="M43.092 56.3638H36.5254" stroke="#BB0A30" stroke-width="1.6" stroke-miterlimit="79.8403" stroke-linecap="round" stroke-linejoin="round"/>
<path d="M238.531 53.2207L239.692 46.2557" stroke="#BB0A30" stroke-width="1.6" stroke-miterlimit="79.8403" stroke-linecap="round" stroke-linejoin="round"/>
<path d="M248.979 63.668L255.945 62.5068" stroke="#BB0A30" stroke-width="1.6" stroke-miterlimit="79.8403" stroke-linecap="round" stroke-linejoin="round"/>
<path d="M245.737 56.4614L250.381 51.8177" stroke="#BB0A30" stroke-width="1.6" stroke-miterlimit="79.8403" stroke-linecap="round" stroke-linejoin="round"/>
<path fill-rule="evenodd" clip-rule="evenodd" d="M132.913 92.6944L147.877 66.7792C149.115 64.633 151.128 64.633 152.367 66.7792L167.327 92.6944C168.567 94.8405 167.561 96.584 165.081 96.584H135.158C132.68 96.584 131.675 94.8405 132.913 92.6944ZM159.352 88.7785L151.423 75.2928C150.754 74.1557 149.669 74.1557 149 75.2928L141.07 88.7774C140.401 89.9145 140.929 90.8382 142.248 90.8382L158.173 90.8393C159.492 90.8393 160.021 89.9156 159.352 88.7785Z" fill="white" stroke="#BB0A30" stroke-width="1.6" stroke-miterlimit="79.8403"/>
</g>
</svg>
