<svg width="120" height="124" viewBox="0 0 120 124" fill="none" xmlns="http://www.w3.org/2000/svg">
<path d="M32.5371 54.563L33.4842 53.6066C41.8485 45.1487 53.0727 38.814 65.1668 37.1491" stroke="black" stroke-width="1.8" stroke-miterlimit="10" stroke-linecap="round" stroke-linejoin="round"/>
<path d="M11.8059 115.761C11.2845 104.501 11.233 92.8797 14.6892 82.2798C17.1047 74.8672 20.1797 67.7398 23.7691 60.9468L26.5915 55.6059C27.6321 53.637 29.898 53.0174 31.5933 54.238L39.3684 59.8431" stroke="black" stroke-width="1.8" stroke-miterlimit="10" stroke-linecap="round" stroke-linejoin="round"/>
<path d="M53.9587 48.4221L57.1997 52.0606L47.3809 77.4062" stroke="#BB0A30" stroke-width="1.8" stroke-miterlimit="10" stroke-linecap="round" stroke-linejoin="round"/>
<path d="M12.1826 114.06C12.1826 114.06 32.2623 39.2884 113.299 11.132" stroke="black" stroke-width="1.8" stroke-miterlimit="10" stroke-linecap="round" stroke-linejoin="round"/>
<path d="M10.6264 117.612C9.5554 116.284 9.63257 114.215 10.7994 113.01L109.484 11.16C111.944 8.62051 115.804 8.83564 118.063 11.6347C118.278 11.9013 118.264 12.2824 118.03 12.5256L15.9275 117.905C14.4075 119.474 12.0224 119.34 10.6264 117.612Z" fill="#BB0A30"/>
<path d="M49.0335 94.4529H109.738L93.589 118.026L91.2366 108.464H37.5264" stroke="black" stroke-width="1.8" stroke-miterlimit="10" stroke-linecap="round" stroke-linejoin="round"/>
<path d="M91.8438 93.3454V50.3754" stroke="black" stroke-width="1.8" stroke-miterlimit="10" stroke-linecap="round" stroke-linejoin="round"/>
<path d="M104.641 93.8889V39.0072" stroke="black" stroke-width="1.8" stroke-miterlimit="10" stroke-linecap="round" stroke-linejoin="round"/>
<path d="M55.7733 28.5732H2L18.1465 5L20.5012 14.5616H67.2805" stroke="black" stroke-width="1.8" stroke-miterlimit="10" stroke-linecap="round" stroke-linejoin="round"/>
<path d="M18.9541 29.4245V48.3887" stroke="black" stroke-width="1.8" stroke-miterlimit="10" stroke-linecap="round" stroke-linejoin="round"/>
<path d="M6.62109 30.6073V77.0872" stroke="black" stroke-width="1.8" stroke-miterlimit="10" stroke-linecap="round" stroke-linejoin="round"/>
</svg>
