<svg width="120" height="124" viewBox="0 0 120 124" fill="none" xmlns="http://www.w3.org/2000/svg">
<path d="M19.3262 103.217H101.256" stroke="#BB0A30" stroke-width="1.8" stroke-miterlimit="10" stroke-linecap="round" stroke-linejoin="round"/>
<path d="M41.0469 118.998L37.3691 113.427" stroke="black" stroke-width="1.8" stroke-miterlimit="10" stroke-linecap="round" stroke-linejoin="round"/>
<path d="M61.8392 118.998L58.1592 113.427" stroke="black" stroke-width="1.8" stroke-miterlimit="10" stroke-linecap="round" stroke-linejoin="round"/>
<path d="M82.6299 118.998L78.9521 113.427" stroke="black" stroke-width="1.8" stroke-miterlimit="10" stroke-linecap="round" stroke-linejoin="round"/>
<path d="M41.0469 87.422L37.3691 92.9935" stroke="black" stroke-width="1.8" stroke-miterlimit="10" stroke-linecap="round" stroke-linejoin="round"/>
<path d="M61.8392 87.4221L58.1592 92.9936" stroke="black" stroke-width="1.8" stroke-miterlimit="10" stroke-linecap="round" stroke-linejoin="round"/>
<path d="M82.6299 87.4222L78.9521 92.9936" stroke="black" stroke-width="1.8" stroke-miterlimit="10" stroke-linecap="round" stroke-linejoin="round"/>
<path d="M94.5967 119H25.4063C21.5942 119 18.5029 115.832 18.5029 111.926V94.4959C18.5029 90.5896 21.5942 87.422 25.4063 87.422H94.5967C98.4088 87.422 101.5 90.5896 101.5 94.4959V111.926C101.5 115.832 98.4088 119 94.5967 119Z" stroke="black" stroke-width="1.8" stroke-miterlimit="10" stroke-linecap="round" stroke-linejoin="round"/>
<path d="M30.3003 78.4683C22.7007 70.6811 18 59.9212 18 48.0373C18 24.2697 36.803 5 60 5C83.197 5 102 24.2697 102 48.0373C102 59.9189 97.2948 70.6811 89.6975 78.4706" stroke="black" stroke-width="1.8" stroke-miterlimit="10" stroke-linecap="round" stroke-linejoin="round"/>
<path d="M60.0014 70.9689C72.3628 70.9689 82.3836 60.7006 82.3836 48.0339C82.3836 35.3672 72.3628 25.0988 60.0014 25.0988C47.64 25.0988 37.6191 35.3672 37.6191 48.0339C37.6191 60.7006 47.64 70.9689 60.0014 70.9689Z" stroke="#BB0A30" stroke-width="1.8" stroke-miterlimit="10" stroke-linecap="round" stroke-linejoin="round"/>
<path d="M59.9998 62.4601C67.7758 62.4601 74.0796 56.0007 74.0796 48.0326C74.0796 40.0644 67.7758 33.605 59.9998 33.605C52.2237 33.605 45.9199 40.0644 45.9199 48.0326C45.9199 56.0007 52.2237 62.4601 59.9998 62.4601Z" stroke="black" stroke-width="1.8" stroke-miterlimit="10" stroke-linecap="round" stroke-linejoin="round"/>
<path d="M49.1309 6.46812L50.8321 12.98" stroke="black" stroke-width="1.8" stroke-miterlimit="10" stroke-linecap="round" stroke-linejoin="round"/>
<path d="M30.3008 17.6055L34.9523 22.3719" stroke="black" stroke-width="1.8" stroke-miterlimit="10" stroke-linecap="round" stroke-linejoin="round"/>
<path d="M19.4307 36.9L25.7834 38.6455" stroke="black" stroke-width="1.8" stroke-miterlimit="10" stroke-linecap="round" stroke-linejoin="round"/>
<path d="M19.4307 59.175L25.7834 57.4295" stroke="black" stroke-width="1.8" stroke-miterlimit="10" stroke-linecap="round" stroke-linejoin="round"/>
<path d="M30.3008 78.4647L34.9523 73.6983" stroke="black" stroke-width="1.8" stroke-miterlimit="10" stroke-linecap="round" stroke-linejoin="round"/>
<path d="M89.6984 78.4647L85.0469 73.6983" stroke="black" stroke-width="1.8" stroke-miterlimit="10" stroke-linecap="round" stroke-linejoin="round"/>
<path d="M100.571 59.175L94.2188 57.4295" stroke="black" stroke-width="1.8" stroke-miterlimit="10" stroke-linecap="round" stroke-linejoin="round"/>
<path d="M100.571 36.9L94.2188 38.6455" stroke="black" stroke-width="1.8" stroke-miterlimit="10" stroke-linecap="round" stroke-linejoin="round"/>
<path d="M89.6984 17.6055L85.0469 22.3719" stroke="black" stroke-width="1.8" stroke-miterlimit="10" stroke-linecap="round" stroke-linejoin="round"/>
<path d="M70.8682 6.46812L69.167 12.98" stroke="black" stroke-width="1.8" stroke-miterlimit="10" stroke-linecap="round" stroke-linejoin="round"/>
</svg>
