<svg width="320" height="104" viewBox="0 0 320 104" fill="none" xmlns="http://www.w3.org/2000/svg">
<path d="M300.545 80.8574L316.668 78.3815L316.664 75.4644C318.519 68.206 317.995 61.6868 316.054 55.5773L317.78 50.0928C318.553 48.0221 317.224 47.3055 314.66 47.3845C310.115 44.7405 305.569 42.3673 301.024 40.2559C302.501 39.4502 303.049 38.7573 303.034 38.0317C291.484 35.3414 280.741 33.8857 270.508 33.2075C251.637 31.9503 236.443 32.4615 226.772 35.6709C217.399 39.1082 208.336 43.4923 199.489 48.5355C191.747 49.2498 184.088 50.3851 176.522 51.9887C169.463 53.66 165.823 56.8039 163.513 59.405L164.343 61.9441L162.684 70.4077L165.173 78.8712L172.641 80.564L179.279 83.103" stroke="black" stroke-width="1.6998" stroke-miterlimit="79.8403" stroke-linecap="round" stroke-linejoin="round"/>
<path d="M314.567 47.3414L300.295 46.2412" stroke="black" stroke-width="1.6998" stroke-miterlimit="79.8403" stroke-linecap="round" stroke-linejoin="round"/>
<path d="M216.562 44.9604C226.028 39.8044 234.482 36.419 247.264 36.0737" stroke="black" stroke-width="1.6998" stroke-miterlimit="79.8403" stroke-linecap="round" stroke-linejoin="round"/>
<path d="M214.149 48.0842C214.602 46.6171 215.32 45.7166 216.427 45.0249C219.272 45.1016 221.791 45.8498 221.409 48.4227C221.297 49.5997 220.843 50.0669 220.29 50.4539C219.447 51.1051 217.933 51.1119 216.597 51.0047" stroke="black" stroke-width="1.6998" stroke-miterlimit="79.8403" stroke-linecap="round" stroke-linejoin="round"/>
<path d="M220.767 50.095L273.871 48.4023L294.615 44.1705" stroke="black" stroke-width="1.6998" stroke-miterlimit="79.8403" stroke-linecap="round" stroke-linejoin="round"/>
<path d="M250.637 48.4023L252.296 36.5533C260.54 36.0083 268.471 37.0194 276.359 38.2461" stroke="black" stroke-width="1.6998" stroke-miterlimit="79.8403" stroke-linecap="round" stroke-linejoin="round"/>
<path d="M236.532 55.1731H243.17" stroke="black" stroke-width="1.6998" stroke-miterlimit="79.8403" stroke-linecap="round" stroke-linejoin="round"/>
<path d="M275.53 52.6342H282.168" stroke="black" stroke-width="1.6998" stroke-miterlimit="79.8403" stroke-linecap="round" stroke-linejoin="round"/>
<path d="M203.341 78.0247C202.883 85.0355 196.94 90.34 190.066 89.8726C183.193 89.4053 177.992 83.3429 178.451 76.3321C178.909 69.3212 184.852 64.0167 191.726 64.4841C198.599 64.9515 203.799 71.0138 203.341 78.0247Z" stroke="black" stroke-width="1.6998" stroke-miterlimit="79.8403"/>
<path d="M163.762 65.0405L169.322 58.5585L180.939 55.1731" stroke="black" stroke-width="1.6998" stroke-miterlimit="79.8403" stroke-linecap="round" stroke-linejoin="round"/>
<path d="M175.96 60.2513C173.298 62.6989 171.086 65.5393 169.322 68.7148" stroke="black" stroke-width="1.6998" stroke-miterlimit="79.8403" stroke-linecap="round" stroke-linejoin="round"/>
<path d="M175.13 76.332C174.893 63.9098 181.768 58.5585 190.895 57.7122C202.512 57.7122 208.61 64.1276 209.15 75.4857" stroke="black" stroke-width="1.6998" stroke-miterlimit="79.8403" stroke-linecap="round" stroke-linejoin="round"/>
<path d="M203.341 81.4102H273.04" stroke="black" stroke-width="1.6998" stroke-miterlimit="79.8403" stroke-linecap="round" stroke-linejoin="round"/>
<path d="M207.491 76.332L255.617 73.793L272.212 76.332" stroke="black" stroke-width="1.6998" stroke-miterlimit="79.8403" stroke-linecap="round" stroke-linejoin="round"/>
<path d="M269.724 75.4858C270.553 66.1759 276.362 57.7123 287.149 57.7123C297.106 57.7123 302.53 62.7848 304.573 72.1004" stroke="black" stroke-width="1.6998" stroke-miterlimit="79.8403" stroke-linecap="round" stroke-linejoin="round"/>
<path d="M317.019 50.9414H301.254L307.892 56.0195L316.19 54.3268" stroke="black" stroke-width="1.6998" stroke-miterlimit="79.8403" stroke-linecap="round" stroke-linejoin="round"/>
<path d="M300.422 78.0247C299.964 85.0355 294.021 90.34 287.147 89.8726C280.274 89.4053 275.073 83.3429 275.532 76.3321C275.99 69.3212 281.933 64.0167 288.807 64.4841C295.68 64.9515 300.88 71.0138 300.422 78.0247Z" stroke="black" stroke-width="1.6998" stroke-miterlimit="79.8403"/>
<path d="M197.234 77.6094C197.001 81.1801 193.974 83.8818 190.473 83.6437C186.972 83.4057 184.324 80.3181 184.557 76.7473C184.79 73.1766 187.817 70.475 191.318 70.713C194.819 70.9511 197.467 74.0387 197.234 77.6094Z" stroke="black" stroke-width="1.6998" stroke-miterlimit="79.8403"/>
<path d="M294.316 77.6094C294.083 81.1801 291.056 83.8818 287.555 83.6437C284.054 83.4057 281.406 80.3181 281.639 76.7473C281.872 73.1766 284.899 70.475 288.4 70.713C291.901 70.9511 294.549 74.0387 294.316 77.6094Z" stroke="black" stroke-width="1.6998" stroke-miterlimit="79.8403"/>
<path d="M8.51367 51.7179L20.7963 50.0952C38.2212 42.4779 53.1568 39.0925 73.071 39.0925C88.0066 39.0925 100.166 43.0309 113.043 51.2586C116.167 53.0337 118.317 53.9805 122.207 54.5628C136.133 55.9452 149.577 57.3931 156.901 65.3545C157.764 66.5089 158.385 67.9488 158.473 70.0049L158.286 78.9549C158.12 80.5799 156.675 81.4432 155.266 81.7648C152.214 82.5502 148.579 83.1031 144.727 82.9993" stroke="#BB0A30" stroke-width="1.6998" stroke-miterlimit="79.8403" stroke-linecap="round" stroke-linejoin="round"/>
<path d="M134.528 89.7647C128.171 90.2632 122.622 85.4113 122.133 78.9275C121.645 72.4438 126.401 66.7835 132.758 66.2849C139.115 65.7864 144.664 70.6383 145.153 77.1221C145.641 83.6058 140.885 89.2661 134.528 89.7647Z" stroke="black" stroke-width="1.6998" stroke-miterlimit="79.8403"/>
<path d="M157.706 72.9467H151.068L154.387 78.8712" stroke="#BB0A30" stroke-width="1.6998" stroke-miterlimit="79.8403" stroke-linecap="round" stroke-linejoin="round"/>
<path d="M155.218 67.0222H148.579C148.657 64.4346 146.492 62.4474 141.941 61.0977" stroke="#BB0A30" stroke-width="1.6998" stroke-miterlimit="79.8403" stroke-linecap="round" stroke-linejoin="round"/>
<path d="M122.857 83.103H49.0088" stroke="#BB0A30" stroke-width="1.6998" stroke-miterlimit="79.8403" stroke-linecap="round" stroke-linejoin="round"/>
<path d="M26.6051 81.4104L10.0099 78.8713C6.38001 78.0882 2.58194 78.0904 2 73.9173L2.16595 69.0085C2.60849 65.4899 3.87967 61.3393 6.0658 54.705C6.54153 53.3824 7.33036 52.4424 8.35041 51.7879" stroke="#BB0A30" stroke-width="1.6998" stroke-miterlimit="79.8403" stroke-linecap="round" stroke-linejoin="round"/>
<path d="M9.18149 54.3268H19.9683C22.4576 54.3268 22.4576 56.0195 19.9683 57.7123L14.16 61.0977L10.841 62.7904L5.41992 62.3391" stroke="#BB0A30" stroke-width="1.6998" stroke-miterlimit="79.8403" stroke-linecap="round" stroke-linejoin="round"/>
<path d="M46.5186 58.5587H53.1566" stroke="#BB0A30" stroke-width="1.6998" stroke-miterlimit="79.8403" stroke-linecap="round" stroke-linejoin="round"/>
<path d="M81.3682 60.2513H88.0062" stroke="#BB0A30" stroke-width="1.6998" stroke-miterlimit="79.8403" stroke-linecap="round" stroke-linejoin="round"/>
<path d="M107.091 50.9415C105.918 51.2902 105.383 52.5281 105.383 53.766C105.383 55.7646 106.609 56.866 107.921 56.866H111.24" stroke="#BB0A30" stroke-width="1.6998" stroke-miterlimit="79.8403" stroke-linecap="round" stroke-linejoin="round"/>
<path d="M106.262 50.9414C96.8535 46.2052 87.0016 43.05 76.3906 42.4778" stroke="#BB0A30" stroke-width="1.6998" stroke-miterlimit="79.8403" stroke-linecap="round" stroke-linejoin="round"/>
<path d="M106.001 56.0083L44.8594 52.6342" stroke="#BB0A30" stroke-width="1.6998" stroke-miterlimit="79.8403" stroke-linecap="round" stroke-linejoin="round"/>
<path d="M73.0711 54.327L71.4116 42.478C62.3053 42.9046 56.4759 43.3244 49.8379 45.0171" stroke="#BB0A30" stroke-width="1.6998" stroke-miterlimit="79.8403" stroke-linecap="round" stroke-linejoin="round"/>
<path d="M134.173 85.0368C130.376 85.3347 127.061 82.4369 126.769 78.5643C126.477 74.6917 129.318 71.3108 133.115 71.0129C136.911 70.715 140.226 73.6129 140.518 77.4855C140.81 81.3581 137.969 84.7389 134.173 85.0368Z" stroke="#BB0A30" stroke-width="1.6998" stroke-miterlimit="79.8403"/>
<path d="M39.1071 89.7647C32.7505 90.2632 27.2013 85.4113 26.7125 78.9275C26.2237 72.4438 30.9805 66.7835 37.3371 66.2849C43.6937 65.7864 49.2429 70.6383 49.7317 77.1221C50.2205 83.6058 45.4637 89.2661 39.1071 89.7647Z" stroke="black" stroke-width="1.6998" stroke-miterlimit="79.8403"/>
<path d="M38.7497 85.0368C34.953 85.3347 31.6385 82.4369 31.3464 78.5643C31.0543 74.6917 33.8954 71.3108 37.692 71.0129C41.4886 70.715 44.8032 73.6129 45.0952 77.4855C45.3873 81.3581 42.5463 84.7389 38.7497 85.0368Z" stroke="black" stroke-width="1.6998" stroke-miterlimit="79.8403"/>
<path fill-rule="evenodd" clip-rule="evenodd" d="M118.991 86.1014L160.081 13.5122C163.485 7.49627 169.01 7.49627 172.414 13.5122L213.504 86.1014C216.908 92.1173 214.143 97.0002 207.333 97.0002H125.162C118.352 97.0002 115.587 92.1173 118.991 86.1014ZM195.131 80.9725L168.152 33.3079C167.102 31.4504 165.393 31.4504 164.344 33.3079L137.364 80.9725C136.313 82.83 137.167 84.3376 139.269 84.3376H193.226C195.328 84.3376 196.182 82.83 195.131 80.9725Z" fill="white" stroke="white" stroke-width="6.79921" stroke-miterlimit="79.8403"/>
<path fill-rule="evenodd" clip-rule="evenodd" d="M125.162 97.0002H207.332C214.143 97.0002 216.908 92.1173 213.502 86.1014L172.415 13.5122C169.011 7.49627 163.483 7.49627 160.079 13.5122L118.992 86.1014C115.587 92.1173 118.351 97.0002 125.162 97.0002Z" stroke="#BB0A30" stroke-width="1.6998" stroke-miterlimit="79.8403"/>
<path fill-rule="evenodd" clip-rule="evenodd" d="M139.269 84.3375H193.225C195.329 84.3375 196.182 82.8288 195.131 80.9724L168.151 33.3078C167.101 31.4504 165.393 31.4504 164.343 33.3078L137.364 80.9724C136.313 82.8288 137.166 84.3375 139.269 84.3375Z" stroke="#BB0A30" stroke-width="1.6998" stroke-miterlimit="79.8403"/>
<path d="M166.201 31.4618V9.26578" stroke="#BB0A30" stroke-width="1.6998" stroke-miterlimit="79.8403" stroke-linecap="round" stroke-linejoin="round"/>
<path d="M195.406 83.3863L213.592 94.0967" stroke="#BB0A30" stroke-width="1.6998" stroke-miterlimit="79.8403" stroke-linecap="round" stroke-linejoin="round"/>
<path d="M137.024 83.3863L118.838 94.0967" stroke="#BB0A30" stroke-width="1.6998" stroke-miterlimit="79.8403" stroke-linecap="round" stroke-linejoin="round"/>
</svg>
