<svg width="320" height="104" viewBox="0 0 320 104" fill="none" xmlns="http://www.w3.org/2000/svg">
<g clip-path="url(#clip0_468_3673)">
<path d="M38.1631 35.6273L58.0525 33.0454C86.2695 20.929 110.455 15.5431 142.704 15.5431C166.89 15.5431 186.58 21.8076 207.433 34.8965C212.492 37.7202 215.973 39.2256 222.273 40.1522C244.822 42.3512 266.593 44.6552 278.454 57.3197C279.852 59.1555 280.857 61.4464 280.999 64.7165L280.697 78.9531C280.429 81.5382 278.088 82.9113 275.806 83.4233C270.866 84.6737 264.977 85.5522 258.739 85.3881" stroke="#BB0A30" stroke-width="1.6998" stroke-miterlimit="79.8403" stroke-linecap="round" stroke-linejoin="round"/>
<path d="M242.225 96.1519C231.931 96.9452 222.944 89.2264 222.152 78.9115C221.36 68.5966 229.063 59.5916 239.357 58.7983C249.651 58.005 258.638 65.7238 259.43 76.0387C260.221 86.3537 252.518 95.3586 242.225 96.1519Z" stroke="#BB0A30" stroke-width="1.6998" stroke-miterlimit="79.8403"/>
<path d="M279.757 69.3966H269.009L274.382 78.8206" stroke="#BB0A30" stroke-width="1.6998" stroke-miterlimit="79.8403" stroke-linecap="round" stroke-linejoin="round"/>
<path d="M275.727 59.9728H264.977C265.103 55.8559 261.596 52.6953 254.229 50.5488" stroke="#BB0A30" stroke-width="1.6998" stroke-miterlimit="79.8403" stroke-linecap="round" stroke-linejoin="round"/>
<path d="M223.324 85.5522H103.736" stroke="#BB0A30" stroke-width="1.6998" stroke-miterlimit="79.8403" stroke-linecap="round" stroke-linejoin="round"/>
<path d="M67.4587 82.8597L40.5846 78.8206C34.7071 77.5756 28.5556 77.5789 27.6133 70.9403L27.8818 63.1322C28.5992 57.5352 30.6574 50.9316 34.1972 40.3786C34.967 38.2748 36.2455 36.7792 37.8975 35.7388" stroke="#BB0A30" stroke-width="1.6998" stroke-miterlimit="79.8403" stroke-linecap="round" stroke-linejoin="round"/>
<path d="M39.2408 39.7769H56.7084C60.7396 39.7769 60.7396 42.4693 56.7084 45.1628L47.3031 50.5487L41.9279 53.2411L33.1504 52.5234" stroke="#BB0A30" stroke-width="1.6998" stroke-miterlimit="79.8403" stroke-linecap="round" stroke-linejoin="round"/>
<path d="M99.7061 46.5084H110.455" stroke="#BB0A30" stroke-width="1.6998" stroke-miterlimit="79.8403" stroke-linecap="round" stroke-linejoin="round"/>
<path d="M156.141 49.2009H166.889" stroke="#BB0A30" stroke-width="1.6998" stroke-miterlimit="79.8403" stroke-linecap="round" stroke-linejoin="round"/>
<path d="M197.793 34.3911C195.894 34.9458 195.027 36.9161 195.027 38.8854C195.027 42.0635 197.012 43.8162 199.137 43.8162H204.512" stroke="#BB0A30" stroke-width="1.6998" stroke-miterlimit="79.8403" stroke-linecap="round" stroke-linejoin="round"/>
<path d="M196.449 34.3911C181.213 26.8576 165.259 21.8382 148.076 20.9291" stroke="#BB0A30" stroke-width="1.6998" stroke-miterlimit="79.8403" stroke-linecap="round" stroke-linejoin="round"/>
<path d="M196.028 42.4508L97.0166 37.0846" stroke="#BB0A30" stroke-width="1.6998" stroke-miterlimit="79.8403" stroke-linecap="round" stroke-linejoin="round"/>
<path d="M142.703 39.7771L140.015 20.9292C125.27 21.6075 115.83 22.2748 105.081 24.9672" stroke="#BB0A30" stroke-width="1.6998" stroke-miterlimit="79.8403" stroke-linecap="round" stroke-linejoin="round"/>
<path d="M241.647 88.6307C235.499 89.1044 230.131 84.4938 229.658 78.3327C229.186 72.1716 233.787 66.793 239.935 66.3193C246.083 65.8456 251.451 70.4561 251.923 76.6173C252.396 82.7784 247.795 88.157 241.647 88.6307Z" stroke="#BB0A30" stroke-width="1.6998" stroke-miterlimit="79.8403"/>
<path d="M87.7021 96.1519C77.4082 96.9452 68.4215 89.2264 67.6297 78.9115C66.8379 68.5966 74.541 59.5916 84.8349 58.7983C95.1288 58.005 104.115 65.7238 104.907 76.0387C105.699 86.3537 97.996 95.3586 87.7021 96.1519Z" stroke="#BB0A30" stroke-width="1.6998" stroke-miterlimit="79.8403"/>
<path d="M87.1254 88.6308C80.9765 89.1045 75.6085 84.494 75.1357 78.3328C74.6629 72.1717 79.2643 66.7931 85.4132 66.3193C91.5622 65.8456 96.9302 70.4561 97.403 76.6173C97.8758 82.7784 93.2744 88.157 87.1254 88.6308Z" stroke="#BB0A30" stroke-width="1.6998" stroke-miterlimit="79.8403"/>
<path fill-rule="evenodd" clip-rule="evenodd" d="M117.001 9.537V94.4632C117.001 97.5189 119.477 100 122.527 100H186.815C189.864 100 192.341 97.5189 192.341 94.4632V9.537C192.341 6.48138 189.864 4.00012 186.815 4.00012H122.527C119.477 4.00012 117.001 6.48138 117.001 9.537Z" fill="white" stroke="white" stroke-width="6.79921" stroke-miterlimit="79.8403"/>
<path d="M137.765 43.5275H129.763C129.21 43.5275 128.763 43.0788 128.763 42.5254V34.5072C128.763 33.9537 129.21 33.5051 129.763 33.5051H137.765C138.317 33.5051 138.765 33.9537 138.765 34.5072V42.5254C138.765 43.0788 138.317 43.5275 137.765 43.5275Z" fill="white" stroke="white" stroke-width="6.79921" stroke-miterlimit="79.8403"/>
<path d="M137.765 59.9377H129.763C129.21 59.9377 128.763 59.4891 128.763 58.9356V50.9175C128.763 50.364 129.21 49.9154 129.763 49.9154H137.765C138.317 49.9154 138.765 50.364 138.765 50.9175V58.9356C138.765 59.4891 138.317 59.9377 137.765 59.9377Z" fill="white" stroke="white" stroke-width="6.79921" stroke-miterlimit="79.8403"/>
<path d="M137.765 76.3481H129.763C129.21 76.3481 128.763 75.8995 128.763 75.346V67.3279C128.763 66.7744 129.21 66.3258 129.763 66.3258H137.765C138.317 66.3258 138.765 66.7744 138.765 67.3279V75.346C138.765 75.8995 138.317 76.3481 137.765 76.3481Z" fill="white" stroke="white" stroke-width="6.79921" stroke-miterlimit="79.8403"/>
<path d="M144.775 35.7643H175.707" stroke="white" stroke-width="6.79921" stroke-miterlimit="79.8403" stroke-linecap="round" stroke-linejoin="round"/>
<path d="M144.775 40.6874H164.141" stroke="white" stroke-width="6.79921" stroke-miterlimit="79.8403" stroke-linecap="round" stroke-linejoin="round"/>
<path d="M144.775 52.1747H175.707" stroke="white" stroke-width="6.79921" stroke-miterlimit="79.8403" stroke-linecap="round" stroke-linejoin="round"/>
<path d="M144.775 57.0978H164.141" stroke="white" stroke-width="6.79921" stroke-miterlimit="79.8403" stroke-linecap="round" stroke-linejoin="round"/>
<path d="M144.775 68.5851H175.707" stroke="white" stroke-width="6.79921" stroke-miterlimit="79.8403" stroke-linecap="round" stroke-linejoin="round"/>
<path d="M144.775 73.5082H164.141" stroke="white" stroke-width="6.79921" stroke-miterlimit="79.8403" stroke-linecap="round" stroke-linejoin="round"/>
<path d="M139.33 9.14085V14.8845C139.33 16.4533 140.363 17.3461 141.787 17.3461H167.992C169.415 17.3461 170.448 16.4533 170.448 14.8845V9.14085" stroke="white" stroke-width="6.79921" stroke-miterlimit="79.8403" stroke-linecap="round" stroke-linejoin="round"/>
<path fill-rule="evenodd" clip-rule="evenodd" d="M192.66 53.6439L182.349 75.798L181.395 85.0425C181.281 86.3324 182.349 87.0293 183.466 86.0107L189.921 79.335L200.231 57.182C204.723 48.3324 211.89 29.0479 209.441 28.2547L208.854 27.9812C205.952 26.2734 197.736 42.7364 192.66 53.6439Z" fill="white" stroke="white" stroke-width="6.79921" stroke-miterlimit="79.8403"/>
<path d="M189.791 78.4751L183.111 75.3549" stroke="white" stroke-width="6.79921" stroke-miterlimit="79.8403" stroke-linecap="round" stroke-linejoin="round"/>
<path d="M193.148 53.7882L199.827 56.9094" stroke="white" stroke-width="6.79921" stroke-miterlimit="79.8403" stroke-linecap="round" stroke-linejoin="round"/>
<path d="M204.894 31.1813L212.041 34.5498C211.499 39.8777 208.012 48.816 203.192 59.3876" stroke="white" stroke-width="6.79921" stroke-miterlimit="79.8403" stroke-linecap="round" stroke-linejoin="round"/>
<path d="M242.102 41.9619C242.102 47.1732 237.886 51.3979 232.685 51.3979C227.484 51.3979 223.268 47.1732 223.268 41.9619C223.268 36.7505 227.484 32.5259 232.685 32.5259C237.886 32.5259 242.102 36.7505 242.102 41.9619Z" fill="white" stroke="black" stroke-width="1.6998" stroke-miterlimit="79.8403"/>
<path d="M39.8347 51.8081C39.8347 57.0194 35.6184 61.2441 30.4173 61.2441C25.2163 61.2441 21 57.0194 21 51.8081C21 46.5967 25.2163 42.3721 30.4173 42.3721C35.6184 42.3721 39.8347 46.5967 39.8347 51.8081Z" fill="white" stroke="black" stroke-width="1.6998" stroke-miterlimit="79.8403"/>
<path d="M88.9882 24.7311C88.9882 29.9533 84.7631 34.1868 79.5512 34.1868C74.3393 34.1868 70.1143 29.9533 70.1143 24.7311C70.1143 19.5088 74.3393 15.2754 79.5512 15.2754C84.7631 15.2754 88.9882 19.5088 88.9882 24.7311Z" fill="white" stroke="black" stroke-width="1.6998" stroke-miterlimit="79.8403"/>
<path d="M229.082 41.3054L232.03 44.2593L236.125 40.1567" stroke="black" stroke-width="1.6998" stroke-miterlimit="79.8403" stroke-linecap="round" stroke-linejoin="round"/>
<path d="M76.2764 24.2385L79.2244 27.1924L83.3189 23.0898" stroke="black" stroke-width="1.6998" stroke-miterlimit="79.8403" stroke-linecap="round" stroke-linejoin="round"/>
<path d="M26.6514 51.0697L29.5994 54.0236L33.6939 49.921" stroke="black" stroke-width="1.6998" stroke-miterlimit="79.8403" stroke-linecap="round" stroke-linejoin="round"/>
<path fill-rule="evenodd" clip-rule="evenodd" d="M117.001 9.537V94.4632C117.001 97.5189 119.477 100 122.527 100H186.815C189.864 100 192.341 97.5189 192.341 94.4632V9.537C192.341 6.48138 189.864 4.00012 186.815 4.00012H122.527C119.477 4.00012 117.001 6.48138 117.001 9.537Z" fill="white" stroke="#BB0A30" stroke-width="1.6998" stroke-miterlimit="79.8403"/>
<path d="M137.765 43.5275H129.763C129.21 43.5275 128.763 43.0788 128.763 42.5254V34.5072C128.763 33.9537 129.21 33.5051 129.763 33.5051H137.765C138.317 33.5051 138.765 33.9537 138.765 34.5072V42.5254C138.765 43.0788 138.317 43.5275 137.765 43.5275Z" fill="white" stroke="#BB0A30" stroke-width="1.6998" stroke-miterlimit="79.8403"/>
<path d="M137.765 59.9377H129.763C129.21 59.9377 128.763 59.4891 128.763 58.9356V50.9175C128.763 50.364 129.21 49.9154 129.763 49.9154H137.765C138.317 49.9154 138.765 50.364 138.765 50.9175V58.9356C138.765 59.4891 138.317 59.9377 137.765 59.9377Z" fill="white" stroke="#BB0A30" stroke-width="1.6998" stroke-miterlimit="79.8403"/>
<path d="M137.765 76.3481H129.763C129.21 76.3481 128.763 75.8995 128.763 75.346V67.3279C128.763 66.7744 129.21 66.3258 129.763 66.3258H137.765C138.317 66.3258 138.765 66.7744 138.765 67.3279V75.346C138.765 75.8995 138.317 76.3481 137.765 76.3481Z" fill="white" stroke="#BB0A30" stroke-width="1.6998" stroke-miterlimit="79.8403"/>
<path d="M144.775 35.7643H175.707" stroke="#BB0A30" stroke-width="1.6998" stroke-miterlimit="79.8403" stroke-linecap="round" stroke-linejoin="round"/>
<path d="M144.775 40.6874H164.141" stroke="#BB0A30" stroke-width="1.6998" stroke-miterlimit="79.8403" stroke-linecap="round" stroke-linejoin="round"/>
<path d="M144.775 52.1747H175.707" stroke="#BB0A30" stroke-width="1.6998" stroke-miterlimit="79.8403" stroke-linecap="round" stroke-linejoin="round"/>
<path d="M144.775 57.0978H164.141" stroke="#BB0A30" stroke-width="1.6998" stroke-miterlimit="79.8403" stroke-linecap="round" stroke-linejoin="round"/>
<path d="M144.775 68.5851H175.707" stroke="#BB0A30" stroke-width="1.6998" stroke-miterlimit="79.8403" stroke-linecap="round" stroke-linejoin="round"/>
<path d="M144.775 73.5082H164.141" stroke="#BB0A30" stroke-width="1.6998" stroke-miterlimit="79.8403" stroke-linecap="round" stroke-linejoin="round"/>
<path d="M141.787 9.14085V14.8845C141.787 16.4533 142.82 17.3461 144.244 17.3461H165.535C166.959 17.3461 167.992 16.4533 167.992 14.8845V9.14085" stroke="#BB0A30" stroke-width="1.6998" stroke-miterlimit="79.8403" stroke-linecap="round" stroke-linejoin="round"/>
<path fill-rule="evenodd" clip-rule="evenodd" d="M192.66 53.6439L182.349 75.798L181.395 85.0425C181.281 86.3324 182.349 87.0293 183.466 86.0107L189.921 79.335L200.231 57.182C204.723 48.3324 211.89 29.0479 209.441 28.2547L208.854 27.9812C205.952 26.2734 197.736 42.7364 192.66 53.6439Z" fill="white" stroke="black" stroke-width="1.6998" stroke-miterlimit="79.8403"/>
<path d="M189.791 78.4751L183.111 75.3549" stroke="black" stroke-width="1.6998" stroke-miterlimit="79.8403" stroke-linecap="round" stroke-linejoin="round"/>
<path d="M193.148 53.7882L199.827 56.9094" stroke="black" stroke-width="1.6998" stroke-miterlimit="79.8403" stroke-linecap="round" stroke-linejoin="round"/>
<path d="M204.894 31.1813L212.041 34.5498C211.499 39.8777 208.012 48.816 203.192 59.3876" stroke="black" stroke-width="1.6998" stroke-miterlimit="79.8403" stroke-linecap="round" stroke-linejoin="round"/>
<path d="M131.101 38.0857L133.363 40.3525L136.505 37.2039" stroke="#BB0A30" stroke-width="1.6998" stroke-miterlimit="79.8403" stroke-linecap="round" stroke-linejoin="round"/>
</g>
<defs>
<clipPath id="clip0_468_3673">
<rect width="320" height="104" fill="white"/>
</clipPath>
</defs>
</svg>
