<svg width="320" height="104" viewBox="0 0 320 104" fill="none" xmlns="http://www.w3.org/2000/svg">
<g clip-path="url(#clip0_468_3600)">
<path d="M148.522 46.0745H140.892V43.5148L162.935 22.184" stroke="#BB0A30" stroke-width="1.6998" stroke-miterlimit="79.8403" stroke-linecap="round" stroke-linejoin="round"/>
<path d="M177.348 46.0745H184.978V43.5148L162.935 22.184" stroke="#BB0A30" stroke-width="1.6998" stroke-miterlimit="79.8403" stroke-linecap="round" stroke-linejoin="round"/>
<path fill-rule="evenodd" clip-rule="evenodd" d="M154.457 58.8729V43.5148H171.414V58.8729H154.457Z" stroke="#BB0A30" stroke-width="1.6998" stroke-miterlimit="79.8403" stroke-linecap="round" stroke-linejoin="round"/>
<path d="M147.674 36.6891H95.9561L110.369 52.9005H144.282" stroke="#BB0A30" stroke-width="1.6998" stroke-miterlimit="79.8403" stroke-linecap="round" stroke-linejoin="round"/>
<path d="M36.6084 59.7263L67.978 26.4504" stroke="#BB0A30" stroke-width="1.6998" stroke-miterlimit="79.8403" stroke-linecap="round" stroke-linejoin="round"/>
<path d="M112.912 56.3134L116.304 59.7263H99.3471L67.9775 26.4504" stroke="#BB0A30" stroke-width="1.6998" stroke-miterlimit="79.8403" stroke-linecap="round" stroke-linejoin="round"/>
<path d="M67.9775 26.4503H106.13L117.152 36.6891" stroke="#BB0A30" stroke-width="1.6998" stroke-miterlimit="79.8403" stroke-linecap="round" stroke-linejoin="round"/>
<path d="M74.7609 49.4875C74.7609 53.7286 71.3446 57.1666 67.1304 57.1666C62.9163 57.1666 59.5 53.7286 59.5 49.4875C59.5 45.2465 62.9163 41.8085 67.1304 41.8085C71.3446 41.8085 74.7609 45.2465 74.7609 49.4875Z" stroke="#BB0A30" stroke-width="1.6998" stroke-miterlimit="79.8403" stroke-linecap="round" stroke-linejoin="round"/>
<path d="M67.1299 44.3681V53.7537" stroke="#BB0A30" stroke-width="1.6998" stroke-miterlimit="79.8403" stroke-linecap="round" stroke-linejoin="round"/>
<path d="M62.043 49.4874H72.2169" stroke="#BB0A30" stroke-width="1.6998" stroke-miterlimit="79.8403" stroke-linecap="round" stroke-linejoin="round"/>
<path d="M36.6084 59.7263H54.4128" stroke="#BB0A30" stroke-width="1.6998" stroke-miterlimit="79.8403" stroke-linecap="round" stroke-linejoin="round"/>
<path d="M42.5439 59.7262V95.5619" stroke="#BB0A30" stroke-width="1.6998" stroke-miterlimit="79.8403" stroke-linecap="round" stroke-linejoin="round"/>
<path fill-rule="evenodd" clip-rule="evenodd" d="M56.1084 68.2586H78.9997V88.7361H56.1084V68.2586Z" stroke="#BB0A30" stroke-width="1.6998" stroke-miterlimit="79.8403" stroke-linecap="round" stroke-linejoin="round"/>
<path d="M71.3701 68.2586V88.7361" stroke="#BB0A30" stroke-width="1.6998" stroke-miterlimit="79.8403" stroke-linecap="round" stroke-linejoin="round"/>
<path d="M63.7383 68.2586V88.7361" stroke="#BB0A30" stroke-width="1.6998" stroke-miterlimit="79.8403" stroke-linecap="round" stroke-linejoin="round"/>
<path d="M56.1084 75.0845H78.9997" stroke="#BB0A30" stroke-width="1.6998" stroke-miterlimit="79.8403" stroke-linecap="round" stroke-linejoin="round"/>
<path d="M93.4128 72.5246C98.0953 72.5246 101.891 76.3447 101.891 81.0569C101.891 85.7692 98.0953 89.5892 93.4128 89.5892C88.7304 89.5892 84.9346 85.7692 84.9346 81.0569C84.9346 76.3447 88.7304 72.5246 93.4128 72.5246Z" stroke="black" stroke-width="1.6998" stroke-miterlimit="79.8403" stroke-linecap="round" stroke-linejoin="round"/>
<path d="M93.4121 82.7634V95.5619" stroke="black" stroke-width="1.6998" stroke-miterlimit="79.8403" stroke-linecap="round" stroke-linejoin="round"/>
<path d="M7.78223 95.5619H313" stroke="#BB0A30" stroke-width="1.6998" stroke-miterlimit="79.8403" stroke-linecap="round" stroke-linejoin="round"/>
<path d="M39.4577 78.1846C37.996 78.3928 36.4914 78.4656 34.9642 78.3894C21.8997 77.7489 11.814 66.5591 12.4504 53.4125C13.0868 40.2648 24.207 30.1136 37.2714 30.7552C43.3916 31.0544 48.8561 33.671 52.8737 37.7176" stroke="black" stroke-width="1.6998" stroke-miterlimit="79.8403" stroke-linecap="round" stroke-linejoin="round"/>
<path d="M35.7607 63.1392V95.5619" stroke="black" stroke-width="1.6998" stroke-miterlimit="79.8403" stroke-linecap="round" stroke-linejoin="round"/>
<path d="M180.74 71.6715H107.827L104.436 66.5521H179.044" stroke="#BB0A30" stroke-width="1.6998" stroke-miterlimit="79.8403" stroke-linecap="round" stroke-linejoin="round"/>
<path d="M144.282 46.0745V66.552" stroke="#BB0A30" stroke-width="1.6998" stroke-miterlimit="79.8403" stroke-linecap="round" stroke-linejoin="round"/>
<path d="M144.282 71.6714V94.7086" stroke="#BB0A30" stroke-width="1.6998" stroke-miterlimit="79.8403" stroke-linecap="round" stroke-linejoin="round"/>
<path d="M112.913 72.5246V94.7086" stroke="#BB0A30" stroke-width="1.6998" stroke-miterlimit="79.8403" stroke-linecap="round" stroke-linejoin="round"/>
<path fill-rule="evenodd" clip-rule="evenodd" d="M123.086 57.1666V62.286H134.956V57.1666H123.086Z" stroke="#BB0A30" stroke-width="1.6998" stroke-miterlimit="79.8403" stroke-linecap="round" stroke-linejoin="round"/>
<path d="M162.935 22.1841H201.087" stroke="#BB0A30" stroke-width="1.6998" stroke-miterlimit="79.8403" stroke-linecap="round" stroke-linejoin="round"/>
<path d="M162.935 44.3681V58.0198" stroke="#BB0A30" stroke-width="1.6998" stroke-miterlimit="79.8403" stroke-linecap="round" stroke-linejoin="round"/>
<path d="M184.978 46.0745H210.412" stroke="#BB0A30" stroke-width="1.6998" stroke-miterlimit="79.8403" stroke-linecap="round" stroke-linejoin="round"/>
<path fill-rule="evenodd" clip-rule="evenodd" d="M192.609 50.3407V57.1665H206.175V50.3407H192.609Z" stroke="#BB0A30" stroke-width="1.6998" stroke-miterlimit="79.8403" stroke-linecap="round" stroke-linejoin="round"/>
<path d="M154.457 72.5247V87.8828" stroke="#BB0A30" stroke-width="1.6998" stroke-miterlimit="79.8403" stroke-linecap="round" stroke-linejoin="round"/>
<path d="M162.935 72.5247V87.8828" stroke="#BB0A30" stroke-width="1.6998" stroke-miterlimit="79.8403" stroke-linecap="round" stroke-linejoin="round"/>
<path d="M171.413 72.5247V87.8828" stroke="#BB0A30" stroke-width="1.6998" stroke-miterlimit="79.8403" stroke-linecap="round" stroke-linejoin="round"/>
<path d="M151.064 87.8828H175.651" stroke="#BB0A30" stroke-width="1.6998" stroke-miterlimit="79.8403" stroke-linecap="round" stroke-linejoin="round"/>
<path d="M190.064 35.8358L220.586 0.000159204" stroke="#BB0A30" stroke-width="1.6998" stroke-miterlimit="79.8403" stroke-linecap="round" stroke-linejoin="round"/>
<path d="M251.109 35.8358L220.587 0.000159204" stroke="#BB0A30" stroke-width="1.6998" stroke-miterlimit="79.8403" stroke-linecap="round" stroke-linejoin="round"/>
<path d="M259.587 46.0745H301.13V43.5148L279.087 22.184" stroke="#BB0A30" stroke-width="1.6998" stroke-miterlimit="79.8403" stroke-linecap="round" stroke-linejoin="round"/>
<path d="M279.087 22.1841H240.087" stroke="#BB0A30" stroke-width="1.6998" stroke-miterlimit="79.8403" stroke-linecap="round" stroke-linejoin="round"/>
<path d="M296.892 46.9278V65.6989" stroke="#BB0A30" stroke-width="1.6998" stroke-miterlimit="79.8403" stroke-linecap="round" stroke-linejoin="round"/>
<path d="M224.827 66.5521H311.305L308.761 71.6715H223.131" stroke="#BB0A30" stroke-width="1.6998" stroke-miterlimit="79.8403" stroke-linecap="round" stroke-linejoin="round"/>
<path d="M201.935 59.7263C190.913 59.7263 188.37 64.8457 181.587 64.8457L184.13 71.6715H191.761V66.5521C195.152 64.8457 198.376 63.9344 201.935 63.9924" stroke="#BB0A30" stroke-width="1.6998" stroke-miterlimit="79.8403" stroke-linecap="round" stroke-linejoin="round"/>
<path d="M201.935 59.7263C212.956 59.7263 215.5 64.8457 222.282 64.8457L219.739 71.6715H212.108V66.5521C208.717 64.8457 205.493 63.9344 201.935 63.9924" stroke="#BB0A30" stroke-width="1.6998" stroke-miterlimit="79.8403" stroke-linecap="round" stroke-linejoin="round"/>
<path fill-rule="evenodd" clip-rule="evenodd" d="M285.021 51.194V62.286H290.955V51.194H285.021Z" stroke="#BB0A30" stroke-width="1.6998" stroke-miterlimit="79.8403" stroke-linecap="round" stroke-linejoin="round"/>
<path fill-rule="evenodd" clip-rule="evenodd" d="M273.151 51.194V62.286H279.086V51.194H273.151Z" stroke="#BB0A30" stroke-width="1.6998" stroke-miterlimit="79.8403" stroke-linecap="round" stroke-linejoin="round"/>
<path fill-rule="evenodd" clip-rule="evenodd" d="M228.217 58.8729V43.5148H245.173V58.8729H228.217Z" stroke="#BB0A30" stroke-width="1.6998" stroke-miterlimit="79.8403" stroke-linecap="round" stroke-linejoin="round"/>
<path d="M236.696 44.3681V58.0198" stroke="#BB0A30" stroke-width="1.6998" stroke-miterlimit="79.8403" stroke-linecap="round" stroke-linejoin="round"/>
<path d="M294.347 74.2312V88.7361H271.456V74.2312" stroke="#BB0A30" stroke-width="1.6998" stroke-miterlimit="79.8403" stroke-linecap="round" stroke-linejoin="round"/>
<path d="M286.717 74.2312V88.7361" stroke="#BB0A30" stroke-width="1.6998" stroke-miterlimit="79.8403" stroke-linecap="round" stroke-linejoin="round"/>
<path d="M279.087 74.2312V88.7361" stroke="#BB0A30" stroke-width="1.6998" stroke-miterlimit="79.8403" stroke-linecap="round" stroke-linejoin="round"/>
<path d="M185.826 71.6715V95.5619" stroke="#BB0A30" stroke-width="1.6998" stroke-miterlimit="79.8403" stroke-linecap="round" stroke-linejoin="round"/>
<path d="M218.043 71.6715V95.5619" stroke="#BB0A30" stroke-width="1.6998" stroke-miterlimit="79.8403" stroke-linecap="round" stroke-linejoin="round"/>
<path fill-rule="evenodd" clip-rule="evenodd" d="M196.847 73.3779V90.4425H206.173V73.3779H196.847Z" stroke="#BB0A30" stroke-width="1.6998" stroke-miterlimit="79.8403" stroke-linecap="round" stroke-linejoin="round"/>
<path d="M193.457 90.4425H209.566" stroke="#BB0A30" stroke-width="1.6998" stroke-miterlimit="79.8403" stroke-linecap="round" stroke-linejoin="round"/>
<path d="M190.913 93.0021H212.109" stroke="#BB0A30" stroke-width="1.6998" stroke-miterlimit="79.8403" stroke-linecap="round" stroke-linejoin="round"/>
<path d="M261.282 46.0746V66.5521V95.5619" stroke="#BB0A30" stroke-width="1.6998" stroke-miterlimit="79.8403" stroke-linecap="round" stroke-linejoin="round"/>
<path d="M306.217 71.6715V95.5619" stroke="#BB0A30" stroke-width="1.6998" stroke-miterlimit="79.8403" stroke-linecap="round" stroke-linejoin="round"/>
<path d="M228.217 26.4503C228.217 30.6913 224.801 34.1294 220.586 34.1294C216.372 34.1294 212.956 30.6913 212.956 26.4503C212.956 22.2093 216.372 18.7712 220.586 18.7712C224.801 18.7712 228.217 22.2093 228.217 26.4503Z" stroke="#BB0A30" stroke-width="1.6998" stroke-miterlimit="79.8403" stroke-linecap="round" stroke-linejoin="round"/>
<path d="M220.587 21.3309V30.7164" stroke="#BB0A30" stroke-width="1.6998" stroke-miterlimit="79.8403" stroke-linecap="round" stroke-linejoin="round"/>
<path d="M215.5 26.4503H225.674" stroke="#BB0A30" stroke-width="1.6998" stroke-miterlimit="79.8403" stroke-linecap="round" stroke-linejoin="round"/>
<path fill-rule="evenodd" clip-rule="evenodd" d="M156.19 96.0001C154.243 96.0001 152.106 95.1947 150.218 93.0024C143.675 85.081 131.75 68.2303 126.045 56.6435C123.726 51.9336 122.237 46.572 122.237 40.9543C122.237 22.115 137.431 6.82395 156.152 6.82395C174.872 6.82395 190.066 22.115 190.066 40.9543C190.066 46.539 188.586 51.97 186.261 56.6435C180.568 68.0858 168.63 85.081 162.087 93.0024C160.128 95.2288 158.137 96.0001 156.19 96.0001Z" fill="white" stroke="white" stroke-width="6.79921" stroke-miterlimit="79.8403" stroke-linecap="round" stroke-linejoin="round"/>
<path fill-rule="evenodd" clip-rule="evenodd" d="M156.19 96.0001C154.243 96.0001 152.106 95.1947 150.218 93.0024C143.675 85.081 131.75 68.2303 126.045 56.6435C123.726 51.9336 122.237 46.572 122.237 40.9543C122.237 22.115 137.431 6.82395 156.152 6.82395C174.872 6.82395 190.066 22.115 190.066 40.9543C190.066 46.539 188.586 51.97 186.261 56.6435C180.568 68.0858 168.63 85.081 162.087 93.0024C160.128 95.2288 158.137 96.0001 156.19 96.0001Z" fill="white" stroke="black" stroke-width="1.6998" stroke-miterlimit="79.8403" stroke-linecap="round" stroke-linejoin="round"/>
<path d="M156.026 26.578L155.95 58.8619" stroke="black" stroke-width="1.6998" stroke-miterlimit="79.8403" stroke-linecap="round" stroke-linejoin="round"/>
<path d="M170.857 42.5197L155.95 58.8619" stroke="black" stroke-width="1.6998" stroke-miterlimit="79.8403" stroke-linecap="round" stroke-linejoin="round"/>
<path d="M141.044 42.5197L155.951 58.8619" stroke="black" stroke-width="1.6998" stroke-miterlimit="79.8403" stroke-linecap="round" stroke-linejoin="round"/>
<path d="M25.241 79.6442C22.2725 86.0446 14.7008 88.8159 8.34102 85.8284C1.98005 82.841 -0.773694 75.2222 2.19483 68.8207C3.77179 65.4203 6.64762 63.0438 9.95075 62.0119" stroke="black" stroke-width="1.6998" stroke-miterlimit="79.8403" stroke-linecap="round" stroke-linejoin="round"/>
<path d="M13.7168 74.2313V95.562" stroke="black" stroke-width="1.6998" stroke-miterlimit="79.8403" stroke-linecap="round" stroke-linejoin="round"/>
<path d="M35.7609 67.4054L20.5 55.4602" stroke="black" stroke-width="1.6998" stroke-miterlimit="79.8403" stroke-linecap="round" stroke-linejoin="round"/>
<path d="M35.7607 40.1019V55.4601" stroke="black" stroke-width="1.6998" stroke-miterlimit="79.8403" stroke-linecap="round" stroke-linejoin="round"/>
<path d="M35.7611 47.7811L28.9785 42.6617" stroke="black" stroke-width="1.6998" stroke-miterlimit="79.8403" stroke-linecap="round" stroke-linejoin="round"/>
</g>
<defs>
<clipPath id="clip0_468_3600">
<rect width="320" height="104" fill="white"/>
</clipPath>
</defs>
</svg>
