<svg width="320" height="104" viewBox="0 0 320 104" fill="none" xmlns="http://www.w3.org/2000/svg">
<path d="M81.8212 85.5535L59.4795 82.1763" stroke="#BB0A30" stroke-width="1.6998" stroke-miterlimit="79.8403" stroke-linecap="round" stroke-linejoin="round"/>
<path d="M59.4798 82.1761L59.4843 78.1987C56.9145 68.3021 57.6408 59.4126 60.3311 51.0814" stroke="#BB0A30" stroke-width="1.6998" stroke-miterlimit="79.8403" stroke-linecap="round" stroke-linejoin="round" stroke-dasharray="3.4 3.4"/>
<path d="M60.3299 51.0815L57.9381 43.6038C56.8671 40.7792 58.7083 39.8027 62.2612 39.91C68.5583 36.3045 74.8588 33.0686 81.1559 30.1898C79.1109 29.0912 78.3508 28.1462 78.3711 27.1573C94.3762 23.4895 109.262 21.5037 123.444 20.5791" stroke="#BB0A30" stroke-width="1.6998" stroke-miterlimit="79.8403" stroke-linecap="round" stroke-linejoin="round"/>
<path d="M123.445 20.579C149.594 18.8656 170.649 19.5619 184.051 23.9382" stroke="#BB0A30" stroke-width="1.6998" stroke-miterlimit="79.8403" stroke-linecap="round" stroke-linejoin="round" stroke-dasharray="3.4 3.4"/>
<path d="M184.049 23.9383C197.037 28.6255 209.597 34.6035 221.855 41.48" stroke="#BB0A30" stroke-width="1.6998" stroke-miterlimit="79.8403" stroke-linecap="round" stroke-linejoin="round"/>
<path d="M221.856 41.4799C232.585 42.4542 243.198 44.0015 253.683 46.1875C263.465 48.4683 268.507 52.7543 271.71 56.3022L270.559 59.7631" stroke="#BB0A30" stroke-width="1.6998" stroke-miterlimit="79.8403" stroke-linecap="round" stroke-linejoin="round" stroke-dasharray="3.4 3.4"/>
<path d="M270.56 59.7631L272.86 71.3043L269.41 82.8454L259.062 85.1534L249.863 88.6143" stroke="#BB0A30" stroke-width="1.6998" stroke-miterlimit="79.8403" stroke-linecap="round" stroke-linejoin="round"/>
<path d="M62.3896 39.8523L82.1673 38.3513" stroke="#BB0A30" stroke-width="1.6998" stroke-miterlimit="79.8403" stroke-linecap="round" stroke-linejoin="round"/>
<path d="M198.197 36.6051C185.08 29.5749 173.366 24.9577 155.654 24.4864" stroke="#BB0A30" stroke-width="1.6998" stroke-miterlimit="79.8403" stroke-linecap="round" stroke-linejoin="round"/>
<path d="M201.543 40.8651C200.916 38.8645 199.922 37.636 198.387 36.6933C194.446 36.7985 190.955 37.8179 191.484 41.3263C191.638 42.9313 192.269 43.5676 193.036 44.0954C194.202 44.9827 196.301 44.9929 198.153 44.8459" stroke="#BB0A30" stroke-width="1.6998" stroke-miterlimit="79.8403" stroke-linecap="round" stroke-linejoin="round"/>
<path d="M192.372 43.6071L118.784 41.2991L90.0381 35.5279" stroke="#BB0A30" stroke-width="1.6998" stroke-miterlimit="79.8403" stroke-linecap="round" stroke-linejoin="round"/>
<path d="M150.978 41.2991L148.679 25.142C137.255 24.3983 126.265 25.776 115.335 27.45" stroke="#BB0A30" stroke-width="1.6998" stroke-miterlimit="79.8403" stroke-linecap="round" stroke-linejoin="round"/>
<path d="M170.525 50.531H161.327" stroke="#BB0A30" stroke-width="1.6998" stroke-miterlimit="79.8403" stroke-linecap="round" stroke-linejoin="round"/>
<path d="M116.485 47.068H107.286" stroke="#BB0A30" stroke-width="1.6998" stroke-miterlimit="79.8403" stroke-linecap="round" stroke-linejoin="round"/>
<path d="M251.011 79.3823C251.646 88.9423 244.439 97.2089 234.915 97.8462C225.39 98.4835 217.154 91.2502 216.519 81.6901C215.884 72.1301 223.091 63.8635 232.615 63.2262C242.14 62.5889 250.376 69.8222 251.011 79.3823Z" stroke="#BB0A30" stroke-width="1.6998" stroke-miterlimit="79.8403" stroke-linecap="round" stroke-linejoin="round" stroke-dasharray="3.4 3.4"/>
<path d="M271.366 63.9858L263.662 55.1472L247.564 50.5311" stroke="#BB0A30" stroke-width="1.6998" stroke-miterlimit="79.8403" stroke-linecap="round" stroke-linejoin="round"/>
<path d="M254.461 57.4563C258.151 60.7929 261.216 64.6663 263.661 68.9963" stroke="#BB0A30" stroke-width="1.6998" stroke-miterlimit="79.8403" stroke-linecap="round" stroke-linejoin="round"/>
<path d="M255.614 79.3822C255.941 62.4441 246.414 55.1471 233.767 53.9931C217.67 53.9931 209.218 62.7413 208.471 78.2282" stroke="#BB0A30" stroke-width="1.6998" stroke-miterlimit="79.8403" stroke-linecap="round" stroke-linejoin="round"/>
<path d="M216.519 86.3073H119.934" stroke="#BB0A30" stroke-width="1.6998" stroke-miterlimit="79.8403" stroke-linecap="round" stroke-linejoin="round"/>
<path d="M210.769 79.3822L144.08 75.9202L121.083 79.3822" stroke="#BB0A30" stroke-width="1.6998" stroke-miterlimit="79.8403" stroke-linecap="round" stroke-linejoin="round"/>
<path d="M124.533 78.2281C123.383 65.5342 115.335 53.9931 100.387 53.9931C86.589 53.9931 79.0724 60.9091 76.2402 73.6122" stroke="#BB0A30" stroke-width="1.6998" stroke-miterlimit="79.8403" stroke-linecap="round" stroke-linejoin="round"/>
<path d="M58.9941 44.76H80.8404L71.6424 51.6851L60.1439 49.3771" stroke="#BB0A30" stroke-width="1.6998" stroke-miterlimit="79.8403" stroke-linecap="round" stroke-linejoin="round"/>
<path d="M116.484 79.3823C117.119 88.9423 109.912 97.2089 100.387 97.8462C90.8625 98.4835 82.6264 91.2502 81.9915 81.6901C81.3565 72.1301 88.5632 63.8635 98.0879 63.2262C107.613 62.5889 115.849 69.8222 116.484 79.3823Z" stroke="#BB0A30" stroke-width="1.6998" stroke-miterlimit="79.8403" stroke-linecap="round" stroke-linejoin="round" stroke-dasharray="3.4 3.4"/>
<path d="M231.146 25.3736C241.875 26.3478 252.488 27.8952 262.973 30.0812C272.755 32.362 277.797 36.648 281 40.1959L279.849 43.6567" stroke="black" stroke-width="1.6998" stroke-miterlimit="79.8403" stroke-linecap="round" stroke-linejoin="round"/>
<path d="M123.445 7.86358C149.594 6.1501 170.649 6.8464 184.051 11.2228" stroke="black" stroke-width="1.6998" stroke-miterlimit="79.8403" stroke-linecap="round" stroke-linejoin="round"/>
<path d="M42.5882 82.1761L42.5927 78.1987C40.0229 68.3021 40.7492 59.4126 43.4395 51.0814" stroke="black" stroke-width="1.6998" stroke-miterlimit="79.8403" stroke-linecap="round" stroke-linejoin="round"/>
<path fill-rule="evenodd" clip-rule="evenodd" d="M159.045 92.7939L153.739 80.6865C152.646 78.2124 149.579 76.4323 146.893 76.725L133.8 78.1536C131.529 75.2522 129.652 72.0219 128.262 68.5498L136.049 57.8721C137.642 55.6828 137.642 52.127 136.052 49.9422L128.262 39.2737C129.657 35.797 131.531 32.5667 133.803 29.6631L146.897 31.0894C149.583 31.3788 152.646 29.6031 153.739 27.1245L159.049 15.0284C160.857 14.7741 162.701 14.6373 164.578 14.6373C166.455 14.6373 168.302 14.7741 170.112 15.0284L175.423 27.1245C176.51 29.6031 179.581 31.3787 182.268 31.0871L195.35 29.6653C197.621 32.5667 199.496 35.797 200.89 39.2737L193.112 49.9445C191.518 52.1293 191.514 55.6874 193.108 57.8744L200.895 68.543C199.5 72.022 197.626 75.2568 195.35 78.1559L182.268 76.7295C179.581 76.4401 176.514 78.2158 175.427 80.6944L170.107 92.7939C168.3 93.0482 166.453 93.1816 164.578 93.1816C162.701 93.1816 160.85 93.0482 159.045 92.7939Z" fill="white" stroke="white" stroke-width="6.79921" stroke-miterlimit="79.8403" stroke-linejoin="round"/>
<path d="M164.693 66.5298V41.2955" stroke="white" stroke-width="6.79921" stroke-miterlimit="79.8403" stroke-linecap="round" stroke-linejoin="round"/>
<path d="M177.264 53.9139H152.122" stroke="white" stroke-width="6.79921" stroke-miterlimit="79.8403" stroke-linecap="round" stroke-linejoin="round"/>
<path fill-rule="evenodd" clip-rule="evenodd" d="M159.045 92.7939L153.739 80.6865C152.646 78.2124 149.579 76.4323 146.893 76.725L133.8 78.1536C131.529 75.2522 129.652 72.0219 128.262 68.5498L136.049 57.8721C137.642 55.6828 137.642 52.127 136.052 49.9422L128.262 39.2737C129.657 35.797 131.531 32.5667 133.803 29.6631L146.897 31.0894C149.583 31.3788 152.646 29.6031 153.739 27.1245L159.049 15.0284C160.857 14.7741 162.701 14.6373 164.578 14.6373C166.455 14.6373 168.302 14.7741 170.112 15.0284L175.423 27.1245C176.51 29.6031 179.581 31.3787 182.268 31.0871L195.35 29.6653C197.621 32.5667 199.496 35.797 200.89 39.2737L193.112 49.9445C191.518 52.1293 191.514 55.6874 193.108 57.8744L200.895 68.543C199.5 72.022 197.626 75.2568 195.35 78.1559L182.268 76.7295C179.581 76.4401 176.514 78.2158 175.427 80.6944L170.107 92.7939C168.3 93.0482 166.453 93.1816 164.578 93.1816C162.701 93.1816 160.85 93.0482 159.045 92.7939Z" fill="white" stroke="black" stroke-width="1.6998" stroke-miterlimit="79.8403" stroke-linejoin="round"/>
<path d="M164.693 66.5298V41.2955" stroke="black" stroke-width="1.6998" stroke-miterlimit="79.8403" stroke-linecap="round" stroke-linejoin="round"/>
<path d="M177.264 53.9139H152.122" stroke="black" stroke-width="1.6998" stroke-miterlimit="79.8403" stroke-linecap="round" stroke-linejoin="round"/>
</svg>
