<svg width="300" height="100" viewBox="0 0 300 100" fill="none" xmlns="http://www.w3.org/2000/svg">
<mask id="mask0_186_5357" style="mask-type:alpha" maskUnits="userSpaceOnUse" x="0" y="0" width="300" height="100">
<rect width="300" height="100" fill="#D9D9D9"/>
</mask>
<g mask="url(#mask0_186_5357)">
<path d="M197.918 67.7329H209.476" stroke="#4D4D4D" stroke-width="1.6" stroke-miterlimit="79.8403" stroke-linecap="round" stroke-linejoin="round"/>
<path d="M219.572 67.7329H232.526C236.646 67.7329 237.47 64.4369 237.47 61.9649V37.2448" stroke="#4D4D4D" stroke-width="1.6" stroke-miterlimit="79.8403" stroke-linecap="round" stroke-linejoin="round"/>
<path d="M199.565 35.5977H208.245" stroke="#4D4D4D" stroke-width="1.6" stroke-miterlimit="79.8403" stroke-linecap="round" stroke-linejoin="round"/>
<path d="M218.957 35.5977H230.878C234.174 35.5977 237.47 33.9497 237.47 30.6536C237.47 26.5336 234.13 25.7789 229.23 24.0616C226.769 23.3574 225.23 21.7237 225.11 19.9416C224.945 17.5531 227.109 14.9976 230.878 14.9976H277.846" stroke="#4D4D4D" stroke-width="1.6" stroke-miterlimit="79.8403" stroke-linecap="round" stroke-linejoin="round"/>
<path d="M225.109 19.9418V31.4778" stroke="#4D4D4D" stroke-width="1.6" stroke-miterlimit="79.8403" stroke-linecap="round" stroke-linejoin="round"/>
<path d="M239.941 50.4292H277.845L269.605 33.1252L277.845 14.9971" stroke="#4D4D4D" stroke-width="1.6" stroke-miterlimit="79.8403" stroke-linecap="round" stroke-linejoin="round"/>
<path d="M102.333 67.7329H90.9619" stroke="#4D4D4D" stroke-width="1.6" stroke-miterlimit="79.8403" stroke-linecap="round" stroke-linejoin="round"/>
<path d="M80.349 67.7329H67.7253C63.6053 67.7329 62.7812 64.4369 62.7812 61.9649V37.2448" stroke="#4D4D4D" stroke-width="1.6" stroke-miterlimit="79.8403" stroke-linecap="round" stroke-linejoin="round"/>
<path d="M100.685 35.5977H92.1816" stroke="#4D4D4D" stroke-width="1.6" stroke-miterlimit="79.8403" stroke-linecap="round" stroke-linejoin="round"/>
<path d="M81.2719 35.5977H69.3734C66.0774 35.5977 62.7814 33.9497 62.7814 30.6536C62.7814 26.5336 66.1213 25.7789 71.0214 24.0616C73.4824 23.3574 75.0205 21.7237 75.1414 19.9416C75.3062 17.5531 73.1418 14.9976 69.3734 14.9976H22.4053" stroke="#4D4D4D" stroke-width="1.6" stroke-miterlimit="79.8403" stroke-linecap="round" stroke-linejoin="round"/>
<path d="M75.1416 19.9418V31.4778" stroke="#4D4D4D" stroke-width="1.6" stroke-miterlimit="79.8403" stroke-linecap="round" stroke-linejoin="round"/>
<path d="M60.3094 50.4292H22.4053L30.6453 33.1252L22.4053 14.9971" stroke="#4D4D4D" stroke-width="1.6" stroke-miterlimit="79.8403" stroke-linecap="round" stroke-linejoin="round"/>
<path fill-rule="evenodd" clip-rule="evenodd" d="M119.637 75.1504V80.9184C119.539 82.3994 118.759 83.2651 117.165 83.3904H108.101C106.41 83.3893 105.586 82.5664 105.629 80.9184V51.2543C105.629 47.9583 106.453 46.3103 107.277 44.6623L110.573 39.7183C107.277 38.8943 103.981 37.2463 103.981 34.7743C103.981 32.8945 104.893 31.6628 107.277 31.4783H115.517L123.757 18.2942C125.109 16.1958 127.053 14.9982 129.526 14.9982H170.726C173.198 14.9982 175.142 16.1958 176.494 18.2942L184.734 31.4783H192.974C195.358 31.6628 196.27 32.8945 196.27 34.7743C196.27 37.2463 192.974 38.8943 189.678 39.7183L192.974 44.6623C193.798 46.3103 194.622 47.9583 194.622 51.2543V80.9184C194.666 82.5664 193.842 83.3893 192.15 83.3904H183.086C181.493 83.2651 180.712 82.3994 180.614 80.9184V75.1504H119.637Z" stroke="#102B4E" stroke-width="1.6" stroke-miterlimit="79.8403" stroke-linecap="round" stroke-linejoin="round"/>
<path fill-rule="evenodd" clip-rule="evenodd" d="M119.637 39.7175C117.231 39.7175 116.616 37.9531 117.989 35.5975L125.405 23.2375C127.339 20.1546 127.712 19.1175 131.173 19.1175H169.077C172.538 19.1175 172.912 20.1546 174.845 23.2375L182.261 35.5975C183.646 37.9531 183.019 39.7175 180.613 39.7175H119.637Z" stroke="#102B4E" stroke-width="1.6" stroke-miterlimit="79.8403" stroke-linecap="round" stroke-linejoin="round"/>
<path d="M116.341 57.8452C113.617 57.8452 111.397 55.6303 111.397 52.9012C111.397 50.1721 113.617 47.9572 116.341 47.9572C117.056 47.9572 117.726 48.1077 118.341 48.3791" stroke="#102B4E" stroke-width="1.6" stroke-miterlimit="79.8403" stroke-linecap="round" stroke-linejoin="round"/>
<path d="M126.768 52.2376C127.889 52.6309 128.702 53.7021 128.702 54.9612C128.702 56.5532 127.405 57.8452 125.812 57.8452C125.746 57.8452 125.68 57.843 125.614 57.8375" stroke="#102B4E" stroke-width="1.6" stroke-miterlimit="79.8403" stroke-linecap="round" stroke-linejoin="round"/>
<path d="M118.309 48.3569L126.944 52.3154" stroke="#102B4E" stroke-width="1.6" stroke-miterlimit="79.8403" stroke-linecap="round" stroke-linejoin="round"/>
<path d="M125.406 57.8452H116.342" stroke="#102B4E" stroke-width="1.6" stroke-miterlimit="79.8403" stroke-linecap="round" stroke-linejoin="round"/>
<path d="M183.91 57.8452C186.634 57.8452 188.854 55.6303 188.854 52.9012C188.854 50.1721 186.634 47.9572 183.91 47.9572C183.196 47.9572 182.525 48.1077 181.91 48.3791" stroke="#102B4E" stroke-width="1.6" stroke-miterlimit="79.8403" stroke-linecap="round" stroke-linejoin="round"/>
<path d="M173.483 52.2376C172.363 52.6309 171.55 53.7021 171.55 54.9612C171.55 56.5532 172.846 57.8452 174.439 57.8452C174.505 57.8452 174.571 57.843 174.637 57.8375" stroke="#102B4E" stroke-width="1.6" stroke-miterlimit="79.8403" stroke-linecap="round" stroke-linejoin="round"/>
<path d="M181.943 48.3569L173.308 52.3154" stroke="#102B4E" stroke-width="1.6" stroke-miterlimit="79.8403" stroke-linecap="round" stroke-linejoin="round"/>
<path d="M174.846 57.8452H183.91" stroke="#102B4E" stroke-width="1.6" stroke-miterlimit="79.8403" stroke-linecap="round" stroke-linejoin="round"/>
<path fill-rule="evenodd" clip-rule="evenodd" d="M159.189 69.3803C160.013 69.4155 160.508 69.0727 160.837 68.5563L162.485 65.2603C163.122 63.9661 162.309 62.6598 160.837 62.7883H139.413C137.941 62.6598 137.128 63.9661 137.765 65.2603L139.413 68.5563C139.743 69.0727 140.237 69.4155 141.061 69.3803H159.189Z" stroke="#102B4E" stroke-width="1.6" stroke-miterlimit="79.8403" stroke-linecap="round" stroke-linejoin="round"/>
<path fill-rule="evenodd" clip-rule="evenodd" d="M96.5658 96.5214L80.2176 87.0596C78.8663 86.2774 78.8663 85.0062 80.2176 84.2251L84.92 81.5157C81.2834 72.9813 79.2618 63.5877 79.2618 53.7249C79.2618 35.8265 85.9088 19.4706 96.8625 6.99411L104.652 13.1126C95.0167 23.8993 89.1498 38.1315 89.1498 53.7249C89.1498 61.7902 90.7209 69.4919 93.5665 76.5399L96.5878 74.8007C97.9392 74.0195 99.0378 74.6556 99.0378 76.2202L99.0158 95.1063C99.0158 96.6708 97.9172 97.3036 96.5658 96.5214ZM208.399 94.0395L200.61 87.9177C207.235 78.1659 211.102 66.3948 211.102 53.7249C211.102 42.1746 207.883 31.3703 202.302 22.1601L197.896 24.6926C196.545 25.4737 195.446 24.8376 195.446 23.2731L195.468 4.38697C195.468 2.82247 196.567 2.18962 197.929 2.97187L214.266 12.4336C215.618 13.2159 215.618 14.487 214.266 15.2682L210.871 17.2238C217.288 27.8875 220.99 40.3783 220.99 53.7249C220.99 68.6987 216.343 82.5913 208.399 94.0395Z" stroke="#4D4D4D" stroke-width="1.6" stroke-miterlimit="79.8403"/>
</g>
</svg>
