<svg width="300" height="100" viewBox="0 0 300 100" fill="none" xmlns="http://www.w3.org/2000/svg">
<mask id="mask0_186_5189" style="mask-type:alpha" maskUnits="userSpaceOnUse" x="0" y="0" width="300" height="100">
<rect width="300" height="100" fill="#D9D9D9"/>
</mask>
<g mask="url(#mask0_186_5189)">
<path fill-rule="evenodd" clip-rule="evenodd" d="M76.9578 39.2296L263.542 81.8006L286.185 82.7065C287.242 82.6361 287.946 81.4421 287.092 80.8947L75.7414 31.311C74.9624 35.7648 75.4426 38.3023 76.9578 39.2296Z" stroke="#4D4D4D" stroke-width="1.6" stroke-miterlimit="79.8403" stroke-linecap="round" stroke-linejoin="round"/>
<path d="M95.9727 44.6627L96.8796 49.1913L242.714 81.7993L250.866 79.0815" stroke="#4D4D4D" stroke-width="1.6" stroke-miterlimit="79.8403" stroke-linecap="round" stroke-linejoin="round"/>
<path d="M47.0703 65.4946H169.237" stroke="#4D4D4D" stroke-width="1.6" stroke-miterlimit="79.8403" stroke-linecap="round" stroke-linejoin="round"/>
<path d="M102.311 51.003L95.0654 65.4946" stroke="#4D4D4D" stroke-width="1.6" stroke-miterlimit="79.8403" stroke-linecap="round" stroke-linejoin="round"/>
<path d="M106.398 51.9089L99.6006 65.4946" stroke="#4D4D4D" stroke-width="1.6" stroke-miterlimit="79.8403" stroke-linecap="round" stroke-linejoin="round"/>
<path fill-rule="evenodd" clip-rule="evenodd" d="M149.111 68.0733C157.509 68.0733 164.338 74.8961 164.338 83.3023C164.338 91.7085 157.509 98.5312 149.111 98.5312C140.703 98.5312 133.874 91.7085 133.874 83.3023C133.874 74.8961 140.703 68.0733 149.111 68.0733Z" stroke="#4D4D4D" stroke-width="1.6" stroke-miterlimit="79.8403" stroke-linecap="round" stroke-linejoin="round"/>
<path fill-rule="evenodd" clip-rule="evenodd" d="M149.112 75.3821C153.476 75.3821 157.029 78.9289 157.029 83.3006C157.029 87.6724 153.476 91.2192 149.112 91.2192C144.737 91.2192 141.184 87.6724 141.184 83.3006C141.184 78.9289 144.737 75.3821 149.112 75.3821Z" stroke="#4D4D4D" stroke-width="1.6" stroke-miterlimit="79.8403" stroke-linecap="round" stroke-linejoin="round"/>
<path d="M162.632 75.1362H175.436V67.1333" stroke="#4D4D4D" stroke-width="1.6" stroke-miterlimit="79.8403" stroke-linecap="round" stroke-linejoin="round"/>
<path d="M172.235 75.9351V85.5386H169.834C169.12 81.3632 167.935 77.7224 165.833 75.1348" stroke="#4D4D4D" stroke-width="1.6" stroke-miterlimit="79.8403" stroke-linecap="round" stroke-linejoin="round"/>
<path d="M136.222 75.1362H109.012" stroke="#4D4D4D" stroke-width="1.6" stroke-miterlimit="79.8403" stroke-linecap="round" stroke-linejoin="round"/>
<path d="M109.012 66.3312V83.9375H46.5898" stroke="#4D4D4D" stroke-width="1.6" stroke-miterlimit="79.8403" stroke-linecap="round" stroke-linejoin="round"/>
<path d="M56.1933 65.5312L55.393 11.9119C55.1262 9.30194 54.3366 7.09528 50.5912 7.11022H38.5869" stroke="#4D4D4D" stroke-width="1.6" stroke-miterlimit="79.8403" stroke-linecap="round" stroke-linejoin="round"/>
<path fill-rule="evenodd" clip-rule="evenodd" d="M78.6016 70.4307V79.0407C78.6016 79.9765 79.3591 80.7373 80.2981 80.7373H104.115C105.054 80.7373 105.811 79.9765 105.811 79.0407V70.4307C105.811 69.4949 105.054 68.7341 104.115 68.7341H80.2981C79.3591 68.7341 78.6016 69.4949 78.6016 70.4307Z" stroke="#4D4D4D" stroke-width="1.6" stroke-miterlimit="79.8403" stroke-linecap="round" stroke-linejoin="round"/>
<path fill-rule="evenodd" clip-rule="evenodd" d="M47.3896 70.4307V79.0407C47.3896 79.9765 48.1473 80.7373 49.0863 80.7373H72.9029C73.8419 80.7373 74.5994 79.9765 74.5994 79.0407V70.4307C74.5994 69.4949 73.8419 68.7341 72.9029 68.7341H49.0863C48.1473 68.7341 47.3896 69.4949 47.3896 70.4307Z" stroke="#4D4D4D" stroke-width="1.6" stroke-miterlimit="79.8403" stroke-linecap="round" stroke-linejoin="round"/>
<path d="M92.2061 80.7373V77.5362" stroke="#4D4D4D" stroke-width="1.6" stroke-miterlimit="79.8403" stroke-linecap="round" stroke-linejoin="round"/>
<path d="M60.9951 80.7373V77.5362" stroke="#4D4D4D" stroke-width="1.6" stroke-miterlimit="79.8403" stroke-linecap="round" stroke-linejoin="round"/>
<path fill-rule="evenodd" clip-rule="evenodd" d="M153.977 22.2322C160.721 22.2322 166.206 27.7094 166.206 34.4585C166.206 41.2086 160.721 46.6858 153.977 46.6858C147.223 46.6858 141.749 41.2086 141.749 34.4585C141.749 27.7094 147.223 22.2322 153.977 22.2322Z" stroke="#102B4E" stroke-width="1.6" stroke-miterlimit="79.8403" stroke-linecap="round" stroke-linejoin="round"/>
<path fill-rule="evenodd" clip-rule="evenodd" d="M153.978 28.1001C157.488 28.1001 160.337 30.9481 160.337 34.4576C160.337 37.9682 157.488 40.8162 153.978 40.8162C150.467 40.8162 147.618 37.9682 147.618 34.4576C147.618 30.9481 150.467 28.1001 153.978 28.1001Z" stroke="#102B4E" stroke-width="1.6" stroke-miterlimit="79.8403" stroke-linecap="round" stroke-linejoin="round"/>
<path fill-rule="evenodd" clip-rule="evenodd" d="M242.746 43.0624C249.49 43.0624 254.974 48.5407 254.974 55.2898C254.974 62.0389 249.49 67.5171 242.746 67.5171C235.992 67.5171 230.518 62.0389 230.518 55.2898C230.518 48.5407 235.992 43.0624 242.746 43.0624Z" stroke="#102B4E" stroke-width="1.6" stroke-miterlimit="79.8403" stroke-linecap="round" stroke-linejoin="round"/>
<path fill-rule="evenodd" clip-rule="evenodd" d="M242.745 48.9323C246.256 48.9323 249.105 51.7813 249.105 55.2909C249.105 58.8004 246.256 61.6494 242.745 61.6494C239.235 61.6494 236.386 58.8004 236.386 55.2909C236.386 51.7813 239.235 48.9323 242.745 48.9323Z" stroke="#102B4E" stroke-width="1.6" stroke-miterlimit="79.8403" stroke-linecap="round" stroke-linejoin="round"/>
<path fill-rule="evenodd" clip-rule="evenodd" d="M168.917 42.157L225.961 55.493C227.455 44.847 235.362 37.4897 246.844 39.5075C256.82 41.9276 260.118 51.402 259.029 59.5094L265.837 61.1783C268.761 61.4621 270.82 59.8306 272.175 56.6486L273.989 48.4974L272.175 45.7797L273.989 36.7225L269.465 22.2309C268.558 19.5131 266.413 17.347 264.023 16.7953L200.619 2.30373C196.073 1.30604 192.648 2.17674 189.756 3.20858L171.638 10.4549L139.936 9.54902C130.471 9.63331 127.889 15.4338 125.445 20.419C122.521 28.4241 126.128 32.401 130.876 34.9107L137.215 36.7225L139.029 28.5703C140.843 23.1368 147.373 16.6897 157.147 18.6072C166.078 20.4788 171.275 29.2329 169.824 37.6285L168.917 42.157Z" stroke="#102B4E" stroke-width="1.6" stroke-miterlimit="79.8403" stroke-linecap="round" stroke-linejoin="round"/>
<path d="M272.09 45.8699L261.654 43.3708" stroke="#102B4E" stroke-width="1.6" stroke-miterlimit="79.8403" stroke-linecap="round" stroke-linejoin="round"/>
<path d="M174.06 31.2866L225.737 42.8833" stroke="#102B4E" stroke-width="1.6" stroke-miterlimit="79.8403" stroke-linecap="round" stroke-linejoin="round"/>
<path d="M223.091 49.5669C226.815 40.9728 233.174 34.3966 245.851 35.3025C256.628 36.679 261.963 43.1059 263.18 52.8523" stroke="#102B4E" stroke-width="1.6" stroke-miterlimit="79.8403" stroke-linecap="round" stroke-linejoin="round"/>
<path d="M163.261 16.0208C171.2 19.7971 174.379 27.4468 174.219 36.9446" stroke="#102B4E" stroke-width="1.6" stroke-miterlimit="79.8403" stroke-linecap="round" stroke-linejoin="round"/>
<path d="M171.562 10.4522L177.922 11.3037L193.448 4.87262" stroke="#102B4E" stroke-width="1.6" stroke-miterlimit="79.8403" stroke-linecap="round" stroke-linejoin="round"/>
<path d="M128.166 15.8892L147.181 19.5129" stroke="#102B4E" stroke-width="1.6" stroke-miterlimit="79.8403" stroke-linecap="round" stroke-linejoin="round"/>
<path d="M142.944 18.5322C143.766 14.7805 143.563 12.7926 141.835 12.0392L134.504 10.524" stroke="#102B4E" stroke-width="1.6" stroke-miterlimit="79.8403" stroke-linecap="round" stroke-linejoin="round"/>
<path d="M140.917 24.5828L131.058 22.6258" stroke="#102B4E" stroke-width="1.6" stroke-miterlimit="79.8403" stroke-linecap="round" stroke-linejoin="round"/>
<path fill-rule="evenodd" clip-rule="evenodd" d="M211.535 23.177L183.823 16.9262C185.968 16.6392 188.988 16.2465 190.887 14.934C192.872 12.9408 191.581 10.4236 188.166 10.6776L196.585 7.05386C198.687 6.24931 200.459 5.94627 203.03 6.52141L215.248 9.40885L211.535 23.177Z" stroke="#102B4E" stroke-width="1.6" stroke-miterlimit="79.8403" stroke-linecap="round" stroke-linejoin="round"/>
<path fill-rule="evenodd" clip-rule="evenodd" d="M220.391 10.794L216.923 24.2922L240.409 29.8622C243.023 30.4096 244.335 29.3842 243.845 27.4432C243.012 24.2655 242.073 21.1615 240.899 17.7309C240.366 16.1826 239.32 15.4624 237.389 14.7827L220.391 10.794Z" stroke="#102B4E" stroke-width="1.6" stroke-miterlimit="79.8403" stroke-linecap="round" stroke-linejoin="round"/>
<path d="M246.95 17.0188L250.674 26.7759C251.218 28.5141 252.926 30.2449 255.284 30.6951L268.238 33.7747" stroke="#102B4E" stroke-width="1.6" stroke-miterlimit="79.8403" stroke-linecap="round" stroke-linejoin="round"/>
<path d="M210.564 27.3904L204.481 25.9787" stroke="#102B4E" stroke-width="1.6" stroke-miterlimit="79.8403" stroke-linecap="round" stroke-linejoin="round"/>
<path d="M234.679 33.4695L228.597 32.0578" stroke="#102B4E" stroke-width="1.6" stroke-miterlimit="79.8403" stroke-linecap="round" stroke-linejoin="round"/>
<path d="M165.032 41.2014L169.514 42.3218" stroke="#102B4E" stroke-width="1.6" stroke-miterlimit="79.8403" stroke-linecap="round" stroke-linejoin="round"/>
<path d="M137.822 34.002L141.023 34.8022" stroke="#102B4E" stroke-width="1.6" stroke-miterlimit="79.8403" stroke-linecap="round" stroke-linejoin="round"/>
<path d="M225.822 55.4082L230.304 56.5286" stroke="#102B4E" stroke-width="1.6" stroke-miterlimit="79.8403" stroke-linecap="round" stroke-linejoin="round"/>
<path d="M254.633 58.4172L259.115 59.5376" stroke="#102B4E" stroke-width="1.6" stroke-miterlimit="79.8403" stroke-linecap="round" stroke-linejoin="round"/>
</g>
</svg>
