<svg width="320" height="104" viewBox="0 0 320 104" fill="none" xmlns="http://www.w3.org/2000/svg">
<path d="M81.8212 85.5533L59.4795 82.1761" stroke="#102B4E" stroke-width="1.6998" stroke-miterlimit="79.8403" stroke-linecap="round" stroke-linejoin="round"/>
<path d="M59.4798 82.176L59.4843 78.1986C56.9145 68.302 57.6408 59.4125 60.3311 51.0813" stroke="#102B4E" stroke-width="1.6998" stroke-miterlimit="79.8403" stroke-linecap="round" stroke-linejoin="round" stroke-dasharray="3.4 3.4"/>
<path d="M60.3299 51.0814L57.9381 43.6036C56.8671 40.7791 58.7083 39.8025 62.2612 39.9099C68.5583 36.3044 74.8588 33.0685 81.1559 30.1897C79.1109 29.0911 78.3508 28.1461 78.3711 27.1571C94.3762 23.4894 109.262 21.5035 123.444 20.579" stroke="#102B4E" stroke-width="1.6998" stroke-miterlimit="79.8403" stroke-linecap="round" stroke-linejoin="round"/>
<path d="M123.445 20.5789C149.594 18.8654 170.649 19.5617 184.051 23.9381" stroke="#102B4E" stroke-width="1.6998" stroke-miterlimit="79.8403" stroke-linecap="round" stroke-linejoin="round" stroke-dasharray="3.4 3.4"/>
<path d="M184.049 23.9382C197.037 28.6254 209.597 34.6033 221.855 41.4799" stroke="#102B4E" stroke-width="1.6998" stroke-miterlimit="79.8403" stroke-linecap="round" stroke-linejoin="round"/>
<path d="M221.856 41.4798C232.585 42.454 243.198 44.0014 253.683 46.1874C263.465 48.4682 268.507 52.7542 271.71 56.3021L270.559 59.7629" stroke="#102B4E" stroke-width="1.6998" stroke-miterlimit="79.8403" stroke-linecap="round" stroke-linejoin="round" stroke-dasharray="3.4 3.4"/>
<path d="M270.56 59.763L272.86 71.3041L269.41 82.8453L259.062 85.1533L249.863 88.6141" stroke="#102B4E" stroke-width="1.6998" stroke-miterlimit="79.8403" stroke-linecap="round" stroke-linejoin="round"/>
<path d="M62.3896 39.8522L82.1673 38.3512" stroke="#102B4E" stroke-width="1.6998" stroke-miterlimit="79.8403" stroke-linecap="round" stroke-linejoin="round"/>
<path d="M198.197 36.605C185.08 29.5747 173.366 24.9576 155.654 24.4863" stroke="#102B4E" stroke-width="1.6998" stroke-miterlimit="79.8403" stroke-linecap="round" stroke-linejoin="round"/>
<path d="M201.543 40.865C200.916 38.8644 199.922 37.6359 198.387 36.6932C194.446 36.7983 190.955 37.8178 191.484 41.3262C191.638 42.9311 192.269 43.5675 193.036 44.0953C194.202 44.9826 196.301 44.9928 198.153 44.8458" stroke="#102B4E" stroke-width="1.6998" stroke-miterlimit="79.8403" stroke-linecap="round" stroke-linejoin="round"/>
<path d="M192.372 43.6069L118.784 41.2989L90.0381 35.5278" stroke="#102B4E" stroke-width="1.6998" stroke-miterlimit="79.8403" stroke-linecap="round" stroke-linejoin="round"/>
<path d="M150.978 41.299L148.679 25.1418C137.255 24.3981 126.265 25.7759 115.335 27.4498" stroke="#102B4E" stroke-width="1.6998" stroke-miterlimit="79.8403" stroke-linecap="round" stroke-linejoin="round"/>
<path d="M170.525 50.5309H161.327" stroke="#102B4E" stroke-width="1.6998" stroke-miterlimit="79.8403" stroke-linecap="round" stroke-linejoin="round"/>
<path d="M116.485 47.0679H107.286" stroke="#102B4E" stroke-width="1.6998" stroke-miterlimit="79.8403" stroke-linecap="round" stroke-linejoin="round"/>
<path d="M251.011 79.3822C251.646 88.9422 244.439 97.2088 234.915 97.8461C225.39 98.4834 217.154 91.2501 216.519 81.69C215.884 72.13 223.091 63.8634 232.615 63.2261C242.14 62.5888 250.376 69.8221 251.011 79.3822Z" stroke="#102B4E" stroke-width="1.6998" stroke-miterlimit="79.8403" stroke-linecap="round" stroke-linejoin="round" stroke-dasharray="3.4 3.4"/>
<path d="M271.366 63.9857L263.662 55.147L247.564 50.531" stroke="#102B4E" stroke-width="1.6998" stroke-miterlimit="79.8403" stroke-linecap="round" stroke-linejoin="round"/>
<path d="M254.461 57.4562C258.151 60.7927 261.216 64.6662 263.661 68.9962" stroke="#102B4E" stroke-width="1.6998" stroke-miterlimit="79.8403" stroke-linecap="round" stroke-linejoin="round"/>
<path d="M255.614 79.3821C255.941 62.4439 246.414 55.147 233.767 53.993C217.67 53.993 209.218 62.7412 208.471 78.2281" stroke="#102B4E" stroke-width="1.6998" stroke-miterlimit="79.8403" stroke-linecap="round" stroke-linejoin="round"/>
<path d="M216.519 86.3071H119.934" stroke="#102B4E" stroke-width="1.6998" stroke-miterlimit="79.8403" stroke-linecap="round" stroke-linejoin="round"/>
<path d="M210.769 79.3821L144.08 75.9201L121.083 79.3821" stroke="#102B4E" stroke-width="1.6998" stroke-miterlimit="79.8403" stroke-linecap="round" stroke-linejoin="round"/>
<path d="M124.533 78.228C123.383 65.534 115.335 53.993 100.387 53.993C86.589 53.993 79.0724 60.909 76.2402 73.612" stroke="#102B4E" stroke-width="1.6998" stroke-miterlimit="79.8403" stroke-linecap="round" stroke-linejoin="round"/>
<path d="M58.9941 44.7599H80.8404L71.6424 51.6849L60.1439 49.3769" stroke="#102B4E" stroke-width="1.6998" stroke-miterlimit="79.8403" stroke-linecap="round" stroke-linejoin="round"/>
<path d="M116.484 79.3822C117.119 88.9422 109.912 97.2088 100.387 97.8461C90.8625 98.4834 82.6264 91.2501 81.9915 81.69C81.3565 72.13 88.5632 63.8634 98.0879 63.2261C107.613 62.5888 115.849 69.8221 116.484 79.3822Z" stroke="#102B4E" stroke-width="1.6998" stroke-miterlimit="79.8403" stroke-linecap="round" stroke-linejoin="round" stroke-dasharray="3.4 3.4"/>
<path d="M231.146 25.3734C241.875 26.3477 252.488 27.8951 262.973 30.081C272.755 32.3619 277.797 36.6478 281 40.1957L279.849 43.6566" stroke="#4D4D4D" stroke-width="1.6998" stroke-miterlimit="79.8403" stroke-linecap="round" stroke-linejoin="round"/>
<path d="M123.445 7.86346C149.594 6.14998 170.649 6.84627 184.051 11.2227" stroke="#4D4D4D" stroke-width="1.6998" stroke-miterlimit="79.8403" stroke-linecap="round" stroke-linejoin="round"/>
<path d="M42.5882 82.176L42.5927 78.1986C40.0229 68.302 40.7492 59.4125 43.4395 51.0813" stroke="#4D4D4D" stroke-width="1.6998" stroke-miterlimit="79.8403" stroke-linecap="round" stroke-linejoin="round"/>
<path fill-rule="evenodd" clip-rule="evenodd" d="M159.045 92.7938L153.739 80.6864C152.646 78.2122 149.579 76.4321 146.893 76.7249L133.8 78.1535C131.529 75.2521 129.652 72.0218 128.262 68.5496L136.049 57.872C137.642 55.6827 137.642 52.1269 136.052 49.9421L128.262 39.2736C129.657 35.7969 131.531 32.5666 133.803 29.6629L146.897 31.0893C149.583 31.3786 152.646 29.603 153.739 27.1243L159.049 15.0283C160.857 14.774 162.701 14.6372 164.578 14.6372C166.455 14.6372 168.302 14.774 170.112 15.0283L175.423 27.1243C176.51 29.603 179.581 31.3786 182.268 31.087L195.35 29.6651C197.621 32.5665 199.496 35.7969 200.89 39.2736L193.112 49.9444C191.518 52.1292 191.514 55.6872 193.108 57.8743L200.895 68.5429C199.5 72.0218 197.626 75.2567 195.35 78.1558L182.268 76.7294C179.581 76.44 176.514 78.2157 175.427 80.6943L170.107 92.7938C168.3 93.0481 166.453 93.1815 164.578 93.1815C162.701 93.1815 160.85 93.0481 159.045 92.7938Z" fill="white" stroke="white" stroke-width="6.79921" stroke-miterlimit="79.8403" stroke-linejoin="round"/>
<path d="M164.693 66.5297V41.2954" stroke="white" stroke-width="6.79921" stroke-miterlimit="79.8403" stroke-linecap="round" stroke-linejoin="round"/>
<path d="M177.264 53.9138H152.122" stroke="white" stroke-width="6.79921" stroke-miterlimit="79.8403" stroke-linecap="round" stroke-linejoin="round"/>
<path fill-rule="evenodd" clip-rule="evenodd" d="M159.045 92.7938L153.739 80.6864C152.646 78.2122 149.579 76.4321 146.893 76.7249L133.8 78.1535C131.529 75.2521 129.652 72.0218 128.262 68.5496L136.049 57.872C137.642 55.6827 137.642 52.1269 136.052 49.9421L128.262 39.2736C129.657 35.7969 131.531 32.5666 133.803 29.6629L146.897 31.0893C149.583 31.3786 152.646 29.603 153.739 27.1243L159.049 15.0283C160.857 14.774 162.701 14.6372 164.578 14.6372C166.455 14.6372 168.302 14.774 170.112 15.0283L175.423 27.1243C176.51 29.603 179.581 31.3786 182.268 31.087L195.35 29.6651C197.621 32.5665 199.496 35.7969 200.89 39.2736L193.112 49.9444C191.518 52.1292 191.514 55.6872 193.108 57.8743L200.895 68.5429C199.5 72.0218 197.626 75.2567 195.35 78.1558L182.268 76.7294C179.581 76.44 176.514 78.2157 175.427 80.6943L170.107 92.7938C168.3 93.0481 166.453 93.1815 164.578 93.1815C162.701 93.1815 160.85 93.0481 159.045 92.7938Z" fill="white" stroke="#4D4D4D" stroke-width="1.6998" stroke-miterlimit="79.8403" stroke-linejoin="round"/>
<path d="M164.693 66.5297V41.2954" stroke="#4D4D4D" stroke-width="1.6998" stroke-miterlimit="79.8403" stroke-linecap="round" stroke-linejoin="round"/>
<path d="M177.264 53.9138H152.122" stroke="#4D4D4D" stroke-width="1.6998" stroke-miterlimit="79.8403" stroke-linecap="round" stroke-linejoin="round"/>
</svg>
