<svg width="300" height="100" viewBox="0 0 300 100" fill="none" xmlns="http://www.w3.org/2000/svg">
<mask id="mask0_196_11261" style="mask-type:alpha" maskUnits="userSpaceOnUse" x="0" y="0" width="300" height="100">
<rect width="300" height="100" fill="#D9D9D9"/>
</mask>
<g mask="url(#mask0_196_11261)">
<path d="M173.872 7.40168C170.075 7.40168 166.278 8.92036 164.76 14.2357H158.685C156.877 14.2357 155.647 15.3433 155.647 17.2731V21.8291" stroke="#343434" stroke-width="1.6" stroke-miterlimit="79.8403" stroke-linecap="round" stroke-linejoin="round"/>
<path d="M173.871 7.40168C177.668 7.40168 181.464 8.92036 182.983 14.2357H189.058C190.866 14.2357 192.095 15.3433 192.095 17.2731V21.8291" stroke="#343434" stroke-width="1.6" stroke-miterlimit="79.8403" stroke-linecap="round" stroke-linejoin="round"/>
<path d="M173.872 22.5876H136.664C133.351 22.5876 131.349 24.4384 131.349 27.903V99.2808" stroke="#343434" stroke-width="1.6" stroke-miterlimit="79.8403" stroke-linecap="round" stroke-linejoin="round"/>
<path d="M173.871 22.5893H211.079C214.391 22.5893 216.394 24.4401 216.394 27.9047V40.4773" stroke="#343434" stroke-width="1.6" stroke-miterlimit="79.8403" stroke-linecap="round" stroke-linejoin="round"/>
<path d="M216.395 84.8017V99.2808" stroke="#343434" stroke-width="1.6" stroke-miterlimit="79.8403" stroke-linecap="round" stroke-linejoin="round"/>
<path fill-rule="evenodd" clip-rule="evenodd" d="M224.082 39.8622C236.71 39.8622 246.958 50.1102 246.958 62.7375C246.958 75.3648 236.71 85.6128 224.082 85.6128C211.455 85.6128 201.207 75.3648 201.207 62.7375C201.207 50.1102 211.455 39.8622 224.082 39.8622Z" stroke="#343434" stroke-width="1.6" stroke-miterlimit="79.8403"/>
<path d="M213.789 61.5949L221.796 69.6013L235.146 57.3952" stroke="#343434" stroke-width="1.6" stroke-miterlimit="79.8403" stroke-linecap="round" stroke-linejoin="round"/>
<path d="M129.07 30.9415H110.846C108.568 30.9415 106.773 32.0451 105.531 33.9789L97.9374 46.1283H90.344C88.149 46.2984 87.3087 47.4333 87.3066 49.1656C87.3066 51.4436 90.344 52.9623 93.3813 53.7216L90.344 58.2777C89.5847 59.7963 88.8253 61.315 88.8253 64.3524V91.6885C88.7858 93.2072 89.5462 93.9655 91.1033 93.9666H99.456C100.922 93.8511 101.639 93.0533 101.734 91.6885V86.3732H129.07" stroke="#C3002F" stroke-width="1.6" stroke-miterlimit="79.8403" stroke-linecap="round" stroke-linejoin="round"/>
<path d="M129.071 53.7219H101.734C99.5151 53.7219 98.9451 52.0959 100.216 49.9252L107.05 38.5352C108.836 35.6942 109.173 34.7385 112.365 34.7385H129.071" stroke="#C3002F" stroke-width="1.6" stroke-miterlimit="79.8403" stroke-linecap="round" stroke-linejoin="round"/>
<path d="M98.6967 70.4272C96.1818 70.4272 94.1387 68.3861 94.1387 65.8712C94.1387 63.3563 96.1818 61.3152 98.6967 61.3152C99.3528 61.3152 99.9765 61.4539 100.54 61.704" stroke="#C3002F" stroke-width="1.6" stroke-miterlimit="79.8403" stroke-linecap="round" stroke-linejoin="round"/>
<path d="M108.304 65.2597C109.342 65.6222 110.087 66.6093 110.087 67.7696C110.087 69.2366 108.896 70.4272 107.429 70.4272C107.365 70.4272 107.302 70.4252 107.24 70.4202" stroke="#C3002F" stroke-width="1.6" stroke-miterlimit="79.8403" stroke-linecap="round" stroke-linejoin="round"/>
<path d="M100.513 61.6832L108.468 65.3311" stroke="#C3002F" stroke-width="1.6" stroke-miterlimit="79.8403" stroke-linecap="round" stroke-linejoin="round"/>
<path d="M107.05 70.4272H98.6973" stroke="#C3002F" stroke-width="1.6" stroke-miterlimit="79.8403" stroke-linecap="round" stroke-linejoin="round"/>
<path d="M128.311 74.9826H119.958C118.602 74.8641 117.854 76.0679 118.439 77.2606L119.958 80.298C120.265 80.7738 120.715 81.0897 121.477 81.0573H128.311" stroke="#C3002F" stroke-width="1.6" stroke-miterlimit="79.8403" stroke-linecap="round" stroke-linejoin="round"/>
<path fill-rule="evenodd" clip-rule="evenodd" d="M145.016 41.3334V47.1297C145.016 48.2535 145.929 49.1667 147.053 49.1667H152.851C153.975 49.1667 154.888 48.2535 154.888 47.1297V41.3334C154.888 40.2096 153.975 39.2964 152.851 39.2964H147.053C145.929 39.2964 145.016 40.2096 145.016 41.3334Z" stroke="#343434" stroke-width="1.6" stroke-miterlimit="79.8403"/>
<path fill-rule="evenodd" clip-rule="evenodd" d="M145.016 60.3154V66.1116C145.016 67.2355 145.929 68.1487 147.053 68.1487H152.851C153.975 68.1487 154.888 67.2355 154.888 66.1116V60.3154C154.888 59.1915 153.975 58.2783 152.851 58.2783H147.053C145.929 58.2783 145.016 59.1915 145.016 60.3154Z" stroke="#343434" stroke-width="1.6" stroke-miterlimit="79.8403"/>
<path fill-rule="evenodd" clip-rule="evenodd" d="M145.016 79.2995V85.0958C145.016 86.2196 145.929 87.1328 147.053 87.1328H152.851C153.975 87.1328 154.888 86.2196 154.888 85.0958V79.2995C154.888 78.1757 153.975 77.2624 152.851 77.2624H147.053C145.929 77.2624 145.016 78.1757 145.016 79.2995Z" stroke="#343434" stroke-width="1.6" stroke-miterlimit="79.8403"/>
<path d="M161.722 41.572H197.411" stroke="#343434" stroke-width="1.6" stroke-miterlimit="79.8403" stroke-linecap="round" stroke-linejoin="round"/>
<path d="M161.722 46.8882H189.058" stroke="#343434" stroke-width="1.6" stroke-miterlimit="79.8403" stroke-linecap="round" stroke-linejoin="round"/>
<path d="M161.722 60.5559H197.411" stroke="#343434" stroke-width="1.6" stroke-miterlimit="79.8403" stroke-linecap="round" stroke-linejoin="round"/>
<path d="M161.722 65.8701H189.058" stroke="#343434" stroke-width="1.6" stroke-miterlimit="79.8403" stroke-linecap="round" stroke-linejoin="round"/>
<path d="M161.722 79.54H197.411" stroke="#343434" stroke-width="1.6" stroke-miterlimit="79.8403" stroke-linecap="round" stroke-linejoin="round"/>
<path d="M161.722 84.854H189.058" stroke="#343434" stroke-width="1.6" stroke-miterlimit="79.8403" stroke-linecap="round" stroke-linejoin="round"/>
<path fill-rule="evenodd" clip-rule="evenodd" d="M173.871 11.958C175.548 11.958 176.91 13.3187 176.91 14.9954C176.91 16.672 175.548 18.0327 173.871 18.0327C172.195 18.0327 170.833 16.672 170.833 14.9954C170.833 13.3187 172.195 11.958 173.871 11.958Z" stroke="#343434" stroke-width="1.6" stroke-miterlimit="79.8403"/>
<path fill-rule="evenodd" clip-rule="evenodd" d="M61.5263 29.0429L60.4319 32.8203C60.0198 34.2388 60.8379 35.7261 62.2563 36.1371L72.5246 39.1137C73.9441 39.5248 75.4314 38.7067 75.8424 37.2883L76.9379 33.5118C77.3479 32.0914 76.5298 30.6051 75.1114 30.193L64.8431 27.2164C63.4247 26.8054 61.9384 27.6244 61.5263 29.0429Z" stroke="#343434" stroke-width="1.6" stroke-miterlimit="79.8403"/>
<path d="M68.6431 28.4366L62.7324 35.1917" stroke="#343434" stroke-width="1.6" stroke-miterlimit="79.8403" stroke-linecap="round" stroke-linejoin="round"/>
<path d="M74.217 30.0802L67.8203 37.3911" stroke="#343434" stroke-width="1.6" stroke-miterlimit="79.8403" stroke-linecap="round" stroke-linejoin="round"/>
<path fill-rule="evenodd" clip-rule="evenodd" d="M63.4271 19.8011C63.0292 21.7298 63.8169 22.6329 65.1158 23.0946L84.8333 28.8787C86.3965 29.469 86.8127 31.0494 86.3955 32.4678L85.1229 37.2527C77.8474 42.4091 74.3281 48.581 75.1735 61.185L77.3898 86.7291C78.1046 92.3512 75.6757 97.946 69.2375 97.946C63.6174 97.946 60.5335 94.0026 61.2685 87.0217L63.8786 60.13C64.5408 52.8221 63.4514 47.5442 59.843 42.5832L52.7903 31.6589C50.2591 26.2402 50.7026 21.1699 54.2087 16.46L60.7623 9.23108C62.2719 7.69013 64.0973 6.84271 66.5039 7.27199L63.4271 19.8011Z" stroke="#343434" stroke-width="1.6" stroke-miterlimit="79.8403" stroke-linejoin="round"/>
<path d="M84.0013 28.2805C84.7454 20.9787 82.9575 15.6674 78.7315 12.2706L75.2861 25.9165" stroke="#343434" stroke-width="1.6" stroke-miterlimit="79.8403" stroke-linecap="round" stroke-linejoin="round"/>
<path fill-rule="evenodd" clip-rule="evenodd" d="M69.5293 85.9421C71.6271 85.9421 73.331 87.644 73.331 89.7418C73.331 91.8396 71.6271 93.5415 69.5293 93.5415C67.4315 93.5415 65.7285 91.8396 65.7285 89.7418C65.7285 87.644 67.4315 85.9421 69.5293 85.9421Z" stroke="#343434" stroke-width="1.6" stroke-miterlimit="79.8403" stroke-linejoin="round"/>
</g>
</svg>
