<svg width="320" height="104" viewBox="0 0 320 104" fill="none" xmlns="http://www.w3.org/2000/svg">
<path d="M38.1631 35.6272L58.0525 33.0453C86.2695 20.9289 110.455 15.543 142.704 15.543C166.89 15.543 186.58 21.8074 207.433 34.8964C212.492 37.7201 215.973 39.2255 222.273 40.1521C244.822 42.3511 266.593 44.6551 278.454 57.3196C279.852 59.1554 280.857 61.4463 280.999 64.7163L280.697 78.9529C280.429 81.5381 278.088 82.9111 275.806 83.4231C270.866 84.6736 264.977 85.5521 258.739 85.388" stroke="#C3002F" stroke-width="1.6998" stroke-miterlimit="79.8403" stroke-linecap="round" stroke-linejoin="round"/>
<path d="M242.225 96.1518C231.931 96.9451 222.944 89.2263 222.152 78.9114C221.36 68.5964 229.063 59.5915 239.357 58.7982C249.651 58.0049 258.638 65.7237 259.43 76.0386C260.221 86.3535 252.518 95.3585 242.225 96.1518Z" stroke="#C3002F" stroke-width="1.6998" stroke-miterlimit="79.8403"/>
<path d="M279.757 69.3965H269.009L274.382 78.8204" stroke="#C3002F" stroke-width="1.6998" stroke-miterlimit="79.8403" stroke-linecap="round" stroke-linejoin="round"/>
<path d="M275.727 59.9727H264.977C265.103 55.8558 261.596 52.6952 254.229 50.5487" stroke="#C3002F" stroke-width="1.6998" stroke-miterlimit="79.8403" stroke-linecap="round" stroke-linejoin="round"/>
<path d="M223.324 85.5521H103.736" stroke="#C3002F" stroke-width="1.6998" stroke-miterlimit="79.8403" stroke-linecap="round" stroke-linejoin="round"/>
<path d="M67.4587 82.8596L40.5846 78.8205C34.7071 77.5755 28.5556 77.5788 27.6133 70.9402L27.8818 63.1321C28.5992 57.5351 30.6574 50.9315 34.1972 40.3785C34.967 38.2747 36.2455 36.7791 37.8975 35.7387" stroke="#C3002F" stroke-width="1.6998" stroke-miterlimit="79.8403" stroke-linecap="round" stroke-linejoin="round"/>
<path d="M39.2408 39.7768H56.7084C60.7396 39.7768 60.7396 42.4692 56.7084 45.1627L47.3031 50.5486L41.9279 53.241L33.1504 52.5233" stroke="#C3002F" stroke-width="1.6998" stroke-miterlimit="79.8403" stroke-linecap="round" stroke-linejoin="round"/>
<path d="M99.7061 46.5083H110.455" stroke="#C3002F" stroke-width="1.6998" stroke-miterlimit="79.8403" stroke-linecap="round" stroke-linejoin="round"/>
<path d="M156.141 49.2008H166.889" stroke="#C3002F" stroke-width="1.6998" stroke-miterlimit="79.8403" stroke-linecap="round" stroke-linejoin="round"/>
<path d="M197.793 34.391C195.894 34.9457 195.027 36.916 195.027 38.8853C195.027 42.0634 197.012 43.816 199.137 43.816H204.512" stroke="#C3002F" stroke-width="1.6998" stroke-miterlimit="79.8403" stroke-linecap="round" stroke-linejoin="round"/>
<path d="M196.449 34.391C181.213 26.8575 165.259 21.8381 148.076 20.929" stroke="#C3002F" stroke-width="1.6998" stroke-miterlimit="79.8403" stroke-linecap="round" stroke-linejoin="round"/>
<path d="M196.028 42.4507L97.0166 37.0845" stroke="#C3002F" stroke-width="1.6998" stroke-miterlimit="79.8403" stroke-linecap="round" stroke-linejoin="round"/>
<path d="M142.703 39.777L140.015 20.929C125.27 21.6073 115.83 22.2747 105.081 24.9671" stroke="#C3002F" stroke-width="1.6998" stroke-miterlimit="79.8403" stroke-linecap="round" stroke-linejoin="round"/>
<path d="M241.647 88.6306C235.499 89.1043 230.131 84.4937 229.658 78.3326C229.186 72.1714 233.787 66.7928 239.935 66.3191C246.083 65.8454 251.451 70.456 251.923 76.6171C252.396 82.7783 247.795 88.1568 241.647 88.6306Z" stroke="#C3002F" stroke-width="1.6998" stroke-miterlimit="79.8403"/>
<path d="M87.7021 96.1518C77.4082 96.9451 68.4215 89.2263 67.6297 78.9114C66.8379 68.5964 74.541 59.5915 84.8349 58.7982C95.1288 58.0049 104.115 65.7237 104.907 76.0386C105.699 86.3535 97.996 95.3585 87.7021 96.1518Z" stroke="#C3002F" stroke-width="1.6998" stroke-miterlimit="79.8403"/>
<path d="M87.1254 88.6306C80.9765 89.1044 75.6085 84.4939 75.1357 78.3327C74.6629 72.1716 79.2643 66.793 85.4132 66.3192C91.5622 65.8455 96.9302 70.456 97.403 76.6171C97.8758 82.7783 93.2744 88.1569 87.1254 88.6306Z" stroke="#C3002F" stroke-width="1.6998" stroke-miterlimit="79.8403"/>
<path fill-rule="evenodd" clip-rule="evenodd" d="M117.001 9.53688V94.4631C117.001 97.5187 119.477 100 122.527 100H186.815C189.864 100 192.341 97.5187 192.341 94.4631V9.53688C192.341 6.48126 189.864 4 186.815 4H122.527C119.477 4 117.001 6.48126 117.001 9.53688Z" fill="white" stroke="white" stroke-width="6.79921" stroke-miterlimit="79.8403"/>
<path d="M137.765 43.5273H129.763C129.21 43.5273 128.763 43.0787 128.763 42.5252V34.5071C128.763 33.9536 129.21 33.505 129.763 33.505H137.765C138.317 33.505 138.765 33.9536 138.765 34.5071V42.5252C138.765 43.0787 138.317 43.5273 137.765 43.5273Z" fill="white" stroke="white" stroke-width="6.79921" stroke-miterlimit="79.8403"/>
<path d="M137.765 59.9376H129.763C129.21 59.9376 128.763 59.489 128.763 58.9355V50.9174C128.763 50.3639 129.21 49.9152 129.763 49.9152H137.765C138.317 49.9152 138.765 50.3639 138.765 50.9174V58.9355C138.765 59.489 138.317 59.9376 137.765 59.9376Z" fill="white" stroke="white" stroke-width="6.79921" stroke-miterlimit="79.8403"/>
<path d="M137.765 76.348H129.763C129.21 76.348 128.763 75.8994 128.763 75.3459V67.3278C128.763 66.7743 129.21 66.3256 129.763 66.3256H137.765C138.317 66.3256 138.765 66.7743 138.765 67.3278V75.3459C138.765 75.8994 138.317 76.348 137.765 76.348Z" fill="white" stroke="white" stroke-width="6.79921" stroke-miterlimit="79.8403"/>
<path d="M144.775 35.7642H175.707" stroke="white" stroke-width="6.79921" stroke-miterlimit="79.8403" stroke-linecap="round" stroke-linejoin="round"/>
<path d="M144.775 40.6873H164.141" stroke="white" stroke-width="6.79921" stroke-miterlimit="79.8403" stroke-linecap="round" stroke-linejoin="round"/>
<path d="M144.775 52.1746H175.707" stroke="white" stroke-width="6.79921" stroke-miterlimit="79.8403" stroke-linecap="round" stroke-linejoin="round"/>
<path d="M144.775 57.0977H164.141" stroke="white" stroke-width="6.79921" stroke-miterlimit="79.8403" stroke-linecap="round" stroke-linejoin="round"/>
<path d="M144.775 68.585H175.707" stroke="white" stroke-width="6.79921" stroke-miterlimit="79.8403" stroke-linecap="round" stroke-linejoin="round"/>
<path d="M144.775 73.5081H164.141" stroke="white" stroke-width="6.79921" stroke-miterlimit="79.8403" stroke-linecap="round" stroke-linejoin="round"/>
<path d="M139.33 9.14073V14.8844C139.33 16.4532 140.363 17.3459 141.787 17.3459H167.992C169.415 17.3459 170.448 16.4532 170.448 14.8844V9.14073" stroke="white" stroke-width="6.79921" stroke-miterlimit="79.8403" stroke-linecap="round" stroke-linejoin="round"/>
<path fill-rule="evenodd" clip-rule="evenodd" d="M192.66 53.6437L182.349 75.7978L181.395 85.0424C181.281 86.3323 182.349 87.0291 183.466 86.0106L189.921 79.3348L200.231 57.1818C204.723 48.3322 211.89 29.0478 209.441 28.2546L208.854 27.9811C205.952 26.2733 197.736 42.7363 192.66 53.6437Z" fill="white" stroke="white" stroke-width="6.79921" stroke-miterlimit="79.8403"/>
<path d="M189.791 78.475L183.111 75.3548" stroke="white" stroke-width="6.79921" stroke-miterlimit="79.8403" stroke-linecap="round" stroke-linejoin="round"/>
<path d="M193.148 53.788L199.827 56.9093" stroke="white" stroke-width="6.79921" stroke-miterlimit="79.8403" stroke-linecap="round" stroke-linejoin="round"/>
<path d="M204.894 31.1812L212.041 34.5497C211.499 39.8776 208.012 48.8158 203.192 59.3875" stroke="white" stroke-width="6.79921" stroke-miterlimit="79.8403" stroke-linecap="round" stroke-linejoin="round"/>
<path d="M242.102 41.9618C242.102 47.1731 237.886 51.3978 232.685 51.3978C227.484 51.3978 223.268 47.1731 223.268 41.9618C223.268 36.7504 227.484 32.5258 232.685 32.5258C237.886 32.5258 242.102 36.7504 242.102 41.9618Z" fill="white" stroke="#343434" stroke-width="1.6998" stroke-miterlimit="79.8403"/>
<path d="M39.8347 51.8081C39.8347 57.0194 35.6184 61.2441 30.4173 61.2441C25.2163 61.2441 21 57.0194 21 51.8081C21 46.5967 25.2163 42.3721 30.4173 42.3721C35.6184 42.3721 39.8347 46.5967 39.8347 51.8081Z" fill="white" stroke="#343434" stroke-width="1.6998" stroke-miterlimit="79.8403"/>
<path d="M88.9882 24.731C88.9882 29.9532 84.7631 34.1867 79.5512 34.1867C74.3393 34.1867 70.1143 29.9532 70.1143 24.731C70.1143 19.5087 74.3393 15.2753 79.5512 15.2753C84.7631 15.2753 88.9882 19.5087 88.9882 24.731Z" fill="white" stroke="#343434" stroke-width="1.6998" stroke-miterlimit="79.8403"/>
<path d="M229.082 41.3053L232.03 44.2592L236.125 40.1565" stroke="#343434" stroke-width="1.6998" stroke-miterlimit="79.8403" stroke-linecap="round" stroke-linejoin="round"/>
<path d="M76.2764 24.2384L79.2244 27.1923L83.3189 23.0897" stroke="#343434" stroke-width="1.6998" stroke-miterlimit="79.8403" stroke-linecap="round" stroke-linejoin="round"/>
<path d="M26.6514 51.0695L29.5994 54.0234L33.6939 49.9208" stroke="#343434" stroke-width="1.6998" stroke-miterlimit="79.8403" stroke-linecap="round" stroke-linejoin="round"/>
<path fill-rule="evenodd" clip-rule="evenodd" d="M117.001 9.53688V94.4631C117.001 97.5187 119.477 100 122.527 100H186.815C189.864 100 192.341 97.5187 192.341 94.4631V9.53688C192.341 6.48126 189.864 4 186.815 4H122.527C119.477 4 117.001 6.48126 117.001 9.53688Z" fill="white" stroke="#C3002F" stroke-width="1.6998" stroke-miterlimit="79.8403"/>
<path d="M137.765 43.5273H129.763C129.21 43.5273 128.763 43.0787 128.763 42.5252V34.5071C128.763 33.9536 129.21 33.505 129.763 33.505H137.765C138.317 33.505 138.765 33.9536 138.765 34.5071V42.5252C138.765 43.0787 138.317 43.5273 137.765 43.5273Z" fill="white" stroke="#C3002F" stroke-width="1.6998" stroke-miterlimit="79.8403"/>
<path d="M137.765 59.9376H129.763C129.21 59.9376 128.763 59.489 128.763 58.9355V50.9174C128.763 50.3639 129.21 49.9152 129.763 49.9152H137.765C138.317 49.9152 138.765 50.3639 138.765 50.9174V58.9355C138.765 59.489 138.317 59.9376 137.765 59.9376Z" fill="white" stroke="#C3002F" stroke-width="1.6998" stroke-miterlimit="79.8403"/>
<path d="M137.765 76.348H129.763C129.21 76.348 128.763 75.8994 128.763 75.3459V67.3278C128.763 66.7743 129.21 66.3256 129.763 66.3256H137.765C138.317 66.3256 138.765 66.7743 138.765 67.3278V75.3459C138.765 75.8994 138.317 76.348 137.765 76.348Z" fill="white" stroke="#C3002F" stroke-width="1.6998" stroke-miterlimit="79.8403"/>
<path d="M144.775 35.7642H175.707" stroke="#C3002F" stroke-width="1.6998" stroke-miterlimit="79.8403" stroke-linecap="round" stroke-linejoin="round"/>
<path d="M144.775 40.6873H164.141" stroke="#C3002F" stroke-width="1.6998" stroke-miterlimit="79.8403" stroke-linecap="round" stroke-linejoin="round"/>
<path d="M144.775 52.1746H175.707" stroke="#C3002F" stroke-width="1.6998" stroke-miterlimit="79.8403" stroke-linecap="round" stroke-linejoin="round"/>
<path d="M144.775 57.0977H164.141" stroke="#C3002F" stroke-width="1.6998" stroke-miterlimit="79.8403" stroke-linecap="round" stroke-linejoin="round"/>
<path d="M144.775 68.585H175.707" stroke="#C3002F" stroke-width="1.6998" stroke-miterlimit="79.8403" stroke-linecap="round" stroke-linejoin="round"/>
<path d="M144.775 73.5081H164.141" stroke="#C3002F" stroke-width="1.6998" stroke-miterlimit="79.8403" stroke-linecap="round" stroke-linejoin="round"/>
<path d="M141.787 9.14073V14.8844C141.787 16.4532 142.82 17.3459 144.244 17.3459H165.535C166.959 17.3459 167.992 16.4532 167.992 14.8844V9.14073" stroke="#C3002F" stroke-width="1.6998" stroke-miterlimit="79.8403" stroke-linecap="round" stroke-linejoin="round"/>
<path fill-rule="evenodd" clip-rule="evenodd" d="M192.66 53.6437L182.349 75.7978L181.395 85.0424C181.281 86.3323 182.349 87.0291 183.466 86.0106L189.921 79.3348L200.231 57.1818C204.723 48.3322 211.89 29.0478 209.441 28.2546L208.854 27.9811C205.952 26.2733 197.736 42.7363 192.66 53.6437Z" fill="white" stroke="#343434" stroke-width="1.6998" stroke-miterlimit="79.8403"/>
<path d="M189.791 78.475L183.111 75.3548" stroke="#343434" stroke-width="1.6998" stroke-miterlimit="79.8403" stroke-linecap="round" stroke-linejoin="round"/>
<path d="M193.148 53.788L199.827 56.9093" stroke="#343434" stroke-width="1.6998" stroke-miterlimit="79.8403" stroke-linecap="round" stroke-linejoin="round"/>
<path d="M204.894 31.1812L212.041 34.5497C211.499 39.8776 208.012 48.8158 203.192 59.3875" stroke="#343434" stroke-width="1.6998" stroke-miterlimit="79.8403" stroke-linecap="round" stroke-linejoin="round"/>
<path d="M131.101 38.0856L133.363 40.3524L136.505 37.2038" stroke="#C3002F" stroke-width="1.6998" stroke-miterlimit="79.8403" stroke-linecap="round" stroke-linejoin="round"/>
</svg>
