<svg width="320" height="104" viewBox="0 0 320 104" fill="none" xmlns="http://www.w3.org/2000/svg">
<g clip-path="url(#clip0_469_4156)">
<path d="M148.522 46.0743H140.892V43.5147L162.935 22.1839" stroke="#C3002F" stroke-width="1.6998" stroke-miterlimit="79.8403" stroke-linecap="round" stroke-linejoin="round"/>
<path d="M177.348 46.0743H184.978V43.5147L162.935 22.1839" stroke="#C3002F" stroke-width="1.6998" stroke-miterlimit="79.8403" stroke-linecap="round" stroke-linejoin="round"/>
<path fill-rule="evenodd" clip-rule="evenodd" d="M154.457 58.8728V43.5147H171.414V58.8728H154.457Z" stroke="#C3002F" stroke-width="1.6998" stroke-miterlimit="79.8403" stroke-linecap="round" stroke-linejoin="round"/>
<path d="M147.674 36.689H95.9561L110.369 52.9004H144.282" stroke="#C3002F" stroke-width="1.6998" stroke-miterlimit="79.8403" stroke-linecap="round" stroke-linejoin="round"/>
<path d="M36.6084 59.7262L67.978 26.4502" stroke="#C3002F" stroke-width="1.6998" stroke-miterlimit="79.8403" stroke-linecap="round" stroke-linejoin="round"/>
<path d="M112.912 56.3133L116.304 59.7262H99.3471L67.9775 26.4502" stroke="#C3002F" stroke-width="1.6998" stroke-miterlimit="79.8403" stroke-linecap="round" stroke-linejoin="round"/>
<path d="M67.9775 26.4502H106.13L117.152 36.689" stroke="#C3002F" stroke-width="1.6998" stroke-miterlimit="79.8403" stroke-linecap="round" stroke-linejoin="round"/>
<path d="M74.7609 49.4874C74.7609 53.7285 71.3446 57.1665 67.1304 57.1665C62.9163 57.1665 59.5 53.7285 59.5 49.4874C59.5 45.2464 62.9163 41.8083 67.1304 41.8083C71.3446 41.8083 74.7609 45.2464 74.7609 49.4874Z" stroke="#C3002F" stroke-width="1.6998" stroke-miterlimit="79.8403" stroke-linecap="round" stroke-linejoin="round"/>
<path d="M67.1299 44.368V53.7535" stroke="#C3002F" stroke-width="1.6998" stroke-miterlimit="79.8403" stroke-linecap="round" stroke-linejoin="round"/>
<path d="M62.043 49.4873H72.2169" stroke="#C3002F" stroke-width="1.6998" stroke-miterlimit="79.8403" stroke-linecap="round" stroke-linejoin="round"/>
<path d="M36.6084 59.7262H54.4128" stroke="#C3002F" stroke-width="1.6998" stroke-miterlimit="79.8403" stroke-linecap="round" stroke-linejoin="round"/>
<path d="M42.5439 59.7261V95.5618" stroke="#C3002F" stroke-width="1.6998" stroke-miterlimit="79.8403" stroke-linecap="round" stroke-linejoin="round"/>
<path fill-rule="evenodd" clip-rule="evenodd" d="M56.1084 68.2584H78.9997V88.736H56.1084V68.2584Z" stroke="#C3002F" stroke-width="1.6998" stroke-miterlimit="79.8403" stroke-linecap="round" stroke-linejoin="round"/>
<path d="M71.3701 68.2584V88.736" stroke="#C3002F" stroke-width="1.6998" stroke-miterlimit="79.8403" stroke-linecap="round" stroke-linejoin="round"/>
<path d="M63.7383 68.2584V88.736" stroke="#C3002F" stroke-width="1.6998" stroke-miterlimit="79.8403" stroke-linecap="round" stroke-linejoin="round"/>
<path d="M56.1084 75.0844H78.9997" stroke="#C3002F" stroke-width="1.6998" stroke-miterlimit="79.8403" stroke-linecap="round" stroke-linejoin="round"/>
<path d="M93.4128 72.5245C98.0953 72.5245 101.891 76.3446 101.891 81.0568C101.891 85.7691 98.0953 89.5891 93.4128 89.5891C88.7304 89.5891 84.9346 85.7691 84.9346 81.0568C84.9346 76.3446 88.7304 72.5245 93.4128 72.5245Z" stroke="#343434" stroke-width="1.6998" stroke-miterlimit="79.8403" stroke-linecap="round" stroke-linejoin="round"/>
<path d="M93.4121 82.7633V95.5618" stroke="#343434" stroke-width="1.6998" stroke-miterlimit="79.8403" stroke-linecap="round" stroke-linejoin="round"/>
<path d="M7.78223 95.5618H313" stroke="#C3002F" stroke-width="1.6998" stroke-miterlimit="79.8403" stroke-linecap="round" stroke-linejoin="round"/>
<path d="M39.4577 78.1845C37.996 78.3927 36.4914 78.4655 34.9642 78.3892C21.8997 77.7487 11.814 66.5589 12.4504 53.4124C13.0868 40.2647 24.207 30.1135 37.2714 30.7551C43.3916 31.0543 48.8561 33.6709 52.8737 37.7175" stroke="#343434" stroke-width="1.6998" stroke-miterlimit="79.8403" stroke-linecap="round" stroke-linejoin="round"/>
<path d="M35.7607 63.139V95.5618" stroke="#343434" stroke-width="1.6998" stroke-miterlimit="79.8403" stroke-linecap="round" stroke-linejoin="round"/>
<path d="M180.74 71.6714H107.827L104.436 66.552H179.044" stroke="#C3002F" stroke-width="1.6998" stroke-miterlimit="79.8403" stroke-linecap="round" stroke-linejoin="round"/>
<path d="M144.282 46.0744V66.5519" stroke="#C3002F" stroke-width="1.6998" stroke-miterlimit="79.8403" stroke-linecap="round" stroke-linejoin="round"/>
<path d="M144.282 71.6713V94.7085" stroke="#C3002F" stroke-width="1.6998" stroke-miterlimit="79.8403" stroke-linecap="round" stroke-linejoin="round"/>
<path d="M112.913 72.5245V94.7085" stroke="#C3002F" stroke-width="1.6998" stroke-miterlimit="79.8403" stroke-linecap="round" stroke-linejoin="round"/>
<path fill-rule="evenodd" clip-rule="evenodd" d="M123.086 57.1665V62.2859H134.956V57.1665H123.086Z" stroke="#C3002F" stroke-width="1.6998" stroke-miterlimit="79.8403" stroke-linecap="round" stroke-linejoin="round"/>
<path d="M162.935 22.184H201.087" stroke="#C3002F" stroke-width="1.6998" stroke-miterlimit="79.8403" stroke-linecap="round" stroke-linejoin="round"/>
<path d="M162.935 44.368V58.0197" stroke="#C3002F" stroke-width="1.6998" stroke-miterlimit="79.8403" stroke-linecap="round" stroke-linejoin="round"/>
<path d="M184.978 46.0743H210.412" stroke="#C3002F" stroke-width="1.6998" stroke-miterlimit="79.8403" stroke-linecap="round" stroke-linejoin="round"/>
<path fill-rule="evenodd" clip-rule="evenodd" d="M192.609 50.3405V57.1664H206.175V50.3405H192.609Z" stroke="#C3002F" stroke-width="1.6998" stroke-miterlimit="79.8403" stroke-linecap="round" stroke-linejoin="round"/>
<path d="M154.457 72.5246V87.8827" stroke="#C3002F" stroke-width="1.6998" stroke-miterlimit="79.8403" stroke-linecap="round" stroke-linejoin="round"/>
<path d="M162.935 72.5246V87.8827" stroke="#C3002F" stroke-width="1.6998" stroke-miterlimit="79.8403" stroke-linecap="round" stroke-linejoin="round"/>
<path d="M171.413 72.5246V87.8827" stroke="#C3002F" stroke-width="1.6998" stroke-miterlimit="79.8403" stroke-linecap="round" stroke-linejoin="round"/>
<path d="M151.064 87.8827H175.651" stroke="#C3002F" stroke-width="1.6998" stroke-miterlimit="79.8403" stroke-linecap="round" stroke-linejoin="round"/>
<path d="M190.064 35.8357L220.586 3.71337e-05" stroke="#C3002F" stroke-width="1.6998" stroke-miterlimit="79.8403" stroke-linecap="round" stroke-linejoin="round"/>
<path d="M251.109 35.8357L220.587 3.71337e-05" stroke="#C3002F" stroke-width="1.6998" stroke-miterlimit="79.8403" stroke-linecap="round" stroke-linejoin="round"/>
<path d="M259.587 46.0743H301.13V43.5147L279.087 22.1839" stroke="#C3002F" stroke-width="1.6998" stroke-miterlimit="79.8403" stroke-linecap="round" stroke-linejoin="round"/>
<path d="M279.087 22.184H240.087" stroke="#C3002F" stroke-width="1.6998" stroke-miterlimit="79.8403" stroke-linecap="round" stroke-linejoin="round"/>
<path d="M296.892 46.9277V65.6987" stroke="#C3002F" stroke-width="1.6998" stroke-miterlimit="79.8403" stroke-linecap="round" stroke-linejoin="round"/>
<path d="M224.827 66.552H311.305L308.761 71.6714H223.131" stroke="#C3002F" stroke-width="1.6998" stroke-miterlimit="79.8403" stroke-linecap="round" stroke-linejoin="round"/>
<path d="M201.935 59.7262C190.913 59.7262 188.37 64.8455 181.587 64.8455L184.13 71.6714H191.761V66.552C195.152 64.8455 198.376 63.9343 201.935 63.9923" stroke="#C3002F" stroke-width="1.6998" stroke-miterlimit="79.8403" stroke-linecap="round" stroke-linejoin="round"/>
<path d="M201.935 59.7262C212.956 59.7262 215.5 64.8455 222.282 64.8455L219.739 71.6714H212.108V66.552C208.717 64.8455 205.493 63.9343 201.935 63.9923" stroke="#C3002F" stroke-width="1.6998" stroke-miterlimit="79.8403" stroke-linecap="round" stroke-linejoin="round"/>
<path fill-rule="evenodd" clip-rule="evenodd" d="M285.021 51.1939V62.2859H290.955V51.1939H285.021Z" stroke="#C3002F" stroke-width="1.6998" stroke-miterlimit="79.8403" stroke-linecap="round" stroke-linejoin="round"/>
<path fill-rule="evenodd" clip-rule="evenodd" d="M273.151 51.1939V62.2859H279.086V51.1939H273.151Z" stroke="#C3002F" stroke-width="1.6998" stroke-miterlimit="79.8403" stroke-linecap="round" stroke-linejoin="round"/>
<path fill-rule="evenodd" clip-rule="evenodd" d="M228.217 58.8728V43.5147H245.173V58.8728H228.217Z" stroke="#C3002F" stroke-width="1.6998" stroke-miterlimit="79.8403" stroke-linecap="round" stroke-linejoin="round"/>
<path d="M236.696 44.368V58.0197" stroke="#C3002F" stroke-width="1.6998" stroke-miterlimit="79.8403" stroke-linecap="round" stroke-linejoin="round"/>
<path d="M294.347 74.2311V88.736H271.456V74.2311" stroke="#C3002F" stroke-width="1.6998" stroke-miterlimit="79.8403" stroke-linecap="round" stroke-linejoin="round"/>
<path d="M286.717 74.2311V88.736" stroke="#C3002F" stroke-width="1.6998" stroke-miterlimit="79.8403" stroke-linecap="round" stroke-linejoin="round"/>
<path d="M279.087 74.2311V88.736" stroke="#C3002F" stroke-width="1.6998" stroke-miterlimit="79.8403" stroke-linecap="round" stroke-linejoin="round"/>
<path d="M185.826 71.6713V95.5618" stroke="#C3002F" stroke-width="1.6998" stroke-miterlimit="79.8403" stroke-linecap="round" stroke-linejoin="round"/>
<path d="M218.043 71.6713V95.5618" stroke="#C3002F" stroke-width="1.6998" stroke-miterlimit="79.8403" stroke-linecap="round" stroke-linejoin="round"/>
<path fill-rule="evenodd" clip-rule="evenodd" d="M196.847 73.3778V90.4424H206.173V73.3778H196.847Z" stroke="#C3002F" stroke-width="1.6998" stroke-miterlimit="79.8403" stroke-linecap="round" stroke-linejoin="round"/>
<path d="M193.457 90.4424H209.566" stroke="#C3002F" stroke-width="1.6998" stroke-miterlimit="79.8403" stroke-linecap="round" stroke-linejoin="round"/>
<path d="M190.913 93.002H212.109" stroke="#C3002F" stroke-width="1.6998" stroke-miterlimit="79.8403" stroke-linecap="round" stroke-linejoin="round"/>
<path d="M261.282 46.0744V66.552V95.5618" stroke="#C3002F" stroke-width="1.6998" stroke-miterlimit="79.8403" stroke-linecap="round" stroke-linejoin="round"/>
<path d="M306.217 71.6713V95.5618" stroke="#C3002F" stroke-width="1.6998" stroke-miterlimit="79.8403" stroke-linecap="round" stroke-linejoin="round"/>
<path d="M228.217 26.4502C228.217 30.6912 224.801 34.1293 220.586 34.1293C216.372 34.1293 212.956 30.6912 212.956 26.4502C212.956 22.2092 216.372 18.7711 220.586 18.7711C224.801 18.7711 228.217 22.2092 228.217 26.4502Z" stroke="#C3002F" stroke-width="1.6998" stroke-miterlimit="79.8403" stroke-linecap="round" stroke-linejoin="round"/>
<path d="M220.587 21.3308V30.7163" stroke="#C3002F" stroke-width="1.6998" stroke-miterlimit="79.8403" stroke-linecap="round" stroke-linejoin="round"/>
<path d="M215.5 26.4502H225.674" stroke="#C3002F" stroke-width="1.6998" stroke-miterlimit="79.8403" stroke-linecap="round" stroke-linejoin="round"/>
<path fill-rule="evenodd" clip-rule="evenodd" d="M156.19 96C154.243 96 152.106 95.1945 150.218 93.0023C143.675 85.0809 131.75 68.2302 126.045 56.6433C123.726 51.9335 122.237 46.5718 122.237 40.9542C122.237 22.1149 137.431 6.82383 156.152 6.82383C174.872 6.82383 190.066 22.1149 190.066 40.9542C190.066 46.5388 188.586 51.9699 186.261 56.6433C180.568 68.0857 168.63 85.0809 162.087 93.0023C160.128 95.2287 158.137 96 156.19 96Z" fill="white" stroke="white" stroke-width="6.79921" stroke-miterlimit="79.8403" stroke-linecap="round" stroke-linejoin="round"/>
<path fill-rule="evenodd" clip-rule="evenodd" d="M156.19 96C154.243 96 152.106 95.1945 150.218 93.0023C143.675 85.0809 131.75 68.2302 126.045 56.6433C123.726 51.9335 122.237 46.5718 122.237 40.9542C122.237 22.1149 137.431 6.82383 156.152 6.82383C174.872 6.82383 190.066 22.1149 190.066 40.9542C190.066 46.5388 188.586 51.9699 186.261 56.6433C180.568 68.0857 168.63 85.0809 162.087 93.0023C160.128 95.2287 158.137 96 156.19 96Z" fill="white" stroke="#343434" stroke-width="1.6998" stroke-miterlimit="79.8403" stroke-linecap="round" stroke-linejoin="round"/>
<path d="M156.026 26.5778L155.95 58.8618" stroke="#343434" stroke-width="1.6998" stroke-miterlimit="79.8403" stroke-linecap="round" stroke-linejoin="round"/>
<path d="M170.857 42.5196L155.95 58.8618" stroke="#343434" stroke-width="1.6998" stroke-miterlimit="79.8403" stroke-linecap="round" stroke-linejoin="round"/>
<path d="M141.044 42.5196L155.951 58.8618" stroke="#343434" stroke-width="1.6998" stroke-miterlimit="79.8403" stroke-linecap="round" stroke-linejoin="round"/>
<path d="M25.241 79.6441C22.2725 86.0444 14.7008 88.8157 8.34102 85.8283C1.98005 82.8409 -0.773694 75.2221 2.19483 68.8206C3.77179 65.4202 6.64762 63.0436 9.95075 62.0118" stroke="#343434" stroke-width="1.6998" stroke-miterlimit="79.8403" stroke-linecap="round" stroke-linejoin="round"/>
<path d="M13.7168 74.2311V95.5619" stroke="#343434" stroke-width="1.6998" stroke-miterlimit="79.8403" stroke-linecap="round" stroke-linejoin="round"/>
<path d="M35.7609 67.4053L20.5 55.4601" stroke="#343434" stroke-width="1.6998" stroke-miterlimit="79.8403" stroke-linecap="round" stroke-linejoin="round"/>
<path d="M35.7607 40.1018V55.46" stroke="#343434" stroke-width="1.6998" stroke-miterlimit="79.8403" stroke-linecap="round" stroke-linejoin="round"/>
<path d="M35.7611 47.781L28.9785 42.6616" stroke="#343434" stroke-width="1.6998" stroke-miterlimit="79.8403" stroke-linecap="round" stroke-linejoin="round"/>
</g>
<defs>
<clipPath id="clip0_469_4156">
<rect width="320" height="104" fill="white"/>
</clipPath>
</defs>
</svg>
